<?xml version="1.0" encoding="UTF-8" standalone="no"?>
<svg
   version="1.1"
   viewBox="0 0 2239.2283 668.81879"
   fill="none"
   stroke="none"
   stroke-linecap="square"
   stroke-miterlimit="10"
   id="svg133"
   sodipodi:docname="pipeline_simple.svg"
   width="2239.2283"
   height="668.81879"
   inkscape:version="1.1.2 (0a00cf5339, 2022-02-04)"
   xmlns:inkscape="http://www.inkscape.org/namespaces/inkscape"
   xmlns:sodipodi="http://sodipodi.sourceforge.net/DTD/sodipodi-0.dtd"
   xmlns="http://www.w3.org/2000/svg"
   xmlns:svg="http://www.w3.org/2000/svg">
  <defs
     id="defs137" />
  <sodipodi:namedview
     id="namedview135"
     pagecolor="#ffffff"
     bordercolor="#666666"
     borderopacity="1.0"
     inkscape:pageshadow="2"
     inkscape:pageopacity="0.0"
     inkscape:pagecheckerboard="0"
     showgrid="false"
     fit-margin-top="0"
     fit-margin-left="0"
     fit-margin-right="0"
     fit-margin-bottom="0"
     inkscape:zoom="0.60625"
     inkscape:cx="1136.4948"
     inkscape:cy="184.74227"
     inkscape:window-width="3840"
     inkscape:window-height="2086"
     inkscape:window-x="0"
     inkscape:window-y="37"
     inkscape:window-maximized="1"
     inkscape:current-layer="g131" />
  <clipPath
     id="g2bac1599b13_0_13.0">
    <path
       d="M 0,0 H 2560 V 1440 H 0 Z"
       clip-rule="nonzero"
       id="path2" />
  </clipPath>
  <g
     clip-path="url(#g2bac1599b13_0_13.0)"
     id="g131"
     transform="translate(-143.50656,-534.105)">
    <path
       fill="#efefef"
       d="m 460.7349,536.105 h 1920 v 144 h -1920 z"
       fill-rule="evenodd"
       id="path11" />
    <path
       stroke="#000000"
       stroke-width="4"
       stroke-linejoin="round"
       stroke-linecap="butt"
       d="m 460.7349,536.105 h 1920 v 144 h -1920 z"
       fill-rule="evenodd"
       id="path13" />
    <path
       fill="#efefef"
       d="m 460.7349,709.7113 h 1920 v 144 h -1920 z"
       fill-rule="evenodd"
       id="path15" />
    <path
       stroke="#000000"
       stroke-width="4"
       stroke-linejoin="round"
       stroke-linecap="butt"
       d="m 460.7349,709.7113 h 1920 v 144 h -1920 z"
       fill-rule="evenodd"
       id="path17" />
    <path
       fill="#efefef"
       d="m 460.7349,883.31757 h 1920 v 144.00003 h -1920 z"
       fill-rule="evenodd"
       id="path19" />
    <path
       stroke="#000000"
       stroke-width="4"
       stroke-linejoin="round"
       stroke-linecap="butt"
       d="m 460.7349,883.31757 h 1920 v 144.00003 h -1920 z"
       fill-rule="evenodd"
       id="path21" />
    <path
       fill="#efefef"
       d="m 460.7349,1056.9238 h 1920 v 144 h -1920 z"
       fill-rule="evenodd"
       id="path23" />
    <path
       stroke="#000000"
       stroke-width="4"
       stroke-linejoin="round"
       stroke-linecap="butt"
       d="m 460.7349,1056.9238 h 1920 v 144 h -1920 z"
       fill-rule="evenodd"
       id="path25" />
    <path
       fill="#000000"
       fill-opacity="0"
       d="M 143.50656,558.0105 H 407.38058 V 658.19946 H 143.50656 Z"
       fill-rule="evenodd"
       id="path27" />
    <path
       fill="#4285f4"
       d="m 180.24094,632.073 q -5.07813,0 -9.57813,-1.85938 -4.48437,-1.875 -7.89062,-5.26562 -3.40625,-3.40625 -5.34375,-7.9375 -1.92188,-4.53125 -1.92188,-9.85938 0,-5.34375 1.92188,-9.875 1.9375,-4.53125 5.34375,-7.92187 3.40625,-3.40625 7.89062,-5.26563 4.5,-1.875 9.57813,-1.875 5.26562,0 9.89062,1.875 4.64063,1.85938 7.64063,5.26563 l -4,4 q -1.53125,-1.875 -3.67188,-3.14063 -2.125,-1.26562 -4.59375,-1.92187 -2.46875,-0.67188 -5.20312,-0.67188 -3.79688,0 -7.26563,1.375 -3.46875,1.35938 -6.10937,3.92188 -2.625,2.5625 -4.15625,6.17187 -1.53125,3.59375 -1.53125,8.0625 0,4.46875 1.5625,8.0625 1.5625,3.59375 4.23437,6.17188 2.67188,2.5625 6.09375,3.9375 3.4375,1.35937 7.17188,1.35937 3.20312,0 6.23437,-0.89062 3.03125,-0.90625 5.45313,-2.8125 2.4375,-1.90625 4.03125,-4.90625 1.60937,-3 1.9375,-7.1875 h -17.59375 v -5.26563 h 22.9375 q 0.125,0.85938 0.21875,1.65625 0.10937,0.79688 0.10937,1.73438 v 0 0 0.0625 q 0,5.14062 -1.73437,9.375 -1.73438,4.23437 -4.875,7.26562 -3.125,3.03125 -7.39063,4.70313 -4.26562,1.65625 -9.39062,1.65625 z m 30.18561,-1.0625 v -47.71875 h 16.0625 q 4,0 7.39062,1.79687 3.40625,1.79688 5.4375,4.96875 2.04688,3.15625 2.04688,7.35938 0,4.125 -2.04688,7.32812 -2.03125,3.20313 -5.4375,5 -3.39062,1.79688 -7.39062,1.79688 h -13.0625 v -5.39063 h 13.20312 q 2.79688,0 4.79688,-1.29687 2,-1.3125 3.09375,-3.3125 1.10937,-2 1.10937,-4.125 0,-2.14063 -1.10937,-4.14063 -1.09375,-2 -3.09375,-3.29687 -2,-1.29688 -4.79688,-1.29688 h -10.53125 v 42.32813 z m 54.80032,1.0625 q -5.20312,0 -9.14062,-2.35938 -3.92189,-2.375 -6.15627,-6.59375 -2.23437,-4.23437 -2.23437,-9.76562 v -30.0625 h 5.65625 v 30.32812 q 0,3.71875 1.32812,6.6875 1.34377,2.96875 3.96877,4.67188 2.64062,1.70312 6.57812,1.70312 3.92188,0 6.59375,-1.70312 2.67188,-1.70313 4,-4.67188 1.32813,-2.96875 1.32813,-6.6875 v -30.32812 h 5.67187 v 30.0625 q 0,5.53125 -2.10937,9.76562 -2.09375,4.21875 -6.03125,6.59375 -3.92188,2.35938 -9.45313,2.35938 z m 58.72525,0 q -4.20312,0 -7.54687,-1.82813 -3.32813,-1.82812 -5.73438,-5.09375 -2.39062,-3.26562 -3.65625,-7.59375 -1.26562,-4.34375 -1.26562,-9.34375 0,-5 1.26562,-9.32812 1.26563,-4.34375 3.65625,-7.60938 2.40625,-3.26562 5.73438,-5.09375 3.34375,-1.82812 7.54687,-1.82812 4.1875,0 7.54688,1.82812 3.375,1.82813 5.76562,5.09375 2.40625,3.26563 3.67188,7.60938 1.28125,4.32812 1.28125,9.32812 0,5 -1.28125,9.34375 -1.26563,4.32813 -3.67188,7.59375 -2.39062,3.26563 -5.76562,5.09375 -3.35938,1.82813 -7.54688,1.82813 z m 0,-5.39063 q 3.85938,0 6.65625,-2.46875 2.79688,-2.46875 4.29688,-6.65625 1.5,-4.20312 1.5,-9.34375 0,-5.20312 -1.5,-9.39062 -1.5,-4.20313 -4.29688,-6.64063 -2.79687,-2.4375 -6.65625,-2.4375 -3.875,0 -6.64062,2.4375 -2.76563,2.4375 -4.26563,6.64063 -1.5,4.1875 -1.5,9.39062 0,5.14063 1.5,9.34375 1.5,4.1875 4.26563,6.65625 2.76562,2.46875 6.64062,2.46875 z"
       fill-rule="nonzero"
       id="path29" />
    <path
       fill="#000000"
       fill-opacity="0"
       d="M 143.50656,731.6168 H 407.38058 V 831.80577 H 143.50656 Z"
       fill-rule="evenodd"
       id="path31" />
    <path
       fill="#4285f4"
       d="m 180.24094,805.6793 q -5.07813,0 -9.57813,-1.85938 -4.48437,-1.875 -7.89062,-5.26562 -3.40625,-3.40625 -5.34375,-7.9375 -1.92188,-4.53125 -1.92188,-9.85938 0,-5.34375 1.92188,-9.875 1.9375,-4.53125 5.34375,-7.92187 3.40625,-3.40625 7.89062,-5.26563 4.5,-1.875 9.57813,-1.875 5.26562,0 9.89062,1.875 4.64063,1.85938 7.64063,5.26563 l -4,4 q -1.53125,-1.875 -3.67188,-3.14063 -2.125,-1.26562 -4.59375,-1.92187 -2.46875,-0.67188 -5.20312,-0.67188 -3.79688,0 -7.26563,1.375 -3.46875,1.35938 -6.10937,3.92188 -2.625,2.5625 -4.15625,6.17187 -1.53125,3.59375 -1.53125,8.0625 0,4.46875 1.5625,8.0625 1.5625,3.59375 4.23437,6.17188 2.67188,2.5625 6.09375,3.9375 3.4375,1.35937 7.17188,1.35937 3.20312,0 6.23437,-0.89062 3.03125,-0.90625 5.45313,-2.8125 2.4375,-1.90625 4.03125,-4.90625 1.60937,-3 1.9375,-7.1875 h -17.59375 v -5.26563 h 22.9375 q 0.125,0.85938 0.21875,1.65625 0.10937,0.79688 0.10937,1.73438 v 0 0 0.0625 q 0,5.14062 -1.73437,9.375 -1.73438,4.23437 -4.875,7.26562 -3.125,3.03125 -7.39063,4.70313 -4.26562,1.65625 -9.39062,1.65625 z m 30.18561,-1.0625 v -47.71875 h 16.0625 q 4,0 7.39062,1.79687 3.40625,1.79688 5.4375,4.96875 2.04688,3.15625 2.04688,7.35938 0,4.125 -2.04688,7.32812 -2.03125,3.20313 -5.4375,5 -3.39062,1.79688 -7.39062,1.79688 h -13.0625 v -5.39063 h 13.20312 q 2.79688,0 4.79688,-1.29687 2,-1.3125 3.09375,-3.3125 1.10937,-2 1.10937,-4.125 0,-2.14063 -1.10937,-4.14063 -1.09375,-2 -3.09375,-3.29687 -2,-1.29688 -4.79688,-1.29688 h -10.53125 v 42.32813 z m 54.80032,1.0625 q -5.20312,0 -9.14062,-2.35938 -3.92189,-2.375 -6.15627,-6.59375 -2.23437,-4.23437 -2.23437,-9.76562 v -30.0625 h 5.65625 v 30.32812 q 0,3.71875 1.32812,6.6875 1.34377,2.96875 3.96877,4.67188 2.64062,1.70312 6.57812,1.70312 3.92188,0 6.59375,-1.70312 2.67188,-1.70313 4,-4.67188 1.32813,-2.96875 1.32813,-6.6875 v -30.32812 h 5.67187 v 30.0625 q 0,5.53125 -2.10937,9.76562 -2.09375,4.21875 -6.03125,6.59375 -3.92188,2.35938 -9.45313,2.35938 z m 51.194,-1.0625 v -37.65625 l -8,5.73437 -2.9375,-4.34375 13,-9.32812 h 3.59375 v 45.59375 z"
       fill-rule="nonzero"
       id="path33" />
    <path
       fill="#000000"
       fill-opacity="0"
       d="m 143.50656,905.2231 h 263.87402 v 100.189 H 143.50656 Z"
       fill-rule="evenodd"
       id="path35" />
    <path
       fill="#4285f4"
       d="m 180.24094,979.2856 q -5.07813,0 -9.57813,-1.85937 -4.48437,-1.875 -7.89062,-5.26563 -3.40625,-3.40625 -5.34375,-7.9375 -1.92188,-4.53125 -1.92188,-9.85937 0,-5.34375 1.92188,-9.875 1.9375,-4.53125 5.34375,-7.92188 3.40625,-3.40625 7.89062,-5.26562 4.5,-1.875 9.57813,-1.875 5.26562,0 9.89062,1.875 4.64063,1.85937 7.64063,5.26562 l -4,4 q -1.53125,-1.875 -3.67188,-3.14062 -2.125,-1.26563 -4.59375,-1.92188 -2.46875,-0.67187 -5.20312,-0.67187 -3.79688,0 -7.26563,1.375 -3.46875,1.35937 -6.10937,3.92187 -2.625,2.5625 -4.15625,6.17188 -1.53125,3.59375 -1.53125,8.0625 0,4.46875 1.5625,8.0625 1.5625,3.59375 4.23437,6.17187 2.67188,2.5625 6.09375,3.9375 3.4375,1.35938 7.17188,1.35938 3.20312,0 6.23437,-0.89063 3.03125,-0.90625 5.45313,-2.8125 2.4375,-1.90625 4.03125,-4.90625 1.60937,-3 1.9375,-7.1875 h -17.59375 v -5.26562 h 22.9375 q 0.125,0.85937 0.21875,1.65625 0.10937,0.79687 0.10937,1.73437 v 0 0 0.0625 q 0,5.14063 -1.73437,9.375 -1.73438,4.23438 -4.875,7.26563 -3.125,3.03125 -7.39063,4.70312 -4.26562,1.65625 -9.39062,1.65625 z m 30.18561,-1.0625 v -47.71875 h 16.0625 q 4,0 7.39062,1.79688 3.40625,1.79687 5.4375,4.96875 2.04688,3.15625 2.04688,7.35937 0,4.125 -2.04688,7.32813 -2.03125,3.20312 -5.4375,5 -3.39062,1.79687 -7.39062,1.79687 h -13.0625 v -5.39062 h 13.20312 q 2.79688,0 4.79688,-1.29688 2,-1.3125 3.09375,-3.3125 1.10937,-2 1.10937,-4.125 0,-2.14062 -1.10937,-4.14062 -1.09375,-2 -3.09375,-3.29688 -2,-1.29687 -4.79688,-1.29687 h -10.53125 v 42.32812 z m 54.80032,1.0625 q -5.20312,0 -9.14062,-2.35937 -3.92189,-2.375 -6.15627,-6.59375 -2.23437,-4.23438 -2.23437,-9.76563 v -30.0625 h 5.65625 v 30.32813 q 0,3.71875 1.32812,6.6875 1.34377,2.96875 3.96877,4.67187 2.64062,1.70313 6.57812,1.70313 3.92188,0 6.59375,-1.70313 2.67188,-1.70312 4,-4.67187 1.32813,-2.96875 1.32813,-6.6875 v -30.32813 h 5.67187 v 30.0625 q 0,5.53125 -2.10937,9.76563 -2.09375,4.21875 -6.03125,6.59375 -3.92188,2.35937 -9.45313,2.35937 z m 40.2565,-1.0625 v -5.67187 q 0.20313,-0.1875 1.59375,-1.59375 1.40625,-1.40625 3.46875,-3.5 2.0625,-2.09375 4.32813,-4.39063 2.28125,-2.3125 4.23437,-4.34375 1.96875,-2.03125 3.10938,-3.29687 2.0625,-2.26563 3.32812,-3.89063 1.26563,-1.64062 1.85938,-3.20312 0.60937,-1.57813 0.60937,-3.64063 0,-1.9375 -1,-3.70312 -1,-1.76563 -2.90625,-2.89063 -1.89062,-1.14062 -4.76562,-1.14062 -2.65625,0 -4.5,1.14062 -1.82813,1.125 -2.82813,2.70313 -1,1.5625 -1.32812,2.82812 l -5.14063,-2.0625 q 0.40625,-1.40625 1.4375,-3.09375 1.03125,-1.70312 2.73438,-3.26562 1.70312,-1.57813 4.125,-2.60938 2.4375,-1.03125 5.64062,-1.03125 4.32813,0 7.53125,1.82813 3.20313,1.82812 4.96875,4.79687 1.76563,2.96875 1.76563,6.4375 0,3 -1.14063,5.70313 -1.125,2.6875 -2.79687,4.89062 -1.67188,2.20313 -3.40625,3.875 -0.85938,0.85938 -2.39063,2.39063 -1.53125,1.53125 -3.26562,3.29687 -1.73438,1.76563 -3.40625,3.4375 -1.65625,1.67188 -2.89063,2.9375 -1.23437,1.26563 -1.70312,1.65625 v 0 h 21.53125 v 5.40625 z"
       fill-rule="nonzero"
       id="path37" />
    <path
       fill="#000000"
       fill-opacity="0"
       d="m 143.50656,1078.8293 h 263.87402 v 100.1891 H 143.50656 Z"
       fill-rule="evenodd"
       id="path39" />
    <path
       fill="#4285f4"
       d="m 180.24094,1152.8918 q -5.07813,0 -9.57813,-1.8594 -4.48437,-1.875 -7.89062,-5.2656 -3.40625,-3.4062 -5.34375,-7.9375 -1.92188,-4.5312 -1.92188,-9.8594 0,-5.3437 1.92188,-9.875 1.9375,-4.5312 5.34375,-7.9218 3.40625,-3.4063 7.89062,-5.2657 4.5,-1.875 9.57813,-1.875 5.26562,0 9.89062,1.875 4.64063,1.8594 7.64063,5.2657 l -4,4 q -1.53125,-1.875 -3.67188,-3.1407 -2.125,-1.2656 -4.59375,-1.9218 -2.46875,-0.6719 -5.20312,-0.6719 -3.79688,0 -7.26563,1.375 -3.46875,1.3594 -6.10937,3.9219 -2.625,2.5625 -4.15625,6.1718 -1.53125,3.5938 -1.53125,8.0625 0,4.4688 1.5625,8.0625 1.5625,3.5938 4.23437,6.1719 2.67188,2.5625 6.09375,3.9375 3.4375,1.3594 7.17188,1.3594 3.20312,0 6.23437,-0.8906 3.03125,-0.9063 5.45313,-2.8125 2.4375,-1.9063 4.03125,-4.9063 1.60937,-3 1.9375,-7.1875 h -17.59375 v -5.2656 h 22.9375 q 0.125,0.8594 0.21875,1.6562 0.10937,0.7969 0.10937,1.7344 v 0 0 0.062 q 0,5.1406 -1.73437,9.375 -1.73438,4.2344 -4.875,7.2656 -3.125,3.0313 -7.39063,4.7032 -4.26562,1.6562 -9.39062,1.6562 z m 30.18561,-1.0625 v -47.7187 h 16.0625 q 4,0 7.39062,1.7968 3.40625,1.7969 5.4375,4.9688 2.04688,3.1562 2.04688,7.3594 0,4.125 -2.04688,7.3281 -2.03125,3.2031 -5.4375,5 -3.39062,1.7969 -7.39062,1.7969 h -13.0625 v -5.3907 h 13.20312 q 2.79688,0 4.79688,-1.2968 2,-1.3125 3.09375,-3.3125 1.10937,-2 1.10937,-4.125 0,-2.1407 -1.10937,-4.1407 -1.09375,-2 -3.09375,-3.2968 -2,-1.2969 -4.79688,-1.2969 h -10.53125 v 42.3281 z m 54.80032,1.0625 q -5.20312,0 -9.14062,-2.3594 -3.92189,-2.375 -6.15627,-6.5937 -2.23437,-4.2344 -2.23437,-9.7656 v -30.0625 h 5.65625 v 30.3281 q 0,3.7187 1.32812,6.6875 1.34377,2.9687 3.96877,4.6719 2.64062,1.7031 6.57812,1.7031 3.92188,0 6.59375,-1.7031 2.67188,-1.7032 4,-4.6719 1.32813,-2.9688 1.32813,-6.6875 v -30.3281 h 5.67187 v 30.0625 q 0,5.5312 -2.10937,9.7656 -2.09375,4.2187 -6.03125,6.5937 -3.92188,2.3594 -9.45313,2.3594 z m 54.64713,0 q -2.65625,0 -5.65625,-1.125 -3,-1.1406 -5.46875,-3.6406 -2.46875,-2.5 -3.67188,-6.625 l 5.14063,-2.1406 q 1.125,3.875 3.65625,6.0156 2.54687,2.125 6,2.125 2.60937,0 4.76562,-1.0938 2.17188,-1.1093 3.46875,-3.0312 1.29688,-1.9375 1.29688,-4.4063 0,-2.4062 -1.32813,-4.2968 -1.32812,-1.9063 -3.53125,-3 -2.20312,-1.1094 -4.85937,-1.1094 h -3.9375 v -5.2656 h 3.53125 q 2.40625,0 4.35937,-0.9219 1.96875,-0.9375 3.09375,-2.6719 1.14063,-1.7344 1.14063,-4.0625 0,-3.2656 -2.4375,-5.1719 -2.42188,-1.9062 -5.89063,-1.9062 -2.53125,0 -4.20312,0.9687 -1.65625,0.9688 -2.625,2.4063 -0.96875,1.4219 -1.4375,2.8281 l -5.20313,-2.2031 q 0.67188,-2 2.32813,-4.1563 1.67187,-2.1718 4.4375,-3.7031 2.76562,-1.5312 6.70312,-1.5312 4.0625,0 7.23438,1.6093 3.17187,1.5938 5,4.4219 1.82812,2.8281 1.82812,6.4375 0,2.5313 -0.90625,4.4688 -0.89062,1.9218 -2.32812,3.2656 -1.42188,1.3281 -3.03125,2.125 v 0.2656 q 2.14062,0.8594 3.90625,2.4375 1.76562,1.5625 2.82812,3.7344 1.0625,2.1562 1.0625,4.9531 0,4.0781 -2.0625,7.25 -2.0625,3.1563 -5.53125,4.9531 -3.46875,1.7969 -7.67187,1.7969 z"
       fill-rule="nonzero"
       id="path41" />
    <path
       fill="#d2e9ff"
       d="m 460.7349,536.105 h 156.47244 v 144 H 460.7349 Z"
       fill-rule="evenodd"
       id="path43" />
    <path
       stroke="#000000"
       stroke-width="2"
       stroke-linejoin="round"
       stroke-linecap="butt"
       d="m 460.7349,536.105 h 156.47244 v 144 H 460.7349 Z"
       fill-rule="evenodd"
       id="path45" />
    <path
       fill="#000000"
       d="m 520.2855,624.90497 v -33.40625 h 19.3125 v 3.78125 h -15.34375 v 29.625 z m 2.09375,-14.46875 v -3.73437 h 15.73437 v 3.73437 z"
       fill-rule="nonzero"
       id="path47" />
    <path
       fill="#000000"
       d="m 551.3412,642.90497 q -1.95313,0 -3.51563,-0.85937 -1.54687,-0.85938 -2.67187,-2.375 -1.125,-1.53125 -1.71875,-3.54688 -0.57813,-2.03125 -0.57813,-4.35937 0,-2.32813 0.57813,-4.34375 0.59375,-2.03125 1.71875,-3.54688 1.125,-1.53125 2.67187,-2.39062 1.5625,-0.85938 3.51563,-0.85938 1.96875,0 3.53125,0.85938 1.57812,0.85937 2.6875,2.39062 1.125,1.51563 1.71875,3.54688 0.59375,2.01562 0.59375,4.34375 0,2.32812 -0.59375,4.35937 -0.59375,2.01563 -1.71875,3.54688 -1.10938,1.51562 -2.6875,2.375 -1.5625,0.85937 -3.53125,0.85937 z m 0,-2.51562 q 1.8125,0 3.10937,-1.15625 1.3125,-1.15625 2,-3.10938 0.70313,-1.96875 0.70313,-4.35937 0,-2.42188 -0.70313,-4.375 -0.6875,-1.96875 -2,-3.09375 -1.29687,-1.14063 -3.10937,-1.14063 -1.79688,0 -3.09375,1.14063 -1.29688,1.125 -2,3.09375 -0.6875,1.95312 -0.6875,4.375 0,2.39062 0.6875,4.35937 0.70312,1.95313 2,3.10938 1.29687,1.15625 3.09375,1.15625 z"
       fill-rule="nonzero"
       id="path49" />
    <path
       fill="#fbe4cf"
       d="m 615.31757,709.7113 h 156.47247 v 144 H 615.31757 Z"
       fill-rule="evenodd"
       id="path51" />
    <path
       stroke="#000000"
       stroke-width="2"
       stroke-linejoin="round"
       stroke-linecap="butt"
       d="m 615.31757,709.7113 h 156.47247 v 144 H 615.31757 Z"
       fill-rule="evenodd"
       id="path53" />
    <path
       fill="#000000"
       d="m 678.99023,798.5113 v -33.40625 h 19.3125 v 3.78125 h -15.34375 v 29.625 z m 2.09375,-14.46875 v -3.73438 h 15.73437 v 3.73438 z"
       fill-rule="nonzero"
       id="path55" />
    <path
       fill="#000000"
       d="m 706.5302,816.0113 v -17.57813 l -3.73437,2.67188 -1.35938,-2.01563 6.0625,-4.35937 h 1.67188 v 21.28125 z"
       fill-rule="nonzero"
       id="path57" />
    <path
       fill="#d6fecf"
       d="M 771.79004,883.31757 H 928.26245 V 1027.3176 H 771.79004 Z"
       fill-rule="evenodd"
       id="path59" />
    <path
       stroke="#000000"
       stroke-width="2"
       stroke-linejoin="round"
       stroke-linecap="butt"
       d="M 771.79004,883.31757 H 928.26245 V 1027.3176 H 771.79004 Z"
       fill-rule="evenodd"
       id="path61" />
    <path
       fill="#000000"
       d="m 833.19165,972.1176 v -33.40625 h 19.3125 v 3.78125 H 837.1604 v 29.625 z m 2.09375,-14.46875 v -3.73437 h 15.73437 v 3.73437 z"
       fill-rule="nonzero"
       id="path63" />
    <path
       fill="#000000"
       d="m 855.63794,989.6176 v -2.64062 q 0.0937,-0.0937 0.73437,-0.75 0.65625,-0.65625 1.625,-1.625 0.96875,-0.98438 2.01563,-2.0625 1.0625,-1.07813 1.96875,-2.01563 0.92187,-0.95312 1.45312,-1.54687 0.96875,-1.0625 1.5625,-1.8125 0.59375,-0.76563 0.875,-1.5 0.28125,-0.73438 0.28125,-1.6875 0,-0.90625 -0.46875,-1.73438 -0.46875,-0.82812 -1.35937,-1.34375 -0.89063,-0.53125 -2.21875,-0.53125 -1.25,0 -2.10938,0.53125 -0.84375,0.51563 -1.3125,1.25 -0.46875,0.73438 -0.625,1.32813 l -2.39062,-0.96875 q 0.1875,-0.65625 0.65625,-1.4375 0.48437,-0.79688 1.28125,-1.53125 0.79687,-0.73438 1.92187,-1.21875 1.14063,-0.48438 2.64063,-0.48438 2.01562,0 3.5,0.85938 1.5,0.85937 2.32812,2.25 0.82813,1.375 0.82813,3 0,1.39062 -0.53125,2.65625 -0.53125,1.25 -1.3125,2.28125 -0.76563,1.03125 -1.57813,1.8125 -0.40625,0.39062 -1.125,1.10937 -0.71875,0.71875 -1.53125,1.54688 -0.79687,0.82812 -1.57812,1.60937 -0.78125,0.76563 -1.35938,1.35938 -0.5625,0.59375 -0.78125,0.78125 v 0 h 10.04688 v 2.51562 z"
       fill-rule="nonzero"
       id="path65" />
    <path
       fill="#f7cecd"
       d="m 928.26245,1056.9238 h 156.47245 v 144 H 928.26245 Z"
       fill-rule="evenodd"
       id="path67" />
    <path
       stroke="#000000"
       stroke-width="2"
       stroke-linejoin="round"
       stroke-linecap="butt"
       d="m 928.26245,1056.9238 h 156.47245 v 144 H 928.26245 Z"
       fill-rule="evenodd"
       id="path69" />
    <path
       fill="#000000"
       d="m 989.5241,1145.7239 v -33.4062 h 19.3125 v 3.7812 h -15.34375 v 29.625 z m 2.09375,-14.4687 v -3.7344 h 15.73435 v 3.7344 z"
       fill-rule="nonzero"
       id="path71" />
    <path
       fill="#000000"
       d="m 1018.6892,1163.7239 q -1.25,0 -2.6563,-0.5312 -1.3906,-0.5313 -2.5469,-1.6875 -1.1562,-1.1719 -1.7031,-3.1094 l 2.3906,-0.9844 q 0.5313,1.7969 1.7032,2.7969 1.1875,1 2.8125,1 1.2031,0 2.2187,-0.5156 1.0156,-0.5157 1.6094,-1.4219 0.6094,-0.9063 0.6094,-2.0469 0,-1.125 -0.625,-2 -0.6094,-0.8906 -1.6407,-1.4062 -1.0312,-0.5157 -2.2656,-0.5157 h -1.8437 v -2.4531 h 1.6562 q 1.1094,0 2.0313,-0.4375 0.9218,-0.4375 1.4531,-1.25 0.5312,-0.8125 0.5312,-1.8906 0,-1.5313 -1.1406,-2.4063 -1.1406,-0.8906 -2.75,-0.8906 -1.1875,0 -1.9687,0.4531 -0.7813,0.4375 -1.2344,1.1094 -0.4375,0.6719 -0.6563,1.3281 l -2.4218,-1.0312 q 0.2968,-0.9375 1.0781,-1.9375 0.7812,-1.0156 2.0625,-1.7344 1.2969,-0.7187 3.1406,-0.7187 1.8906,0 3.3594,0.75 1.4844,0.75 2.3437,2.0781 0.8593,1.3125 0.8593,3 0,1.1719 -0.4218,2.0781 -0.4219,0.9063 -1.0937,1.5313 -0.6719,0.6093 -1.4063,0.9843 v 0.125 q 0.9844,0.4063 1.8125,1.1407 0.8281,0.7343 1.3281,1.75 0.5,1 0.5,2.3125 0,1.8906 -0.9688,3.375 -0.9686,1.4687 -2.5937,2.3125 -1.6093,0.8437 -3.5624,0.8437 z"
       fill-rule="nonzero"
       id="path73" />
    <path
       fill="#f7cecd"
       d="m 1084.7349,1056.9238 h 264 v 144 h -264 z"
       fill-rule="evenodd"
       id="path75" />
    <path
       stroke="#000000"
       stroke-width="2"
       stroke-linejoin="round"
       stroke-linecap="butt"
       d="m 1084.7349,1056.9238 h 264 v 144 h -264 z"
       fill-rule="evenodd"
       id="path77" />
    <path
       fill="#000000"
       d="m 1198.0107,1145.7239 v -33.4062 h 11.9844 q 2.5781,0 4.7344,1.1406 2.1718,1.1406 3.5,3.1719 1.3281,2.0312 1.3281,4.6875 0,2.4843 -1.2656,4.2968 -1.25,1.8125 -3.2969,2.75 v 0.1875 q 2.4687,0.7969 4.0781,2.8594 1.6094,2.0469 1.6094,4.8438 0,2.7968 -1.4063,4.9218 -1.3906,2.125 -3.6875,3.3438 -2.2812,1.2031 -4.9375,1.2031 z m 2.0938,-15.2031 v -3.7813 h 9.8906 q 1.7812,0 3.0312,-0.8125 1.2657,-0.8281 1.9375,-2.0312 0.6875,-1.2188 0.6875,-2.4844 0,-1.25 -0.6562,-2.4687 -0.6563,-1.2188 -1.875,-2.0313 -1.2031,-0.8125 -2.9375,-0.8125 h -8.2031 v 25.8438 h 8.9062 q 1.7656,0 3.0781,-0.8594 1.3125,-0.8594 2,-2.1875 0.7032,-1.3438 0.7032,-2.6875 0,-1.4063 -0.7188,-2.7031 -0.7187,-1.3125 -2.0469,-2.1407 -1.3281,-0.8437 -3.2031,-0.8437 z"
       fill-rule="nonzero"
       id="path79" />
    <path
       fill="#000000"
       d="m 1230.6749,1163.7239 q -1.25,0 -2.6562,-0.5312 -1.3907,-0.5313 -2.5469,-1.6875 -1.1563,-1.1719 -1.7031,-3.1094 l 2.3906,-0.9844 q 0.5312,1.7969 1.7031,2.7969 1.1875,1 2.8125,1 1.2031,0 2.2188,-0.5156 1.0156,-0.5157 1.6093,-1.4219 0.6094,-0.9063 0.6094,-2.0469 0,-1.125 -0.625,-2 -0.6094,-0.8906 -1.6406,-1.4062 -1.0313,-0.5157 -2.2656,-0.5157 h -1.8438 v -2.4531 h 1.6563 q 1.1093,0 2.0312,-0.4375 0.9219,-0.4375 1.4531,-1.25 0.5313,-0.8125 0.5313,-1.8906 0,-1.5313 -1.1406,-2.4063 -1.1407,-0.8906 -2.75,-0.8906 -1.1875,0 -1.9688,0.4531 -0.7812,0.4375 -1.2344,1.1094 -0.4375,0.6719 -0.6562,1.3281 l -2.4219,-1.0312 q 0.2969,-0.9375 1.0781,-1.9375 0.7813,-1.0156 2.0625,-1.7344 1.2969,-0.7187 3.1407,-0.7187 1.8906,0 3.3593,0.75 1.4844,0.75 2.3438,2.0781 0.8594,1.3125 0.8594,3 0,1.1719 -0.4219,2.0781 -0.4219,0.9063 -1.0938,1.5313 -0.6718,0.6093 -1.4062,0.9843 v 0.125 q 0.9844,0.4063 1.8125,1.1407 0.8281,0.7343 1.3281,1.75 0.5,1 0.5,2.3125 0,1.8906 -0.9687,3.375 -0.9688,1.4687 -2.5938,2.3125 -1.6094,0.8437 -3.5625,0.8437 z"
       fill-rule="nonzero"
       id="path81" />
    <path
       fill="#d6fecf"
       d="m 1348.7349,883.31757 h 264 v 144.00003 h -264 z"
       fill-rule="evenodd"
       id="path83" />
    <path
       stroke="#000000"
       stroke-width="2"
       stroke-linejoin="round"
       stroke-linecap="butt"
       d="m 1348.7349,883.31757 h 264 v 144.00003 h -264 z"
       fill-rule="evenodd"
       id="path85" />
    <path
       fill="#000000"
       d="m 1462.1508,972.1176 v -33.40625 h 11.9844 q 2.5781,0 4.7343,1.14063 2.1719,1.14062 3.5,3.17187 1.3282,2.03125 1.3282,4.6875 0,2.48438 -1.2657,4.29688 -1.25,1.8125 -3.2968,2.75 v 0.1875 q 2.4687,0.79687 4.0781,2.85937 1.6094,2.04688 1.6094,4.84375 0,2.79688 -1.4063,4.92188 -1.3906,2.125 -3.6875,3.34375 -2.2812,1.20312 -4.9375,1.20312 z m 2.0937,-15.20312 v -3.78125 h 9.8907 q 1.7812,0 3.0312,-0.8125 1.2656,-0.82813 1.9375,-2.03125 0.6875,-1.21875 0.6875,-2.48438 0,-1.25 -0.6562,-2.46875 -0.6563,-1.21875 -1.875,-2.03125 -1.2032,-0.8125 -2.9375,-0.8125 h -8.2032 v 25.84375 h 8.9063 q 1.7656,0 3.0781,-0.85937 1.3125,-0.85938 2,-2.1875 0.7031,-1.34375 0.7031,-2.6875 0,-1.40625 -0.7187,-2.70313 -0.7188,-1.3125 -2.0469,-2.14062 -1.3281,-0.84375 -3.2031,-0.84375 z"
       fill-rule="nonzero"
       id="path87" />
    <path
       fill="#000000"
       d="m 1488.0962,989.6176 v -2.64062 q 0.094,-0.0937 0.7344,-0.75 0.6562,-0.65625 1.625,-1.625 0.9687,-0.98438 2.0156,-2.0625 1.0625,-1.07813 1.9688,-2.01563 0.9218,-0.95312 1.4531,-1.54687 0.9687,-1.0625 1.5625,-1.8125 0.5937,-0.76563 0.875,-1.5 0.2812,-0.73438 0.2812,-1.6875 0,-0.90625 -0.4687,-1.73438 -0.4688,-0.82812 -1.3594,-1.34375 -0.8906,-0.53125 -2.2187,-0.53125 -1.25,0 -2.1094,0.53125 -0.8438,0.51563 -1.3125,1.25 -0.4688,0.73438 -0.625,1.32813 l -2.3906,-0.96875 q 0.1875,-0.65625 0.6562,-1.4375 0.4844,-0.79688 1.2813,-1.53125 0.7968,-0.73438 1.9218,-1.21875 1.1407,-0.48438 2.6407,-0.48438 2.0156,0 3.5,0.85938 1.5,0.85937 2.3281,2.25 0.8281,1.375 0.8281,3 0,1.39062 -0.5312,2.65625 -0.5313,1.25 -1.3125,2.28125 -0.7657,1.03125 -1.5782,1.8125 -0.4062,0.39062 -1.125,1.10937 -0.7187,0.71875 -1.5312,1.54688 -0.7969,0.82812 -1.5781,1.60937 -0.7813,0.76563 -1.3594,1.35938 -0.5625,0.59375 -0.7813,0.78125 v 0 h 10.0469 v 2.51562 z"
       fill-rule="nonzero"
       id="path89" />
    <path
       fill="#fbe4cf"
       d="m 1612.7349,709.7113 h 264 v 144 h -264 z"
       fill-rule="evenodd"
       id="path91" />
    <path
       stroke="#000000"
       stroke-width="2"
       stroke-linejoin="round"
       stroke-linecap="butt"
       d="m 1612.7349,709.7113 h 264 v 144 h -264 z"
       fill-rule="evenodd"
       id="path93" />
    <path
       fill="#000000"
       d="m 1728.4218,798.5113 v -33.40625 h 11.9844 q 2.5781,0 4.7344,1.14062 2.1718,1.14063 3.5,3.17188 1.3281,2.03125 1.3281,4.6875 0,2.48437 -1.2656,4.29687 -1.25,1.8125 -3.2969,2.75 v 0.1875 q 2.4687,0.79688 4.0781,2.85938 1.6094,2.04687 1.6094,4.84375 0,2.79687 -1.4063,4.92187 -1.3906,2.125 -3.6875,3.34375 -2.2812,1.20313 -4.9375,1.20313 z m 2.0938,-15.20313 v -3.78125 h 9.8906 q 1.7812,0 3.0312,-0.8125 1.2657,-0.82812 1.9375,-2.03125 0.6875,-1.21875 0.6875,-2.48437 0,-1.25 -0.6562,-2.46875 -0.6563,-1.21875 -1.875,-2.03125 -1.2031,-0.8125 -2.9375,-0.8125 h -8.2031 v 25.84375 h 8.9062 q 1.7656,0 3.0781,-0.85938 1.3125,-0.85937 2,-2.1875 0.7032,-1.34375 0.7032,-2.6875 0,-1.40625 -0.7188,-2.70312 -0.7187,-1.3125 -2.0469,-2.14063 -1.3281,-0.84375 -3.2031,-0.84375 z"
       fill-rule="nonzero"
       id="path95" />
    <path
       fill="#000000"
       d="m 1759.4609,816.0113 v -17.57813 l -3.7344,2.67188 -1.3593,-2.01563 6.0625,-4.35937 h 1.6718 v 21.28125 z"
       fill-rule="nonzero"
       id="path97" />
    <path
       fill="#d2e9ff"
       d="m 1876.7349,536.105 h 264 v 144 h -264 z"
       fill-rule="evenodd"
       id="path99" />
    <path
       stroke="#000000"
       stroke-width="2"
       stroke-linejoin="round"
       stroke-linecap="butt"
       d="m 1876.7349,536.105 h 264 v 144 h -264 z"
       fill-rule="evenodd"
       id="path101" />
    <path
       fill="#000000"
       d="m 1988.2997,624.90497 v -33.40625 h 11.9844 q 2.5781,0 4.7344,1.14063 2.1718,1.14062 3.5,3.17187 1.3281,2.03125 1.3281,4.6875 0,2.48438 -1.2656,4.29688 -1.25,1.8125 -3.2969,2.75 v 0.1875 q 2.4687,0.79687 4.0781,2.85937 1.6094,2.04688 1.6094,4.84375 0,2.79688 -1.4063,4.92188 -1.3906,2.125 -3.6875,3.34375 -2.2812,1.20312 -4.9375,1.20312 z m 2.0938,-15.20312 v -3.78125 h 9.8906 q 1.7812,0 3.0312,-0.8125 1.2657,-0.82813 1.9375,-2.03125 0.6875,-1.21875 0.6875,-2.48438 0,-1.25 -0.6562,-2.46875 -0.6563,-1.21875 -1.875,-2.03125 -1.2031,-0.8125 -2.9375,-0.8125 h -8.2031 v 25.84375 h 8.9062 q 1.7656,0 3.0781,-0.85937 1.3125,-0.85938 2,-2.1875 0.7032,-1.34375 0.7032,-2.6875 0,-1.40625 -0.7188,-2.70313 -0.7187,-1.3125 -2.0469,-2.14062 -1.3281,-0.84375 -3.2031,-0.84375 z"
       fill-rule="nonzero"
       id="path103" />
    <path
       fill="#000000"
       d="m 2022.8546,642.90497 q -1.9531,0 -3.5156,-0.85937 -1.5469,-0.85938 -2.6719,-2.375 -1.125,-1.53125 -1.7188,-3.54688 -0.5781,-2.03125 -0.5781,-4.35937 0,-2.32813 0.5781,-4.34375 0.5938,-2.03125 1.7188,-3.54688 1.125,-1.53125 2.6719,-2.39062 1.5625,-0.85938 3.5156,-0.85938 1.9687,0 3.5312,0.85938 1.5782,0.85937 2.6875,2.39062 1.125,1.51563 1.7188,3.54688 0.5937,2.01562 0.5937,4.34375 0,2.32812 -0.5937,4.35937 -0.5938,2.01563 -1.7188,3.54688 -1.1093,1.51562 -2.6875,2.375 -1.5625,0.85937 -3.5312,0.85937 z m 0,-2.51562 q 1.8125,0 3.1094,-1.15625 1.3125,-1.15625 2,-3.10938 0.7031,-1.96875 0.7031,-4.35937 0,-2.42188 -0.7031,-4.375 -0.6875,-1.96875 -2,-3.09375 -1.2969,-1.14063 -3.1094,-1.14063 -1.7969,0 -3.0938,1.14063 -1.2968,1.125 -2,3.09375 -0.6875,1.95312 -0.6875,4.375 0,2.39062 0.6875,4.35937 0.7032,1.95313 2,3.10938 1.2969,1.15625 3.0938,1.15625 z"
       fill-rule="nonzero"
       id="path105" />
    <path
       fill="#d2e9ff"
       d="m 2140.7349,536.105 h 240 v 144 h -240 z"
       fill-rule="evenodd"
       id="path107" />
    <path
       stroke="#000000"
       stroke-width="2"
       stroke-linejoin="round"
       stroke-linecap="butt"
       d="m 2140.7349,536.105 h 240 v 144 h -240 z"
       fill-rule="evenodd"
       id="path109" />
    <path
       fill="#000000"
       d="m 2199.4456,625.65497 q -3.625,0 -6.3906,-1.65625 -2.75,-1.65625 -4.3125,-4.60937 -1.5625,-2.96875 -1.5625,-6.84375 v -21.04688 h 3.9687 v 21.23438 q 0,2.60937 0.9219,4.6875 0.9375,2.07812 2.7813,3.26562 1.8437,1.1875 4.5937,1.1875 2.7656,0 4.625,-1.1875 1.8594,-1.1875 2.7969,-3.26562 0.9375,-2.07813 0.9375,-4.6875 v -21.23438 h 3.9687 v 21.04688 q 0,3.875 -1.4687,6.84375 -1.4688,2.95312 -4.2344,4.60937 -2.75,1.65625 -6.625,1.65625 z m 18.2007,9.32813 v -33.875 h 3.7812 v 3.54687 h 0.1875 q 0.6563,-1.125 1.8438,-2.09375 1.1875,-0.98437 2.7656,-1.59375 1.5938,-0.60937 3.5,-0.60937 3.2813,0 5.8438,1.64062 2.5625,1.625 4.0468,4.48438 1.5,2.84375 1.5,6.53125 0,3.67187 -1.5,6.53125 -1.4843,2.84375 -4.0468,4.48437 -2.5625,1.625 -5.8438,1.625 -2.8437,0 -4.9844,-1.29687 -2.1406,-1.3125 -3.125,-2.95313 h -0.1875 l 0.1875,3.26563 v 10.3125 z m 11.6719,-12.92188 q 2.0468,0 3.8437,-1.09375 1.7969,-1.09375 2.8906,-3.14062 1.0938,-2.0625 1.0938,-4.8125 0,-2.8125 -1.0938,-4.82813 -1.0937,-2.03125 -2.8906,-3.125 -1.7969,-1.10937 -3.8437,-1.10937 -2.0625,0 -3.8594,1.10937 -1.7969,1.09375 -2.9219,3.125 -1.1094,2.01563 -1.1094,4.82813 0,2.79687 1.1094,4.82812 1.125,2.03125 2.9219,3.125 1.7969,1.09375 3.8594,1.09375 z m 26.5402,3.59375 q -3.2187,0 -5.8125,-1.625 -2.5781,-1.64062 -4.0781,-4.48437 -1.5,-2.85938 -1.5,-6.53125 0,-3.6875 1.5,-6.53125 1.5,-2.85938 4.0781,-4.48438 2.5938,-1.64062 5.8125,-1.64062 1.9219,0 3.5,0.60937 1.5938,0.60938 2.7813,1.59375 1.1875,0.96875 1.8437,2.09375 h 0.1875 l -0.1875,-3.3125 v -9.84375 h 3.9532 v 33.40625 h -3.7657 v -3.5 h -0.1875 q -0.6562,1.07813 -1.8437,2.0625 -1.1875,0.96875 -2.7813,1.57813 -1.5781,0.60937 -3.5,0.60937 z m 0.4219,-3.59375 q 2.0469,0 3.8438,-1.09375 1.7968,-1.09375 2.9218,-3.125 1.125,-2.03125 1.125,-4.82812 0,-2.8125 -1.125,-4.82813 -1.125,-2.03125 -2.9218,-3.125 -1.7969,-1.10937 -3.8438,-1.10937 -2.0469,0 -3.8437,1.10937 -1.7969,1.09375 -2.9219,3.125 -1.125,2.01563 -1.125,4.82813 0,2.75 1.125,4.8125 1.125,2.04687 2.9219,3.14062 1.7968,1.09375 3.8437,1.09375 z m 24.916,3.59375 q -2.6562,0 -4.6718,-1.03125 -2,-1.03125 -3.1407,-2.82812 -1.1406,-1.79688 -1.1406,-4.07813 0,-2.60937 1.3438,-4.40625 1.3593,-1.79687 3.6406,-2.70312 2.2812,-0.90625 5.0469,-0.90625 1.5781,0 2.9218,0.25 1.3594,0.25 2.3594,0.60937 1.0156,0.34375 1.5156,0.67188 v -1.4375 q 0,-2.71875 -1.9062,-4.29688 -1.9063,-1.59375 -4.6719,-1.59375 -1.9531,0 -3.6562,0.875 -1.7032,0.85938 -2.6875,2.39063 l -2.9844,-2.23438 q 0.9375,-1.40625 2.3281,-2.42187 1.4063,-1.03125 3.2031,-1.59375 1.7969,-0.5625 3.7969,-0.5625 4.8594,0 7.6094,2.57812 2.75,2.5625 2.75,6.90625 v 15.0625 h -3.7813 v -3.40625 h -0.1718 q -0.6094,1.03125 -1.7344,1.98438 -1.125,0.95312 -2.6406,1.5625 -1.5157,0.60937 -3.3282,0.60937 z m 0.375,-3.5 q 2.0469,0 3.75,-1.03125 1.7032,-1.03125 2.7188,-2.75 1.0312,-1.73437 1.0312,-3.78125 -1.0625,-0.75 -2.6718,-1.20312 -1.6094,-0.46875 -3.5313,-0.46875 -3.4062,0 -5,1.40625 -1.5781,1.39062 -1.5781,3.4375 0,1.96875 1.4844,3.1875 1.5,1.20312 3.7968,1.20312 z m 14.6985,-21.04687 h 13.9375 v 3.59375 h -13.9375 z m 4.1406,17.54687 v -24.26562 h 3.9688 v 23.28125 q 0,1.875 0.7656,2.90625 0.7813,1.01562 2.5469,1.01562 0.7969,0 1.4531,-0.23437 0.6563,-0.23438 1.1563,-0.5625 v 3.875 q -0.5938,0.28125 -1.3282,0.4375 -0.7187,0.17187 -1.9375,0.17187 -2.9843,0 -4.8125,-1.75 -1.8125,-1.75 -1.8125,-4.875 z m 24.0809,7 q -3.4532,0 -6.1407,-1.625 -2.6718,-1.64062 -4.2031,-4.48437 -1.5156,-2.85938 -1.5156,-6.48438 0,-3.40625 1.4219,-6.29687 1.4375,-2.90625 4.0156,-4.65625 2.5937,-1.75 6.0937,-1.75 3.5469,0 6.0782,1.5625 2.5468,1.5625 3.9218,4.32812 1.3907,2.75 1.3907,6.29688 0,0.32812 -0.031,0.65625 -0.016,0.3125 -0.062,0.54687 h -20.4844 v -3.26562 h 16.375 q -0.047,-0.96875 -0.4531,-2.10938 -0.3906,-1.15625 -1.25,-2.15625 -0.8594,-1 -2.2031,-1.625 -1.3281,-0.64062 -3.2813,-0.64062 -2.3281,0 -4.0312,1.20312 -1.7031,1.1875 -2.625,3.23438 -0.9063,2.04687 -0.9063,4.67187 0,3.03125 1.1719,5.03125 1.1719,2 3,2.98438 1.8438,0.98437 3.8594,0.98437 2.6094,0 4.3125,-1.23437 1.7031,-1.23438 2.7344,-3.0625 l 3.3593,1.64062 q -1.4062,2.70313 -4.0156,4.48438 -2.6094,1.76562 -6.5312,1.76562 z"
       fill-rule="nonzero"
       id="path111" />
    <path
       fill="#fbe4cf"
       d="m 1876.7349,709.7113 h 240 v 144 h -240 z"
       fill-rule="evenodd"
       id="path113" />
    <path
       stroke="#000000"
       stroke-width="2"
       stroke-linejoin="round"
       stroke-linecap="butt"
       d="m 1876.7349,709.7113 h 240 v 144 h -240 z"
       fill-rule="evenodd"
       id="path115" />
    <path
       fill="#000000"
       d="m 1935.4456,799.2613 q -3.625,0 -6.3906,-1.65625 -2.75,-1.65625 -4.3125,-4.60938 -1.5625,-2.96875 -1.5625,-6.84375 v -21.04687 h 3.9687 v 21.23437 q 0,2.60938 0.9219,4.6875 0.9375,2.07813 2.7813,3.26563 1.8437,1.1875 4.5937,1.1875 2.7656,0 4.625,-1.1875 1.8594,-1.1875 2.7969,-3.26563 0.9375,-2.07812 0.9375,-4.6875 v -21.23437 h 3.9687 v 21.04687 q 0,3.875 -1.4687,6.84375 -1.4688,2.95313 -4.2344,4.60938 -2.75,1.65625 -6.625,1.65625 z m 18.2008,9.32812 v -33.875 h 3.7813 v 3.54688 h 0.1875 q 0.6562,-1.125 1.8437,-2.09375 1.1875,-0.98438 2.7656,-1.59375 1.5938,-0.60938 3.5,-0.60938 3.2813,0 5.8438,1.64063 2.5625,1.625 4.0469,4.48437 1.5,2.84375 1.5,6.53125 0,3.67188 -1.5,6.53125 -1.4844,2.84375 -4.0469,4.48438 -2.5625,1.625 -5.8438,1.625 -2.8437,0 -4.9843,-1.29688 -2.1407,-1.3125 -3.125,-2.95312 h -0.1875 l 0.1875,3.26562 v 10.3125 z m 11.6719,-12.92187 q 2.0469,0 3.8437,-1.09375 1.7969,-1.09375 2.8907,-3.14063 1.0937,-2.0625 1.0937,-4.8125 0,-2.8125 -1.0937,-4.82812 -1.0938,-2.03125 -2.8907,-3.125 -1.7968,-1.10938 -3.8437,-1.10938 -2.0625,0 -3.8594,1.10938 -1.7969,1.09375 -2.9219,3.125 -1.1093,2.01562 -1.1093,4.82812 0,2.79688 1.1093,4.82813 1.125,2.03125 2.9219,3.125 1.7969,1.09375 3.8594,1.09375 z m 26.54,3.59375 q -3.2187,0 -5.8125,-1.625 -2.5781,-1.64063 -4.0781,-4.48438 -1.5,-2.85937 -1.5,-6.53125 0,-3.6875 1.5,-6.53125 1.5,-2.85937 4.0781,-4.48437 2.5938,-1.64063 5.8125,-1.64063 1.9219,0 3.5,0.60938 1.5938,0.60937 2.7813,1.59375 1.1875,0.96875 1.8437,2.09375 h 0.1875 l -0.1875,-3.3125 v -9.84375 h 3.9531 v 33.40625 h -3.7656 v -3.5 h -0.1875 q -0.6562,1.07812 -1.8437,2.0625 -1.1875,0.96875 -2.7813,1.57812 -1.5781,0.60938 -3.5,0.60938 z m 0.4219,-3.59375 q 2.0469,0 3.8437,-1.09375 1.7969,-1.09375 2.9219,-3.125 1.125,-2.03125 1.125,-4.82813 0,-2.8125 -1.125,-4.82812 -1.125,-2.03125 -2.9219,-3.125 -1.7968,-1.10938 -3.8437,-1.10938 -2.0469,0 -3.8438,1.10938 -1.7968,1.09375 -2.9218,3.125 -1.125,2.01562 -1.125,4.82812 0,2.75 1.125,4.8125 1.125,2.04688 2.9218,3.14063 1.7969,1.09375 3.8438,1.09375 z m 24.9163,3.59375 q -2.6563,0 -4.6719,-1.03125 -2,-1.03125 -3.1406,-2.82813 -1.1407,-1.79687 -1.1407,-4.07812 0,-2.60938 1.3438,-4.40625 1.3594,-1.79688 3.6406,-2.70313 2.2813,-0.90625 5.0469,-0.90625 1.5781,0 2.9219,0.25 1.3593,0.25 2.3593,0.60938 1.0157,0.34375 1.5157,0.67187 v -1.4375 q 0,-2.71875 -1.9063,-4.29687 -1.9062,-1.59375 -4.6719,-1.59375 -1.9531,0 -3.6562,0.875 -1.7031,0.85937 -2.6875,2.39062 l -2.9844,-2.23437 q 0.9375,-1.40625 2.3281,-2.42188 1.4063,-1.03125 3.2032,-1.59375 1.7968,-0.5625 3.7968,-0.5625 4.8594,0 7.6094,2.57813 2.75,2.5625 2.75,6.90625 v 15.0625 h -3.7812 v -3.40625 h -0.1719 q -0.6094,1.03125 -1.7344,1.98437 -1.125,0.95313 -2.6406,1.5625 -1.5156,0.60938 -3.3281,0.60938 z m 0.375,-3.5 q 2.0468,0 3.75,-1.03125 1.7031,-1.03125 2.7187,-2.75 1.0313,-1.73438 1.0313,-3.78125 -1.0625,-0.75 -2.6719,-1.20313 -1.6094,-0.46875 -3.5313,-0.46875 -3.4062,0 -5,1.40625 -1.5781,1.39063 -1.5781,3.4375 0,1.96875 1.4844,3.1875 1.5,1.20313 3.7969,1.20313 z m 14.6983,-21.04688 h 13.9375 v 3.59375 h -13.9375 z m 4.1406,17.54688 v -24.26563 h 3.9688 v 23.28125 q 0,1.875 0.7656,2.90625 0.7813,1.01563 2.5469,1.01563 0.7969,0 1.4531,-0.23438 0.6563,-0.23437 1.1563,-0.5625 v 3.875 q -0.5938,0.28125 -1.3282,0.4375 -0.7187,0.17188 -1.9375,0.17188 -2.9843,0 -4.8125,-1.75 -1.8125,-1.75 -1.8125,-4.875 z m 24.0809,7 q -3.4532,0 -6.1407,-1.625 -2.6718,-1.64063 -4.2031,-4.48438 -1.5156,-2.85937 -1.5156,-6.48437 0,-3.40625 1.4219,-6.29688 1.4375,-2.90625 4.0156,-4.65625 2.5937,-1.75 6.0937,-1.75 3.5469,0 6.0782,1.5625 2.5468,1.5625 3.9218,4.32813 1.3907,2.75 1.3907,6.29687 0,0.32813 -0.031,0.65625 -0.016,0.3125 -0.062,0.54688 h -20.4844 v -3.26563 h 16.375 q -0.047,-0.96875 -0.4531,-2.10937 -0.3906,-1.15625 -1.25,-2.15625 -0.8594,-1 -2.2031,-1.625 -1.3281,-0.64063 -3.2813,-0.64063 -2.3281,0 -4.0312,1.20313 -1.7031,1.1875 -2.625,3.23437 -0.9063,2.04688 -0.9063,4.67188 0,3.03125 1.1719,5.03125 1.1719,2 3,2.98437 1.8438,0.98438 3.8594,0.98438 2.6094,0 4.3125,-1.23438 1.7031,-1.23437 2.7344,-3.0625 l 3.3593,1.64063 q -1.4062,2.70312 -4.0156,4.48437 -2.6094,1.76563 -6.5312,1.76563 z"
       fill-rule="nonzero"
       id="path117" />
    <path
       fill="#d6fecf"
       d="m 1612.7349,883.31757 h 240 v 144.00003 h -240 z"
       fill-rule="evenodd"
       id="path119" />
    <path
       stroke="#000000"
       stroke-width="2"
       stroke-linejoin="round"
       stroke-linecap="butt"
       d="m 1612.7349,883.31757 h 240 v 144.00003 h -240 z"
       fill-rule="evenodd"
       id="path121" />
    <path
       fill="#000000"
       d="m 1671.4456,972.8676 q -3.625,0 -6.3906,-1.65625 -2.75,-1.65625 -4.3125,-4.60937 -1.5625,-2.96875 -1.5625,-6.84375 v -21.04688 h 3.9687 v 21.23438 q 0,2.60937 0.9219,4.6875 0.9375,2.07812 2.7813,3.26562 1.8437,1.1875 4.5937,1.1875 2.7656,0 4.625,-1.1875 1.8594,-1.1875 2.7969,-3.26562 0.9375,-2.07813 0.9375,-4.6875 v -21.23438 h 3.9687 v 21.04688 q 0,3.875 -1.4687,6.84375 -1.4688,2.95312 -4.2344,4.60937 -2.75,1.65625 -6.625,1.65625 z m 18.2008,9.32813 v -33.875 h 3.7813 v 3.54687 h 0.1875 q 0.6562,-1.125 1.8437,-2.09375 1.1875,-0.98437 2.7656,-1.59375 1.5938,-0.60937 3.5,-0.60937 3.2813,0 5.8438,1.64062 2.5625,1.625 4.0469,4.48438 1.5,2.84375 1.5,6.53125 0,3.67187 -1.5,6.53125 -1.4844,2.84375 -4.0469,4.48437 -2.5625,1.625 -5.8438,1.625 -2.8437,0 -4.9843,-1.29687 -2.1407,-1.3125 -3.125,-2.95313 h -0.1875 l 0.1875,3.26563 v 10.3125 z m 11.6719,-12.92188 q 2.0469,0 3.8437,-1.09375 1.7969,-1.09375 2.8907,-3.14062 1.0937,-2.0625 1.0937,-4.8125 0,-2.8125 -1.0937,-4.82813 -1.0938,-2.03125 -2.8907,-3.125 -1.7968,-1.10937 -3.8437,-1.10937 -2.0625,0 -3.8594,1.10937 -1.7969,1.09375 -2.9219,3.125 -1.1093,2.01563 -1.1093,4.82813 0,2.79687 1.1093,4.82812 1.125,2.03125 2.9219,3.125 1.7969,1.09375 3.8594,1.09375 z m 26.54,3.59375 q -3.2187,0 -5.8125,-1.625 -2.5781,-1.64062 -4.0781,-4.48437 -1.5,-2.85938 -1.5,-6.53125 0,-3.6875 1.5,-6.53125 1.5,-2.85938 4.0781,-4.48438 2.5938,-1.64062 5.8125,-1.64062 1.9219,0 3.5,0.60937 1.5938,0.60938 2.7813,1.59375 1.1875,0.96875 1.8437,2.09375 h 0.1875 l -0.1875,-3.3125 v -9.84375 h 3.9531 v 33.40625 h -3.7656 v -3.5 h -0.1875 q -0.6562,1.07813 -1.8437,2.0625 -1.1875,0.96875 -2.7813,1.57813 -1.5781,0.60937 -3.5,0.60937 z m 0.4219,-3.59375 q 2.0469,0 3.8437,-1.09375 1.7969,-1.09375 2.9219,-3.125 1.125,-2.03125 1.125,-4.82812 0,-2.8125 -1.125,-4.82813 -1.125,-2.03125 -2.9219,-3.125 -1.7968,-1.10937 -3.8437,-1.10937 -2.0469,0 -3.8438,1.10937 -1.7968,1.09375 -2.9218,3.125 -1.125,2.01563 -1.125,4.82813 0,2.75 1.125,4.8125 1.125,2.04687 2.9218,3.14062 1.7969,1.09375 3.8438,1.09375 z m 24.9163,3.59375 q -2.6563,0 -4.6719,-1.03125 -2,-1.03125 -3.1406,-2.82812 -1.1407,-1.79688 -1.1407,-4.07813 0,-2.60937 1.3438,-4.40625 1.3594,-1.79687 3.6406,-2.70312 2.2813,-0.90625 5.0469,-0.90625 1.5781,0 2.9219,0.25 1.3593,0.25 2.3593,0.60937 1.0157,0.34375 1.5157,0.67188 v -1.4375 q 0,-2.71875 -1.9063,-4.29688 -1.9062,-1.59375 -4.6719,-1.59375 -1.9531,0 -3.6562,0.875 -1.7031,0.85938 -2.6875,2.39063 l -2.9844,-2.23438 q 0.9375,-1.40625 2.3281,-2.42187 1.4063,-1.03125 3.2032,-1.59375 1.7968,-0.5625 3.7968,-0.5625 4.8594,0 7.6094,2.57812 2.75,2.5625 2.75,6.90625 v 15.0625 h -3.7812 v -3.40625 h -0.1719 q -0.6094,1.03125 -1.7344,1.98438 -1.125,0.95312 -2.6406,1.5625 -1.5156,0.60937 -3.3281,0.60937 z m 0.375,-3.5 q 2.0468,0 3.75,-1.03125 1.7031,-1.03125 2.7187,-2.75 1.0313,-1.73437 1.0313,-3.78125 -1.0625,-0.75 -2.6719,-1.20312 -1.6094,-0.46875 -3.5313,-0.46875 -3.4062,0 -5,1.40625 -1.5781,1.39062 -1.5781,3.4375 0,1.96875 1.4844,3.1875 1.5,1.20312 3.7969,1.20312 z m 14.6983,-21.04687 h 13.9375 v 3.59375 h -13.9375 z m 4.1406,17.54687 v -24.26562 h 3.9688 v 23.28125 q 0,1.875 0.7656,2.90625 0.7813,1.01562 2.5469,1.01562 0.7969,0 1.4531,-0.23437 0.6563,-0.23438 1.1563,-0.5625 v 3.875 q -0.5938,0.28125 -1.3282,0.4375 -0.7187,0.17187 -1.9375,0.17187 -2.9843,0 -4.8125,-1.75 -1.8125,-1.75 -1.8125,-4.875 z m 24.081,7 q -3.4531,0 -6.1406,-1.625 -2.6719,-1.64062 -4.2032,-4.48437 -1.5156,-2.85938 -1.5156,-6.48438 0,-3.40625 1.4219,-6.29687 1.4375,-2.90625 4.0156,-4.65625 2.5938,-1.75 6.0938,-1.75 3.5468,0 6.0781,1.5625 2.5469,1.5625 3.9219,4.32812 1.3906,2.75 1.3906,6.29688 0,0.32812 -0.031,0.65625 -0.016,0.3125 -0.062,0.54687 h -20.4843 v -3.26562 h 16.375 q -0.047,-0.96875 -0.4532,-2.10938 -0.3906,-1.15625 -1.25,-2.15625 -0.8593,-1 -2.2031,-1.625 -1.3281,-0.64062 -3.2812,-0.64062 -2.3282,0 -4.0313,1.20312 -1.7031,1.1875 -2.625,3.23438 -0.9062,2.04687 -0.9062,4.67187 0,3.03125 1.1718,5.03125 1.1719,2 3,2.98438 1.8438,0.98437 3.8594,0.98437 2.6094,0 4.3125,-1.23437 1.7031,-1.23438 2.7344,-3.0625 l 3.3594,1.64062 q -1.4063,2.70313 -4.0157,4.48438 -2.6093,1.76562 -6.5312,1.76562 z"
       fill-rule="nonzero"
       id="path123" />
    <path
       fill="#f7cecd"
       d="m 1348.7349,1056.9238 h 240 v 144 h -240 z"
       fill-rule="evenodd"
       id="path125" />
    <path
       stroke="#000000"
       stroke-width="2"
       stroke-linejoin="round"
       stroke-linecap="butt"
       d="m 1348.7349,1056.9238 h 240 v 144 h -240 z"
       fill-rule="evenodd"
       id="path127" />
    <path
       fill="#000000"
       d="m 1407.4456,1146.4739 q -3.625,0 -6.3906,-1.6562 -2.75,-1.6563 -4.3125,-4.6094 -1.5625,-2.9688 -1.5625,-6.8438 v -21.0468 h 3.9687 v 21.2343 q 0,2.6094 0.9219,4.6875 0.9375,2.0782 2.7813,3.2657 1.8437,1.1875 4.5937,1.1875 2.7656,0 4.625,-1.1875 1.8594,-1.1875 2.7969,-3.2657 0.9375,-2.0781 0.9375,-4.6875 v -21.2343 h 3.9687 v 21.0468 q 0,3.875 -1.4687,6.8438 -1.4688,2.9531 -4.2344,4.6094 -2.75,1.6562 -6.625,1.6562 z m 18.2008,9.3281 v -33.875 h 3.7813 v 3.5469 h 0.1875 q 0.6562,-1.125 1.8437,-2.0937 1.1875,-0.9844 2.7656,-1.5938 1.5938,-0.6094 3.5,-0.6094 3.2813,0 5.8438,1.6407 2.5625,1.625 4.0469,4.4843 1.5,2.8438 1.5,6.5313 0,3.6719 -1.5,6.5312 -1.4844,2.8438 -4.0469,4.4844 -2.5625,1.625 -5.8438,1.625 -2.8437,0 -4.9843,-1.2969 -2.1407,-1.3125 -3.125,-2.9531 h -0.1875 l 0.1875,3.2656 v 10.3125 z m 11.6719,-12.9218 q 2.0469,0 3.8437,-1.0938 1.7969,-1.0937 2.8907,-3.1406 1.0937,-2.0625 1.0937,-4.8125 0,-2.8125 -1.0937,-4.8281 -1.0938,-2.0313 -2.8907,-3.125 -1.7968,-1.1094 -3.8437,-1.1094 -2.0625,0 -3.8594,1.1094 -1.7969,1.0937 -2.9219,3.125 -1.1093,2.0156 -1.1093,4.8281 0,2.7969 1.1093,4.8281 1.125,2.0313 2.9219,3.125 1.7969,1.0938 3.8594,1.0938 z m 26.54,3.5937 q -3.2187,0 -5.8125,-1.625 -2.5781,-1.6406 -4.0781,-4.4844 -1.5,-2.8593 -1.5,-6.5312 0,-3.6875 1.5,-6.5313 1.5,-2.8593 4.0781,-4.4843 2.5938,-1.6407 5.8125,-1.6407 1.9219,0 3.5,0.6094 1.5938,0.6094 2.7813,1.5938 1.1875,0.9687 1.8437,2.0937 h 0.1875 l -0.1875,-3.3125 v -9.8437 h 3.9531 v 33.4062 h -3.7656 v -3.5 h -0.1875 q -0.6562,1.0781 -1.8437,2.0625 -1.1875,0.9688 -2.7813,1.5781 -1.5781,0.6094 -3.5,0.6094 z m 0.4219,-3.5937 q 2.0469,0 3.8437,-1.0938 1.7969,-1.0937 2.9219,-3.125 1.125,-2.0312 1.125,-4.8281 0,-2.8125 -1.125,-4.8281 -1.125,-2.0313 -2.9219,-3.125 -1.7968,-1.1094 -3.8437,-1.1094 -2.0469,0 -3.8438,1.1094 -1.7968,1.0937 -2.9218,3.125 -1.125,2.0156 -1.125,4.8281 0,2.75 1.125,4.8125 1.125,2.0469 2.9218,3.1406 1.7969,1.0938 3.8438,1.0938 z m 24.9163,3.5937 q -2.6563,0 -4.6719,-1.0312 -2,-1.0313 -3.1406,-2.8282 -1.1407,-1.7968 -1.1407,-4.0781 0,-2.6094 1.3438,-4.4062 1.3594,-1.7969 3.6406,-2.7032 2.2813,-0.9062 5.0469,-0.9062 1.5781,0 2.9219,0.25 1.3593,0.25 2.3593,0.6094 1.0157,0.3437 1.5157,0.6718 v -1.4375 q 0,-2.7187 -1.9063,-4.2968 -1.9062,-1.5938 -4.6719,-1.5938 -1.9531,0 -3.6562,0.875 -1.7031,0.8594 -2.6875,2.3906 l -2.9844,-2.2343 q 0.9375,-1.4063 2.3281,-2.4219 1.4063,-1.0313 3.2032,-1.5938 1.7968,-0.5625 3.7968,-0.5625 4.8594,0 7.6094,2.5782 2.75,2.5625 2.75,6.9062 v 15.0625 h -3.7812 v -3.4062 h -0.1719 q -0.6094,1.0312 -1.7344,1.9843 -1.125,0.9532 -2.6406,1.5625 -1.5156,0.6094 -3.3281,0.6094 z m 0.375,-3.5 q 2.0468,0 3.75,-1.0312 1.7031,-1.0313 2.7187,-2.75 1.0313,-1.7344 1.0313,-3.7813 -1.0625,-0.75 -2.6719,-1.2031 -1.6094,-0.4688 -3.5313,-0.4688 -3.4062,0 -5,1.4063 -1.5781,1.3906 -1.5781,3.4375 0,1.9687 1.4844,3.1875 1.5,1.2031 3.7969,1.2031 z m 14.6983,-21.0469 h 13.9375 v 3.5938 h -13.9375 z m 4.1406,17.5469 v -24.2656 h 3.9688 v 23.2812 q 0,1.875 0.7656,2.9063 0.7813,1.0156 2.5469,1.0156 0.7969,0 1.4531,-0.2344 0.6563,-0.2343 1.1563,-0.5625 v 3.875 q -0.5938,0.2813 -1.3282,0.4375 -0.7187,0.1719 -1.9375,0.1719 -2.9843,0 -4.8125,-1.75 -1.8125,-1.75 -1.8125,-4.875 z m 24.081,7 q -3.4531,0 -6.1406,-1.625 -2.6719,-1.6406 -4.2032,-4.4844 -1.5156,-2.8593 -1.5156,-6.4843 0,-3.4063 1.4219,-6.2969 1.4375,-2.9063 4.0156,-4.6563 2.5938,-1.75 6.0938,-1.75 3.5468,0 6.0781,1.5625 2.5469,1.5625 3.9219,4.3282 1.3906,2.75 1.3906,6.2968 0,0.3282 -0.031,0.6563 -0.016,0.3125 -0.062,0.5469 h -20.4843 v -3.2657 h 16.375 q -0.047,-0.9687 -0.4532,-2.1093 -0.3906,-1.1563 -1.25,-2.1563 -0.8593,-1 -2.2031,-1.625 -1.3281,-0.6406 -3.2812,-0.6406 -2.3282,0 -4.0313,1.2031 -1.7031,1.1875 -2.625,3.2344 -0.9062,2.0469 -0.9062,4.6719 0,3.0312 1.1718,5.0312 1.1719,2 3,2.9844 1.8438,0.9844 3.8594,0.9844 2.6094,0 4.3125,-1.2344 1.7031,-1.2344 2.7344,-3.0625 l 3.3594,1.6406 q -1.4063,2.7031 -4.0157,4.4844 -2.6093,1.7656 -6.5312,1.7656 z"
       fill-rule="nonzero"
       id="path129" />
  </g>
</svg>
