<?xml version="1.0" encoding="UTF-8" standalone="no"?>
<svg
   version="1.1"
   viewBox="0 0 1550.6825 801.01318"
   fill="none"
   stroke="none"
   stroke-linecap="square"
   stroke-miterlimit="10"
   id="svg132"
   sodipodi:docname="single_gradient_checkpointing.svg"
   width="1550.6825"
   height="801.01318"
   inkscape:version="1.3.1 (9b9bdc1480, 2023-11-25, custom)"
   xmlns:inkscape="http://www.inkscape.org/namespaces/inkscape"
   xmlns:sodipodi="http://sodipodi.sourceforge.net/DTD/sodipodi-0.dtd"
   xmlns="http://www.w3.org/2000/svg"
   xmlns:svg="http://www.w3.org/2000/svg">
  <defs
     id="defs132" />
  <sodipodi:namedview
     id="namedview132"
     pagecolor="#ffffff"
     bordercolor="#666666"
     borderopacity="1.0"
     inkscape:showpageshadow="2"
     inkscape:pageopacity="0.0"
     inkscape:pagecheckerboard="0"
     inkscape:deskcolor="#d1d1d1"
     showgrid="false"
     inkscape:zoom="1.2304688"
     inkscape:cx="645.28254"
     inkscape:cy="296.22857"
     inkscape:window-width="3840"
     inkscape:window-height="2079"
     inkscape:window-x="0"
     inkscape:window-y="44"
     inkscape:window-maximized="1"
     inkscape:current-layer="g132" />
  <clipPath
     id="g2bf1eec76ba_0_184.0">
    <path
       d="M 0,0 H 2560 V 1440 H 0 Z"
       clip-rule="nonzero"
       id="path1" />
  </clipPath>
  <g
     clip-path="url(#g2bf1eec76ba_0_184.0)"
     id="g132"
     transform="translate(-162.28609,-423.021)">
    <path
       fill="#f3f3f3"
       d="m 416.52756,677.1511 v 0 c 0,-41.11926 33.33371,-74.45294 74.45294,-74.45294 h 1147.5352 c 19.7461,0 38.6835,7.84412 52.6461,21.80676 13.9627,13.96259 21.8068,32.90003 21.8068,52.64618 v 297.8028 c 0,41.1192 -33.3338,74.4529 -74.4529,74.4529 H 490.9805 c -41.11923,0 -74.45294,-33.3337 -74.45294,-74.4529 z"
       fill-rule="evenodd"
       id="path3" />
    <path
       fill="#000000"
       fill-opacity="0"
       d="M 162.28609,749.19684 H 419.01052 V 897.85828 H 162.28609 Z"
       fill-rule="evenodd"
       id="path6" />
    <path
       fill="#4285f4"
       d="m 175.55171,809.39685 v -38.1875 h 22.07813 v 4.32812 h -17.54688 v 33.85938 z m 2.40625,-16.53125 v -4.26563 h 17.96875 v 4.26563 z m 35.93593,17.39062 q -4.10938,0 -7.25,-1.92187 -3.14063,-1.92188 -4.9375,-5.20313 -1.78125,-3.28125 -1.78125,-7.32812 0,-4.0625 1.78125,-7.32813 1.79687,-3.28125 4.9375,-5.20312 3.14062,-1.92188 7.25,-1.92188 4.10937,0 7.25,1.95313 3.15625,1.9375 4.9375,5.21875 1.78125,3.28125 1.78125,7.28125 0,4.04687 -1.78125,7.32812 -1.78125,3.28125 -4.9375,5.20313 -3.14063,1.92187 -7.25,1.92187 z m 0,-4.10937 q 2.45312,0 4.60937,-1.21875 2.17188,-1.23438 3.5,-3.54688 1.32813,-2.32812 1.32813,-5.57812 0,-3.26563 -1.32813,-5.57813 -1.32812,-2.3125 -3.5,-3.53125 -2.15625,-1.23437 -4.60937,-1.23437 -2.45313,0 -4.64063,1.23437 -2.1875,1.21875 -3.51562,3.53125 -1.32813,2.3125 -1.32813,5.57813 0,3.25 1.32813,5.57812 1.32812,2.3125 3.51562,3.54688 2.1875,1.21875 4.64063,1.21875 z m 18.71892,3.25 v -27.20313 h 4.3125 v 4.375 h 0.21875 q 0.53125,-1.54687 1.78125,-2.6875 1.26562,-1.14062 2.89062,-1.8125 1.625,-0.67187 3.21875,-0.67187 1.23438,0 1.92188,0.14062 0.6875,0.125 1.28125,0.39063 v 4.90625 q -0.85938,-0.42188 -1.84375,-0.625 -0.98438,-0.21875 -2,-0.21875 -1.96875,0 -3.625,1.125 -1.65625,1.10937 -2.64063,2.98437 -0.98437,1.85938 -0.98437,4.09375 v 15.20313 z m 26.29698,0 -8.75,-27.20313 h 4.6875 l 6.45312,21.5 h 0.0625 l 6.875,-21.5 h 4.64063 l 6.875,21.4375 h 0.0625 l 6.4375,-21.4375 h 4.59375 l -8.79688,27.20313 h -4.59375 l -7.03125,-21.70313 v 0 l -6.98437,21.70313 z m 43.82443,0.85937 q -3.03125,0 -5.32812,-1.17187 -2.29688,-1.1875 -3.60938,-3.23438 -1.29687,-2.04687 -1.29687,-4.67187 0,-2.98438 1.54687,-5.03125 1.54688,-2.0625 4.15625,-3.09375 2.60938,-1.04688 5.76563,-1.04688 1.8125,0 3.35937,0.29688 1.54688,0.29687 2.6875,0.70312 1.15625,0.39063 1.73438,0.76563 v -1.65625 q 0,-3.09375 -2.1875,-4.90625 -2.1875,-1.8125 -5.32813,-1.8125 -2.23437,0 -4.1875,0.98437 -1.95312,0.98438 -3.0625,2.75 l -3.42187,-2.5625 q 1.07812,-1.59375 2.67187,-2.76562 1.59375,-1.17188 3.64063,-1.8125 2.0625,-0.64063 4.35937,-0.64063 5.54688,0 8.6875,2.9375 3.15625,2.92188 3.15625,7.89063 v 17.21875 h -4.32812 v -3.89063 h -0.21875 q -0.6875,1.17188 -1.96875,2.26563 -1.28125,1.09375 -3.01563,1.78125 -1.73437,0.70312 -3.8125,0.70312 z m 0.4375,-4 q 2.34375,0 4.28125,-1.17187 1.95313,-1.1875 3.125,-3.15625 1.17188,-1.96875 1.17188,-4.3125 -1.21875,-0.85938 -3.0625,-1.39063 -1.84375,-0.53125 -4.03125,-0.53125 -3.89063,0 -5.70313,1.60938 -1.8125,1.59375 -1.8125,3.9375 0,2.23437 1.70313,3.625 1.70312,1.39062 4.32812,1.39062 z m 19.19217,3.14063 v -27.20313 h 4.3125 v 4.375 h 0.21875 q 0.53125,-1.54687 1.78125,-2.6875 1.26563,-1.14062 2.89063,-1.8125 1.625,-0.67187 3.21875,-0.67187 1.23437,0 1.92187,0.14062 0.6875,0.125 1.28125,0.39063 v 4.90625 q -0.85937,-0.42188 -1.84375,-0.625 -0.98437,-0.21875 -2,-0.21875 -1.96875,0 -3.625,1.125 -1.65625,1.10937 -2.64062,2.98437 -0.98438,1.85938 -0.98438,4.09375 v 15.20313 z m 29.97614,0.85937 q -3.6875,0 -6.65625,-1.85937 -2.95313,-1.875 -4.65625,-5.125 -1.70313,-3.26563 -1.70313,-7.46875 0,-4.21875 1.70313,-7.46875 1.70312,-3.25 4.65625,-5.10938 2.96875,-1.875 6.65625,-1.875 2.1875,0 4,0.70313 1.8125,0.6875 3.17187,1.8125 1.35938,1.10937 2.09375,2.39062 h 0.21875 l -0.21875,-3.79687 v -11.25 h 4.54688 v 38.1875 h -4.32813 v -4 h -0.21875 q -0.73437,1.23437 -2.09375,2.35937 -1.35937,1.10938 -3.17187,1.79688 -1.8125,0.70312 -4,0.70312 z m 0.46875,-4.10937 q 2.35937,0 4.40625,-1.25 2.04687,-1.26563 3.32812,-3.57813 1.28125,-2.32812 1.28125,-5.51562 0,-3.20313 -1.28125,-5.51563 -1.28125,-2.32812 -3.32812,-3.57812 -2.04688,-1.25 -4.40625,-1.25 -2.34375,0 -4.40625,1.25 -2.04688,1.25 -3.32813,3.57812 -1.26562,2.3125 -1.26562,5.51563 0,3.14062 1.26562,5.48437 1.28125,2.34375 3.32813,3.60938 2.0625,1.25 4.40625,1.25 z"
       fill-rule="nonzero"
       id="path7" />
    <path
       fill="#4285f4"
       d="m 174.64546,884.9125 v -38.71875 h 4.3125 v 4.0625 h 0.21875 q 0.75,-1.28125 2.10938,-2.39062 1.35937,-1.125 3.17187,-1.8125 1.8125,-0.70313 4,-0.70313 3.73438,0 6.65625,1.875 2.9375,1.85938 4.64063,5.10938 1.71875,3.25 1.71875,7.46875 0,4.20312 -1.71875,7.46875 -1.70313,3.25 -4.64063,5.125 -2.92187,1.85937 -6.65625,1.85937 -3.25,0 -5.70312,-1.5 -2.45313,-1.5 -3.57813,-3.35937 h -0.21875 l 0.21875,3.73437 v 11.78125 z m 13.32813,-14.76562 q 2.34375,0 4.39062,-1.25 2.0625,-1.26563 3.3125,-3.60938 1.26563,-2.34375 1.26563,-5.48437 0,-3.20313 -1.26563,-5.51563 -1.25,-2.32812 -3.3125,-3.57812 -2.04687,-1.25 -4.39062,-1.25 -2.34375,0 -4.40625,1.25 -2.04688,1.25 -3.32813,3.57812 -1.28125,2.3125 -1.28125,5.51563 0,3.1875 1.28125,5.51562 1.28125,2.3125 3.32813,3.57813 2.0625,1.25 4.40625,1.25 z m 27.46286,4.10937 q -3.03125,0 -5.32813,-1.17187 -2.29687,-1.1875 -3.60937,-3.23438 -1.29688,-2.04687 -1.29688,-4.67187 0,-2.98438 1.54688,-5.03125 1.54687,-2.0625 4.15625,-3.09375 2.60937,-1.04688 5.76562,-1.04688 1.8125,0 3.35938,0.29688 1.54687,0.29687 2.6875,0.70312 1.15625,0.39063 1.73437,0.76563 v -1.65625 q 0,-3.09375 -2.1875,-4.90625 -2.1875,-1.8125 -5.32812,-1.8125 -2.23438,0 -4.1875,0.98437 -1.95313,0.98438 -3.0625,2.75 l -3.42188,-2.5625 q 1.07813,-1.59375 2.67188,-2.76562 1.59375,-1.17188 3.64062,-1.8125 2.0625,-0.64063 4.35938,-0.64063 5.54687,0 8.6875,2.9375 3.15625,2.92188 3.15625,7.89063 v 17.21875 h -4.32813 v -3.89063 h -0.21875 q -0.6875,1.17188 -1.96875,2.26563 -1.28125,1.09375 -3.01562,1.78125 -1.73438,0.70312 -3.8125,0.70312 z m 0.4375,-4 q 2.34375,0 4.28125,-1.17187 1.95312,-1.1875 3.125,-3.15625 1.17187,-1.96875 1.17187,-4.3125 -1.21875,-0.85938 -3.0625,-1.39063 -1.84375,-0.53125 -4.03125,-0.53125 -3.89062,0 -5.70312,1.60938 -1.8125,1.59375 -1.8125,3.9375 0,2.23437 1.70312,3.625 1.70313,1.39062 4.32813,1.39062 z m 28.42552,4 q -3.04688,0 -5.375,-0.98437 -2.3125,-1 -3.82813,-2.67188 -1.51562,-1.6875 -2.26562,-3.65625 l 4.04687,-1.8125 q 1.0625,2.45313 3.09375,3.79688 2.03125,1.32812 4.64063,1.32812 2.5,0 4.17187,-1.01562 1.6875,-1.01563 1.6875,-2.98438 0,-1.23437 -0.6875,-2.0625 -0.6875,-0.82812 -2.03125,-1.40625 -1.32812,-0.59375 -3.25,-1.0625 l -3.29687,-0.85937 q -1.92188,-0.53125 -3.64063,-1.48438 -1.70312,-0.96875 -2.75,-2.48437 -1.03125,-1.53125 -1.03125,-3.71875 0,-2.45313 1.4375,-4.20313 1.4375,-1.76562 3.78125,-2.6875 2.35938,-0.9375 5.01563,-0.9375 2.35937,0 4.40625,0.67188 2.04687,0.65625 3.59375,1.96875 1.54687,1.29687 2.35937,3.21875 l -3.95312,1.8125 q -1.01563,-2.01563 -2.71875,-2.8125 -1.70313,-0.8125 -3.78125,-0.8125 -2.25,0 -3.90625,0.98437 -1.64063,0.98438 -1.64063,2.70313 0,1.70312 1.35938,2.5625 1.35937,0.84375 3.32812,1.375 l 3.95313,1.01562 q 4,1.01563 6.01562,3.01563 2.03125,2 2.03125,4.875 0,2.5625 -1.4375,4.4375 -1.4375,1.85937 -3.89062,2.875 -2.45313,1.01562 -5.4375,1.01562 z m 25.22418,0 q -3.04688,0 -5.375,-0.98437 -2.3125,-1 -3.82813,-2.67188 -1.51562,-1.6875 -2.26562,-3.65625 l 4.04687,-1.8125 q 1.0625,2.45313 3.09375,3.79688 2.03125,1.32812 4.64063,1.32812 2.5,0 4.17187,-1.01562 1.6875,-1.01563 1.6875,-2.98438 0,-1.23437 -0.6875,-2.0625 -0.6875,-0.82812 -2.03125,-1.40625 -1.32812,-0.59375 -3.25,-1.0625 l -3.29687,-0.85937 q -1.92188,-0.53125 -3.64063,-1.48438 -1.70312,-0.96875 -2.75,-2.48437 -1.03125,-1.53125 -1.03125,-3.71875 0,-2.45313 1.4375,-4.20313 1.4375,-1.76562 3.78125,-2.6875 2.35938,-0.9375 5.01563,-0.9375 2.35937,0 4.40625,0.67188 2.04687,0.65625 3.59375,1.96875 1.54687,1.29687 2.35937,3.21875 l -3.95312,1.8125 q -1.01563,-2.01563 -2.71875,-2.8125 -1.70313,-0.8125 -3.78125,-0.8125 -2.25,0 -3.90625,0.98437 -1.64063,0.98438 -1.64063,2.70313 0,1.70312 1.35938,2.5625 1.35937,0.84375 3.32812,1.375 l 3.95313,1.01562 q 4,1.01563 6.01562,3.01563 2.03125,2 2.03125,4.875 0,2.5625 -1.4375,4.4375 -1.4375,1.85937 -3.89062,2.875 -2.45313,1.01562 -5.4375,1.01562 z"
       fill-rule="nonzero"
       id="path8" />
    <path
       fill="#d2e9ff"
       d="m 463.59384,775.5282 v -48 h 48 v 48 z"
       fill-rule="evenodd"
       id="path9" />
    <path
       stroke="#a7a7a7"
       stroke-width="1"
       stroke-linejoin="round"
       stroke-linecap="butt"
       d="m 463.59384,775.5282 v -48 h 48 v 48 z"
       fill-rule="evenodd"
       id="path10" />
    <path
       fill="#a4c2f4"
       d="m 463.59317,775.5276 h 48 v 48 h -48 z"
       fill-rule="evenodd"
       id="path11" />
    <path
       stroke="#a7a7a7"
       stroke-width="1"
       stroke-linejoin="round"
       stroke-linecap="butt"
       d="m 463.59317,775.5276 h 48 v 48 h -48 z"
       fill-rule="evenodd"
       id="path12" />
    <path
       fill="#1155cc"
       d="m 463.59317,823.5276 h 48 v 48 h -48 z"
       fill-rule="evenodd"
       id="path13" />
    <path
       stroke="#a7a7a7"
       stroke-width="1"
       stroke-linejoin="round"
       stroke-linecap="butt"
       d="m 463.59317,823.5276 h 48 v 48 h -48 z"
       fill-rule="evenodd"
       id="path14" />
    <path
       fill="#6fa8dc"
       d="m 463.59186,871.5276 h 48 v 48 h -48 z"
       fill-rule="evenodd"
       id="path15" />
    <path
       stroke="#a7a7a7"
       stroke-width="1"
       stroke-linejoin="round"
       stroke-linecap="butt"
       d="m 463.59186,871.5276 h 48 v 48 h -48 z"
       fill-rule="evenodd"
       id="path16" />
    <path
       fill="#b7b7b7"
       d="m 653.271,679.5282 v -48 h 48 v 48 z"
       fill-rule="evenodd"
       id="path17" />
    <path
       stroke="#a7a7a7"
       stroke-width="1"
       stroke-linejoin="round"
       stroke-linecap="butt"
       d="m 653.271,679.5282 v -48 h 48 v 48 z"
       fill-rule="evenodd"
       id="path18" />
    <path
       fill="#999999"
       d="m 653.2703,679.5276 h 48 v 48 h -48 z"
       fill-rule="evenodd"
       id="path19" />
    <path
       stroke="#a7a7a7"
       stroke-width="1"
       stroke-linejoin="round"
       stroke-linecap="butt"
       d="m 653.2703,679.5276 h 48 v 48 h -48 z"
       fill-rule="evenodd"
       id="path20" />
    <path
       fill="#666666"
       d="m 653.2703,727.5276 h 48 v 48 h -48 z"
       fill-rule="evenodd"
       id="path21" />
    <path
       stroke="#a7a7a7"
       stroke-width="1"
       stroke-linejoin="round"
       stroke-linecap="butt"
       d="m 653.2703,727.5276 h 48 v 48 h -48 z"
       fill-rule="evenodd"
       id="path22" />
    <path
       fill="#434343"
       d="m 653.26904,775.5276 h 48 v 48 h -48 z"
       fill-rule="evenodd"
       id="path23" />
    <path
       stroke="#a7a7a7"
       stroke-width="1"
       stroke-linejoin="round"
       stroke-linecap="butt"
       d="m 653.26904,775.5276 h 48 v 48 h -48 z"
       fill-rule="evenodd"
       id="path24" />
    <path
       fill="#b7b7b7"
       d="m 701.26904,967.5276 v 48 h -48 v -48 z"
       fill-rule="evenodd"
       id="path25" />
    <path
       stroke="#a7a7a7"
       stroke-width="1"
       stroke-linejoin="round"
       stroke-linecap="butt"
       d="m 701.26904,967.5276 v 48 h -48 v -48 z"
       fill-rule="evenodd"
       id="path26" />
    <path
       fill="#999999"
       d="m 701.2697,967.5282 h -48 v -48 h 48 z"
       fill-rule="evenodd"
       id="path27" />
    <path
       stroke="#a7a7a7"
       stroke-width="1"
       stroke-linejoin="round"
       stroke-linecap="butt"
       d="m 701.2697,967.5282 h -48 v -48 h 48 z"
       fill-rule="evenodd"
       id="path28" />
    <path
       fill="#666666"
       d="m 701.2697,919.5282 h -48 v -48 h 48 z"
       fill-rule="evenodd"
       id="path29" />
    <path
       stroke="#a7a7a7"
       stroke-width="1"
       stroke-linejoin="round"
       stroke-linecap="butt"
       d="m 701.2697,919.5282 h -48 v -48 h 48 z"
       fill-rule="evenodd"
       id="path30" />
    <path
       fill="#434343"
       d="m 701.271,871.5282 h -48 v -48 h 48 z"
       fill-rule="evenodd"
       id="path31" />
    <path
       stroke="#a7a7a7"
       stroke-width="1"
       stroke-linejoin="round"
       stroke-linecap="butt"
       d="m 701.271,871.5282 h -48 v -48 h 48 z"
       fill-rule="evenodd"
       id="path32" />
    <path
       fill="#b7b7b7"
       d="m 841.19226,679.5282 v -48 h 48 v 48 z"
       fill-rule="evenodd"
       id="path33" />
    <path
       stroke="#a7a7a7"
       stroke-width="1"
       stroke-linejoin="round"
       stroke-linecap="butt"
       d="m 841.19226,679.5282 v -48 h 48 v 48 z"
       fill-rule="evenodd"
       id="path34" />
    <path
       fill="#999999"
       d="m 841.1916,679.5276 h 48 v 48 h -48 z"
       fill-rule="evenodd"
       id="path35" />
    <path
       stroke="#a7a7a7"
       stroke-width="1"
       stroke-linejoin="round"
       stroke-linecap="butt"
       d="m 841.1916,679.5276 h 48 v 48 h -48 z"
       fill-rule="evenodd"
       id="path36" />
    <path
       fill="#666666"
       d="m 841.1916,727.5276 h 48 v 48 h -48 z"
       fill-rule="evenodd"
       id="path37" />
    <path
       stroke="#a7a7a7"
       stroke-width="1"
       stroke-linejoin="round"
       stroke-linecap="butt"
       d="m 841.1916,727.5276 h 48 v 48 h -48 z"
       fill-rule="evenodd"
       id="path38" />
    <path
       fill="#434343"
       d="m 841.1903,775.5276 h 48 v 48 h -48 z"
       fill-rule="evenodd"
       id="path39" />
    <path
       stroke="#a7a7a7"
       stroke-width="1"
       stroke-linejoin="round"
       stroke-linecap="butt"
       d="m 841.1903,775.5276 h 48 v 48 h -48 z"
       fill-rule="evenodd"
       id="path40" />
    <path
       fill="#b7b7b7"
       d="m 889.1903,967.5276 v 48 h -48 v -48 z"
       fill-rule="evenodd"
       id="path41" />
    <path
       stroke="#a7a7a7"
       stroke-width="1"
       stroke-linejoin="round"
       stroke-linecap="butt"
       d="m 889.1903,967.5276 v 48 h -48 v -48 z"
       fill-rule="evenodd"
       id="path42" />
    <path
       fill="#999999"
       d="m 889.1909,967.5282 h -48 v -48 h 48 z"
       fill-rule="evenodd"
       id="path43" />
    <path
       stroke="#a7a7a7"
       stroke-width="1"
       stroke-linejoin="round"
       stroke-linecap="butt"
       d="m 889.1909,967.5282 h -48 v -48 h 48 z"
       fill-rule="evenodd"
       id="path44" />
    <path
       fill="#666666"
       d="m 889.1909,919.5282 h -48 v -48 h 48 z"
       fill-rule="evenodd"
       id="path45" />
    <path
       stroke="#a7a7a7"
       stroke-width="1"
       stroke-linejoin="round"
       stroke-linecap="butt"
       d="m 889.1909,919.5282 h -48 v -48 h 48 z"
       fill-rule="evenodd"
       id="path46" />
    <path
       fill="#434343"
       d="m 889.19226,871.5282 h -48 v -48 h 48 z"
       fill-rule="evenodd"
       id="path47" />
    <path
       stroke="#a7a7a7"
       stroke-width="1"
       stroke-linejoin="round"
       stroke-linecap="butt"
       d="m 889.19226,871.5282 h -48 v -48 h 48 z"
       fill-rule="evenodd"
       id="path48" />
    <path
       fill="#d6fecf"
       d="m 1030.8694,775.5282 v -48 h 48 v 48 z"
       fill-rule="evenodd"
       id="path49" />
    <path
       stroke="#a7a7a7"
       stroke-width="1"
       stroke-linejoin="round"
       stroke-linecap="butt"
       d="m 1030.8694,775.5282 v -48 h 48 v 48 z"
       fill-rule="evenodd"
       id="path50" />
    <path
       fill="#91ff7e"
       d="m 1030.8688,775.5276 h 48 v 48 h -48 z"
       fill-rule="evenodd"
       id="path51" />
    <path
       stroke="#a7a7a7"
       stroke-width="1"
       stroke-linejoin="round"
       stroke-linecap="butt"
       d="m 1030.8688,775.5276 h 48 v 48 h -48 z"
       fill-rule="evenodd"
       id="path52" />
    <path
       fill="#0f9d58"
       d="m 1030.8688,823.5276 h 48 v 48 h -48 z"
       fill-rule="evenodd"
       id="path53" />
    <path
       stroke="#a7a7a7"
       stroke-width="1"
       stroke-linejoin="round"
       stroke-linecap="butt"
       d="m 1030.8688,823.5276 h 48 v 48 h -48 z"
       fill-rule="evenodd"
       id="path54" />
    <path
       fill="#93c47d"
       d="m 1030.8674,871.5276 h 48 v 48 h -48 z"
       fill-rule="evenodd"
       id="path55" />
    <path
       stroke="#a7a7a7"
       stroke-width="1"
       stroke-linejoin="round"
       stroke-linecap="butt"
       d="m 1030.8674,871.5276 h 48 v 48 h -48 z"
       fill-rule="evenodd"
       id="path56" />
    <path
       fill="#ffffff"
       d="M 622.6011,687.81104 V 959.24408 H 544.0184 V 687.81104 Z"
       fill-rule="evenodd"
       id="path57" />
    <path
       stroke="#a7a7a7"
       stroke-width="1"
       stroke-linejoin="round"
       stroke-linecap="butt"
       d="M 622.6011,687.81104 V 959.24408 H 544.0184 V 687.81104 Z"
       fill-rule="evenodd"
       id="path58" />
    <path
       fill="#000000"
       d="m 568.9097,769.77075 h 28.64063 v 8.64063 q 0,4.46875 -1.82813,7.70312 -1.8125,3.25 -5.0625,5 -3.23437,1.76563 -7.4375,1.76563 -4.1875,0 -7.40625,-1.76563 -3.21875,-1.75 -5.0625,-5 -1.84375,-3.23437 -1.84375,-7.70312 z m 3.23438,3.39063 v 5.25 q 0,3.35937 1.29687,5.82812 1.3125,2.48438 3.78125,3.84375 2.48438,1.35938 6,1.35938 3.53125,0 6,-1.35938 2.48438,-1.35937 3.78125,-3.84375 1.3125,-2.46875 1.3125,-5.82812 v -5.25 z m -3.875,32.51995 q 0,-2.95312 1.39062,-5.25 1.40625,-2.29687 3.84375,-3.60937 2.45313,-1.29688 5.5625,-1.29688 2.92188,0 5.40625,1.21875 2.48438,1.21875 3.98438,3.4375 1.5,2.21875 1.5,5.21875 0,3.04688 -1.34375,5.21875 -1.34375,2.1875 -3.70313,3.35938 -2.35937,1.1875 -5.40625,1.1875 -0.28125,0 -0.5625,-0.0156 -0.26562,-0.0156 -0.46875,-0.0625 v -17.5625 h 2.79688 v 14.04688 q 0.84375,-0.0469 1.8125,-0.39063 0.98437,-0.32812 1.84375,-1.07812 0.85937,-0.73438 1.39062,-1.875 0.54688,-1.14063 0.54688,-2.82813 0,-2 -1.01563,-3.45312 -1.01562,-1.45313 -2.78125,-2.23438 -1.75,-0.78125 -4,-0.78125 -2.59375,0 -4.3125,1 -1.71875,1 -2.5625,2.57813 -0.84375,1.57812 -0.84375,3.29687 0,2.23438 1.0625,3.6875 1.0625,1.46875 2.625,2.35938 l -1.40625,2.875 q -2.3125,-1.20313 -3.84375,-3.45313 -1.51562,-2.23437 -1.51562,-5.59375 z m 0.64062,13.44184 h 20.40625 v 3.25 h -3 v 0.15625 q 1.46875,0.79687 2.54688,2.60937 1.09375,1.82813 1.09375,3.98438 0,3.76562 -2.1875,5.65625 -2.17188,1.90625 -5.78125,1.90625 H 568.9097 v -3.39063 h 12.5625 q 2.95313,0 4.17188,-1.42187 1.21875,-1.42188 1.21875,-3.67188 0,-1.67187 -0.9375,-2.95312 -0.9375,-1.28125 -2.42188,-2 -1.46875,-0.71875 -3.10937,-0.71875 H 568.9097 Z m -0.64062,29.36499 q 0,-2.28125 0.73437,-4.03125 0.75,-1.73438 2,-2.875 1.26563,-1.14063 2.75,-1.6875 l 1.35938,3.03125 q -1.84375,0.79687 -2.84375,2.3125 -1,1.53125 -1,3.48437 0,1.89063 0.75,3.14063 0.76562,1.26562 2.25,1.26562 0.92187,0 1.53125,-0.53125 0.625,-0.51562 1.0625,-1.51562 0.45312,-1 0.8125,-2.4375 l 0.64062,-2.48438 q 0.39063,-1.4375 1.10938,-2.71875 0.71875,-1.28125 1.85937,-2.0625 1.14063,-0.76562 2.78125,-0.76562 1.84375,0 3.15625,1.07812 1.32813,1.07813 2.03125,2.82813 0.70313,1.76562 0.70313,3.76562 0,1.76563 -0.5,3.29688 -0.5,1.54687 -1.48438,2.70312 -0.98437,1.15625 -2.42187,1.76563 l -1.35938,-2.96875 q 1.51563,-0.75 2.10938,-2.03125 0.60937,-1.28125 0.60937,-2.84375 0,-1.67188 -0.75,-2.92188 -0.73437,-1.23437 -2.01562,-1.23437 -1.28125,0 -1.92188,1.01562 -0.625,1.01563 -1.03125,2.5 l -0.76562,2.96875 q -0.75,3 -2.25,4.51563 -1.5,1.51562 -3.67188,1.51562 -1.90625,0 -3.3125,-1.07812 -1.40625,-1.07813 -2.17187,-2.92188 -0.75,-1.84375 -0.75,-4.07812 z m 0,21.07312 q 0,-2.95313 1.39062,-5.25 1.40625,-2.29688 3.84375,-3.60938 2.45313,-1.29687 5.5625,-1.29687 2.92188,0 5.40625,1.21875 2.48438,1.21875 3.98438,3.4375 1.5,2.21875 1.5,5.21875 0,3.04687 -1.34375,5.21875 -1.34375,2.1875 -3.70313,3.35937 -2.35937,1.1875 -5.40625,1.1875 -0.28125,0 -0.5625,-0.0156 -0.26562,-0.0156 -0.46875,-0.0625 v -17.5625 h 2.79688 v 14.04687 q 0.84375,-0.0469 1.8125,-0.39062 0.98437,-0.32813 1.84375,-1.07813 0.85937,-0.73437 1.39062,-1.875 0.54688,-1.14062 0.54688,-2.82812 0,-2 -1.01563,-3.45313 -1.01562,-1.45312 -2.78125,-2.23437 -1.75,-0.78125 -4,-0.78125 -2.59375,0 -4.3125,1 -1.71875,1 -2.5625,2.57812 -0.84375,1.57813 -0.84375,3.29688 0,2.23437 1.0625,3.6875 1.0625,1.46875 2.625,2.35937 l -1.40625,2.875 q -2.3125,-1.20312 -3.84375,-3.45312 -1.51562,-2.23438 -1.51562,-5.59375 z"
       fill-rule="nonzero"
       id="path59" />
    <path
       fill="#ffffff"
       d="m 810.52234,687.81104 v 271.43304 h -78.5827 V 687.81104 Z"
       fill-rule="evenodd"
       id="path60" />
    <path
       stroke="#a7a7a7"
       stroke-width="1"
       stroke-linejoin="round"
       stroke-linecap="butt"
       d="m 810.52234,687.81104 v 271.43304 h -78.5827 V 687.81104 Z"
       fill-rule="evenodd"
       id="path61" />
    <path
       fill="#000000"
       d="m 756.831,771.26135 28.64063,10.89062 v 3.82813 L 756.831,796.87072 v -3.71875 l 21.40625,-7.89062 3.07813,-1.10938 v -0.17187 l -3.07813,-1.10938 -21.40625,-7.89062 z m 7.875,12.40625 h 3.20313 v 6.59375 l -3.20313,1.17187 z m 0,-7.76563 3.20313,1.17188 v 6.59375 H 764.706 Z m -8.51562,32.7312 q 0,-3 1.42187,-5.34375 1.42188,-2.34375 3.875,-3.67187 2.46875,-1.3125 5.54688,-1.3125 3.10937,0 5.54687,1.3125 2.45313,1.32812 3.875,3.67187 1.42188,2.34375 1.42188,5.34375 0,3.4375 -1.59375,5.65625 -1.57813,2.21875 -4.04688,3.14063 l -1.28125,-3.07813 q 1.875,-0.76562 2.84375,-2.26562 0.98438,-1.5 0.98438,-3.625 0,-1.79688 -0.95313,-3.34375 -0.95312,-1.53125 -2.70312,-2.5 -1.73438,-0.95313 -4.09375,-0.95313 -2.32813,0 -4.09375,0.95313 -1.75,0.96875 -2.71875,2.5 -0.95313,1.54687 -0.95313,3.34375 0,2.17187 1,3.71875 1,1.5625 2.84375,2.32812 l -1.28125,3.04688 q -2.35937,-1 -4,-3.25 -1.64062,-2.23438 -1.64062,-5.67188 z m 21.04687,10.99939 v 11.95313 h -3.09375 v -11.95313 z m -15.04687,3.5625 h 20.79687 v 3.39063 h -19.95312 q -1.60938,0 -2.48438,0.65625 -0.875,0.67187 -0.875,2.1875 0,0.67187 0.1875,1.23437 0.20313,0.5625 0.48438,1 h -3.3125 q -0.25,-0.51562 -0.375,-1.14062 -0.14063,-0.60938 -0.14063,-1.65625 0,-2.5625 1.5,-4.125 1.5,-1.54688 4.17188,-1.54688 z m -5.35938,13.11561 h 28.64063 v 16.5625 h -3.23438 V 839.70129 H 756.831 Z m 12.40625,1.79687 h 3.1875 v 13.48438 h -3.1875 z M 756.831,856.46313 h 20.40625 v 3.25 h -3 v 0.15625 q 1.46875,0.79688 2.54688,2.60938 1.09375,1.82812 1.09375,3.98437 0,3.76563 -2.1875,5.65625 -2.17188,1.90625 -5.78125,1.90625 H 756.831 v -3.39062 h 12.5625 q 2.95313,0 4.17188,-1.42188 1.21875,-1.42187 1.21875,-3.67187 0,-1.67188 -0.9375,-2.95313 -0.9375,-1.28125 -2.42188,-2 -1.46875,-0.71875 -3.10937,-0.71875 H 756.831 Z"
       fill-rule="nonzero"
       id="path62" />
    <path
       fill="#ffffff"
       d="M 998.44354,687.81104 V 959.24408 H 919.8609 V 687.81104 Z"
       fill-rule="evenodd"
       id="path63" />
    <path
       stroke="#a7a7a7"
       stroke-width="1"
       stroke-linejoin="round"
       stroke-linecap="butt"
       d="M 998.44354,687.81104 V 959.24408 H 919.8609 V 687.81104 Z"
       fill-rule="evenodd"
       id="path64" />
    <path
       fill="#000000"
       d="m 944.75226,769.77075 h 28.64062 v 8.64063 q 0,4.46875 -1.82812,7.70312 -1.8125,3.25 -5.0625,5 -3.23438,1.76563 -7.4375,1.76563 -4.1875,0 -7.40625,-1.76563 -3.21875,-1.75 -5.0625,-5 -1.84375,-3.23437 -1.84375,-7.70312 z m 3.23437,3.39063 v 5.25 q 0,3.35937 1.29688,5.82812 1.3125,2.48438 3.78125,3.84375 2.48437,1.35938 6,1.35938 3.53125,0 6,-1.35938 2.48437,-1.35937 3.78125,-3.84375 1.3125,-2.46875 1.3125,-5.82812 v -5.25 z m -3.875,32.51995 q 0,-2.95312 1.39063,-5.25 1.40625,-2.29687 3.84375,-3.60937 2.45312,-1.29688 5.5625,-1.29688 2.92187,0 5.40625,1.21875 2.48437,1.21875 3.98437,3.4375 1.5,2.21875 1.5,5.21875 0,3.04688 -1.34375,5.21875 -1.34375,2.1875 -3.70312,3.35938 -2.35938,1.1875 -5.40625,1.1875 -0.28125,0 -0.5625,-0.0156 -0.26563,-0.0156 -0.46875,-0.0625 v -17.5625 h 2.79687 v 14.04688 q 0.84375,-0.0469 1.8125,-0.39063 0.98438,-0.32812 1.84375,-1.07812 0.85938,-0.73438 1.39063,-1.875 0.54687,-1.14063 0.54687,-2.82813 0,-2 -1.01562,-3.45312 -1.01563,-1.45313 -2.78125,-2.23438 -1.75,-0.78125 -4,-0.78125 -2.59375,0 -4.3125,1 -1.71875,1 -2.5625,2.57813 -0.84375,1.57812 -0.84375,3.29687 0,2.23438 1.0625,3.6875 1.0625,1.46875 2.625,2.35938 l -1.40625,2.875 q -2.3125,-1.20313 -3.84375,-3.45313 -1.51563,-2.23437 -1.51563,-5.59375 z m 0.64063,13.44184 h 20.40625 v 3.25 h -3 v 0.15625 q 1.46875,0.79687 2.54687,2.60937 1.09375,1.82813 1.09375,3.98438 0,3.76562 -2.1875,5.65625 -2.17187,1.90625 -5.78125,1.90625 h -13.07812 v -3.39063 h 12.5625 q 2.95312,0 4.17187,-1.42187 1.21875,-1.42188 1.21875,-3.67188 0,-1.67187 -0.9375,-2.95312 -0.9375,-1.28125 -2.42187,-2 -1.46875,-0.71875 -3.10938,-0.71875 h -11.48437 z m -0.64063,29.36499 q 0,-2.28125 0.73438,-4.03125 0.75,-1.73438 2,-2.875 1.26562,-1.14063 2.75,-1.6875 l 1.35937,3.03125 q -1.84375,0.79687 -2.84375,2.3125 -1,1.53125 -1,3.48437 0,1.89063 0.75,3.14063 0.76563,1.26562 2.25,1.26562 0.92188,0 1.53125,-0.53125 0.625,-0.51562 1.0625,-1.51562 0.45313,-1 0.8125,-2.4375 l 0.64063,-2.48438 q 0.39062,-1.4375 1.10937,-2.71875 0.71875,-1.28125 1.85938,-2.0625 1.14062,-0.76562 2.78125,-0.76562 1.84375,0 3.15625,1.07812 1.32812,1.07813 2.03125,2.82813 0.70312,1.76562 0.70312,3.76562 0,1.76563 -0.5,3.29688 -0.5,1.54687 -1.48437,2.70312 -0.98438,1.15625 -2.42188,1.76563 l -1.35937,-2.96875 q 1.51562,-0.75 2.10937,-2.03125 0.60938,-1.28125 0.60938,-2.84375 0,-1.67188 -0.75,-2.92188 -0.73438,-1.23437 -2.01563,-1.23437 -1.28125,0 -1.92187,1.01562 -0.625,1.01563 -1.03125,2.5 l -0.76563,2.96875 q -0.75,3 -2.25,4.51563 -1.5,1.51562 -3.67187,1.51562 -1.90625,0 -3.3125,-1.07812 -1.40625,-1.07813 -2.17188,-2.92188 -0.75,-1.84375 -0.75,-4.07812 z m 0,21.07312 q 0,-2.95313 1.39063,-5.25 1.40625,-2.29688 3.84375,-3.60938 2.45312,-1.29687 5.5625,-1.29687 2.92187,0 5.40625,1.21875 2.48437,1.21875 3.98437,3.4375 1.5,2.21875 1.5,5.21875 0,3.04687 -1.34375,5.21875 -1.34375,2.1875 -3.70312,3.35937 -2.35938,1.1875 -5.40625,1.1875 -0.28125,0 -0.5625,-0.0156 -0.26563,-0.0156 -0.46875,-0.0625 v -17.5625 h 2.79687 v 14.04687 q 0.84375,-0.0469 1.8125,-0.39062 0.98438,-0.32813 1.84375,-1.07813 0.85938,-0.73437 1.39063,-1.875 0.54687,-1.14062 0.54687,-2.82812 0,-2 -1.01562,-3.45313 -1.01563,-1.45312 -2.78125,-2.23437 -1.75,-0.78125 -4,-0.78125 -2.59375,0 -4.3125,1 -1.71875,1 -2.5625,2.57812 -0.84375,1.57813 -0.84375,3.29688 0,2.23437 1.0625,3.6875 1.0625,1.46875 2.625,2.35937 l -1.40625,2.875 q -2.3125,-1.20312 -3.84375,-3.45312 -1.51563,-2.23438 -1.51563,-5.59375 z"
       fill-rule="nonzero"
       id="path65" />
    <path
       fill="#b7b7b7"
       d="m 1222.2527,679.5282 v -48 h 48 v 48 z"
       fill-rule="evenodd"
       id="path66" />
    <path
       stroke="#a7a7a7"
       stroke-width="1"
       stroke-linejoin="round"
       stroke-linecap="butt"
       d="m 1222.2527,679.5282 v -48 h 48 v 48 z"
       fill-rule="evenodd"
       id="path67" />
    <path
       fill="#999999"
       d="m 1222.252,679.5276 h 48 v 48 h -48 z"
       fill-rule="evenodd"
       id="path68" />
    <path
       stroke="#a7a7a7"
       stroke-width="1"
       stroke-linejoin="round"
       stroke-linecap="butt"
       d="m 1222.252,679.5276 h 48 v 48 h -48 z"
       fill-rule="evenodd"
       id="path69" />
    <path
       fill="#666666"
       d="m 1222.252,727.5276 h 48 v 48 h -48 z"
       fill-rule="evenodd"
       id="path70" />
    <path
       stroke="#a7a7a7"
       stroke-width="1"
       stroke-linejoin="round"
       stroke-linecap="butt"
       d="m 1222.252,727.5276 h 48 v 48 h -48 z"
       fill-rule="evenodd"
       id="path71" />
    <path
       fill="#434343"
       d="m 1222.2506,775.5276 h 48 v 48 h -48 z"
       fill-rule="evenodd"
       id="path72" />
    <path
       stroke="#a7a7a7"
       stroke-width="1"
       stroke-linejoin="round"
       stroke-linecap="butt"
       d="m 1222.2506,775.5276 h 48 v 48 h -48 z"
       fill-rule="evenodd"
       id="path73" />
    <path
       fill="#b7b7b7"
       d="m 1270.2506,967.5276 v 48 h -48 v -48 z"
       fill-rule="evenodd"
       id="path74" />
    <path
       stroke="#a7a7a7"
       stroke-width="1"
       stroke-linejoin="round"
       stroke-linecap="butt"
       d="m 1270.2506,967.5276 v 48 h -48 v -48 z"
       fill-rule="evenodd"
       id="path75" />
    <path
       fill="#999999"
       d="m 1270.2513,967.5282 h -48 v -48 h 48 z"
       fill-rule="evenodd"
       id="path76" />
    <path
       stroke="#a7a7a7"
       stroke-width="1"
       stroke-linejoin="round"
       stroke-linecap="butt"
       d="m 1270.2513,967.5282 h -48 v -48 h 48 z"
       fill-rule="evenodd"
       id="path77" />
    <path
       fill="#666666"
       d="m 1270.2513,919.5282 h -48 v -48 h 48 z"
       fill-rule="evenodd"
       id="path78" />
    <path
       stroke="#a7a7a7"
       stroke-width="1"
       stroke-linejoin="round"
       stroke-linecap="butt"
       d="m 1270.2513,919.5282 h -48 v -48 h 48 z"
       fill-rule="evenodd"
       id="path79" />
    <path
       fill="#434343"
       d="m 1270.2527,871.5282 h -48 v -48 h 48 z"
       fill-rule="evenodd"
       id="path80" />
    <path
       stroke="#a7a7a7"
       stroke-width="1"
       stroke-linejoin="round"
       stroke-linecap="butt"
       d="m 1270.2527,871.5282 h -48 v -48 h 48 z"
       fill-rule="evenodd"
       id="path81" />
    <path
       fill="#b7b7b7"
       d="m 1410.1738,679.5282 v -48 h 48 v 48 z"
       fill-rule="evenodd"
       id="path82" />
    <path
       stroke="#a7a7a7"
       stroke-width="1"
       stroke-linejoin="round"
       stroke-linecap="butt"
       d="m 1410.1738,679.5282 v -48 h 48 v 48 z"
       fill-rule="evenodd"
       id="path83" />
    <path
       fill="#999999"
       d="m 1410.1732,679.5276 h 48 v 48 h -48 z"
       fill-rule="evenodd"
       id="path84" />
    <path
       stroke="#a7a7a7"
       stroke-width="1"
       stroke-linejoin="round"
       stroke-linecap="butt"
       d="m 1410.1732,679.5276 h 48 v 48 h -48 z"
       fill-rule="evenodd"
       id="path85" />
    <path
       fill="#666666"
       d="m 1410.1732,727.5276 h 48 v 48 h -48 z"
       fill-rule="evenodd"
       id="path86" />
    <path
       stroke="#a7a7a7"
       stroke-width="1"
       stroke-linejoin="round"
       stroke-linecap="butt"
       d="m 1410.1732,727.5276 h 48 v 48 h -48 z"
       fill-rule="evenodd"
       id="path87" />
    <path
       fill="#434343"
       d="m 1410.1719,775.5276 h 48 v 48 h -48 z"
       fill-rule="evenodd"
       id="path88" />
    <path
       stroke="#a7a7a7"
       stroke-width="1"
       stroke-linejoin="round"
       stroke-linecap="butt"
       d="m 1410.1719,775.5276 h 48 v 48 h -48 z"
       fill-rule="evenodd"
       id="path89" />
    <path
       fill="#b7b7b7"
       d="m 1458.1719,967.5276 v 48 h -48 v -48 z"
       fill-rule="evenodd"
       id="path90" />
    <path
       stroke="#a7a7a7"
       stroke-width="1"
       stroke-linejoin="round"
       stroke-linecap="butt"
       d="m 1458.1719,967.5276 v 48 h -48 v -48 z"
       fill-rule="evenodd"
       id="path91" />
    <path
       fill="#999999"
       d="m 1458.1726,967.5282 h -48 v -48 h 48 z"
       fill-rule="evenodd"
       id="path92" />
    <path
       stroke="#a7a7a7"
       stroke-width="1"
       stroke-linejoin="round"
       stroke-linecap="butt"
       d="m 1458.1726,967.5282 h -48 v -48 h 48 z"
       fill-rule="evenodd"
       id="path93" />
    <path
       fill="#666666"
       d="m 1458.1726,919.5282 h -48 v -48 h 48 z"
       fill-rule="evenodd"
       id="path94" />
    <path
       stroke="#a7a7a7"
       stroke-width="1"
       stroke-linejoin="round"
       stroke-linecap="butt"
       d="m 1458.1726,919.5282 h -48 v -48 h 48 z"
       fill-rule="evenodd"
       id="path95" />
    <path
       fill="#434343"
       d="m 1458.1738,871.5282 h -48 v -48 h 48 z"
       fill-rule="evenodd"
       id="path96" />
    <path
       stroke="#a7a7a7"
       stroke-width="1"
       stroke-linejoin="round"
       stroke-linecap="butt"
       d="m 1458.1738,871.5282 h -48 v -48 h 48 z"
       fill-rule="evenodd"
       id="path97" />
    <path
       fill="#ffffff"
       d="M 1191.5826,687.81104 V 959.24408 H 1113 V 687.81104 Z"
       fill-rule="evenodd"
       id="path98" />
    <path
       stroke="#a7a7a7"
       stroke-width="1"
       stroke-linejoin="round"
       stroke-linecap="butt"
       d="M 1191.5826,687.81104 V 959.24408 H 1113 V 687.81104 Z"
       fill-rule="evenodd"
       id="path99" />
    <path
       fill="#000000"
       d="m 1137.8914,769.77075 h 28.6406 v 8.64063 q 0,4.46875 -1.8281,7.70312 -1.8125,3.25 -5.0625,5 -3.2344,1.76563 -7.4375,1.76563 -4.1875,0 -7.4062,-1.76563 -3.2188,-1.75 -5.0625,-5 -1.8438,-3.23437 -1.8438,-7.70312 z m 3.2344,3.39063 v 5.25 q 0,3.35937 1.2969,5.82812 1.3125,2.48438 3.7812,3.84375 2.4844,1.35938 6,1.35938 3.5313,0 6,-1.35938 2.4844,-1.35937 3.7813,-3.84375 1.3125,-2.46875 1.3125,-5.82812 v -5.25 z m -3.875,32.51995 q 0,-2.95312 1.3906,-5.25 1.4063,-2.29687 3.8438,-3.60937 2.4531,-1.29688 5.5625,-1.29688 2.9218,0 5.4062,1.21875 2.4844,1.21875 3.9844,3.4375 1.5,2.21875 1.5,5.21875 0,3.04688 -1.3438,5.21875 -1.3437,2.1875 -3.7031,3.35938 -2.3594,1.1875 -5.4062,1.1875 -0.2813,0 -0.5625,-0.0156 -0.2657,-0.0156 -0.4688,-0.0625 v -17.5625 h 2.7969 v 14.04688 q 0.8437,-0.0469 1.8125,-0.39063 0.9844,-0.32812 1.8437,-1.07812 0.8594,-0.73438 1.3907,-1.875 0.5468,-1.14063 0.5468,-2.82813 0,-2 -1.0156,-3.45312 -1.0156,-1.45313 -2.7812,-2.23438 -1.75,-0.78125 -4,-0.78125 -2.5938,0 -4.3125,1 -1.7188,1 -2.5625,2.57813 -0.8438,1.57812 -0.8438,3.29687 0,2.23438 1.0625,3.6875 1.0625,1.46875 2.625,2.35938 l -1.4062,2.875 q -2.3125,-1.20313 -3.8438,-3.45313 -1.5156,-2.23437 -1.5156,-5.59375 z m 0.6406,13.44184 h 20.4063 v 3.25 h -3 v 0.15625 q 1.4687,0.79687 2.5468,2.60937 1.0938,1.82813 1.0938,3.98438 0,3.76562 -2.1875,5.65625 -2.1719,1.90625 -5.7813,1.90625 h -13.0781 v -3.39063 h 12.5625 q 2.9531,0 4.1719,-1.42187 1.2187,-1.42188 1.2187,-3.67188 0,-1.67187 -0.9375,-2.95312 -0.9375,-1.28125 -2.4218,-2 -1.4688,-0.71875 -3.1094,-0.71875 h -11.4844 z m -0.6406,29.36499 q 0,-2.28125 0.7344,-4.03125 0.75,-1.73438 2,-2.875 1.2656,-1.14063 2.75,-1.6875 l 1.3593,3.03125 q -1.8437,0.79687 -2.8437,2.3125 -1,1.53125 -1,3.48437 0,1.89063 0.75,3.14063 0.7656,1.26562 2.25,1.26562 0.9219,0 1.5312,-0.53125 0.625,-0.51562 1.0625,-1.51562 0.4532,-1 0.8125,-2.4375 l 0.6407,-2.48438 q 0.3906,-1.4375 1.1093,-2.71875 0.7188,-1.28125 1.8594,-2.0625 1.1406,-0.76562 2.7813,-0.76562 1.8437,0 3.1562,1.07812 1.3281,1.07813 2.0313,2.82813 0.7031,1.76562 0.7031,3.76562 0,1.76563 -0.5,3.29688 -0.5,1.54687 -1.4844,2.70312 -0.9844,1.15625 -2.4219,1.76563 l -1.3593,-2.96875 q 1.5156,-0.75 2.1093,-2.03125 0.6094,-1.28125 0.6094,-2.84375 0,-1.67188 -0.75,-2.92188 -0.7344,-1.23437 -2.0156,-1.23437 -1.2813,0 -1.9219,1.01562 -0.625,1.01563 -1.0312,2.5 l -0.7657,2.96875 q -0.75,3 -2.25,4.51563 -1.5,1.51562 -3.6718,1.51562 -1.9063,0 -3.3125,-1.07812 -1.4063,-1.07813 -2.1719,-2.92188 -0.75,-1.84375 -0.75,-4.07812 z m 0,21.07312 q 0,-2.95313 1.3906,-5.25 1.4063,-2.29688 3.8438,-3.60938 2.4531,-1.29687 5.5625,-1.29687 2.9218,0 5.4062,1.21875 2.4844,1.21875 3.9844,3.4375 1.5,2.21875 1.5,5.21875 0,3.04687 -1.3438,5.21875 -1.3437,2.1875 -3.7031,3.35937 -2.3594,1.1875 -5.4062,1.1875 -0.2813,0 -0.5625,-0.0156 -0.2657,-0.0156 -0.4688,-0.0625 v -17.5625 h 2.7969 v 14.04687 q 0.8437,-0.0469 1.8125,-0.39062 0.9844,-0.32813 1.8437,-1.07813 0.8594,-0.73437 1.3907,-1.875 0.5468,-1.14062 0.5468,-2.82812 0,-2 -1.0156,-3.45313 -1.0156,-1.45312 -2.7812,-2.23437 -1.75,-0.78125 -4,-0.78125 -2.5938,0 -4.3125,1 -1.7188,1 -2.5625,2.57812 -0.8438,1.57813 -0.8438,3.29688 0,2.23437 1.0625,3.6875 1.0625,1.46875 2.625,2.35937 l -1.4062,2.875 q -2.3125,-1.20312 -3.8438,-3.45312 -1.5156,-2.23438 -1.5156,-5.59375 z"
       fill-rule="nonzero"
       id="path100" />
    <path
       fill="#ffffff"
       d="m 1379.5039,687.81104 v 271.43304 h -78.5826 V 687.81104 Z"
       fill-rule="evenodd"
       id="path101" />
    <path
       stroke="#a7a7a7"
       stroke-width="1"
       stroke-linejoin="round"
       stroke-linecap="butt"
       d="m 1379.5039,687.81104 v 271.43304 h -78.5826 V 687.81104 Z"
       fill-rule="evenodd"
       id="path102" />
    <path
       fill="#000000"
       d="m 1325.8126,771.26135 28.6406,10.89062 v 3.82813 l -28.6406,10.89062 v -3.71875 l 21.4063,-7.89062 3.0781,-1.10938 v -0.17187 l -3.0781,-1.10938 -21.4063,-7.89062 z m 7.875,12.40625 h 3.2031 v 6.59375 l -3.2031,1.17187 z m 0,-7.76563 3.2031,1.17188 v 6.59375 h -3.2031 z m -8.5156,32.7312 q 0,-3 1.4219,-5.34375 1.4218,-2.34375 3.875,-3.67187 2.4687,-1.3125 5.5468,-1.3125 3.1094,0 5.5469,1.3125 2.4531,1.32812 3.875,3.67187 1.4219,2.34375 1.4219,5.34375 0,3.4375 -1.5938,5.65625 -1.5781,2.21875 -4.0468,3.14063 l -1.2813,-3.07813 q 1.875,-0.76562 2.8438,-2.26562 0.9843,-1.5 0.9843,-3.625 0,-1.79688 -0.9531,-3.34375 -0.9531,-1.53125 -2.7031,-2.5 -1.7344,-0.95313 -4.0938,-0.95313 -2.3281,0 -4.0937,0.95313 -1.75,0.96875 -2.7188,2.5 -0.9531,1.54687 -0.9531,3.34375 0,2.17187 1,3.71875 1,1.5625 2.8438,2.32812 l -1.2813,3.04688 q -2.3594,-1 -4,-3.25 -1.6406,-2.23438 -1.6406,-5.67188 z m 21.0469,10.99939 v 11.95313 h -3.0938 v -11.95313 z m -15.0469,3.5625 h 20.7969 v 3.39063 h -19.9532 q -1.6093,0 -2.4843,0.65625 -0.875,0.67187 -0.875,2.1875 0,0.67187 0.1875,1.23437 0.2031,0.5625 0.4843,1 h -3.3125 q -0.25,-0.51562 -0.375,-1.14062 -0.1406,-0.60938 -0.1406,-1.65625 0,-2.5625 1.5,-4.125 1.5,-1.54688 4.1719,-1.54688 z m -5.3594,13.11561 h 28.6406 v 16.5625 h -3.2343 v -13.17188 h -25.4063 z m 12.4063,1.79687 h 3.1875 v 13.48438 h -3.1875 z m -12.4063,18.35559 h 20.4063 v 3.25 h -3 v 0.15625 q 1.4687,0.79688 2.5468,2.60938 1.0938,1.82812 1.0938,3.98437 0,3.76563 -2.1875,5.65625 -2.1719,1.90625 -5.7813,1.90625 h -13.0781 v -3.39062 h 12.5625 q 2.9531,0 4.1719,-1.42188 1.2187,-1.42187 1.2187,-3.67187 0,-1.67188 -0.9375,-2.95313 -0.9375,-1.28125 -2.4218,-2 -1.4688,-0.71875 -3.1094,-0.71875 h -11.4844 z"
       fill-rule="nonzero"
       id="path103" />
    <path
       fill="#ffffff"
       d="m 1567.4252,687.81104 v 271.43304 h -78.5826 V 687.81104 Z"
       fill-rule="evenodd"
       id="path104" />
    <path
       stroke="#a7a7a7"
       stroke-width="1"
       stroke-linejoin="round"
       stroke-linecap="butt"
       d="m 1567.4252,687.81104 v 271.43304 h -78.5826 V 687.81104 Z"
       fill-rule="evenodd"
       id="path105" />
    <path
       fill="#000000"
       d="m 1513.7339,769.77075 h 28.6406 v 8.64063 q 0,4.46875 -1.8281,7.70312 -1.8125,3.25 -5.0625,5 -3.2344,1.76563 -7.4375,1.76563 -4.1875,0 -7.4062,-1.76563 -3.2188,-1.75 -5.0625,-5 -1.8438,-3.23437 -1.8438,-7.70312 z m 3.2344,3.39063 v 5.25 q 0,3.35937 1.2969,5.82812 1.3125,2.48438 3.7812,3.84375 2.4844,1.35938 6,1.35938 3.5313,0 6,-1.35938 2.4844,-1.35937 3.7813,-3.84375 1.3125,-2.46875 1.3125,-5.82812 v -5.25 z m -3.875,32.51995 q 0,-2.95312 1.3906,-5.25 1.4063,-2.29687 3.8438,-3.60937 2.4531,-1.29688 5.5625,-1.29688 2.9218,0 5.4062,1.21875 2.4844,1.21875 3.9844,3.4375 1.5,2.21875 1.5,5.21875 0,3.04688 -1.3438,5.21875 -1.3437,2.1875 -3.7031,3.35938 -2.3594,1.1875 -5.4062,1.1875 -0.2813,0 -0.5625,-0.0156 -0.2657,-0.0156 -0.4688,-0.0625 v -17.5625 h 2.7969 v 14.04688 q 0.8437,-0.0469 1.8125,-0.39063 0.9844,-0.32812 1.8437,-1.07812 0.8594,-0.73438 1.3907,-1.875 0.5468,-1.14063 0.5468,-2.82813 0,-2 -1.0156,-3.45312 -1.0156,-1.45313 -2.7812,-2.23438 -1.75,-0.78125 -4,-0.78125 -2.5938,0 -4.3125,1 -1.7188,1 -2.5625,2.57813 -0.8438,1.57812 -0.8438,3.29687 0,2.23438 1.0625,3.6875 1.0625,1.46875 2.625,2.35938 l -1.4062,2.875 q -2.3125,-1.20313 -3.8438,-3.45313 -1.5156,-2.23437 -1.5156,-5.59375 z m 0.6406,13.44184 h 20.4063 v 3.25 h -3 v 0.15625 q 1.4687,0.79687 2.5468,2.60937 1.0938,1.82813 1.0938,3.98438 0,3.76562 -2.1875,5.65625 -2.1719,1.90625 -5.7813,1.90625 h -13.0781 v -3.39063 h 12.5625 q 2.9531,0 4.1719,-1.42187 1.2187,-1.42188 1.2187,-3.67188 0,-1.67187 -0.9375,-2.95312 -0.9375,-1.28125 -2.4218,-2 -1.4688,-0.71875 -3.1094,-0.71875 h -11.4844 z m -0.6406,29.36499 q 0,-2.28125 0.7344,-4.03125 0.75,-1.73438 2,-2.875 1.2656,-1.14063 2.75,-1.6875 l 1.3593,3.03125 q -1.8437,0.79687 -2.8437,2.3125 -1,1.53125 -1,3.48437 0,1.89063 0.75,3.14063 0.7656,1.26562 2.25,1.26562 0.9219,0 1.5312,-0.53125 0.625,-0.51562 1.0625,-1.51562 0.4532,-1 0.8125,-2.4375 l 0.6407,-2.48438 q 0.3906,-1.4375 1.1093,-2.71875 0.7188,-1.28125 1.8594,-2.0625 1.1406,-0.76562 2.7813,-0.76562 1.8437,0 3.1562,1.07812 1.3281,1.07813 2.0313,2.82813 0.7031,1.76562 0.7031,3.76562 0,1.76563 -0.5,3.29688 -0.5,1.54687 -1.4844,2.70312 -0.9844,1.15625 -2.4219,1.76563 l -1.3593,-2.96875 q 1.5156,-0.75 2.1093,-2.03125 0.6094,-1.28125 0.6094,-2.84375 0,-1.67188 -0.75,-2.92188 -0.7344,-1.23437 -2.0156,-1.23437 -1.2813,0 -1.9219,1.01562 -0.625,1.01563 -1.0312,2.5 l -0.7657,2.96875 q -0.75,3 -2.25,4.51563 -1.5,1.51562 -3.6718,1.51562 -1.9063,0 -3.3125,-1.07812 -1.4063,-1.07813 -2.1719,-2.92188 -0.75,-1.84375 -0.75,-4.07812 z m 0,21.07312 q 0,-2.95313 1.3906,-5.25 1.4063,-2.29688 3.8438,-3.60938 2.4531,-1.29687 5.5625,-1.29687 2.9218,0 5.4062,1.21875 2.4844,1.21875 3.9844,3.4375 1.5,2.21875 1.5,5.21875 0,3.04687 -1.3438,5.21875 -1.3437,2.1875 -3.7031,3.35937 -2.3594,1.1875 -5.4062,1.1875 -0.2813,0 -0.5625,-0.0156 -0.2657,-0.0156 -0.4688,-0.0625 v -17.5625 h 2.7969 v 14.04687 q 0.8437,-0.0469 1.8125,-0.39062 0.9844,-0.32813 1.8437,-1.07813 0.8594,-0.73437 1.3907,-1.875 0.5468,-1.14062 0.5468,-2.82812 0,-2 -1.0156,-3.45313 -1.0156,-1.45312 -2.7812,-2.23437 -1.75,-0.78125 -4,-0.78125 -2.5938,0 -4.3125,1 -1.7188,1 -2.5625,2.57812 -0.8438,1.57813 -0.8438,3.29688 0,2.23437 1.0625,3.6875 1.0625,1.46875 2.625,2.35937 l -1.4062,2.875 q -2.3125,-1.20312 -3.8438,-3.45312 -1.5156,-2.23438 -1.5156,-5.59375 z"
       fill-rule="nonzero"
       id="path106" />
    <path
       fill="#f7cecd"
       d="m 1607.8511,775.5282 v -48 h 48 v 48 z"
       fill-rule="evenodd"
       id="path107" />
    <path
       stroke="#a7a7a7"
       stroke-width="1"
       stroke-linejoin="round"
       stroke-linecap="butt"
       d="m 1607.8511,775.5282 v -48 h 48 v 48 z"
       fill-rule="evenodd"
       id="path108" />
    <path
       fill="#f5908d"
       d="m 1607.8503,775.5276 h 48 v 48 h -48 z"
       fill-rule="evenodd"
       id="path109" />
    <path
       stroke="#a7a7a7"
       stroke-width="1"
       stroke-linejoin="round"
       stroke-linecap="butt"
       d="m 1607.8503,775.5276 h 48 v 48 h -48 z"
       fill-rule="evenodd"
       id="path110" />
    <path
       fill="#db4437"
       d="m 1607.8503,823.5276 h 48 v 48 h -48 z"
       fill-rule="evenodd"
       id="path111" />
    <path
       stroke="#a7a7a7"
       stroke-width="1"
       stroke-linejoin="round"
       stroke-linecap="butt"
       d="m 1607.8503,823.5276 h 48 v 48 h -48 z"
       fill-rule="evenodd"
       id="path112" />
    <path
       fill="#e6b8af"
       d="m 1607.8491,871.5276 h 48 v 48 h -48 z"
       fill-rule="evenodd"
       id="path113" />
    <path
       stroke="#a7a7a7"
       stroke-width="1"
       stroke-linejoin="round"
       stroke-linecap="butt"
       d="m 1607.8491,871.5276 h 48 v 48 h -48 z"
       fill-rule="evenodd"
       id="path114" />
    <path
       fill="#000000"
       fill-opacity="0"
       d="m 657.54596,1140.0027 h 794.64574 v 84.0315 H 657.54596 Z"
       fill-rule="evenodd"
       id="path115" />
    <path
       fill="#a7a7a7"
       d="m 697.67725,1200.2026 v -38.1875 h 12.90625 q 3.20312,0 5.89062,1.4531 2.6875,1.4375 4.3125,3.9688 1.64063,2.5312 1.64063,5.8906 0,2.0313 -0.75,4.0313 -0.75,2 -2.32813,3.6562 -1.5625,1.6406 -4,2.625 -2.42187,0.9844 -5.78125,0.9844 h -9.48437 v -4.2031 h 10.23437 q 1.96875,0 3.67188,-0.9063 1.71875,-0.9062 2.78125,-2.5 1.0625,-1.6094 1.0625,-3.6875 0,-1.7031 -0.875,-3.2969 -0.875,-1.6093 -2.48438,-2.6406 -1.59375,-1.0469 -3.84375,-1.0469 h -8.42187 v 33.8594 z m 9.21875,-17.4844 4.96875,-0.2812 12.04687,17.5469 v 0.2187 h -5.32812 z m 32.70129,18.3438 q -3.95312,0 -7.01562,-1.8594 -3.0625,-1.875 -4.79688,-5.125 -1.73437,-3.2656 -1.73437,-7.4219 0,-3.8906 1.625,-7.1875 1.625,-3.3125 4.57812,-5.3125 2.96875,-2 6.96875,-2 4.04688,0 6.95313,1.7813 2.90625,1.7812 4.48437,4.9375 1.57813,3.1406 1.57813,7.2031 0,0.3594 -0.0312,0.7344 -0.0312,0.375 -0.0781,0.6406 h -23.40625 v -3.7344 h 18.70313 q -0.0469,-1.1093 -0.5,-2.4218 -0.45313,-1.3125 -1.4375,-2.4532 -0.98438,-1.1406 -2.51563,-1.8593 -1.51562,-0.7188 -3.75,-0.7188 -2.67187,0 -4.625,1.3594 -1.9375,1.3594 -2.98437,3.7031 -1.03125,2.3438 -1.03125,5.3281 0,3.4688 1.32812,5.7657 1.34375,2.2812 3.4375,3.4062 2.10938,1.125 4.40625,1.125 2.98438,0 4.92188,-1.4062 1.95312,-1.4219 3.125,-3.5 l 3.84375,1.8593 q -1.59375,3.0938 -4.59375,5.125 -2.98438,2.0313 -7.45313,2.0313 z m 30.49347,0 q -4,0 -7.125,-1.8906 -3.10937,-1.9063 -4.875,-5.1875 -1.75,-3.2813 -1.75,-7.375 0,-4.1719 1.75,-7.4219 1.76563,-3.25 4.875,-5.1406 3.125,-1.8907 7.125,-1.8907 4.59375,0 7.54688,2.1094 2.96875,2.0938 4.1875,5.4063 l -4.10938,1.7031 q -1,-2.5 -3,-3.7969 -2,-1.3125 -4.82812,-1.3125 -2.40625,0 -4.46875,1.2813 -2.04688,1.2656 -3.32813,3.5937 -1.26562,2.3125 -1.26562,5.4688 0,3.0937 1.26562,5.4375 1.28125,2.3437 3.32813,3.625 2.0625,1.2812 4.46875,1.2812 2.875,0 4.95312,-1.3281 2.07813,-1.3438 3.09375,-3.7969 l 4.0625,1.7031 q -1.34375,3.1563 -4.32812,5.3438 -2.98438,2.1875 -7.57813,2.1875 z m 29.06916,0 q -4.10938,0 -7.25,-1.9219 -3.14063,-1.9219 -4.9375,-5.2031 -1.78125,-3.2813 -1.78125,-7.3281 0,-4.0625 1.78125,-7.3282 1.79687,-3.2812 4.9375,-5.2031 3.14062,-1.9219 7.25,-1.9219 4.10937,0 7.25,1.9532 3.15625,1.9375 4.9375,5.2187 1.78125,3.2813 1.78125,7.2813 0,4.0468 -1.78125,7.3281 -1.78125,3.2812 -4.9375,5.2031 -3.14063,1.9219 -7.25,1.9219 z m 0,-4.1094 q 2.45312,0 4.60937,-1.2187 2.17188,-1.2344 3.5,-3.5469 1.32813,-2.3281 1.32813,-5.5781 0,-3.2657 -1.32813,-5.5782 -1.32812,-2.3125 -3.5,-3.5312 -2.15625,-1.2344 -4.60937,-1.2344 -2.45313,0 -4.64063,1.2344 -2.1875,1.2187 -3.51562,3.5312 -1.32813,2.3125 -1.32813,5.5782 0,3.25 1.32813,5.5781 1.32812,2.3125 3.51562,3.5469 2.1875,1.2187 4.64063,1.2187 z m 18.71893,3.25 v -27.2031 h 4.3125 v 4 h 0.21875 q 0.75,-1.3281 2.04687,-2.4219 1.3125,-1.0937 2.98438,-1.75 1.6875,-0.6719 3.45312,-0.6719 3.03125,0 5.21875,1.4688 2.1875,1.4531 3.15625,3.8125 1.375,-2.2969 3.71875,-3.7813 2.35938,-1.5 5.60938,-1.5 4.84375,0 7.14062,2.9375 2.29688,2.9219 2.29688,7.6719 v 17.4375 h -4.48438 v -16.75 q 0,-3.9375 -1.59375,-5.5625 -1.59375,-1.625 -4.53125,-1.625 -2.07812,0 -3.70312,1.2031 -1.625,1.1875 -2.5625,3.1407 -0.9375,1.9375 -0.9375,4.2343 v 15.3594 h -4.53125 v -16.6875 q 0,-3.9531 -1.60938,-5.5937 -1.59375,-1.6563 -4.46875,-1.6563 -2.07812,0 -3.70312,1.2344 -1.625,1.2187 -2.5625,3.1875 -0.9375,1.9687 -0.9375,4.2656 v 15.25 z m 46.66205,11.5156 v -38.7187 h 4.3125 v 4.0625 h 0.21875 q 0.75,-1.2813 2.10937,-2.3906 1.35938,-1.125 3.17188,-1.8125 1.8125,-0.7032 4,-0.7032 3.73437,0 6.65625,1.875 2.9375,1.8594 4.64062,5.1094 1.71875,3.25 1.71875,7.4688 0,4.2031 -1.71875,7.4687 -1.70312,3.25 -4.64062,5.125 -2.92188,1.8594 -6.65625,1.8594 -3.25,0 -5.70313,-1.5 -2.45312,-1.5 -3.57812,-3.3594 h -0.21875 l 0.21875,3.7344 v 11.7812 z m 13.32812,-14.7656 q 2.34375,0 4.39063,-1.25 2.0625,-1.2656 3.3125,-3.6094 1.26562,-2.3437 1.26562,-5.4843 0,-3.2032 -1.26562,-5.5157 -1.25,-2.3281 -3.3125,-3.5781 -2.04688,-1.25 -4.39063,-1.25 -2.34375,0 -4.40625,1.25 -2.04687,1.25 -3.32812,3.5781 -1.28125,2.3125 -1.28125,5.5157 0,3.1875 1.28125,5.5156 1.28125,2.3125 3.32812,3.5781 2.0625,1.25 4.40625,1.25 z m 28.36805,4.1094 q -5,0 -7.54688,-2.9375 -2.53125,-2.9375 -2.53125,-8 v -17.125 h 4.53125 v 16.4375 q 0,4.0469 1.85938,5.7812 1.875,1.7344 4.65625,1.7344 2.39062,0 4.15625,-1.25 1.76562,-1.2656 2.71881,-3.2344 0.96875,-1.9687 0.96875,-4.1093 v -15.3594 h 4.53125 v 27.2031 h -4.32813 v -3.9531 h -0.20312 q -0.70313,1.2812 -2.06256,2.375 -1.35938,1.0937 -3.09375,1.7656 -1.73438,0.6719 -3.65625,0.6719 z m 18.46496,-28.0625 h 15.9375 v 4.1094 h -15.9375 z m 4.73438,20.0625 v -27.7344 h 4.53125 v 26.6094 q 0,2.1406 0.875,3.3125 0.89062,1.1719 2.92187,1.1719 0.90625,0 1.64063,-0.2657 0.75,-0.2656 1.34375,-0.6406 v 4.4219 q -0.6875,0.3125 -1.51563,0.5 -0.82812,0.1875 -2.21875,0.1875 -3.40625,0 -5.5,-2 -2.07812,-2 -2.07812,-5.5625 z m 27.52575,8 q -3.95312,0 -7.01562,-1.8594 -3.0625,-1.875 -4.79688,-5.125 -1.73437,-3.2656 -1.73437,-7.4219 0,-3.8906 1.625,-7.1875 1.625,-3.3125 4.57812,-5.3125 2.96875,-2 6.96875,-2 4.04688,0 6.95313,1.7813 2.90625,1.7812 4.48437,4.9375 1.57813,3.1406 1.57813,7.2031 0,0.3594 -0.0312,0.7344 -0.0312,0.375 -0.0781,0.6406 h -23.40625 v -3.7344 h 18.70313 q -0.0469,-1.1093 -0.5,-2.4218 -0.45313,-1.3125 -1.4375,-2.4532 -0.98438,-1.1406 -2.51563,-1.8593 -1.51562,-0.7188 -3.75,-0.7188 -2.67187,0 -4.625,1.3594 -1.9375,1.3594 -2.98437,3.7031 -1.03125,2.3438 -1.03125,5.3281 0,3.4688 1.32812,5.7657 1.34375,2.2812 3.4375,3.4062 2.10938,1.125 4.40625,1.125 2.98438,0 4.92188,-1.4062 1.95312,-1.4219 3.125,-3.5 l 3.84375,1.8593 q -1.59375,3.0938 -4.59375,5.125 -2.98438,2.0313 -7.45313,2.0313 z m 42.81769,0 q -4.10937,0 -7.25,-1.9219 -3.14062,-1.9219 -4.9375,-5.2031 -1.78125,-3.2813 -1.78125,-7.3281 0,-4.0625 1.78125,-7.3282 1.79688,-3.2812 4.9375,-5.2031 3.14063,-1.9219 7.25,-1.9219 4.10935,0 7.25005,1.9532 3.1562,1.9375 4.9375,5.2187 1.7812,3.2813 1.7812,7.2813 0,4.0468 -1.7812,7.3281 -1.7813,3.2812 -4.9375,5.2031 -3.1407,1.9219 -7.25005,1.9219 z m 0,-4.1094 q 2.45315,0 4.60935,-1.2187 2.1719,-1.2344 3.5,-3.5469 1.3282,-2.3281 1.3282,-5.5781 0,-3.2657 -1.3282,-5.5782 -1.3281,-2.3125 -3.5,-3.5312 -2.1562,-1.2344 -4.60935,-1.2344 -2.45312,0 -4.64062,1.2344 -2.1875,1.2187 -3.51563,3.5312 -1.32812,2.3125 -1.32812,5.5782 0,3.25 1.32812,5.5781 1.32813,2.3125 3.51563,3.5469 2.1875,1.2187 4.64062,1.2187 z m 18.71885,3.25 v -27.2031 h 4.3125 v 4 h 0.2188 q 1.0625,-1.9688 3.4844,-3.4063 2.4375,-1.4375 5.3125,-1.4375 5.0156,0 7.5469,2.9063 2.5312,2.9062 2.5312,7.7031 v 17.4375 h -4.5312 v -16.75 q 0,-3.9375 -1.8906,-5.5625 -1.8907,-1.625 -4.875,-1.625 -2.25,0 -3.9532,1.25 -1.7031,1.25 -2.6719,3.2344 -0.9531,1.9687 -0.9531,4.1406 v 15.3125 z m 56.1016,0.8594 q -2.1875,0 -4,-0.7031 -1.8125,-0.6875 -3.1718,-1.7969 -1.3594,-1.125 -2.1094,-2.3594 h -0.2188 v 4 h -4.3125 v -38.1875 h 4.5313 v 11.25 l -0.2188,3.7969 h 0.2188 q 0.75,-1.2813 2.1094,-2.3906 1.3593,-1.125 3.1718,-1.8125 1.8125,-0.7032 4,-0.7032 3.7344,0 6.6563,1.875 2.9375,1.8594 4.6406,5.1094 1.7188,3.25 1.7188,7.4688 0,4.2031 -1.7188,7.4687 -1.7031,3.25 -4.6406,5.125 -2.9219,1.8594 -6.6563,1.8594 z m -0.4843,-4.1094 q 2.3437,0 4.3906,-1.25 2.0625,-1.2656 3.3125,-3.6094 1.2656,-2.3437 1.2656,-5.4843 0,-3.2032 -1.2656,-5.5157 -1.25,-2.3281 -3.3125,-3.5781 -2.0469,-1.25 -4.3906,-1.25 -2.3438,0 -4.4063,1.25 -2.0469,1.25 -3.3281,3.5781 -1.2813,2.3125 -1.2813,5.5157 0,3.1875 1.2813,5.5156 1.2812,2.3125 3.3281,3.5781 2.0625,1.25 4.4063,1.25 z m 27.4629,4.1094 q -3.0313,0 -5.3282,-1.1719 -2.2968,-1.1875 -3.6093,-3.2344 -1.2969,-2.0468 -1.2969,-4.6718 0,-2.9844 1.5469,-5.0313 1.5468,-2.0625 4.1562,-3.0937 2.6094,-1.0469 5.7656,-1.0469 1.8125,0 3.3594,0.2969 1.5469,0.2968 2.6875,0.7031 1.1563,0.3906 1.7344,0.7656 v -1.6562 q 0,-3.0938 -2.1875,-4.9063 -2.1875,-1.8125 -5.3281,-1.8125 -2.2344,0 -4.1875,0.9844 -1.9532,0.9844 -3.0625,2.75 l -3.4219,-2.5625 q 1.0781,-1.5938 2.6719,-2.7656 1.5937,-1.1719 3.6406,-1.8125 2.0625,-0.6407 4.3594,-0.6407 5.5468,0 8.6875,2.9375 3.1562,2.9219 3.1562,7.8907 v 17.2187 h -4.3281 v -3.8906 h -0.2188 q -0.6875,1.1719 -1.9687,2.2656 -1.2813,1.0938 -3.0156,1.7813 -1.7344,0.7031 -3.8125,0.7031 z m 0.4375,-4 q 2.3437,0 4.2812,-1.1719 1.9531,-1.1875 3.125,-3.1562 1.1719,-1.9688 1.1719,-4.3125 -1.2188,-0.8594 -3.0625,-1.3907 -1.8438,-0.5312 -4.0313,-0.5312 -3.8906,0 -5.7031,1.6094 -1.8125,1.5937 -1.8125,3.9375 0,2.2343 1.7031,3.625 1.7032,1.3906 4.3282,1.3906 z m 31.238,4 q -4,0 -7.125,-1.8906 -3.1094,-1.9063 -4.875,-5.1875 -1.75,-3.2813 -1.75,-7.375 0,-4.1719 1.75,-7.4219 1.7656,-3.25 4.875,-5.1406 3.125,-1.8907 7.125,-1.8907 4.5938,0 7.5469,2.1094 2.9687,2.0938 4.1875,5.4063 l -4.1094,1.7031 q -1,-2.5 -3,-3.7969 -2,-1.3125 -4.8281,-1.3125 -2.4063,0 -4.4688,1.2813 -2.0468,1.2656 -3.3281,3.5937 -1.2656,2.3125 -1.2656,5.4688 0,3.0937 1.2656,5.4375 1.2813,2.3437 3.3281,3.625 2.0625,1.2812 4.4688,1.2812 2.875,0 4.9531,-1.3281 2.0781,-1.3438 3.0938,-3.7969 l 4.0625,1.7031 q -1.3438,3.1563 -4.3282,5.3438 -2.9843,2.1875 -7.5781,2.1875 z m 16.8046,-0.8594 v -38.1875 h 4.5312 v 38.1875 z m 1.7031,-5.5469 v -5.8125 l 15.625,-15.8437 h 5.7656 v 0.2187 z m 16.2656,5.5469 -9.8125,-14.6094 3.2031,-3.1562 12.0469,17.5469 v 0.2187 z m 14.7276,0 -8.75,-27.2031 h 4.6875 l 6.4531,21.5 h 0.062 l 6.875,-21.5 h 4.6406 l 6.875,21.4375 h 0.062 l 6.4375,-21.4375 h 4.5938 l -8.7969,27.2031 h -4.5938 l -7.0312,-21.7031 v 0 l -6.9844,21.7031 z m 43.8243,0.8594 q -3.0313,0 -5.3281,-1.1719 -2.2969,-1.1875 -3.6094,-3.2344 -1.2969,-2.0468 -1.2969,-4.6718 0,-2.9844 1.5469,-5.0313 1.5469,-2.0625 4.1562,-3.0937 2.6094,-1.0469 5.7657,-1.0469 1.8125,0 3.3593,0.2969 1.5469,0.2968 2.6875,0.7031 1.1563,0.3906 1.7344,0.7656 v -1.6562 q 0,-3.0938 -2.1875,-4.9063 -2.1875,-1.8125 -5.3281,-1.8125 -2.2344,0 -4.1875,0.9844 -1.9531,0.9844 -3.0625,2.75 l -3.4219,-2.5625 q 1.0781,-1.5938 2.6719,-2.7656 1.5937,-1.1719 3.6406,-1.8125 2.0625,-0.6407 4.3594,-0.6407 5.5469,0 8.6875,2.9375 3.1562,2.9219 3.1562,7.8907 v 17.2187 h -4.3281 v -3.8906 h -0.2187 q -0.6875,1.1719 -1.9688,2.2656 -1.2812,1.0938 -3.0156,1.7813 -1.7344,0.7031 -3.8125,0.7031 z m 0.4375,-4 q 2.3437,0 4.2812,-1.1719 1.9532,-1.1875 3.125,-3.1562 1.1719,-1.9688 1.1719,-4.3125 -1.2187,-0.8594 -3.0625,-1.3907 -1.8437,-0.5312 -4.0312,-0.5312 -3.8907,0 -5.7032,1.6094 -1.8125,1.5937 -1.8125,3.9375 0,2.2343 1.7032,3.625 1.7031,1.3906 4.3281,1.3906 z m 19.1923,3.1406 v -27.2031 h 4.3125 v 4.375 h 0.2187 q 0.5313,-1.5469 1.7813,-2.6875 1.2656,-1.1406 2.8906,-1.8125 1.625,-0.6719 3.2187,-0.6719 1.2344,0 1.9219,0.1406 0.6875,0.125 1.2813,0.3907 v 4.9062 q -0.8594,-0.4219 -1.8438,-0.625 -0.9844,-0.2187 -2,-0.2187 -1.9687,0 -3.625,1.125 -1.6562,1.1093 -2.6406,2.9843 -0.9844,1.8594 -0.9844,4.0938 v 15.2031 z m 29.976,0.8594 q -3.6875,0 -6.6562,-1.8594 -2.9531,-1.875 -4.6563,-5.125 -1.7031,-3.2656 -1.7031,-7.4687 0,-4.2188 1.7031,-7.4688 1.7032,-3.25 4.6563,-5.1094 2.9687,-1.875 6.6562,-1.875 2.1875,0 4,0.7032 1.8125,0.6875 3.1719,1.8125 1.3594,1.1093 2.0938,2.3906 h 0.2187 l -0.2187,-3.7969 v -11.25 h 4.5468 v 38.1875 h -4.3281 v -4 h -0.2187 q -0.7344,1.2344 -2.0938,2.3594 -1.3594,1.1094 -3.1719,1.7969 -1.8125,0.7031 -4,0.7031 z m 0.4688,-4.1094 q 2.3594,0 4.4062,-1.25 2.0469,-1.2656 3.3282,-3.5781 1.2812,-2.3281 1.2812,-5.5156 0,-3.2032 -1.2812,-5.5157 -1.2813,-2.3281 -3.3282,-3.5781 -2.0468,-1.25 -4.4062,-1.25 -2.3438,0 -4.4063,1.25 -2.0468,1.25 -3.3281,3.5781 -1.2656,2.3125 -1.2656,5.5157 0,3.1406 1.2656,5.4843 1.2813,2.3438 3.3281,3.6094 2.0625,1.25 4.4063,1.25 z m 32.4287,14.7656 v -38.7187 h 4.3125 v 4.0625 h 0.2187 q 0.75,-1.2813 2.1094,-2.3906 1.3594,-1.125 3.1719,-1.8125 1.8125,-0.7032 4,-0.7032 3.7344,0 6.6562,1.875 2.9375,1.8594 4.6407,5.1094 1.7187,3.25 1.7187,7.4688 0,4.2031 -1.7187,7.4687 -1.7032,3.25 -4.6407,5.125 -2.9218,1.8594 -6.6562,1.8594 -3.25,0 -5.7031,-1.5 -2.4532,-1.5 -3.5782,-3.3594 h -0.2187 l 0.2187,3.7344 v 11.7812 z m 13.3281,-14.7656 q 2.3438,0 4.3906,-1.25 2.0625,-1.2656 3.3125,-3.6094 1.2657,-2.3437 1.2657,-5.4843 0,-3.2032 -1.2657,-5.5157 -1.25,-2.3281 -3.3125,-3.5781 -2.0468,-1.25 -4.3906,-1.25 -2.3437,0 -4.4062,1.25 -2.0469,1.25 -3.3282,3.5781 -1.2812,2.3125 -1.2812,5.5157 0,3.1875 1.2812,5.5156 1.2813,2.3125 3.3282,3.5781 2.0625,1.25 4.4062,1.25 z m 27.4629,4.1094 q -3.0312,0 -5.3281,-1.1719 -2.2969,-1.1875 -3.6094,-3.2344 -1.2969,-2.0468 -1.2969,-4.6718 0,-2.9844 1.5469,-5.0313 1.5469,-2.0625 4.1563,-3.0937 2.6093,-1.0469 5.7656,-1.0469 1.8125,0 3.3594,0.2969 1.5468,0.2968 2.6875,0.7031 1.1562,0.3906 1.7343,0.7656 v -1.6562 q 0,-3.0938 -2.1875,-4.9063 -2.1875,-1.8125 -5.3281,-1.8125 -2.2344,0 -4.1875,0.9844 -1.9531,0.9844 -3.0625,2.75 l -3.4219,-2.5625 q 1.0782,-1.5938 2.6719,-2.7656 1.5938,-1.1719 3.6406,-1.8125 2.0625,-0.6407 4.3594,-0.6407 5.5469,0 8.6875,2.9375 3.1563,2.9219 3.1563,7.8907 v 17.2187 h -4.3282 v -3.8906 h -0.2187 q -0.6875,1.1719 -1.9688,2.2656 -1.2812,1.0938 -3.0156,1.7813 -1.7344,0.7031 -3.8125,0.7031 z m 0.4375,-4 q 2.3438,0 4.2813,-1.1719 1.9531,-1.1875 3.125,-3.1562 1.1718,-1.9688 1.1718,-4.3125 -1.2187,-0.8594 -3.0625,-1.3907 -1.8437,-0.5312 -4.0312,-0.5312 -3.8906,0 -5.7031,1.6094 -1.8125,1.5937 -1.8125,3.9375 0,2.2343 1.7031,3.625 1.7031,1.3906 4.3281,1.3906 z m 28.4255,4 q -3.0468,0 -5.375,-0.9844 -2.3125,-1 -3.8281,-2.6719 -1.5156,-1.6875 -2.2656,-3.6562 l 4.0469,-1.8125 q 1.0625,2.4531 3.0937,3.7969 2.0313,1.3281 4.6406,1.3281 2.5,0 4.1719,-1.0156 1.6875,-1.0157 1.6875,-2.9844 0,-1.2344 -0.6875,-2.0625 -0.6875,-0.8281 -2.0312,-1.4063 -1.3282,-0.5937 -3.25,-1.0625 l -3.2969,-0.8593 q -1.9219,-0.5313 -3.6406,-1.4844 -1.7032,-0.9688 -2.75,-2.4844 -1.0313,-1.5312 -1.0313,-3.7187 0,-2.4532 1.4375,-4.2032 1.4375,-1.7656 3.7813,-2.6875 2.3593,-0.9375 5.0156,-0.9375 2.3594,0 4.4062,0.6719 2.0469,0.6563 3.5938,1.9688 1.5469,1.2968 2.3594,3.2187 l -3.9532,1.8125 q -1.0156,-2.0156 -2.7187,-2.8125 -1.7031,-0.8125 -3.7813,-0.8125 -2.25,0 -3.9062,0.9844 -1.6406,0.9844 -1.6406,2.7031 0,1.7031 1.3593,2.5625 1.3594,0.8438 3.3282,1.375 l 3.9531,1.0156 q 4,1.0157 6.0156,3.0157 2.0313,2 2.0313,4.875 0,2.5625 -1.4375,4.4375 -1.4375,1.8593 -3.8907,2.875 -2.4531,1.0156 -5.4375,1.0156 z m 25.2242,0 q -3.0469,0 -5.375,-0.9844 -2.3125,-1 -3.8282,-2.6719 -1.5156,-1.6875 -2.2656,-3.6562 l 4.0469,-1.8125 q 1.0625,2.4531 3.0937,3.7969 2.0313,1.3281 4.6407,1.3281 2.5,0 4.1718,-1.0156 1.6875,-1.0157 1.6875,-2.9844 0,-1.2344 -0.6875,-2.0625 -0.6875,-0.8281 -2.0312,-1.4063 -1.3281,-0.5937 -3.25,-1.0625 l -3.2969,-0.8593 q -1.9219,-0.5313 -3.6406,-1.4844 -1.7031,-0.9688 -2.75,-2.4844 -1.0313,-1.5312 -1.0313,-3.7187 0,-2.4532 1.4375,-4.2032 1.4375,-1.7656 3.7813,-2.6875 2.3594,-0.9375 5.0156,-0.9375 2.3594,0 4.4063,0.6719 2.0468,0.6563 3.5937,1.9688 1.5469,1.2968 2.3594,3.2187 l -3.9531,1.8125 q -1.0157,-2.0156 -2.7188,-2.8125 -1.7031,-0.8125 -3.7812,-0.8125 -2.25,0 -3.9063,0.9844 -1.6406,0.9844 -1.6406,2.7031 0,1.7031 1.3594,2.5625 1.3593,0.8438 3.3281,1.375 l 3.9531,1.0156 q 4,1.0157 6.0156,3.0157 2.0313,2 2.0313,4.875 0,2.5625 -1.4375,4.4375 -1.4375,1.8593 -3.8906,2.875 -2.4532,1.0156 -5.4375,1.0156 z"
       fill-rule="nonzero"
       id="path116" />
    <path
       fill="#000000"
       fill-opacity="0"
       d="M 677.26904,1015.5276 1054.8754,1140"
       fill-rule="evenodd"
       id="path117" />
    <path
       stroke="#a7a7a7"
       stroke-width="4"
       stroke-linejoin="round"
       stroke-linecap="butt"
       d="M 677.26904,1015.5276 1054.8754,1140"
       fill-rule="evenodd"
       id="path118" />
    <path
       fill="#000000"
       fill-opacity="0"
       d="M 865.1903,1015.5276 1054.8596,1140"
       fill-rule="evenodd"
       id="path119" />
    <path
       stroke="#a7a7a7"
       stroke-width="4"
       stroke-linejoin="round"
       stroke-linecap="butt"
       d="M 865.1903,1015.5276 1054.8596,1140"
       fill-rule="evenodd"
       id="path120" />
    <path
       fill="#000000"
       fill-opacity="0"
       d="M 1246.2506,1015.5276 1054.8806,1140"
       fill-rule="evenodd"
       id="path121" />
    <path
       stroke="#a7a7a7"
       stroke-width="4"
       stroke-linejoin="round"
       stroke-linecap="butt"
       d="M 1246.2506,1015.5276 1054.8806,1140"
       fill-rule="evenodd"
       id="path122" />
    <path
       fill="#000000"
       fill-opacity="0"
       d="M 1434.1719,1015.5276 1054.8649,1140"
       fill-rule="evenodd"
       id="path123" />
    <path
       stroke="#a7a7a7"
       stroke-width="4"
       stroke-linejoin="round"
       stroke-linecap="butt"
       d="M 1434.1719,1015.5276 1054.8649,1140"
       fill-rule="evenodd"
       id="path124" />
    <path
       fill="#000000"
       fill-opacity="0"
       d="m 731.08923,423.021 h 647.55907 v 84.03149 H 731.08923 Z"
       fill-rule="evenodd"
       id="path125" />
    <path
       fill="#ff9900"
       d="m 776.25366,483.221 14.51562,-38.1875 h 5.10938 l 14.51562,38.1875 h -4.96875 l -10.5,-28.53125 -1.5,-4.10938 h -0.20312 l -1.5,4.10938 -10.5,28.53125 z m 16.53125,-10.5 v -4.26563 h 8.79687 l 1.54688,4.26563 z m -10.34375,0 1.54687,-4.26563 h 8.79688 v 4.26563 z m 43.61725,11.35937 q -4,0 -7.125,-1.89062 -3.10938,-1.90625 -4.875,-5.1875 -1.75,-3.28125 -1.75,-7.375 0,-4.17188 1.75,-7.42188 1.76562,-3.25 4.875,-5.14062 3.125,-1.89063 7.125,-1.89063 4.59375,0 7.54687,2.10938 2.96875,2.09375 4.1875,5.40625 l -4.10937,1.70312 q -1,-2.5 -3,-3.79687 -2,-1.3125 -4.82813,-1.3125 -2.40625,0 -4.46875,1.28125 -2.04687,1.26562 -3.32812,3.59375 -1.26563,2.3125 -1.26563,5.46875 0,3.09375 1.26563,5.4375 1.28125,2.34375 3.32812,3.625 2.0625,1.28125 4.46875,1.28125 2.875,0 4.95313,-1.32813 2.07812,-1.34375 3.09375,-3.79687 l 4.0625,1.70312 q -1.34375,3.15625 -4.32813,5.34375 -2.98437,2.1875 -7.57812,2.1875 z m 14.67859,-28.0625 h 15.9375 v 4.10938 H 840.737 Z m 4.73437,20.0625 V 448.346 h 4.53125 v 26.60937 q 0,2.14063 0.875,3.3125 0.89063,1.17188 2.92188,1.17188 0.90625,0 1.64062,-0.26563 0.75,-0.26562 1.34375,-0.64062 v 4.42187 q -0.6875,0.3125 -1.51562,0.5 -0.82813,0.1875 -2.21875,0.1875 -3.40625,0 -5.5,-2 -2.07813,-2 -2.07813,-5.5625 z m 17.27826,7.14063 v -27.20313 h 4.53125 V 483.221 Z m 2.25,-32.20313 q -1.34375,0 -2.3125,-0.95312 -0.95312,-0.96875 -0.95312,-2.3125 0,-1.375 0.95312,-2.3125 0.96875,-0.9375 2.3125,-0.9375 1.375,0 2.3125,0.9375 0.9375,0.9375 0.9375,2.3125 0,1.34375 -0.9375,2.3125 -0.9375,0.95312 -2.3125,0.95312 z m 17.38025,32.20313 -10.98437,-27.20313 h 4.84375 l 8.4375,21.875 h 0.10937 l 8.53125,-21.875 h 4.73438 L 886.95801,483.221 Z m 27.56482,0.85937 q -3.03125,0 -5.32812,-1.17187 -2.29688,-1.1875 -3.60938,-3.23438 -1.29687,-2.04687 -1.29687,-4.67187 0,-2.98438 1.54687,-5.03125 1.54688,-2.0625 4.15625,-3.09375 2.60938,-1.04688 5.76563,-1.04688 1.8125,0 3.35937,0.29688 1.54688,0.29687 2.6875,0.70312 1.15625,0.39063 1.73438,0.76563 v -1.65625 q 0,-3.09375 -2.1875,-4.90625 -2.1875,-1.8125 -5.32813,-1.8125 -2.23437,0 -4.1875,0.98437 -1.95312,0.98438 -3.0625,2.75 l -3.42187,-2.5625 q 1.07812,-1.59375 2.67187,-2.76562 1.59375,-1.17188 3.64063,-1.8125 2.0625,-0.64063 4.35937,-0.64063 5.54688,0 8.6875,2.9375 3.15625,2.92188 3.15625,7.89063 V 483.221 h -4.32812 v -3.89063 h -0.21875 q -0.6875,1.17188 -1.96875,2.26563 -1.28125,1.09375 -3.01563,1.78125 -1.73437,0.70312 -3.8125,0.70312 z m 0.4375,-4 q 2.34375,0 4.28125,-1.17187 1.95313,-1.1875 3.125,-3.15625 1.17188,-1.96875 1.17188,-4.3125 -1.21875,-0.85938 -3.0625,-1.39063 -1.84375,-0.53125 -4.03125,-0.53125 -3.89063,0 -5.70313,1.60938 -1.8125,1.59375 -1.8125,3.9375 0,2.23437 1.70313,3.625 1.70312,1.39062 4.32812,1.39062 z m 16.79944,-24.0625 h 15.9375 v 4.10938 h -15.9375 z m 4.73438,20.0625 V 448.346 h 4.53125 v 26.60937 q 0,2.14063 0.875,3.3125 0.89062,1.17188 2.92187,1.17188 0.90625,0 1.64063,-0.26563 0.75,-0.26562 1.34375,-0.64062 v 4.42187 q -0.6875,0.3125 -1.51563,0.5 -0.82812,0.1875 -2.21875,0.1875 -3.40625,0 -5.5,-2 -2.07812,-2 -2.07812,-5.5625 z m 17.27826,7.14063 v -27.20313 h 4.53125 V 483.221 Z m 2.25,-32.20313 q -1.34375,0 -2.3125,-0.95312 -0.95313,-0.96875 -0.95313,-2.3125 0,-1.375 0.95313,-2.3125 0.96875,-0.9375 2.3125,-0.9375 1.375,0 2.3125,0.9375 0.9375,0.9375 0.9375,2.3125 0,1.34375 -0.9375,2.3125 -0.9375,0.95312 -2.3125,0.95312 z m 21.64489,33.0625 q -4.10937,0 -7.25,-1.92187 -3.14062,-1.92188 -4.9375,-5.20313 -1.78125,-3.28125 -1.78125,-7.32812 0,-4.0625 1.78125,-7.32813 1.79688,-3.28125 4.9375,-5.20312 3.14063,-1.92188 7.25,-1.92188 4.10938,0 7.25,1.95313 3.15625,1.9375 4.9375,5.21875 1.78125,3.28125 1.78125,7.28125 0,4.04687 -1.78125,7.32812 -1.78125,3.28125 -4.9375,5.20313 -3.14062,1.92187 -7.25,1.92187 z m 0,-4.10937 q 2.45313,0 4.60938,-1.21875 2.17187,-1.23438 3.5,-3.54688 1.32812,-2.32812 1.32812,-5.57812 0,-3.26563 -1.32812,-5.57813 -1.32813,-2.3125 -3.5,-3.53125 -2.15625,-1.23437 -4.60938,-1.23437 -2.45312,0 -4.64062,1.23437 -2.1875,1.21875 -3.51563,3.53125 -1.32812,2.3125 -1.32812,5.57813 0,3.25 1.32812,5.57812 1.32813,2.3125 3.51563,3.54688 2.1875,1.21875 4.64062,1.21875 z m 18.71888,3.25 v -27.20313 h 4.3125 v 4 h 0.21875 q 1.0625,-1.96875 3.48437,-3.40625 2.43753,-1.4375 5.31253,-1.4375 5.0156,0 7.5468,2.90625 2.5313,2.90625 2.5313,7.70313 v 17.4375 h -4.5313 v -16.75 q 0,-3.9375 -1.8906,-5.5625 -1.8906,-1.625 -4.875,-1.625 -2.25,0 -3.9531,1.25 -1.70313,1.25 -2.67188,3.23437 -0.95312,1.96875 -0.95312,4.14063 v 15.3125 z m 60.05055,0.85937 q -4.2187,0 -7.8281,-1.51562 -3.5937,-1.53125 -6.2812,-4.21875 -2.6875,-2.70313 -4.1875,-6.34375 -1.4844,-3.65625 -1.4844,-7.875 0,-4.26563 1.4844,-7.89063 1.5,-3.625 4.1875,-6.3125 2.6875,-2.70312 6.2812,-4.21875 3.6094,-1.51562 7.8281,-1.51562 2.9375,0 5.4688,0.75 2.5312,0.73437 4.6562,2.125 2.1407,1.39062 3.8438,3.35937 l -3.25,3.14063 q -1.4375,-1.75 -3.0781,-2.875 -1.625,-1.125 -3.5157,-1.65625 -1.8906,-0.53125 -4.125,-0.53125 -4.1093,0 -7.5781,1.92187 -3.4687,1.92188 -5.5469,5.42188 -2.0781,3.48437 -2.0781,8.28125 0,4.75 2.0781,8.26562 2.0782,3.51563 5.5469,5.4375 3.4688,1.92188 7.5781,1.92188 2.5,0 4.6094,-0.6875 2.1094,-0.70313 3.8906,-1.96875 1.7969,-1.28125 3.2813,-3.04688 l 3.3125,3.20313 q -1.6563,1.96875 -3.9844,3.51562 -2.3125,1.54688 -5.1094,2.4375 -2.7968,0.875 -6,0.875 z m 20.1547,-0.85937 v -38.1875 h 4.5313 v 11.25 l -0.2188,3.73437 h 0.2188 q 1.0625,-2.01562 3.4843,-3.42187 2.4375,-1.42188 5.375,-1.42188 3.4688,0 5.7032,1.39063 2.2343,1.375 3.3593,3.75 1.125,2.375 1.125,5.46875 v 17.4375 h -4.5468 v -16.75 q 0,-2.60938 -0.9375,-4.17188 -0.9219,-1.57812 -2.4532,-2.29687 -1.5156,-0.71875 -3.3281,-0.71875 -2.2344,0 -4,1.28125 -1.75,1.26562 -2.7656,3.29687 -1.0156,2.03125 -1.0156,4.21875 V 483.221 Z m 42.1864,0.85937 q -3.9531,0 -7.0156,-1.85937 -3.0625,-1.875 -4.7969,-5.125 -1.7344,-3.26563 -1.7344,-7.42188 0,-3.89062 1.625,-7.1875 1.625,-3.3125 4.5782,-5.3125 2.9687,-2 6.9687,-2 4.0469,0 6.9531,1.78125 2.9063,1.78125 4.4844,4.9375 1.5781,3.14063 1.5781,7.20313 0,0.35937 -0.031,0.73437 -0.031,0.375 -0.078,0.64063 h -23.4063 v -3.73438 h 18.7031 q -0.047,-1.10937 -0.5,-2.42187 -0.4531,-1.3125 -1.4375,-2.45313 -0.9843,-1.14062 -2.5156,-1.85937 -1.5156,-0.71875 -3.75,-0.71875 -2.6719,0 -4.625,1.35937 -1.9375,1.35938 -2.9844,3.70313 -1.0312,2.34375 -1.0312,5.32812 0,3.46875 1.3281,5.76563 1.3438,2.28125 3.4375,3.40625 2.1094,1.125 4.4063,1.125 2.9843,0 4.9218,-1.40625 1.9532,-1.42188 3.125,-3.5 l 3.8438,1.85937 q -1.5938,3.09375 -4.5938,5.125 -2.9843,2.03125 -7.4531,2.03125 z m 30.4934,0 q -4,0 -7.125,-1.89062 -3.1094,-1.90625 -4.875,-5.1875 -1.75,-3.28125 -1.75,-7.375 0,-4.17188 1.75,-7.42188 1.7656,-3.25 4.875,-5.14062 3.125,-1.89063 7.125,-1.89063 4.5938,0 7.5469,2.10938 2.9687,2.09375 4.1875,5.40625 l -4.1094,1.70312 q -1,-2.5 -3,-3.79687 -2,-1.3125 -4.8281,-1.3125 -2.4063,0 -4.4688,1.28125 -2.0468,1.26562 -3.3281,3.59375 -1.2656,2.3125 -1.2656,5.46875 0,3.09375 1.2656,5.4375 1.2813,2.34375 3.3281,3.625 2.0625,1.28125 4.4688,1.28125 2.875,0 4.9531,-1.32813 2.0781,-1.34375 3.0938,-3.79687 l 4.0625,1.70312 q -1.3438,3.15625 -4.3282,5.34375 -2.9843,2.1875 -7.5781,2.1875 z m 16.8047,-0.85937 v -38.1875 h 4.5313 v 38.1875 z m 1.7031,-5.54688 v -5.8125 l 15.625,-15.84375 h 5.7657 v 0.21875 z m 16.2657,5.54688 -9.8125,-14.60938 3.2031,-3.15625 12.0469,17.54688 v 0.21875 z m 8.9619,11.51562 v -38.71875 h 4.3125 v 4.0625 h 0.2187 q 0.75,-1.28125 2.1094,-2.39062 1.3594,-1.125 3.1719,-1.8125 1.8125,-0.70313 4,-0.70313 3.7343,0 6.6562,1.875 2.9375,1.85938 4.6406,5.10938 1.7188,3.25 1.7188,7.46875 0,4.20312 -1.7188,7.46875 -1.7031,3.25 -4.6406,5.125 -2.9219,1.85937 -6.6562,1.85937 -3.25,0 -5.7032,-1.5 -2.4531,-1.5 -3.5781,-3.35937 h -0.2187 l 0.2187,3.73437 v 11.78125 z m 13.3281,-14.76562 q 2.3437,0 4.3906,-1.25 2.0625,-1.26563 3.3125,-3.60938 1.2656,-2.34375 1.2656,-5.48437 0,-3.20313 -1.2656,-5.51563 -1.25,-2.32812 -3.3125,-3.57812 -2.0469,-1.25 -4.3906,-1.25 -2.3438,0 -4.4063,1.25 -2.0468,1.25 -3.3281,3.57812 -1.2812,2.3125 -1.2812,5.51563 0,3.1875 1.2812,5.51562 1.2813,2.3125 3.3281,3.57813 2.0625,1.25 4.4063,1.25 z m 31.3066,4.10937 q -4.1093,0 -7.25,-1.92187 -3.1406,-1.92188 -4.9375,-5.20313 -1.7812,-3.28125 -1.7812,-7.32812 0,-4.0625 1.7812,-7.32813 1.7969,-3.28125 4.9375,-5.20312 3.1407,-1.92188 7.25,-1.92188 4.1094,0 7.25,1.95313 3.1563,1.9375 4.9375,5.21875 1.7813,3.28125 1.7813,7.28125 0,4.04687 -1.7813,7.32812 -1.7812,3.28125 -4.9375,5.20313 -3.1406,1.92187 -7.25,1.92187 z m 0,-4.10937 q 2.4532,0 4.6094,-1.21875 2.1719,-1.23438 3.5,-3.54688 1.3281,-2.32812 1.3281,-5.57812 0,-3.26563 -1.3281,-5.57813 -1.3281,-2.3125 -3.5,-3.53125 -2.1562,-1.23437 -4.6094,-1.23437 -2.4531,0 -4.6406,1.23437 -2.1875,1.21875 -3.5156,3.53125 -1.3281,2.3125 -1.3281,5.57813 0,3.25 1.3281,5.57812 1.3281,2.3125 3.5156,3.54688 2.1875,1.21875 4.6406,1.21875 z m 19.1408,3.25 v -27.20313 h 4.5312 V 483.221 Z m 2.25,-32.20313 q -1.3438,0 -2.3125,-0.95312 -0.9531,-0.96875 -0.9531,-2.3125 0,-1.375 0.9531,-2.3125 0.9687,-0.9375 2.3125,-0.9375 1.375,0 2.3125,0.9375 0.9375,0.9375 0.9375,2.3125 0,1.34375 -0.9375,2.3125 -0.9375,0.95312 -2.3125,0.95312 z m 9.3802,32.20313 v -27.20313 h 4.3125 v 4 h 0.2188 q 1.0625,-1.96875 3.4844,-3.40625 2.4375,-1.4375 5.3125,-1.4375 5.0156,0 7.5468,2.90625 2.5313,2.90625 2.5313,7.70313 v 17.4375 h -4.5313 v -16.75 q 0,-3.9375 -1.8906,-5.5625 -1.8906,-1.625 -4.875,-1.625 -2.25,0 -3.9531,1.25 -1.7031,1.25 -2.6719,3.23437 -0.9531,1.96875 -0.9531,4.14063 v 15.3125 z m 26.7243,-27.20313 h 15.9375 v 4.10938 h -15.9375 z m 4.7343,20.0625 V 448.346 h 4.5313 v 26.60937 q 0,2.14063 0.875,3.3125 0.8906,1.17188 2.9219,1.17188 0.9062,0 1.6406,-0.26563 0.75,-0.26562 1.3437,-0.64062 v 4.42187 q -0.6875,0.3125 -1.5156,0.5 -0.8281,0.1875 -2.2187,0.1875 -3.4063,0 -5.5,-2 -2.0782,-2 -2.0782,-5.5625 z m 26.6232,8 q -3.0469,0 -5.375,-0.98437 -2.3125,-1 -3.8281,-2.67188 -1.5156,-1.6875 -2.2656,-3.65625 l 4.0468,-1.8125 q 1.0625,2.45313 3.0938,3.79688 2.0312,1.32812 4.6406,1.32812 2.5,0 4.1719,-1.01562 1.6875,-1.01563 1.6875,-2.98438 0,-1.23437 -0.6875,-2.0625 -0.6875,-0.82812 -2.0313,-1.40625 -1.3281,-0.59375 -3.25,-1.0625 l -3.2968,-0.85937 q -1.9219,-0.53125 -3.6407,-1.48438 -1.7031,-0.96875 -2.75,-2.48437 -1.0312,-1.53125 -1.0312,-3.71875 0,-2.45313 1.4375,-4.20313 1.4375,-1.76562 3.7812,-2.6875 2.3594,-0.9375 5.0157,-0.9375 2.3593,0 4.4062,0.67188 2.0469,0.65625 3.5938,1.96875 1.5468,1.29687 2.3593,3.21875 l -3.9531,1.8125 q -1.0156,-2.01563 -2.7187,-2.8125 -1.7032,-0.8125 -3.7813,-0.8125 -2.25,0 -3.9062,0.98437 -1.6407,0.98438 -1.6407,2.70313 0,1.70312 1.3594,2.5625 1.3594,0.84375 3.3281,1.375 l 3.9532,1.01562 q 4,1.01563 6.0156,3.01563 2.0312,2 2.0312,4.875 0,2.5625 -1.4375,4.4375 -1.4375,1.85937 -3.8906,2.875 -2.4531,1.01562 -5.4375,1.01562 z"
       fill-rule="nonzero"
       id="path126" />
    <path
       fill="#000000"
       fill-opacity="0"
       d="M 1054.8694,727.5282 V 507.05579"
       fill-rule="evenodd"
       id="path127" />
    <path
       stroke="#91ff7e"
       stroke-width="4"
       stroke-linejoin="round"
       stroke-linecap="butt"
       d="M 1054.8694,727.5282 V 507.05579"
       fill-rule="evenodd"
       id="path128" />
    <path
       fill="#000000"
       fill-opacity="0"
       d="M 1631.8511,727.5282 1378.6542,465.04004"
       fill-rule="evenodd"
       id="path129" />
    <path
       stroke="#db4437"
       stroke-width="4"
       stroke-linejoin="round"
       stroke-linecap="butt"
       d="M 1631.8511,727.5282 1378.6542,465.04004"
       fill-rule="evenodd"
       id="path130" />
    <path
       fill="#000000"
       fill-opacity="0"
       d="M 487.59384,727.5282 731.0899,465.04004"
       fill-rule="evenodd"
       id="path131" />
    <path
       stroke="#4285f4"
       stroke-width="4"
       stroke-linejoin="round"
       stroke-linecap="butt"
       d="M 487.59384,727.5282 731.0899,465.04004"
       fill-rule="evenodd"
       id="path132" />
  </g>
</svg>
