<?xml version="1.0" encoding="UTF-8" standalone="no"?>
<svg
   version="1.1"
   viewBox="0 0 1984.254 1099.5603"
   fill="none"
   stroke="none"
   stroke-linecap="square"
   stroke-miterlimit="10"
   id="svg142"
   sodipodi:docname="single_gradient_accumulation.svg"
   width="1984.254"
   height="1099.5603"
   inkscape:version="1.3.1 (9b9bdc1480, 2023-11-25, custom)"
   xmlns:inkscape="http://www.inkscape.org/namespaces/inkscape"
   xmlns:sodipodi="http://sodipodi.sourceforge.net/DTD/sodipodi-0.dtd"
   xmlns="http://www.w3.org/2000/svg"
   xmlns:svg="http://www.w3.org/2000/svg">
  <defs
     id="defs142" />
  <sodipodi:namedview
     id="namedview142"
     pagecolor="#ffffff"
     bordercolor="#666666"
     borderopacity="1.0"
     inkscape:showpageshadow="2"
     inkscape:pageopacity="0.0"
     inkscape:pagecheckerboard="0"
     inkscape:deskcolor="#d1d1d1"
     inkscape:zoom="1.2304688"
     inkscape:cx="1008.5587"
     inkscape:cy="397.00317"
     inkscape:window-width="3840"
     inkscape:window-height="2079"
     inkscape:window-x="0"
     inkscape:window-y="44"
     inkscape:window-maximized="1"
     inkscape:current-layer="g142" />
  <clipPath
     id="g2bac1599b13_0_516.0">
    <path
       d="M 0,0 H 2560 V 1440 H 0 Z"
       clip-rule="nonzero"
       id="path1" />
  </clipPath>
  <g
     clip-path="url(#g2bac1599b13_0_516.0)"
     id="g142"
     transform="translate(-271.4672,-322.41602)">
    <path
       fill="#000000"
       fill-opacity="0"
       d="M 699.90814,396.61417 H 1543.4986 V 641.1811 H 699.90814 Z"
       fill-rule="evenodd"
       id="path3" />
    <path
       stroke="#999999"
       stroke-width="4"
       stroke-linejoin="round"
       stroke-linecap="butt"
       d="M 699.90814,396.61417 H 1543.4986 V 641.1811 H 699.90814 Z"
       fill-rule="evenodd"
       id="path4" />
    <path
       fill="#000000"
       fill-opacity="0"
       d="m 271.4672,476.8819 h 169.03937 v 84.03149 H 271.4672 Z"
       fill-rule="evenodd"
       id="path7" />
    <path
       fill="#4285f4"
       d="m 284.73282,537.0819 v -38.18753 h 13.70312 q 2.9375,0 5.40625,1.3125 2.48438,1.3125 4,3.625 1.53125,2.3125 1.53125,5.35938 0,2.82815 -1.4375,4.90628 -1.4375,2.07812 -3.79687,3.14062 v 0.21875 q 2.82812,0.90625 4.67187,3.25 1.84375,2.34375 1.84375,5.54688 0,3.20312 -1.60937,5.64062 -1.59375,2.42188 -4.20313,3.8125 -2.60937,1.375 -5.65625,1.375 z m 2.40625,-17.39062 v -4.3125 h 11.29687 q 2.03125,0 3.46875,-0.9375 1.4375,-0.9375 2.20313,-2.3125 0.78125,-1.39066 0.78125,-2.82816 0,-1.4375 -0.75,-2.82813 -0.73438,-1.39062 -2.125,-2.3125 -1.39063,-0.9375 -3.35938,-0.9375 h -9.39062 v 29.54691 h 10.1875 q 2.03125,0 3.51562,-0.98437 1.5,-1 2.29688,-2.51563 0.79687,-1.51562 0.79687,-3.0625 0,-1.60937 -0.82812,-3.09375 -0.82813,-1.5 -2.34375,-2.45312 -1.51563,-0.96875 -3.65625,-0.96875 z m 37.69177,18.25 q -3.03125,0 -5.32812,-1.17188 -2.29688,-1.1875 -3.60938,-3.23437 -1.29687,-2.04688 -1.29687,-4.67188 0,-2.98437 1.54687,-5.03125 1.54688,-2.0625 4.15625,-3.09375 2.60938,-1.04687 5.76563,-1.04687 1.8125,0 3.35937,0.29687 1.54688,0.29688 2.6875,0.70313 1.15625,0.39062 1.73438,0.76562 v -1.65625 q 0,-3.09375 -2.1875,-4.90625 -2.1875,-1.8125 -5.32813,-1.8125 -2.23437,0 -4.1875,0.98438 -1.95312,0.98437 -3.0625,2.75 l -3.42187,-2.5625 q 1.07812,-1.59375 2.67187,-2.76566 1.59375,-1.17188 3.64063,-1.8125 2.0625,-0.64063 4.35937,-0.64063 5.54688,0 8.6875,2.9375 3.15625,2.92191 3.15625,7.89066 v 17.21875 h -4.32812 v -3.89062 h -0.21875 q -0.6875,1.17187 -1.96875,2.26562 -1.28125,1.09375 -3.01563,1.78125 -1.73437,0.70313 -3.8125,0.70313 z m 0.4375,-4 q 2.34375,0 4.28125,-1.17188 1.95313,-1.1875 3.125,-3.15625 1.17188,-1.96875 1.17188,-4.3125 -1.21875,-0.85937 -3.0625,-1.39062 -1.84375,-0.53125 -4.03125,-0.53125 -3.89063,0 -5.70313,1.60937 -1.8125,1.59375 -1.8125,3.9375 0,2.23438 1.70313,3.625 1.70312,1.39063 4.32812,1.39063 z m 16.79947,-24.06253 h 15.9375 v 4.1094 h -15.9375 z m 4.73438,20.06253 v -27.73441 h 4.53125 v 26.60941 q 0,2.14062 0.875,3.3125 0.89062,1.17187 2.92187,1.17187 0.90625,0 1.64063,-0.26562 0.75,-0.26563 1.34375,-0.64063 v 4.42188 q -0.6875,0.3125 -1.51563,0.5 -0.82812,0.1875 -2.21875,0.1875 -3.40625,0 -5.5,-2 -2.07812,-2 -2.07812,-5.5625 z m 27.72891,8 q -4,0 -7.125,-1.89063 -3.10938,-1.90625 -4.875,-5.1875 -1.75,-3.28125 -1.75,-7.375 0,-4.17187 1.75,-7.42187 1.76562,-3.25 4.875,-5.14066 3.125,-1.89063 7.125,-1.89063 4.59375,0 7.54687,2.10938 2.96875,2.09378 4.1875,5.40628 l -4.10937,1.70313 q -1,-2.5 -3,-3.79688 -2,-1.3125 -4.82813,-1.3125 -2.40625,0 -4.46875,1.28125 -2.04687,1.26563 -3.32812,3.59375 -1.26563,2.3125 -1.26563,5.46875 0,3.09375 1.26563,5.4375 1.28125,2.34375 3.32812,3.625 2.0625,1.28125 4.46875,1.28125 2.875,0 4.95313,-1.32812 2.07812,-1.34375 3.09375,-3.79688 l 4.0625,1.70313 q -1.34375,3.15625 -4.32813,5.34375 -2.98437,2.1875 -7.57812,2.1875 z m 16.80459,-0.85938 v -38.18753 h 4.53125 v 11.25 l -0.21875,3.73441 h 0.21875 q 1.0625,-2.01566 3.48438,-3.42191 2.4375,-1.42187 5.375,-1.42187 3.46875,0 5.70312,1.39062 2.23438,1.375 3.35938,3.75003 1.125,2.375 1.125,5.46875 v 17.4375 h -4.54688 v -16.75 q 0,-2.60937 -0.9375,-4.17187 -0.92187,-1.57813 -2.45312,-2.29688 -1.51563,-0.71875 -3.32813,-0.71875 -2.23437,0 -4,1.28125 -1.75,1.26563 -2.76562,3.29688 -1.01563,2.03125 -1.01563,4.21875 v 15.14062 z"
       fill-rule="nonzero"
       id="path8" />
    <path
       fill="#efefef"
       d="m 917.81366,495.06876 v 0 c 0,-13.84076 11.22009,-25.06088 25.06085,-25.06088 h 319.35869 c 6.6464,0 13.0208,2.64032 17.7207,7.34015 4.6998,4.69983 7.34,11.07415 7.34,17.72073 v 100.24045 c 0,13.84076 -11.22,25.06085 -25.0607,25.06085 H 942.87451 v 0 c -13.84076,0 -25.06085,-11.22009 -25.06085,-25.06085 z"
       fill-rule="evenodd"
       id="path9" />
    <path
       stroke="#a7a7a7"
       stroke-width="1"
       stroke-linejoin="round"
       stroke-linecap="butt"
       d="m 917.81366,495.06876 v 0 c 0,-13.84076 11.22009,-25.06088 25.06085,-25.06088 h 319.35869 c 6.6464,0 13.0208,2.64032 17.7207,7.34015 4.6998,4.69983 7.34,11.07415 7.34,17.72073 v 100.24045 c 0,13.84076 -11.22,25.06085 -25.0607,25.06085 H 942.87451 v 0 c -13.84076,0 -25.06085,-11.22009 -25.06085,-25.06085 z"
       fill-rule="evenodd"
       id="path10" />
    <path
       fill="#000000"
       d="m 1038.6454,562.269 v -34.375 h 5.9063 l 10.9375,28.1875 h 0.1875 l 10.9531,-28.1875 h 5.9062 v 34.375 h -4.0312 v -21.84375 l 0.1875,-6.53125 h -0.1875 l -11.2344,28.375 h -3.3594 l -11.2343,-28.375 h -0.1875 l 0.1875,6.53125 V 562.269 Z m 51.5413,0.76562 q -3.6875,0 -6.5313,-1.71875 -2.8281,-1.73437 -4.4375,-4.6875 -1.5937,-2.95312 -1.5937,-6.59375 0,-3.65625 1.5937,-6.60937 1.6094,-2.95313 4.4375,-4.67188 2.8438,-1.73437 6.5313,-1.73437 3.7031,0 6.5312,1.75 2.8281,1.75 4.4375,4.70312 1.6094,2.95313 1.6094,6.5625 0,3.64063 -1.6094,6.59375 -1.6094,2.95313 -4.4375,4.6875 -2.8281,1.71875 -6.5312,1.71875 z m 0,-3.6875 q 2.2187,0 4.1562,-1.10937 1.9531,-1.10938 3.1406,-3.1875 1.2032,-2.09375 1.2032,-5.01563 0,-2.9375 -1.2032,-5.01562 -1.1875,-2.09375 -3.1406,-3.1875 -1.9375,-1.10938 -4.1562,-1.10938 -2.2032,0 -4.1719,1.10938 -1.9688,1.09375 -3.1719,3.1875 -1.1875,2.07812 -1.1875,5.01562 0,2.92188 1.1875,5.01563 1.2031,2.07812 3.1719,3.1875 1.9687,1.10937 4.1719,1.10937 z m 27.7486,3.6875 q -3.3125,0 -5.9844,-1.67187 -2.6562,-1.6875 -4.1875,-4.60938 -1.5312,-2.9375 -1.5312,-6.71875 0,-3.79687 1.5312,-6.71875 1.5313,-2.9375 4.1875,-4.60937 2.6719,-1.6875 5.9844,-1.6875 1.9688,0 3.5938,0.625 1.6406,0.625 2.8593,1.64062 1.2344,1 1.9063,2.15625 h 0.1875 l -0.1875,-3.40625 V 527.894 h 4.0781 v 34.375 h -3.8906 v -3.59375 h -0.1875 q -0.6719,1.09375 -1.9063,2.10937 -1.2187,1 -2.8593,1.625 -1.625,0.625 -3.5938,0.625 z m 0.4375,-3.6875 q 2.1094,0 3.9531,-1.125 1.8594,-1.14062 3,-3.21875 1.1563,-2.09375 1.1563,-4.96875 0,-2.89062 -1.1563,-4.96875 -1.1406,-2.09375 -3,-3.21875 -1.8437,-1.125 -3.9531,-1.125 -2.1094,0 -3.9687,1.125 -1.8438,1.125 -3,3.21875 -1.1407,2.07813 -1.1407,4.96875 0,2.82813 1.1407,4.9375 1.1562,2.10938 3,3.25 1.8593,1.125 3.9687,1.125 z m 28.703,3.6875 q -3.5469,0 -6.3125,-1.67187 -2.7656,-1.6875 -4.3281,-4.60938 -1.5469,-2.9375 -1.5469,-6.67187 0,-3.51563 1.4531,-6.48438 1.4688,-2.96875 4.125,-4.76562 2.6719,-1.8125 6.2657,-1.8125 3.6562,0 6.2656,1.60937 2.625,1.60938 4.0312,4.4375 1.4219,2.82813 1.4219,6.48438 0,0.32812 -0.031,0.67187 -0.016,0.32813 -0.062,0.57813 h -21.0782 v -3.35938 h 16.8438 q -0.047,-1.01562 -0.4531,-2.1875 -0.4063,-1.17187 -1.2969,-2.20312 -0.875,-1.03125 -2.25,-1.67188 -1.375,-0.65625 -3.3906,-0.65625 -2.3907,0 -4.1407,1.21875 -1.75,1.21875 -2.6875,3.34375 -0.9375,2.10938 -0.9375,4.79688 0,3.10937 1.1875,5.1875 1.2032,2.0625 3.0938,3.07812 1.9062,1 3.9687,1 2.6875,0 4.4375,-1.26562 1.75,-1.28125 2.8125,-3.15625 l 3.4532,1.6875 q -1.4375,2.78125 -4.125,4.60937 -2.6875,1.8125 -6.7188,1.8125 z m 16.1334,-0.76562 v -34.375 h 4.0782 v 34.375 z"
       fill-rule="nonzero"
       id="path11" />
    <path
       fill="#f3f3f3"
       d="m 758.93896,569.18964 v -48 h 48 v 48 z"
       fill-rule="evenodd"
       id="path12" />
    <path
       stroke="#a7a7a7"
       stroke-width="1"
       stroke-linejoin="round"
       stroke-linecap="butt"
       d="m 758.93896,569.18964 v -48 h 48 v 48 z"
       fill-rule="evenodd"
       id="path13" />
    <path
       fill="#b7b7b7"
       d="m 806.9403,569.18964 v -48 h 48 v 48 z"
       fill-rule="evenodd"
       id="path14" />
    <path
       stroke="#a7a7a7"
       stroke-width="1"
       stroke-linejoin="round"
       stroke-linecap="butt"
       d="m 806.9403,569.18964 v -48 h 48 v 48 z"
       fill-rule="evenodd"
       id="path15" />
    <path
       fill="#fbe4cf"
       d="m 1649.105,322.91602 h 237.6063 v 79.74802 H 1649.105 Z"
       fill-rule="evenodd"
       id="path16" />
    <path
       stroke="#a7a7a7"
       stroke-width="1"
       stroke-linejoin="round"
       stroke-linecap="butt"
       d="m 1649.105,322.91602 h 237.6063 v 79.74802 H 1649.105 Z"
       fill-rule="evenodd"
       id="path17" />
    <path
       fill="#000000"
       d="m 1728.4326,386.47128 q -2.6094,0 -4.4687,-0.85938 -1.8594,-0.85937 -3,-2.1875 -1.1407,-1.3125 -1.6094,-2.67187 l 3.1094,-1.32813 q 0.6406,1.6875 2.1718,2.82813 1.5469,1.14062 3.7969,1.14062 3.2031,0 4.9219,-1.85937 1.7187,-1.85938 1.7187,-5.1875 v -2.28125 h -0.1718 q -0.9532,1.48437 -2.75,2.51562 -1.7969,1.01563 -4.2032,1.01563 -2.6406,0 -4.8281,-1.35938 -2.1719,-1.35937 -3.4531,-3.78125 -1.2813,-2.42187 -1.2813,-5.57812 0,-3.17188 1.2813,-5.57813 1.2812,-2.42187 3.4531,-3.78125 2.1875,-1.375 4.8281,-1.375 2.4063,0 4.2032,1.03125 1.7968,1.01563 2.75,2.53125 h 0.1718 v -2.92187 h 3.2344 v 19.60937 q 0,3.39063 -1.2969,5.625 -1.2968,2.25 -3.5312,3.34375 -2.2188,1.10938 -5.0469,1.10938 z m 0,-11.96875 q 1.7969,0 3.3125,-0.89063 1.5156,-0.90625 2.4219,-2.625 0.9062,-1.71875 0.9062,-4.10937 0,-2.48438 -0.9062,-4.1875 -0.9063,-1.70313 -2.4219,-2.57813 -1.5156,-0.875 -3.3125,-0.875 -1.7969,0 -3.3281,0.90625 -1.5156,0.89063 -2.4375,2.59375 -0.9219,1.6875 -0.9219,4.14063 0,2.4375 0.9219,4.14062 0.9219,1.6875 2.4375,2.59375 1.5312,0.89063 3.3281,0.89063 z m 14.9111,2.6875 v -20.40625 h 3.25 v 3.28125 h 0.1563 q 0.3906,-1.15625 1.3281,-2.01563 0.9531,-0.85937 2.1719,-1.35937 1.2187,-0.5 2.4219,-0.5 0.9218,0 1.4375,0.10937 0.5156,0.0937 0.9531,0.29688 v 3.67187 q -0.6406,-0.3125 -1.375,-0.46875 -0.7344,-0.17187 -1.5,-0.17187 -1.4844,0 -2.7188,0.84375 -1.2343,0.84375 -1.9843,2.25 -0.7344,1.39062 -0.7344,3.0625 v 11.40625 z m 20.7314,0.64062 q -2.2813,0 -4.0157,-0.875 -1.7187,-0.89062 -2.7031,-2.42187 -0.9687,-1.54688 -0.9687,-3.5 0,-2.25 1.1562,-3.78125 1.1719,-1.54688 3.125,-2.32813 1.9531,-0.78125 4.3125,-0.78125 1.3594,0 2.5156,0.23438 1.1719,0.21875 2.0313,0.51562 0.8594,0.29688 1.2969,0.57813 v -1.23438 q 0,-2.32812 -1.6407,-3.6875 -1.6406,-1.35937 -4,-1.35937 -1.6718,0 -3.1406,0.75 -1.4531,0.73437 -2.2969,2.04687 l -2.5625,-1.92187 q 0.7969,-1.1875 2,-2.0625 1.2032,-0.89063 2.7344,-1.375 1.5469,-0.48438 3.2656,-0.48438 4.1563,0 6.5157,2.20313 2.375,2.20312 2.375,5.92187 v 12.92188 h -3.25 v -2.92188 h -0.1563 q -0.5156,0.875 -1.4844,1.70313 -0.9531,0.8125 -2.2656,1.32812 -1.2969,0.53125 -2.8437,0.53125 z m 0.3125,-3 q 1.7656,0 3.2187,-0.875 1.4688,-0.89062 2.3438,-2.35937 0.875,-1.48438 0.875,-3.25 -0.9219,-0.64063 -2.2969,-1.03125 -1.375,-0.40625 -3.0156,-0.40625 -2.9219,0 -4.2813,1.20312 -1.3594,1.20313 -1.3594,2.95313 0,1.6875 1.2813,2.73437 1.2812,1.03125 3.2344,1.03125 z m 22.8836,3 q -2.7656,0 -4.9844,-1.39062 -2.2187,-1.40625 -3.5,-3.84375 -1.2812,-2.45313 -1.2812,-5.60938 0,-3.15625 1.2812,-5.59375 1.2813,-2.4375 3.5,-3.84375 2.2188,-1.40625 4.9844,-1.40625 1.6406,0 3,0.53125 1.3594,0.51563 2.375,1.35938 1.0156,0.84375 1.5781,1.79687 h 0.1563 l -0.1563,-2.84375 v -8.4375 h 3.4063 v 28.64063 h -3.25 v -3 h -0.1563 q -0.5625,0.92187 -1.5781,1.76562 -1.0156,0.82813 -2.375,1.34375 -1.3594,0.53125 -3,0.53125 z m 0.3594,-3.07812 q 1.75,0 3.2969,-0.9375 1.5468,-0.9375 2.5,-2.67188 0.9531,-1.75 0.9531,-4.15625 0,-2.39062 -0.9531,-4.125 -0.9532,-1.75 -2.5,-2.6875 -1.5469,-0.9375 -3.2969,-0.9375 -1.7656,0 -3.3125,0.9375 -1.5313,0.9375 -2.5,2.6875 -0.9531,1.73438 -0.9531,4.125 0,2.35938 0.9531,4.125 0.9687,1.76563 2.5,2.70313 1.5469,0.9375 3.3125,0.9375 z m 21.9581,3.07812 q -2.2812,0 -4.0312,-0.73437 -1.7344,-0.75 -2.875,-2 -1.1406,-1.26563 -1.6875,-2.75 l 3.0312,-1.35938 q 0.7969,1.84375 2.3125,2.84375 1.5313,1 3.4844,1 1.8906,0 3.1406,-0.75 1.2657,-0.76562 1.2657,-2.25 0,-0.92187 -0.5313,-1.53125 -0.5156,-0.625 -1.5156,-1.0625 -1,-0.45312 -2.4375,-0.8125 l -2.4844,-0.64062 q -1.4375,-0.39063 -2.7187,-1.10938 -1.2813,-0.71875 -2.0625,-1.85937 -0.7657,-1.14063 -0.7657,-2.78125 0,-1.84375 1.0782,-3.15625 1.0781,-1.32813 2.8281,-2.03125 1.7656,-0.70313 3.7656,-0.70313 1.7656,0 3.2969,0.5 1.5469,0.5 2.7031,1.48438 1.1563,0.98437 1.7656,2.42187 l -2.9687,1.35938 q -0.75,-1.51563 -2.0313,-2.10938 -1.2812,-0.60937 -2.8437,-0.60937 -1.6719,0 -2.9219,0.75 -1.2344,0.73437 -1.2344,2.01562 0,1.28125 1.0157,1.92188 1.0156,0.625 2.5,1.03125 l 2.9687,0.76562 q 3,0.75 4.5156,2.25 1.5157,1.5 1.5157,3.67188 0,1.90625 -1.0782,3.3125 -1.0781,1.40625 -2.9218,2.17187 -1.8438,0.75 -4.0782,0.75 z"
       fill-rule="nonzero"
       id="path18" />
    <path
       fill="#d2e9ff"
       d="m 1342.3071,505.31497 h 169.0393 v 79.74802 h -169.0393 z"
       fill-rule="evenodd"
       id="path19" />
    <path
       stroke="#a7a7a7"
       stroke-width="1"
       stroke-linejoin="round"
       stroke-linecap="butt"
       d="m 1342.3071,505.31497 h 169.0393 v 79.74802 h -169.0393 z"
       fill-rule="evenodd"
       id="path20" />
    <path
       fill="#000000"
       d="m 1389.35,559.589 v -28.64062 h 3.3906 v 25.40625 h 12.5313 v 3.23437 z m 28.5986,0.64063 q -3.0781,0 -5.4375,-1.4375 -2.3593,-1.4375 -3.7031,-3.89063 -1.3437,-2.46875 -1.3437,-5.51562 0,-3.03125 1.3437,-5.48438 1.3438,-2.46875 3.7031,-3.90625 2.3594,-1.45312 5.4375,-1.45312 3.0782,0 5.4375,1.46875 2.3594,1.45312 3.7032,3.92187 1.3437,2.45313 1.3437,5.45313 0,3.04687 -1.3437,5.51562 -1.3438,2.45313 -3.7032,3.89063 -2.3593,1.4375 -5.4375,1.4375 z m 0,-3.07813 q 1.8438,0 3.4532,-0.92187 1.625,-0.92188 2.625,-2.65625 1,-1.75 1,-4.1875 0,-2.4375 -1,-4.17188 -1,-1.75 -2.625,-2.65625 -1.6094,-0.92187 -3.4532,-0.92187 -1.8437,0 -3.4843,0.92187 -1.6407,0.90625 -2.6407,2.65625 -1,1.73438 -1,4.17188 0,2.4375 1,4.1875 1,1.73437 2.6407,2.65625 1.6406,0.92187 3.4843,0.92187 z m 21.3588,3.07813 q -2.2813,0 -4.0313,-0.73438 -1.7343,-0.75 -2.875,-2 -1.1406,-1.26562 -1.6875,-2.75 l 3.0313,-1.35937 q 0.7969,1.84375 2.3125,2.84375 1.5312,1 3.4844,1 1.8906,0 3.1406,-0.75 1.2656,-0.76563 1.2656,-2.25 0,-0.92188 -0.5312,-1.53125 -0.5157,-0.625 -1.5157,-1.0625 -1,-0.45313 -2.4375,-0.8125 l -2.4843,-0.64063 q -1.4375,-0.39062 -2.7188,-1.10937 -1.2812,-0.71875 -2.0625,-1.85938 -0.7656,-1.14062 -0.7656,-2.78125 0,-1.84375 1.0781,-3.15625 1.0781,-1.32812 2.8281,-2.03125 1.7657,-0.70312 3.7657,-0.70312 1.7656,0 3.2968,0.5 1.5469,0.5 2.7032,1.48437 1.1562,0.98438 1.7656,2.42188 l -2.9688,1.35937 q -0.75,-1.51562 -2.0312,-2.10937 -1.2813,-0.60938 -2.8438,-0.60938 -1.6718,0 -2.9218,0.75 -1.2344,0.73438 -1.2344,2.01563 0,1.28125 1.0156,1.92187 1.0156,0.625 2.5,1.03125 l 2.9688,0.76563 q 3,0.75 4.5156,2.25 1.5156,1.5 1.5156,3.67187 0,1.90625 -1.0781,3.3125 -1.0781,1.40625 -2.9219,2.17188 -1.8437,0.75 -4.0781,0.75 z m 18.92,0 q -2.2812,0 -4.0312,-0.73438 -1.7344,-0.75 -2.875,-2 -1.1406,-1.26562 -1.6875,-2.75 l 3.0312,-1.35937 q 0.7969,1.84375 2.3125,2.84375 1.5313,1 3.4844,1 1.8906,0 3.1406,-0.75 1.2657,-0.76563 1.2657,-2.25 0,-0.92188 -0.5313,-1.53125 -0.5156,-0.625 -1.5156,-1.0625 -1,-0.45313 -2.4375,-0.8125 l -2.4844,-0.64063 q -1.4375,-0.39062 -2.7187,-1.10937 -1.2813,-0.71875 -2.0625,-1.85938 -0.7657,-1.14062 -0.7657,-2.78125 0,-1.84375 1.0782,-3.15625 1.0781,-1.32812 2.8281,-2.03125 1.7656,-0.70312 3.7656,-0.70312 1.7656,0 3.2969,0.5 1.5469,0.5 2.7031,1.48437 1.1563,0.98438 1.7656,2.42188 l -2.9687,1.35937 q -0.75,-1.51562 -2.0313,-2.10937 -1.2812,-0.60938 -2.8437,-0.60938 -1.6719,0 -2.9219,0.75 -1.2344,0.73438 -1.2344,2.01563 0,1.28125 1.0157,1.92187 1.0156,0.625 2.5,1.03125 l 2.9687,0.76563 q 3,0.75 4.5156,2.25 1.5157,1.5 1.5157,3.67187 0,1.90625 -1.0782,3.3125 -1.0781,1.40625 -2.9218,2.17188 -1.8438,0.75 -4.0782,0.75 z"
       fill-rule="nonzero"
       id="path21" />
    <path
       fill="#535353"
       d="m 1750.2705,513.2528 h 11.9928 v -11.99277 h 11.2897 v 11.99277 h 11.9928 v 11.28961 h -11.9928 v 11.9928 h -11.2897 v -11.9928 h -11.9928 z"
       fill-rule="evenodd"
       id="path22" />
    <path
       stroke="#a7a7a7"
       stroke-width="1"
       stroke-linejoin="round"
       stroke-linecap="butt"
       d="m 1750.2705,513.2528 h 11.9928 v -11.99277 h 11.2897 v 11.99277 h 11.9928 v 11.28961 h -11.9928 v 11.9928 h -11.2897 v -11.9928 h -11.9928 z"
       fill-rule="evenodd"
       id="path23" />
    <path
       fill="#000000"
       fill-opacity="0"
       d="m 1743.9081,518.89764 v 0 c 0,-13.25485 10.7452,-24 24,-24 v 0 c 6.3652,0 12.4697,2.52856 16.9706,7.02942 4.5008,4.50088 7.0294,10.60541 7.0294,16.97058 v 0 c 0,13.25482 -10.7451,24 -24,24 v 0 c -13.2548,0 -24,-10.74518 -24,-24 z"
       fill-rule="evenodd"
       id="path24" />
    <path
       stroke="#a7a7a7"
       stroke-width="3"
       stroke-linejoin="round"
       stroke-linecap="butt"
       d="m 1743.9081,518.89764 v 0 c 0,-13.25485 10.7452,-24 24,-24 v 0 c 6.3652,0 12.4697,2.52856 16.9706,7.02942 4.5008,4.50088 7.0294,10.60541 7.0294,16.97058 v 0 c 0,13.25482 -10.7451,24 -24,24 v 0 c -13.2548,0 -24,-10.74518 -24,-24 z"
       fill-rule="evenodd"
       id="path25" />
    <path
       fill="#000000"
       fill-opacity="0"
       d="m 699.90814,396.61417 h 339.59046 v 67.87402 H 699.90814 Z"
       fill-rule="evenodd"
       id="path26" />
    <path
       fill="#4285f4"
       d="m 712.11127,444.01416 v -28.64063 h 4.92187 l 9.10938,23.48438 h 0.17187 l 9.10938,-23.48438 h 4.92187 v 28.64063 h -3.35937 v -18.20313 l 0.15625,-5.4375 h -0.15625 l -9.35938,23.64063 h -2.79687 l -9.35938,-23.64063 h -0.15625 l 0.15625,5.4375 v 18.20313 z m 34.28058,0 v -20.40625 h 3.39062 v 20.40625 z m 1.67187,-24.15625 q -1,0 -1.71875,-0.71875 -0.71875,-0.71875 -0.71875,-1.71875 0,-1.04688 0.71875,-1.75 0.71875,-0.70313 1.71875,-0.70313 1.04688,0 1.73438,0.70313 0.70312,0.70312 0.70312,1.75 0,1 -0.70312,1.71875 -0.6875,0.71875 -1.73438,0.71875 z m 7.03998,24.15625 v -20.40625 h 3.25 v 3 h 0.15625 q 0.79688,-1.46875 2.60938,-2.54688 1.82812,-1.09375 3.98437,-1.09375 3.76563,0 5.65625,2.1875 1.90625,2.17188 1.90625,5.78125 v 13.07813 h -3.39062 v -12.5625 q 0,-2.95313 -1.42188,-4.17188 -1.42187,-1.21875 -3.67187,-1.21875 -1.67188,0 -2.95313,0.9375 -1.28125,0.9375 -2,2.42188 -0.71875,1.46875 -0.71875,3.10937 v 11.48438 z m 22.76813,0 v -20.40625 h 3.39063 v 20.40625 z m 1.67188,-24.15625 q -1,0 -1.71875,-0.71875 -0.71875,-0.71875 -0.71875,-1.71875 0,-1.04688 0.71875,-1.75 0.71875,-0.70313 1.71875,-0.70313 1.04687,0 1.73437,0.70313 0.70313,0.70312 0.70313,1.75 0,1 -0.70313,1.71875 -0.6875,0.71875 -1.73437,0.71875 z m 17.39935,24.79687 q -1.64063,0 -3,-0.53125 -1.35938,-0.51562 -2.375,-1.34375 -1.01563,-0.84375 -1.57813,-1.76562 h -0.15625 v 3 h -3.25 v -28.64063 h 3.40625 v 8.4375 l -0.15625,2.84375 h 0.15625 q 0.5625,-0.95312 1.57813,-1.79687 1.01562,-0.84375 2.375,-1.35938 1.35937,-0.53125 3,-0.53125 2.8125,0 5,1.40625 2.20312,1.40625 3.48437,3.84375 1.28125,2.4375 1.28125,5.59375 0,3.15625 -1.28125,5.60938 -1.28125,2.4375 -3.48437,3.84375 -2.1875,1.39062 -5,1.39062 z m -0.35938,-3.07812 q 1.76563,0 3.29688,-0.9375 1.54687,-0.9375 2.48437,-2.70313 0.9375,-1.76562 0.9375,-4.125 0,-2.39062 -0.9375,-4.125 -0.9375,-1.75 -2.48437,-2.6875 -1.53125,-0.9375 -3.29688,-0.9375 -1.75,0 -3.29687,0.9375 -1.53125,0.9375 -2.5,2.6875 -0.95313,1.73438 -0.95313,4.125 0,2.40625 0.95313,4.15625 0.96875,1.73438 2.5,2.67188 1.54687,0.9375 3.29687,0.9375 z m 20.61121,3.07812 q -2.28125,0 -4.01563,-0.875 -1.71875,-0.89062 -2.70312,-2.42187 -0.96875,-1.54688 -0.96875,-3.5 0,-2.25 1.15625,-3.78125 1.17187,-1.54688 3.125,-2.32813 1.95312,-0.78125 4.3125,-0.78125 1.35937,0 2.51562,0.23438 1.17188,0.21875 2.03125,0.51562 0.85938,0.29688 1.29688,0.57813 v -1.23438 q 0,-2.32812 -1.64063,-3.6875 -1.64062,-1.35937 -4,-1.35937 -1.67187,0 -3.14062,0.75 -1.45313,0.73437 -2.29688,2.04687 l -2.5625,-1.92187 q 0.79688,-1.1875 2,-2.0625 1.20313,-0.89063 2.73438,-1.375 1.54687,-0.48438 3.26562,-0.48438 4.15625,0 6.51563,2.20313 2.375,2.20312 2.375,5.92187 v 12.92188 h -3.25 v -2.92188 h -0.15625 q -0.51563,0.875 -1.48438,1.70313 -0.95312,0.8125 -2.26562,1.32812 -1.29688,0.53125 -2.84375,0.53125 z m 0.3125,-3 q 1.76562,0 3.21875,-0.875 1.46875,-0.89062 2.34375,-2.35937 0.875,-1.48438 0.875,-3.25 -0.92188,-0.64063 -2.29688,-1.03125 -1.375,-0.40625 -3.01562,-0.40625 -2.92188,0 -4.28125,1.20312 -1.35938,1.20313 -1.35938,2.95313 0,1.6875 1.28125,2.73437 1.28125,1.03125 3.23438,1.03125 z m 12.60565,-18.04687 h 11.95313 v 3.09375 h -11.95313 z m 3.5625,15.04687 v -20.79687 h 3.39063 v 19.95312 q 0,1.60938 0.65625,2.48438 0.67187,0.875 2.1875,0.875 0.67187,0 1.23437,-0.1875 0.5625,-0.20313 1,-0.48438 v 3.3125 q -0.51562,0.25 -1.14062,0.375 -0.60938,0.14063 -1.65625,0.14063 -2.5625,0 -4.125,-1.5 -1.54688,-1.5 -1.54688,-4.17188 z m 20.7981,6 q -3,0 -5.34375,-1.42187 -2.34375,-1.42188 -3.67188,-3.875 -1.3125,-2.46875 -1.3125,-5.54688 0,-3.10937 1.3125,-5.54687 1.32813,-2.45313 3.67188,-3.875 2.34375,-1.42188 5.34375,-1.42188 3.4375,0 5.65625,1.59375 2.21875,1.57813 3.14062,4.04688 l -3.07812,1.28125 q -0.76563,-1.875 -2.26563,-2.84375 -1.5,-0.98438 -3.625,-0.98438 -1.79687,0 -3.34375,0.95313 -1.53125,0.95312 -2.5,2.70312 -0.95312,1.73438 -0.95312,4.09375 0,2.32813 0.95312,4.09375 0.96875,1.75 2.5,2.71875 1.54688,0.95313 3.34375,0.95313 2.17188,0 3.71875,-1 1.5625,-1 2.32813,-2.84375 l 3.04687,1.28125 q -1,2.35937 -3.25,4 -2.23437,1.64062 -5.67187,1.64062 z m 12.58996,-0.64062 v -28.64063 h 3.40625 v 8.4375 l -0.15625,2.79688 h 0.15625 q 0.79688,-1.51563 2.60938,-2.57813 1.82812,-1.0625 4.03125,-1.0625 2.59375,0 4.26562,1.04688 1.6875,1.04687 2.53125,2.82812 0.84375,1.76563 0.84375,4.09375 v 13.07813 h -3.40625 v -12.5625 q 0,-1.95313 -0.70312,-3.125 -0.6875,-1.1875 -1.82813,-1.71875 -1.14062,-0.54688 -2.5,-0.54688 -1.6875,0 -3.01562,0.95313 -1.3125,0.95312 -2.07813,2.48437 -0.75,1.51563 -0.75,3.15625 v 11.35938 z m 37.68372,0 v -22.59375 l -4.79688,3.4375 -1.76562,-2.60938 7.79687,-5.59375 h 2.17188 v 27.35938 z"
       fill-rule="nonzero"
       id="path27" />
    <path
       fill="#000000"
       fill-opacity="0"
       d="m 1767.9081,402.66403 v 92.22049"
       fill-rule="evenodd"
       id="path28" />
    <path
       stroke="#a7a7a7"
       stroke-width="4"
       stroke-linejoin="round"
       stroke-linecap="butt"
       d="m 1767.9081,402.66403 v 68.22049"
       fill-rule="evenodd"
       id="path29" />
    <path
       fill="#a7a7a7"
       stroke="#a7a7a7"
       stroke-width="4"
       stroke-linecap="butt"
       d="m 1761.3011,470.88452 6.6069,18.15237 6.607,-18.15237 z"
       fill-rule="evenodd"
       id="path30" />
    <path
       fill="#000000"
       fill-opacity="0"
       d="m 1543.4987,518.89764 h 200.4094"
       fill-rule="evenodd"
       id="path31" />
    <path
       stroke="#a7a7a7"
       stroke-width="4"
       stroke-linejoin="round"
       stroke-linecap="butt"
       d="m 1543.4987,518.89764 h 176.4094"
       fill-rule="evenodd"
       id="path32" />
    <path
       fill="#a7a7a7"
       stroke="#a7a7a7"
       stroke-width="4"
       stroke-linecap="butt"
       d="m 1719.9081,525.5046 18.1525,-6.60693 -18.1525,-6.60694 z"
       fill-rule="evenodd"
       id="path33" />
    <path
       fill="#000000"
       fill-opacity="0"
       d="M 699.90814,656.2126 H 1543.4986 V 900.77956 H 699.90814 Z"
       fill-rule="evenodd"
       id="path34" />
    <path
       stroke="#999999"
       stroke-width="4"
       stroke-linejoin="round"
       stroke-linecap="butt"
       d="M 699.90814,656.2126 H 1543.4986 V 900.77956 H 699.90814 Z"
       fill-rule="evenodd"
       id="path35" />
    <path
       fill="#efefef"
       d="m 917.81366,754.6672 v 0 c 0,-13.84076 11.22009,-25.06085 25.06085,-25.06085 h 319.35869 c 6.6464,0 13.0208,2.64032 17.7207,7.34015 4.6998,4.69983 7.34,11.07416 7.34,17.7207 v 100.24048 c 0,13.8407 -11.22,25.06085 -25.0607,25.06085 H 942.87451 v 0 c -13.84076,0 -25.06085,-11.22015 -25.06085,-25.06085 z"
       fill-rule="evenodd"
       id="path36" />
    <path
       stroke="#a7a7a7"
       stroke-width="1"
       stroke-linejoin="round"
       stroke-linecap="butt"
       d="m 917.81366,754.6672 v 0 c 0,-13.84076 11.22009,-25.06085 25.06085,-25.06085 h 319.35869 c 6.6464,0 13.0208,2.64032 17.7207,7.34015 4.6998,4.69983 7.34,11.07416 7.34,17.7207 v 100.24048 c 0,13.8407 -11.22,25.06085 -25.0607,25.06085 H 942.87451 v 0 c -13.84076,0 -25.06085,-11.22015 -25.06085,-25.06085 z"
       fill-rule="evenodd"
       id="path37" />
    <path
       fill="#000000"
       d="m 1038.6454,821.8674 v -34.375 h 5.9063 l 10.9375,28.1875 h 0.1875 l 10.9531,-28.1875 h 5.9062 v 34.375 h -4.0312 v -21.84375 l 0.1875,-6.53125 h -0.1875 l -11.2344,28.375 h -3.3594 l -11.2343,-28.375 h -0.1875 l 0.1875,6.53125 v 21.84375 z m 51.5413,0.76562 q -3.6875,0 -6.5313,-1.71875 -2.8281,-1.73437 -4.4375,-4.6875 -1.5937,-2.95312 -1.5937,-6.59375 0,-3.65625 1.5937,-6.60937 1.6094,-2.95313 4.4375,-4.67188 2.8438,-1.73437 6.5313,-1.73437 3.7031,0 6.5312,1.75 2.8281,1.75 4.4375,4.70312 1.6094,2.95313 1.6094,6.5625 0,3.64063 -1.6094,6.59375 -1.6094,2.95313 -4.4375,4.6875 -2.8281,1.71875 -6.5312,1.71875 z m 0,-3.6875 q 2.2187,0 4.1562,-1.10937 1.9531,-1.10938 3.1406,-3.1875 1.2032,-2.09375 1.2032,-5.01563 0,-2.9375 -1.2032,-5.01562 -1.1875,-2.09375 -3.1406,-3.1875 -1.9375,-1.10938 -4.1562,-1.10938 -2.2032,0 -4.1719,1.10938 -1.9688,1.09375 -3.1719,3.1875 -1.1875,2.07812 -1.1875,5.01562 0,2.92188 1.1875,5.01563 1.2031,2.07812 3.1719,3.1875 1.9687,1.10937 4.1719,1.10937 z m 27.7486,3.6875 q -3.3125,0 -5.9844,-1.67187 -2.6562,-1.6875 -4.1875,-4.60938 -1.5312,-2.9375 -1.5312,-6.71875 0,-3.79687 1.5312,-6.71875 1.5313,-2.9375 4.1875,-4.60937 2.6719,-1.6875 5.9844,-1.6875 1.9688,0 3.5938,0.625 1.6406,0.625 2.8593,1.64062 1.2344,1 1.9063,2.15625 h 0.1875 l -0.1875,-3.40625 V 787.4924 h 4.0781 v 34.375 h -3.8906 v -3.59375 h -0.1875 q -0.6719,1.09375 -1.9063,2.10937 -1.2187,1 -2.8593,1.625 -1.625,0.625 -3.5938,0.625 z m 0.4375,-3.6875 q 2.1094,0 3.9531,-1.125 1.8594,-1.14062 3,-3.21875 1.1563,-2.09375 1.1563,-4.96875 0,-2.89062 -1.1563,-4.96875 -1.1406,-2.09375 -3,-3.21875 -1.8437,-1.125 -3.9531,-1.125 -2.1094,0 -3.9687,1.125 -1.8438,1.125 -3,3.21875 -1.1407,2.07813 -1.1407,4.96875 0,2.82813 1.1407,4.9375 1.1562,2.10938 3,3.25 1.8593,1.125 3.9687,1.125 z m 28.703,3.6875 q -3.5469,0 -6.3125,-1.67187 -2.7656,-1.6875 -4.3281,-4.60938 -1.5469,-2.9375 -1.5469,-6.67187 0,-3.51563 1.4531,-6.48438 1.4688,-2.96875 4.125,-4.76562 2.6719,-1.8125 6.2657,-1.8125 3.6562,0 6.2656,1.60937 2.625,1.60938 4.0312,4.4375 1.4219,2.82813 1.4219,6.48438 0,0.32812 -0.031,0.67187 -0.016,0.32813 -0.062,0.57813 h -21.0782 v -3.35938 h 16.8438 q -0.047,-1.01562 -0.4531,-2.1875 -0.4063,-1.17187 -1.2969,-2.20312 -0.875,-1.03125 -2.25,-1.67188 -1.375,-0.65625 -3.3906,-0.65625 -2.3907,0 -4.1407,1.21875 -1.75,1.21875 -2.6875,3.34375 -0.9375,2.10938 -0.9375,4.79688 0,3.10937 1.1875,5.1875 1.2032,2.0625 3.0938,3.07812 1.9062,1 3.9687,1 2.6875,0 4.4375,-1.26562 1.75,-1.28125 2.8125,-3.15625 l 3.4532,1.6875 q -1.4375,2.78125 -4.125,4.60937 -2.6875,1.8125 -6.7188,1.8125 z m 16.1334,-0.76562 v -34.375 h 4.0782 v 34.375 z"
       fill-rule="nonzero"
       id="path38" />
    <path
       fill="#d2e9ff"
       d="m 1342.3071,764.9134 h 169.0393 v 79.74805 h -169.0393 z"
       fill-rule="evenodd"
       id="path39" />
    <path
       stroke="#a7a7a7"
       stroke-width="1"
       stroke-linejoin="round"
       stroke-linecap="butt"
       d="m 1342.3071,764.9134 h 169.0393 v 79.74805 h -169.0393 z"
       fill-rule="evenodd"
       id="path40" />
    <path
       fill="#000000"
       d="m 1389.35,819.1874 v -28.64062 h 3.3906 v 25.40625 h 12.5313 v 3.23437 z m 28.5986,0.64063 q -3.0781,0 -5.4375,-1.4375 -2.3593,-1.4375 -3.7031,-3.89063 -1.3437,-2.46875 -1.3437,-5.51562 0,-3.03125 1.3437,-5.48438 1.3438,-2.46875 3.7031,-3.90625 2.3594,-1.45312 5.4375,-1.45312 3.0782,0 5.4375,1.46875 2.3594,1.45312 3.7032,3.92187 1.3437,2.45313 1.3437,5.45313 0,3.04687 -1.3437,5.51562 -1.3438,2.45313 -3.7032,3.89063 -2.3593,1.4375 -5.4375,1.4375 z m 0,-3.07813 q 1.8438,0 3.4532,-0.92187 1.625,-0.92188 2.625,-2.65625 1,-1.75 1,-4.1875 0,-2.4375 -1,-4.17188 -1,-1.75 -2.625,-2.65625 -1.6094,-0.92187 -3.4532,-0.92187 -1.8437,0 -3.4843,0.92187 -1.6407,0.90625 -2.6407,2.65625 -1,1.73438 -1,4.17188 0,2.4375 1,4.1875 1,1.73437 2.6407,2.65625 1.6406,0.92187 3.4843,0.92187 z m 21.3588,3.07813 q -2.2813,0 -4.0313,-0.73438 -1.7343,-0.75 -2.875,-2 -1.1406,-1.26562 -1.6875,-2.75 l 3.0313,-1.35937 q 0.7969,1.84375 2.3125,2.84375 1.5312,1 3.4844,1 1.8906,0 3.1406,-0.75 1.2656,-0.76563 1.2656,-2.25 0,-0.92188 -0.5312,-1.53125 -0.5157,-0.625 -1.5157,-1.0625 -1,-0.45313 -2.4375,-0.8125 l -2.4843,-0.64063 q -1.4375,-0.39062 -2.7188,-1.10937 -1.2812,-0.71875 -2.0625,-1.85938 -0.7656,-1.14062 -0.7656,-2.78125 0,-1.84375 1.0781,-3.15625 1.0781,-1.32812 2.8281,-2.03125 1.7657,-0.70312 3.7657,-0.70312 1.7656,0 3.2968,0.5 1.5469,0.5 2.7032,1.48437 1.1562,0.98438 1.7656,2.42188 l -2.9688,1.35937 q -0.75,-1.51562 -2.0312,-2.10937 -1.2813,-0.60938 -2.8438,-0.60938 -1.6718,0 -2.9218,0.75 -1.2344,0.73438 -1.2344,2.01563 0,1.28125 1.0156,1.92187 1.0156,0.625 2.5,1.03125 l 2.9688,0.76563 q 3,0.75 4.5156,2.25 1.5156,1.5 1.5156,3.67187 0,1.90625 -1.0781,3.3125 -1.0781,1.40625 -2.9219,2.17188 -1.8437,0.75 -4.0781,0.75 z m 18.92,0 q -2.2812,0 -4.0312,-0.73438 -1.7344,-0.75 -2.875,-2 -1.1406,-1.26562 -1.6875,-2.75 l 3.0312,-1.35937 q 0.7969,1.84375 2.3125,2.84375 1.5313,1 3.4844,1 1.8906,0 3.1406,-0.75 1.2657,-0.76563 1.2657,-2.25 0,-0.92188 -0.5313,-1.53125 -0.5156,-0.625 -1.5156,-1.0625 -1,-0.45313 -2.4375,-0.8125 l -2.4844,-0.64063 q -1.4375,-0.39062 -2.7187,-1.10937 -1.2813,-0.71875 -2.0625,-1.85938 -0.7657,-1.14062 -0.7657,-2.78125 0,-1.84375 1.0782,-3.15625 1.0781,-1.32812 2.8281,-2.03125 1.7656,-0.70312 3.7656,-0.70312 1.7656,0 3.2969,0.5 1.5469,0.5 2.7031,1.48437 1.1563,0.98438 1.7656,2.42188 l -2.9687,1.35937 q -0.75,-1.51562 -2.0313,-2.10937 -1.2812,-0.60938 -2.8437,-0.60938 -1.6719,0 -2.9219,0.75 -1.2344,0.73438 -1.2344,2.01563 0,1.28125 1.0157,1.92187 1.0156,0.625 2.5,1.03125 l 2.9687,0.76563 q 3,0.75 4.5156,2.25 1.5157,1.5 1.5157,3.67187 0,1.90625 -1.0782,3.3125 -1.0781,1.40625 -2.9218,2.17188 -1.8438,0.75 -4.0782,0.75 z"
       fill-rule="nonzero"
       id="path41" />
    <path
       fill="#000000"
       fill-opacity="0"
       d="m 699.90814,656.2126 h 339.59046 v 67.87402 H 699.90814 Z"
       fill-rule="evenodd"
       id="path42" />
    <path
       fill="#4285f4"
       d="m 712.11127,703.6126 v -28.64062 h 4.92187 l 9.10938,23.48437 h 0.17187 l 9.10938,-23.48437 h 4.92187 v 28.64062 h -3.35937 v -18.20312 l 0.15625,-5.4375 h -0.15625 l -9.35938,23.64062 h -2.79687 l -9.35938,-23.64062 h -0.15625 l 0.15625,5.4375 v 18.20312 z m 34.28058,0 v -20.40625 h 3.39062 v 20.40625 z m 1.67187,-24.15625 q -1,0 -1.71875,-0.71875 -0.71875,-0.71875 -0.71875,-1.71875 0,-1.04687 0.71875,-1.75 0.71875,-0.70312 1.71875,-0.70312 1.04688,0 1.73438,0.70312 0.70312,0.70313 0.70312,1.75 0,1 -0.70312,1.71875 -0.6875,0.71875 -1.73438,0.71875 z m 7.03998,24.15625 v -20.40625 h 3.25 v 3 h 0.15625 q 0.79688,-1.46875 2.60938,-2.54687 1.82812,-1.09375 3.98437,-1.09375 3.76563,0 5.65625,2.1875 1.90625,2.17187 1.90625,5.78125 v 13.07812 h -3.39062 v -12.5625 q 0,-2.95312 -1.42188,-4.17187 -1.42187,-1.21875 -3.67187,-1.21875 -1.67188,0 -2.95313,0.9375 -1.28125,0.9375 -2,2.42187 -0.71875,1.46875 -0.71875,3.10938 v 11.48437 z m 22.76813,0 v -20.40625 h 3.39063 v 20.40625 z m 1.67188,-24.15625 q -1,0 -1.71875,-0.71875 -0.71875,-0.71875 -0.71875,-1.71875 0,-1.04687 0.71875,-1.75 0.71875,-0.70312 1.71875,-0.70312 1.04687,0 1.73437,0.70312 0.70313,0.70313 0.70313,1.75 0,1 -0.70313,1.71875 -0.6875,0.71875 -1.73437,0.71875 z m 17.39935,24.79688 q -1.64063,0 -3,-0.53125 -1.35938,-0.51563 -2.375,-1.34375 -1.01563,-0.84375 -1.57813,-1.76563 h -0.15625 v 3 h -3.25 v -28.64062 h 3.40625 v 8.4375 l -0.15625,2.84375 h 0.15625 q 0.5625,-0.95313 1.57813,-1.79688 1.01562,-0.84375 2.375,-1.35937 1.35937,-0.53125 3,-0.53125 2.8125,0 5,1.40625 2.20312,1.40625 3.48437,3.84375 1.28125,2.4375 1.28125,5.59375 0,3.15625 -1.28125,5.60937 -1.28125,2.4375 -3.48437,3.84375 -2.1875,1.39063 -5,1.39063 z m -0.35938,-3.07813 q 1.76563,0 3.29688,-0.9375 1.54687,-0.9375 2.48437,-2.70312 0.9375,-1.76563 0.9375,-4.125 0,-2.39063 -0.9375,-4.125 -0.9375,-1.75 -2.48437,-2.6875 -1.53125,-0.9375 -3.29688,-0.9375 -1.75,0 -3.29687,0.9375 -1.53125,0.9375 -2.5,2.6875 -0.95313,1.73437 -0.95313,4.125 0,2.40625 0.95313,4.15625 0.96875,1.73437 2.5,2.67187 1.54687,0.9375 3.29687,0.9375 z m 20.61121,3.07813 q -2.28125,0 -4.01563,-0.875 -1.71875,-0.89063 -2.70312,-2.42188 -0.96875,-1.54687 -0.96875,-3.5 0,-2.25 1.15625,-3.78125 1.17187,-1.54687 3.125,-2.32812 1.95312,-0.78125 4.3125,-0.78125 1.35937,0 2.51562,0.23437 1.17188,0.21875 2.03125,0.51563 0.85938,0.29687 1.29688,0.57812 v -1.23437 q 0,-2.32813 -1.64063,-3.6875 -1.64062,-1.35938 -4,-1.35938 -1.67187,0 -3.14062,0.75 -1.45313,0.73438 -2.29688,2.04688 l -2.5625,-1.92188 q 0.79688,-1.1875 2,-2.0625 1.20313,-0.89062 2.73438,-1.375 1.54687,-0.48437 3.26562,-0.48437 4.15625,0 6.51563,2.20312 2.375,2.20313 2.375,5.92188 v 12.92187 h -3.25 v -2.92187 h -0.15625 q -0.51563,0.875 -1.48438,1.70312 -0.95312,0.8125 -2.26562,1.32813 -1.29688,0.53125 -2.84375,0.53125 z m 0.3125,-3 q 1.76562,0 3.21875,-0.875 1.46875,-0.89063 2.34375,-2.35938 0.875,-1.48437 0.875,-3.25 -0.92188,-0.64062 -2.29688,-1.03125 -1.375,-0.40625 -3.01562,-0.40625 -2.92188,0 -4.28125,1.20313 -1.35938,1.20312 -1.35938,2.95312 0,1.6875 1.28125,2.73438 1.28125,1.03125 3.23438,1.03125 z m 12.60565,-18.04688 h 11.95313 v 3.09375 h -11.95313 z m 3.5625,15.04688 v -20.79688 h 3.39063 v 19.95313 q 0,1.60937 0.65625,2.48437 0.67187,0.875 2.1875,0.875 0.67187,0 1.23437,-0.1875 0.5625,-0.20312 1,-0.48437 v 3.3125 q -0.51562,0.25 -1.14062,0.375 -0.60938,0.14062 -1.65625,0.14062 -2.5625,0 -4.125,-1.5 -1.54688,-1.5 -1.54688,-4.17187 z m 20.7981,6 q -3,0 -5.34375,-1.42188 -2.34375,-1.42187 -3.67188,-3.875 -1.3125,-2.46875 -1.3125,-5.54687 0,-3.10938 1.3125,-5.54688 1.32813,-2.45312 3.67188,-3.875 2.34375,-1.42187 5.34375,-1.42187 3.4375,0 5.65625,1.59375 2.21875,1.57812 3.14062,4.04687 l -3.07812,1.28125 q -0.76563,-1.875 -2.26563,-2.84375 -1.5,-0.98437 -3.625,-0.98437 -1.79687,0 -3.34375,0.95312 -1.53125,0.95313 -2.5,2.70313 -0.95312,1.73437 -0.95312,4.09375 0,2.32812 0.95312,4.09375 0.96875,1.75 2.5,2.71875 1.54688,0.95312 3.34375,0.95312 2.17188,0 3.71875,-1 1.5625,-1 2.32813,-2.84375 l 3.04687,1.28125 q -1,2.35938 -3.25,4 -2.23437,1.64063 -5.67187,1.64063 z m 12.58996,-0.64063 v -28.64062 h 3.40625 v 8.4375 l -0.15625,2.79687 h 0.15625 q 0.79688,-1.51562 2.60938,-2.57812 1.82812,-1.0625 4.03125,-1.0625 2.59375,0 4.26562,1.04687 1.6875,1.04688 2.53125,2.82813 0.84375,1.76562 0.84375,4.09375 v 13.07812 h -3.40625 v -12.5625 q 0,-1.95312 -0.70312,-3.125 -0.6875,-1.1875 -1.82813,-1.71875 -1.14062,-0.54687 -2.5,-0.54687 -1.6875,0 -3.01562,0.95312 -1.3125,0.95313 -2.07813,2.48438 -0.75,1.51562 -0.75,3.15625 v 11.35937 z m 31.12122,0 v -3.40625 q 0.125,-0.10937 0.95312,-0.95312 0.84375,-0.84375 2.07813,-2.09375 1.25,-1.26563 2.60937,-2.64063 1.35938,-1.39062 2.53125,-2.60937 1.1875,-1.21875 1.875,-1.98438 1.23438,-1.35937 1.98438,-2.32812 0.76562,-0.98438 1.125,-1.92188 0.35937,-0.9375 0.35937,-2.1875 0,-1.15625 -0.59375,-2.21875 -0.59375,-1.0625 -1.73437,-1.73437 -1.14063,-0.6875 -2.85938,-0.6875 -1.60937,0 -2.71875,0.6875 -1.09375,0.67187 -1.6875,1.625 -0.59375,0.9375 -0.79687,1.6875 l -3.07813,-1.23438 q 0.23438,-0.84375 0.84375,-1.85937 0.625,-1.01563 1.64063,-1.95313 1.03125,-0.95312 2.48437,-1.5625 1.46875,-0.625 3.39063,-0.625 2.59375,0 4.51562,1.10938 1.92188,1.09375 2.98438,2.875 1.0625,1.78125 1.0625,3.85937 0,1.79688 -0.6875,3.42188 -0.67188,1.60937 -1.67188,2.9375 -1,1.3125 -2.04687,2.3125 -0.51563,0.53125 -1.4375,1.45312 -0.92188,0.90625 -1.96875,1.96875 -1.03125,1.0625 -2.03125,2.0625 -1,1 -1.75,1.76563 -0.73438,0.75 -1.01563,1 v 0 h 12.92188 v 3.23437 z"
       fill-rule="nonzero"
       id="path43" />
    <path
       fill="#000000"
       fill-opacity="0"
       d="M 699.90814,915.81104 H 1543.4986 V 1160.3779 H 699.90814 Z"
       fill-rule="evenodd"
       id="path44" />
    <path
       stroke="#999999"
       stroke-width="4"
       stroke-linejoin="round"
       stroke-linecap="butt"
       d="M 699.90814,915.81104 H 1543.4986 V 1160.3779 H 699.90814 Z"
       fill-rule="evenodd"
       id="path45" />
    <path
       fill="#efefef"
       d="m 917.81366,1014.2656 v 0 c 0,-13.8407 11.22009,-25.06089 25.06085,-25.06089 h 319.35869 c 6.6464,0 13.0208,2.64032 17.7207,7.34015 4.6998,4.69984 7.34,11.07414 7.34,17.72074 v 100.2405 c 0,13.8407 -11.22,25.0608 -25.0607,25.0608 H 942.87451 v 0 c -13.84076,0 -25.06085,-11.2201 -25.06085,-25.0608 z"
       fill-rule="evenodd"
       id="path46" />
    <path
       stroke="#a7a7a7"
       stroke-width="1"
       stroke-linejoin="round"
       stroke-linecap="butt"
       d="m 917.81366,1014.2656 v 0 c 0,-13.8407 11.22009,-25.06089 25.06085,-25.06089 h 319.35869 c 6.6464,0 13.0208,2.64032 17.7207,7.34015 4.6998,4.69984 7.34,11.07414 7.34,17.72074 v 100.2405 c 0,13.8407 -11.22,25.0608 -25.0607,25.0608 H 942.87451 v 0 c -13.84076,0 -25.06085,-11.2201 -25.06085,-25.0608 z"
       fill-rule="evenodd"
       id="path47" />
    <path
       fill="#000000"
       d="m 1038.6454,1081.4658 v -34.375 h 5.9063 l 10.9375,28.1875 h 0.1875 l 10.9531,-28.1875 h 5.9062 v 34.375 h -4.0312 v -21.8437 l 0.1875,-6.5313 h -0.1875 l -11.2344,28.375 h -3.3594 l -11.2343,-28.375 h -0.1875 l 0.1875,6.5313 v 21.8437 z m 51.5413,0.7656 q -3.6875,0 -6.5313,-1.7187 -2.8281,-1.7344 -4.4375,-4.6875 -1.5937,-2.9531 -1.5937,-6.5938 0,-3.6562 1.5937,-6.6093 1.6094,-2.9532 4.4375,-4.6719 2.8438,-1.7344 6.5313,-1.7344 3.7031,0 6.5312,1.75 2.8281,1.75 4.4375,4.7031 1.6094,2.9532 1.6094,6.5625 0,3.6407 -1.6094,6.5938 -1.6094,2.9531 -4.4375,4.6875 -2.8281,1.7187 -6.5312,1.7187 z m 0,-3.6875 q 2.2187,0 4.1562,-1.1093 1.9531,-1.1094 3.1406,-3.1875 1.2032,-2.0938 1.2032,-5.0157 0,-2.9375 -1.2032,-5.0156 -1.1875,-2.0937 -3.1406,-3.1875 -1.9375,-1.1094 -4.1562,-1.1094 -2.2032,0 -4.1719,1.1094 -1.9688,1.0938 -3.1719,3.1875 -1.1875,2.0781 -1.1875,5.0156 0,2.9219 1.1875,5.0157 1.2031,2.0781 3.1719,3.1875 1.9687,1.1093 4.1719,1.1093 z m 27.7486,3.6875 q -3.3125,0 -5.9844,-1.6718 -2.6562,-1.6875 -4.1875,-4.6094 -1.5312,-2.9375 -1.5312,-6.7188 0,-3.7968 1.5312,-6.7187 1.5313,-2.9375 4.1875,-4.6094 2.6719,-1.6875 5.9844,-1.6875 1.9688,0 3.5938,0.625 1.6406,0.625 2.8593,1.6406 1.2344,1 1.9063,2.1563 h 0.1875 l -0.1875,-3.4063 v -10.1406 h 4.0781 v 34.375 h -3.8906 v -3.5937 h -0.1875 q -0.6719,1.0937 -1.9063,2.1093 -1.2187,1 -2.8593,1.625 -1.625,0.625 -3.5938,0.625 z m 0.4375,-3.6875 q 2.1094,0 3.9531,-1.125 1.8594,-1.1406 3,-3.2187 1.1563,-2.0938 1.1563,-4.9688 0,-2.8906 -1.1563,-4.9687 -1.1406,-2.0938 -3,-3.2188 -1.8437,-1.125 -3.9531,-1.125 -2.1094,0 -3.9687,1.125 -1.8438,1.125 -3,3.2188 -1.1407,2.0781 -1.1407,4.9687 0,2.8282 1.1407,4.9375 1.1562,2.1094 3,3.25 1.8593,1.125 3.9687,1.125 z m 28.703,3.6875 q -3.5469,0 -6.3125,-1.6718 -2.7656,-1.6875 -4.3281,-4.6094 -1.5469,-2.9375 -1.5469,-6.6719 0,-3.5156 1.4531,-6.4844 1.4688,-2.9687 4.125,-4.7656 2.6719,-1.8125 6.2657,-1.8125 3.6562,0 6.2656,1.6094 2.625,1.6094 4.0312,4.4375 1.4219,2.8281 1.4219,6.4844 0,0.3281 -0.031,0.6718 -0.016,0.3282 -0.062,0.5782 h -21.0782 v -3.3594 h 16.8438 q -0.047,-1.0156 -0.4531,-2.1875 -0.4063,-1.1719 -1.2969,-2.2031 -0.875,-1.0313 -2.25,-1.6719 -1.375,-0.6563 -3.3906,-0.6563 -2.3907,0 -4.1407,1.2188 -1.75,1.2187 -2.6875,3.3437 -0.9375,2.1094 -0.9375,4.7969 0,3.1094 1.1875,5.1875 1.2032,2.0625 3.0938,3.0781 1.9062,1 3.9687,1 2.6875,0 4.4375,-1.2656 1.75,-1.2812 2.8125,-3.1562 l 3.4532,1.6875 q -1.4375,2.7812 -4.125,4.6093 -2.6875,1.8125 -6.7188,1.8125 z m 16.1334,-0.7656 v -34.375 h 4.0782 v 34.375 z"
       fill-rule="nonzero"
       id="path48" />
    <path
       fill="#d2e9ff"
       d="m 1342.3071,1024.5118 h 169.0393 v 79.7481 h -169.0393 z"
       fill-rule="evenodd"
       id="path49" />
    <path
       stroke="#a7a7a7"
       stroke-width="1"
       stroke-linejoin="round"
       stroke-linecap="butt"
       d="m 1342.3071,1024.5118 h 169.0393 v 79.7481 h -169.0393 z"
       fill-rule="evenodd"
       id="path50" />
    <path
       fill="#000000"
       d="m 1389.35,1078.7858 v -28.6406 h 3.3906 v 25.4062 h 12.5313 v 3.2344 z m 28.5986,0.6406 q -3.0781,0 -5.4375,-1.4375 -2.3593,-1.4375 -3.7031,-3.8906 -1.3437,-2.4687 -1.3437,-5.5156 0,-3.0313 1.3437,-5.4844 1.3438,-2.4687 3.7031,-3.9062 2.3594,-1.4532 5.4375,-1.4532 3.0782,0 5.4375,1.4688 2.3594,1.4531 3.7032,3.9219 1.3437,2.4531 1.3437,5.4531 0,3.0469 -1.3437,5.5156 -1.3438,2.4531 -3.7032,3.8906 -2.3593,1.4375 -5.4375,1.4375 z m 0,-3.0781 q 1.8438,0 3.4532,-0.9219 1.625,-0.9218 2.625,-2.6562 1,-1.75 1,-4.1875 0,-2.4375 -1,-4.1719 -1,-1.75 -2.625,-2.6562 -1.6094,-0.9219 -3.4532,-0.9219 -1.8437,0 -3.4843,0.9219 -1.6407,0.9062 -2.6407,2.6562 -1,1.7344 -1,4.1719 0,2.4375 1,4.1875 1,1.7344 2.6407,2.6562 1.6406,0.9219 3.4843,0.9219 z m 21.3588,3.0781 q -2.2813,0 -4.0313,-0.7343 -1.7343,-0.75 -2.875,-2 -1.1406,-1.2657 -1.6875,-2.75 l 3.0313,-1.3594 q 0.7969,1.8437 2.3125,2.8437 1.5312,1 3.4844,1 1.8906,0 3.1406,-0.75 1.2656,-0.7656 1.2656,-2.25 0,-0.9218 -0.5312,-1.5312 -0.5157,-0.625 -1.5157,-1.0625 -1,-0.4531 -2.4375,-0.8125 l -2.4843,-0.6406 q -1.4375,-0.3907 -2.7188,-1.1094 -1.2812,-0.7188 -2.0625,-1.8594 -0.7656,-1.1406 -0.7656,-2.7812 0,-1.8438 1.0781,-3.1563 1.0781,-1.3281 2.8281,-2.0312 1.7657,-0.7032 3.7657,-0.7032 1.7656,0 3.2968,0.5 1.5469,0.5 2.7032,1.4844 1.1562,0.9844 1.7656,2.4219 l -2.9688,1.3594 q -0.75,-1.5157 -2.0312,-2.1094 -1.2813,-0.6094 -2.8438,-0.6094 -1.6718,0 -2.9218,0.75 -1.2344,0.7344 -1.2344,2.0156 0,1.2813 1.0156,1.9219 1.0156,0.625 2.5,1.0313 l 2.9688,0.7656 q 3,0.75 4.5156,2.25 1.5156,1.5 1.5156,3.6719 0,1.9062 -1.0781,3.3125 -1.0781,1.4062 -2.9219,2.1718 -1.8437,0.75 -4.0781,0.75 z m 18.92,0 q -2.2812,0 -4.0312,-0.7343 -1.7344,-0.75 -2.875,-2 -1.1406,-1.2657 -1.6875,-2.75 l 3.0312,-1.3594 q 0.7969,1.8437 2.3125,2.8437 1.5313,1 3.4844,1 1.8906,0 3.1406,-0.75 1.2657,-0.7656 1.2657,-2.25 0,-0.9218 -0.5313,-1.5312 -0.5156,-0.625 -1.5156,-1.0625 -1,-0.4531 -2.4375,-0.8125 l -2.4844,-0.6406 q -1.4375,-0.3907 -2.7187,-1.1094 -1.2813,-0.7188 -2.0625,-1.8594 -0.7657,-1.1406 -0.7657,-2.7812 0,-1.8438 1.0782,-3.1563 1.0781,-1.3281 2.8281,-2.0312 1.7656,-0.7032 3.7656,-0.7032 1.7656,0 3.2969,0.5 1.5469,0.5 2.7031,1.4844 1.1563,0.9844 1.7656,2.4219 l -2.9687,1.3594 q -0.75,-1.5157 -2.0313,-2.1094 -1.2812,-0.6094 -2.8437,-0.6094 -1.6719,0 -2.9219,0.75 -1.2344,0.7344 -1.2344,2.0156 0,1.2813 1.0157,1.9219 1.0156,0.625 2.5,1.0313 l 2.9687,0.7656 q 3,0.75 4.5156,2.25 1.5157,1.5 1.5157,3.6719 0,1.9062 -1.0782,3.3125 -1.0781,1.4062 -2.9218,2.1718 -1.8438,0.75 -4.0782,0.75 z"
       fill-rule="nonzero"
       id="path51" />
    <path
       fill="#000000"
       fill-opacity="0"
       d="m 699.90814,915.81104 h 339.59046 v 67.87402 H 699.90814 Z"
       fill-rule="evenodd"
       id="path52" />
    <path
       fill="#4285f4"
       d="m 712.11127,963.211 v -28.64062 h 4.92187 l 9.10938,23.48437 h 0.17187 l 9.10938,-23.48437 h 4.92187 V 963.211 h -3.35937 v -18.20312 l 0.15625,-5.4375 h -0.15625 l -9.35938,23.64062 h -2.79687 l -9.35938,-23.64062 h -0.15625 l 0.15625,5.4375 V 963.211 Z m 34.28058,0 v -20.40625 h 3.39062 V 963.211 Z m 1.67187,-24.15625 q -1,0 -1.71875,-0.71875 -0.71875,-0.71875 -0.71875,-1.71875 0,-1.04687 0.71875,-1.75 0.71875,-0.70312 1.71875,-0.70312 1.04688,0 1.73438,0.70312 0.70312,0.70313 0.70312,1.75 0,1 -0.70312,1.71875 -0.6875,0.71875 -1.73438,0.71875 z m 7.03998,24.15625 v -20.40625 h 3.25 v 3 h 0.15625 q 0.79688,-1.46875 2.60938,-2.54687 1.82812,-1.09375 3.98437,-1.09375 3.76563,0 5.65625,2.1875 1.90625,2.17187 1.90625,5.78125 V 963.211 h -3.39062 v -12.5625 q 0,-2.95312 -1.42188,-4.17187 -1.42187,-1.21875 -3.67187,-1.21875 -1.67188,0 -2.95313,0.9375 -1.28125,0.9375 -2,2.42187 -0.71875,1.46875 -0.71875,3.10938 V 963.211 Z m 22.76813,0 v -20.40625 h 3.39063 V 963.211 Z m 1.67188,-24.15625 q -1,0 -1.71875,-0.71875 -0.71875,-0.71875 -0.71875,-1.71875 0,-1.04687 0.71875,-1.75 0.71875,-0.70312 1.71875,-0.70312 1.04687,0 1.73437,0.70312 0.70313,0.70313 0.70313,1.75 0,1 -0.70313,1.71875 -0.6875,0.71875 -1.73437,0.71875 z m 17.39935,24.79688 q -1.64063,0 -3,-0.53125 -1.35938,-0.51563 -2.375,-1.34375 -1.01563,-0.84375 -1.57813,-1.76563 h -0.15625 v 3 h -3.25 v -28.64062 h 3.40625 v 8.4375 l -0.15625,2.84375 h 0.15625 q 0.5625,-0.95313 1.57813,-1.79688 1.01562,-0.84375 2.375,-1.35937 1.35937,-0.53125 3,-0.53125 2.8125,0 5,1.40625 2.20312,1.40625 3.48437,3.84375 1.28125,2.4375 1.28125,5.59375 0,3.15625 -1.28125,5.60937 -1.28125,2.4375 -3.48437,3.84375 -2.1875,1.39063 -5,1.39063 z m -0.35938,-3.07813 q 1.76563,0 3.29688,-0.9375 1.54687,-0.9375 2.48437,-2.70312 0.9375,-1.76563 0.9375,-4.125 0,-2.39063 -0.9375,-4.125 -0.9375,-1.75 -2.48437,-2.6875 -1.53125,-0.9375 -3.29688,-0.9375 -1.75,0 -3.29687,0.9375 -1.53125,0.9375 -2.5,2.6875 -0.95313,1.73437 -0.95313,4.125 0,2.40625 0.95313,4.15625 0.96875,1.73437 2.5,2.67187 1.54687,0.9375 3.29687,0.9375 z m 20.61121,3.07813 q -2.28125,0 -4.01563,-0.875 -1.71875,-0.89063 -2.70312,-2.42188 -0.96875,-1.54687 -0.96875,-3.5 0,-2.25 1.15625,-3.78125 1.17187,-1.54687 3.125,-2.32812 1.95312,-0.78125 4.3125,-0.78125 1.35937,0 2.51562,0.23437 1.17188,0.21875 2.03125,0.51563 0.85938,0.29687 1.29688,0.57812 v -1.23437 q 0,-2.32813 -1.64063,-3.6875 -1.64062,-1.35938 -4,-1.35938 -1.67187,0 -3.14062,0.75 -1.45313,0.73438 -2.29688,2.04688 l -2.5625,-1.92188 q 0.79688,-1.1875 2,-2.0625 1.20313,-0.89062 2.73438,-1.375 1.54687,-0.48437 3.26562,-0.48437 4.15625,0 6.51563,2.20312 2.375,2.20313 2.375,5.92188 V 963.211 h -3.25 v -2.92187 h -0.15625 q -0.51563,0.875 -1.48438,1.70312 -0.95312,0.8125 -2.26562,1.32813 -1.29688,0.53125 -2.84375,0.53125 z m 0.3125,-3 q 1.76562,0 3.21875,-0.875 1.46875,-0.89063 2.34375,-2.35938 0.875,-1.48437 0.875,-3.25 -0.92188,-0.64062 -2.29688,-1.03125 -1.375,-0.40625 -3.01562,-0.40625 -2.92188,0 -4.28125,1.20313 -1.35938,1.20312 -1.35938,2.95312 0,1.6875 1.28125,2.73438 1.28125,1.03125 3.23438,1.03125 z m 12.60565,-18.04688 h 11.95313 v 3.09375 h -11.95313 z m 3.5625,15.04688 v -20.79688 h 3.39063 v 19.95313 q 0,1.60937 0.65625,2.48437 0.67187,0.875 2.1875,0.875 0.67187,0 1.23437,-0.1875 0.5625,-0.20312 1,-0.48437 v 3.3125 q -0.51562,0.25 -1.14062,0.375 -0.60938,0.14062 -1.65625,0.14062 -2.5625,0 -4.125,-1.5 -1.54688,-1.5 -1.54688,-4.17187 z m 20.7981,6 q -3,0 -5.34375,-1.42188 -2.34375,-1.42187 -3.67188,-3.875 -1.3125,-2.46875 -1.3125,-5.54687 0,-3.10938 1.3125,-5.54688 1.32813,-2.45312 3.67188,-3.875 2.34375,-1.42187 5.34375,-1.42187 3.4375,0 5.65625,1.59375 2.21875,1.57812 3.14062,4.04687 l -3.07812,1.28125 q -0.76563,-1.875 -2.26563,-2.84375 -1.5,-0.98437 -3.625,-0.98437 -1.79687,0 -3.34375,0.95312 -1.53125,0.95313 -2.5,2.70313 -0.95312,1.73437 -0.95312,4.09375 0,2.32812 0.95312,4.09375 0.96875,1.75 2.5,2.71875 1.54688,0.95312 3.34375,0.95312 2.17188,0 3.71875,-1 1.5625,-1 2.32813,-2.84375 l 3.04687,1.28125 q -1,2.35938 -3.25,4 -2.23437,1.64063 -5.67187,1.64063 z M 867.0636,963.211 v -28.64062 h 3.40625 v 8.4375 l -0.15625,2.79687 h 0.15625 q 0.79688,-1.51562 2.60938,-2.57812 1.82812,-1.0625 4.03125,-1.0625 2.59375,0 4.26562,1.04687 1.6875,1.04688 2.53125,2.82813 0.84375,1.76562 0.84375,4.09375 V 963.211 h -3.40625 v -12.5625 q 0,-1.95312 -0.70312,-3.125 -0.6875,-1.1875 -1.82813,-1.71875 -1.14062,-0.54687 -2.5,-0.54687 -1.6875,0 -3.01562,0.95312 -1.3125,0.95313 -2.07813,2.48438 -0.75,1.51562 -0.75,3.15625 V 963.211 Z m 39.76184,0.64063 q -1.59375,0 -3.40625,-0.67188 -1.79687,-0.6875 -3.28125,-2.1875 -1.46875,-1.5 -2.1875,-3.98437 l 3.07813,-1.28125 q 0.67187,2.32812 2.1875,3.60937 1.53125,1.28125 3.60937,1.28125 1.5625,0 2.85938,-0.65625 1.29687,-0.67187 2.07812,-1.82812 0.78125,-1.15625 0.78125,-2.64063 0,-1.4375 -0.79687,-2.57812 -0.79688,-1.14063 -2.125,-1.79688 -1.3125,-0.67187 -2.92188,-0.67187 h -2.35937 v -3.15625 h 2.125 q 1.4375,0 2.60937,-0.5625 1.1875,-0.5625 1.85938,-1.59375 0.6875,-1.04688 0.6875,-2.4375 0,-1.96875 -1.46875,-3.10938 -1.45313,-1.14062 -3.53125,-1.14062 -1.51563,0 -2.51563,0.59375 -1,0.57812 -1.57812,1.4375 -0.57813,0.85937 -0.85938,1.6875 l -3.125,-1.3125 q 0.40625,-1.20313 1.40625,-2.5 1,-1.29688 2.65625,-2.21875 1.65625,-0.92188 4.01563,-0.92188 2.45312,0 4.34375,0.96875 1.90625,0.95313 3,2.65625 1.10937,1.6875 1.10937,3.85938 0,1.51562 -0.54687,2.67187 -0.54688,1.15625 -1.40625,1.96875 -0.85938,0.79688 -1.8125,1.28125 v 0.15625 q 1.28125,0.51563 2.32812,1.45313 1.0625,0.9375 1.70313,2.25 0.64062,1.29687 0.64062,2.96875 0,2.45312 -1.23437,4.35937 -1.23438,1.89063 -3.32813,2.96875 -2.07812,1.07813 -4.59375,1.07813 z"
       fill-rule="nonzero"
       id="path53" />
    <path
       fill="#000000"
       fill-opacity="0"
       d="m 699.90814,1175.4094 h 843.59046 v 244.5669 H 699.90814 Z"
       fill-rule="evenodd"
       id="path54" />
    <path
       stroke="#999999"
       stroke-width="4"
       stroke-linejoin="round"
       stroke-linecap="butt"
       d="m 699.90814,1175.4094 h 843.59046 v 244.5669 H 699.90814 Z"
       fill-rule="evenodd"
       id="path55" />
    <path
       fill="#efefef"
       d="m 917.81366,1273.864 v 0 c 0,-13.8407 11.22009,-25.0609 25.06085,-25.0609 h 319.35869 c 6.6464,0 13.0208,2.6404 17.7207,7.3402 4.6998,4.6998 7.34,11.0741 7.34,17.7207 v 100.2405 c 0,13.8407 -11.22,25.0609 -25.0607,25.0609 H 942.87451 v 0 c -13.84076,0 -25.06085,-11.2202 -25.06085,-25.0609 z"
       fill-rule="evenodd"
       id="path56" />
    <path
       stroke="#a7a7a7"
       stroke-width="1"
       stroke-linejoin="round"
       stroke-linecap="butt"
       d="m 917.81366,1273.864 v 0 c 0,-13.8407 11.22009,-25.0609 25.06085,-25.0609 h 319.35869 c 6.6464,0 13.0208,2.6404 17.7207,7.3402 4.6998,4.6998 7.34,11.0741 7.34,17.7207 v 100.2405 c 0,13.8407 -11.22,25.0609 -25.0607,25.0609 H 942.87451 v 0 c -13.84076,0 -25.06085,-11.2202 -25.06085,-25.0609 z"
       fill-rule="evenodd"
       id="path57" />
    <path
       fill="#000000"
       d="m 1038.6454,1341.0642 v -34.375 h 5.9063 l 10.9375,28.1875 h 0.1875 l 10.9531,-28.1875 h 5.9062 v 34.375 h -4.0312 v -21.8437 l 0.1875,-6.5313 h -0.1875 l -11.2344,28.375 h -3.3594 l -11.2343,-28.375 h -0.1875 l 0.1875,6.5313 v 21.8437 z m 51.5413,0.7656 q -3.6875,0 -6.5313,-1.7187 -2.8281,-1.7344 -4.4375,-4.6875 -1.5937,-2.9531 -1.5937,-6.5938 0,-3.6562 1.5937,-6.6093 1.6094,-2.9532 4.4375,-4.6719 2.8438,-1.7344 6.5313,-1.7344 3.7031,0 6.5312,1.75 2.8281,1.75 4.4375,4.7031 1.6094,2.9532 1.6094,6.5625 0,3.6407 -1.6094,6.5938 -1.6094,2.9531 -4.4375,4.6875 -2.8281,1.7187 -6.5312,1.7187 z m 0,-3.6875 q 2.2187,0 4.1562,-1.1093 1.9531,-1.1094 3.1406,-3.1875 1.2032,-2.0938 1.2032,-5.0157 0,-2.9375 -1.2032,-5.0156 -1.1875,-2.0937 -3.1406,-3.1875 -1.9375,-1.1094 -4.1562,-1.1094 -2.2032,0 -4.1719,1.1094 -1.9688,1.0938 -3.1719,3.1875 -1.1875,2.0781 -1.1875,5.0156 0,2.9219 1.1875,5.0157 1.2031,2.0781 3.1719,3.1875 1.9687,1.1093 4.1719,1.1093 z m 27.7486,3.6875 q -3.3125,0 -5.9844,-1.6718 -2.6562,-1.6875 -4.1875,-4.6094 -1.5312,-2.9375 -1.5312,-6.7188 0,-3.7968 1.5312,-6.7187 1.5313,-2.9375 4.1875,-4.6094 2.6719,-1.6875 5.9844,-1.6875 1.9688,0 3.5938,0.625 1.6406,0.625 2.8593,1.6406 1.2344,1 1.9063,2.1563 h 0.1875 l -0.1875,-3.4063 v -10.1406 h 4.0781 v 34.375 h -3.8906 v -3.5937 h -0.1875 q -0.6719,1.0937 -1.9063,2.1093 -1.2187,1 -2.8593,1.625 -1.625,0.625 -3.5938,0.625 z m 0.4375,-3.6875 q 2.1094,0 3.9531,-1.125 1.8594,-1.1406 3,-3.2187 1.1563,-2.0938 1.1563,-4.9688 0,-2.8906 -1.1563,-4.9687 -1.1406,-2.0938 -3,-3.2188 -1.8437,-1.125 -3.9531,-1.125 -2.1094,0 -3.9687,1.125 -1.8438,1.125 -3,3.2188 -1.1407,2.0781 -1.1407,4.9687 0,2.8282 1.1407,4.9375 1.1562,2.1094 3,3.25 1.8593,1.125 3.9687,1.125 z m 28.703,3.6875 q -3.5469,0 -6.3125,-1.6718 -2.7656,-1.6875 -4.3281,-4.6094 -1.5469,-2.9375 -1.5469,-6.6719 0,-3.5156 1.4531,-6.4844 1.4688,-2.9687 4.125,-4.7656 2.6719,-1.8125 6.2657,-1.8125 3.6562,0 6.2656,1.6094 2.625,1.6094 4.0312,4.4375 1.4219,2.8281 1.4219,6.4844 0,0.3281 -0.031,0.6718 -0.016,0.3282 -0.062,0.5782 h -21.0782 v -3.3594 h 16.8438 q -0.047,-1.0156 -0.4531,-2.1875 -0.4063,-1.1719 -1.2969,-2.2031 -0.875,-1.0313 -2.25,-1.6719 -1.375,-0.6563 -3.3906,-0.6563 -2.3907,0 -4.1407,1.2188 -1.75,1.2187 -2.6875,3.3437 -0.9375,2.1094 -0.9375,4.7969 0,3.1094 1.1875,5.1875 1.2032,2.0625 3.0938,3.0781 1.9062,1 3.9687,1 2.6875,0 4.4375,-1.2656 1.75,-1.2812 2.8125,-3.1562 l 3.4532,1.6875 q -1.4375,2.7812 -4.125,4.6093 -2.6875,1.8125 -6.7188,1.8125 z m 16.1334,-0.7656 v -34.375 h 4.0782 v 34.375 z"
       fill-rule="nonzero"
       id="path58" />
    <path
       fill="#d2e9ff"
       d="m 1342.3071,1284.1102 h 169.0393 v 79.7481 h -169.0393 z"
       fill-rule="evenodd"
       id="path59" />
    <path
       stroke="#a7a7a7"
       stroke-width="1"
       stroke-linejoin="round"
       stroke-linecap="butt"
       d="m 1342.3071,1284.1102 h 169.0393 v 79.7481 h -169.0393 z"
       fill-rule="evenodd"
       id="path60" />
    <path
       fill="#000000"
       d="m 1389.35,1338.3843 v -28.6406 h 3.3906 v 25.4062 h 12.5313 v 3.2344 z m 28.5986,0.6406 q -3.0781,0 -5.4375,-1.4375 -2.3593,-1.4375 -3.7031,-3.8906 -1.3437,-2.4687 -1.3437,-5.5156 0,-3.0313 1.3437,-5.4844 1.3438,-2.4687 3.7031,-3.9062 2.3594,-1.4532 5.4375,-1.4532 3.0782,0 5.4375,1.4688 2.3594,1.4531 3.7032,3.9219 1.3437,2.4531 1.3437,5.4531 0,3.0469 -1.3437,5.5156 -1.3438,2.4531 -3.7032,3.8906 -2.3593,1.4375 -5.4375,1.4375 z m 0,-3.0781 q 1.8438,0 3.4532,-0.9219 1.625,-0.9218 2.625,-2.6562 1,-1.75 1,-4.1875 0,-2.4375 -1,-4.1719 -1,-1.75 -2.625,-2.6562 -1.6094,-0.9219 -3.4532,-0.9219 -1.8437,0 -3.4843,0.9219 -1.6407,0.9062 -2.6407,2.6562 -1,1.7344 -1,4.1719 0,2.4375 1,4.1875 1,1.7344 2.6407,2.6562 1.6406,0.9219 3.4843,0.9219 z m 21.3588,3.0781 q -2.2813,0 -4.0313,-0.7343 -1.7343,-0.75 -2.875,-2 -1.1406,-1.2657 -1.6875,-2.75 l 3.0313,-1.3594 q 0.7969,1.8437 2.3125,2.8437 1.5312,1 3.4844,1 1.8906,0 3.1406,-0.75 1.2656,-0.7656 1.2656,-2.25 0,-0.9218 -0.5312,-1.5312 -0.5157,-0.625 -1.5157,-1.0625 -1,-0.4531 -2.4375,-0.8125 l -2.4843,-0.6406 q -1.4375,-0.3907 -2.7188,-1.1094 -1.2812,-0.7188 -2.0625,-1.8594 -0.7656,-1.1406 -0.7656,-2.7812 0,-1.8438 1.0781,-3.1563 1.0781,-1.3281 2.8281,-2.0312 1.7657,-0.7032 3.7657,-0.7032 1.7656,0 3.2968,0.5 1.5469,0.5 2.7032,1.4844 1.1562,0.9844 1.7656,2.4219 l -2.9688,1.3594 q -0.75,-1.5157 -2.0312,-2.1094 -1.2813,-0.6094 -2.8438,-0.6094 -1.6718,0 -2.9218,0.75 -1.2344,0.7344 -1.2344,2.0156 0,1.2813 1.0156,1.9219 1.0156,0.625 2.5,1.0313 l 2.9688,0.7656 q 3,0.75 4.5156,2.25 1.5156,1.5 1.5156,3.6719 0,1.9062 -1.0781,3.3125 -1.0781,1.4062 -2.9219,2.1718 -1.8437,0.75 -4.0781,0.75 z m 18.92,0 q -2.2812,0 -4.0312,-0.7343 -1.7344,-0.75 -2.875,-2 -1.1406,-1.2657 -1.6875,-2.75 l 3.0312,-1.3594 q 0.7969,1.8437 2.3125,2.8437 1.5313,1 3.4844,1 1.8906,0 3.1406,-0.75 1.2657,-0.7656 1.2657,-2.25 0,-0.9218 -0.5313,-1.5312 -0.5156,-0.625 -1.5156,-1.0625 -1,-0.4531 -2.4375,-0.8125 l -2.4844,-0.6406 q -1.4375,-0.3907 -2.7187,-1.1094 -1.2813,-0.7188 -2.0625,-1.8594 -0.7657,-1.1406 -0.7657,-2.7812 0,-1.8438 1.0782,-3.1563 1.0781,-1.3281 2.8281,-2.0312 1.7656,-0.7032 3.7656,-0.7032 1.7656,0 3.2969,0.5 1.5469,0.5 2.7031,1.4844 1.1563,0.9844 1.7656,2.4219 l -2.9687,1.3594 q -0.75,-1.5157 -2.0313,-2.1094 -1.2812,-0.6094 -2.8437,-0.6094 -1.6719,0 -2.9219,0.75 -1.2344,0.7344 -1.2344,2.0156 0,1.2813 1.0157,1.9219 1.0156,0.625 2.5,1.0313 l 2.9687,0.7656 q 3,0.75 4.5156,2.25 1.5157,1.5 1.5157,3.6719 0,1.9062 -1.0782,3.3125 -1.0781,1.4062 -2.9218,2.1718 -1.8438,0.75 -4.0782,0.75 z"
       fill-rule="nonzero"
       id="path61" />
    <path
       fill="#000000"
       fill-opacity="0"
       d="m 699.90814,1175.4094 h 339.59046 v 67.874 H 699.90814 Z"
       fill-rule="evenodd"
       id="path62" />
    <path
       fill="#4285f4"
       d="m 712.11127,1222.8094 v -28.6406 h 4.92187 l 9.10938,23.4844 h 0.17187 l 9.10938,-23.4844 h 4.92187 v 28.6406 h -3.35937 v -18.2031 l 0.15625,-5.4375 h -0.15625 l -9.35938,23.6406 h -2.79687 l -9.35938,-23.6406 h -0.15625 l 0.15625,5.4375 v 18.2031 z m 34.28058,0 v -20.4062 h 3.39062 v 20.4062 z m 1.67187,-24.1562 q -1,0 -1.71875,-0.7188 -0.71875,-0.7187 -0.71875,-1.7187 0,-1.0469 0.71875,-1.75 0.71875,-0.7032 1.71875,-0.7032 1.04688,0 1.73438,0.7032 0.70312,0.7031 0.70312,1.75 0,1 -0.70312,1.7187 -0.6875,0.7188 -1.73438,0.7188 z m 7.03998,24.1562 v -20.4062 h 3.25 v 3 h 0.15625 q 0.79688,-1.4688 2.60938,-2.5469 1.82812,-1.0938 3.98437,-1.0938 3.76563,0 5.65625,2.1875 1.90625,2.1719 1.90625,5.7813 v 13.0781 h -3.39062 v -12.5625 q 0,-2.9531 -1.42188,-4.1719 -1.42187,-1.2187 -3.67187,-1.2187 -1.67188,0 -2.95313,0.9375 -1.28125,0.9375 -2,2.4219 -0.71875,1.4687 -0.71875,3.1093 v 11.4844 z m 22.76813,0 v -20.4062 h 3.39063 v 20.4062 z m 1.67188,-24.1562 q -1,0 -1.71875,-0.7188 -0.71875,-0.7187 -0.71875,-1.7187 0,-1.0469 0.71875,-1.75 0.71875,-0.7032 1.71875,-0.7032 1.04687,0 1.73437,0.7032 0.70313,0.7031 0.70313,1.75 0,1 -0.70313,1.7187 -0.6875,0.7188 -1.73437,0.7188 z m 17.39935,24.7968 q -1.64063,0 -3,-0.5312 -1.35938,-0.5156 -2.375,-1.3438 -1.01563,-0.8437 -1.57813,-1.7656 h -0.15625 v 3 h -3.25 v -28.6406 h 3.40625 v 8.4375 l -0.15625,2.8437 h 0.15625 q 0.5625,-0.9531 1.57813,-1.7968 1.01562,-0.8438 2.375,-1.3594 1.35937,-0.5313 3,-0.5313 2.8125,0 5,1.4063 2.20312,1.4062 3.48437,3.8437 1.28125,2.4375 1.28125,5.5938 0,3.1562 -1.28125,5.6094 -1.28125,2.4375 -3.48437,3.8437 -2.1875,1.3906 -5,1.3906 z m -0.35938,-3.0781 q 1.76563,0 3.29688,-0.9375 1.54687,-0.9375 2.48437,-2.7031 0.9375,-1.7656 0.9375,-4.125 0,-2.3906 -0.9375,-4.125 -0.9375,-1.75 -2.48437,-2.6875 -1.53125,-0.9375 -3.29688,-0.9375 -1.75,0 -3.29687,0.9375 -1.53125,0.9375 -2.5,2.6875 -0.95313,1.7344 -0.95313,4.125 0,2.4062 0.95313,4.1562 0.96875,1.7344 2.5,2.6719 1.54687,0.9375 3.29687,0.9375 z m 20.61121,3.0781 q -2.28125,0 -4.01563,-0.875 -1.71875,-0.8906 -2.70312,-2.4218 -0.96875,-1.5469 -0.96875,-3.5 0,-2.25 1.15625,-3.7813 1.17187,-1.5469 3.125,-2.3281 1.95312,-0.7813 4.3125,-0.7813 1.35937,0 2.51562,0.2344 1.17188,0.2188 2.03125,0.5156 0.85938,0.2969 1.29688,0.5782 v -1.2344 q 0,-2.3281 -1.64063,-3.6875 -1.64062,-1.3594 -4,-1.3594 -1.67187,0 -3.14062,0.75 -1.45313,0.7344 -2.29688,2.0469 l -2.5625,-1.9219 q 0.79688,-1.1875 2,-2.0625 1.20313,-0.8906 2.73438,-1.375 1.54687,-0.4844 3.26562,-0.4844 4.15625,0 6.51563,2.2032 2.375,2.2031 2.375,5.9218 v 12.9219 h -3.25 v -2.9219 h -0.15625 q -0.51563,0.875 -1.48438,1.7032 -0.95312,0.8125 -2.26562,1.3281 -1.29688,0.5312 -2.84375,0.5312 z m 0.3125,-3 q 1.76562,0 3.21875,-0.875 1.46875,-0.8906 2.34375,-2.3593 0.875,-1.4844 0.875,-3.25 -0.92188,-0.6407 -2.29688,-1.0313 -1.375,-0.4062 -3.01562,-0.4062 -2.92188,0 -4.28125,1.2031 -1.35938,1.2031 -1.35938,2.9531 0,1.6875 1.28125,2.7344 1.28125,1.0312 3.23438,1.0312 z m 12.60565,-18.0468 h 11.95313 v 3.0937 h -11.95313 z m 3.5625,15.0468 v -20.7968 h 3.39063 v 19.9531 q 0,1.6094 0.65625,2.4844 0.67187,0.875 2.1875,0.875 0.67187,0 1.23437,-0.1875 0.5625,-0.2032 1,-0.4844 v 3.3125 q -0.51562,0.25 -1.14062,0.375 -0.60938,0.1406 -1.65625,0.1406 -2.5625,0 -4.125,-1.5 -1.54688,-1.5 -1.54688,-4.1719 z m 20.7981,6 q -3,0 -5.34375,-1.4218 -2.34375,-1.4219 -3.67188,-3.875 -1.3125,-2.4688 -1.3125,-5.5469 0,-3.1094 1.3125,-5.5469 1.32813,-2.4531 3.67188,-3.875 2.34375,-1.4219 5.34375,-1.4219 3.4375,0 5.65625,1.5938 2.21875,1.5781 3.14062,4.0469 l -3.07812,1.2812 q -0.76563,-1.875 -2.26563,-2.8437 -1.5,-0.9844 -3.625,-0.9844 -1.79687,0 -3.34375,0.9531 -1.53125,0.9531 -2.5,2.7031 -0.95312,1.7344 -0.95312,4.0938 0,2.3281 0.95312,4.0937 0.96875,1.75 2.5,2.7188 1.54688,0.9531 3.34375,0.9531 2.17188,0 3.71875,-1 1.5625,-1 2.32813,-2.8437 l 3.04687,1.2812 q -1,2.3594 -3.25,4 -2.23437,1.6406 -5.67187,1.6406 z m 12.58996,-0.6406 v -28.6406 h 3.40625 v 8.4375 l -0.15625,2.7969 h 0.15625 q 0.79688,-1.5157 2.60938,-2.5782 1.82812,-1.0625 4.03125,-1.0625 2.59375,0 4.26562,1.0469 1.6875,1.0469 2.53125,2.8281 0.84375,1.7657 0.84375,4.0938 v 13.0781 h -3.40625 v -12.5625 q 0,-1.9531 -0.70312,-3.125 -0.6875,-1.1875 -1.82813,-1.7187 -1.14062,-0.5469 -2.5,-0.5469 -1.6875,0 -3.01562,0.9531 -1.3125,0.9531 -2.07813,2.4844 -0.75,1.5156 -0.75,3.1562 v 11.3594 z m 31.12122,-5.875 v -2.5625 l 12.79687,-18.9219 h 3.6875 v 27.3594 h -3.35937 v -22.4062 h -0.15625 l -8.92188,13.3281 h 15.95313 v 3.2031 z"
       fill-rule="nonzero"
       id="path63" />
    <path
       fill="#535353"
       d="m 1750.2705,775.1426 h 11.9928 v -11.9928 h 11.2897 v 11.9928 h 11.9928 v 11.28961 h -11.9928 v 11.9928 h -11.2897 v -11.9928 h -11.9928 z"
       fill-rule="evenodd"
       id="path64" />
    <path
       stroke="#a7a7a7"
       stroke-width="1"
       stroke-linejoin="round"
       stroke-linecap="butt"
       d="m 1750.2705,775.1426 h 11.9928 v -11.9928 h 11.2897 v 11.9928 h 11.9928 v 11.28961 h -11.9928 v 11.9928 h -11.2897 v -11.9928 h -11.9928 z"
       fill-rule="evenodd"
       id="path65" />
    <path
       fill="#000000"
       fill-opacity="0"
       d="m 1743.9081,780.7874 v 0 c 0,-13.25482 10.7452,-24 24,-24 v 0 c 6.3652,0 12.4697,2.52856 16.9706,7.02942 4.5008,4.50085 7.0294,10.60535 7.0294,16.97058 v 0 c 0,13.25482 -10.7451,24 -24,24 v 0 c -13.2548,0 -24,-10.74518 -24,-24 z"
       fill-rule="evenodd"
       id="path66" />
    <path
       stroke="#a7a7a7"
       stroke-width="3"
       stroke-linejoin="round"
       stroke-linecap="butt"
       d="m 1743.9081,780.7874 v 0 c 0,-13.25482 10.7452,-24 24,-24 v 0 c 6.3652,0 12.4697,2.52856 16.9706,7.02942 4.5008,4.50085 7.0294,10.60535 7.0294,16.97058 v 0 c 0,13.25482 -10.7451,24 -24,24 v 0 c -13.2548,0 -24,-10.74518 -24,-24 z"
       fill-rule="evenodd"
       id="path67" />
    <path
       fill="#535353"
       d="m 1750.2705,1034.741 h 11.9928 v -11.9927 h 11.2897 v 11.9927 h 11.9928 v 11.2897 h -11.9928 v 11.9928 h -11.2897 v -11.9928 h -11.9928 z"
       fill-rule="evenodd"
       id="path68" />
    <path
       stroke="#a7a7a7"
       stroke-width="1"
       stroke-linejoin="round"
       stroke-linecap="butt"
       d="m 1750.2705,1034.741 h 11.9928 v -11.9927 h 11.2897 v 11.9927 h 11.9928 v 11.2897 h -11.9928 v 11.9928 h -11.2897 v -11.9928 h -11.9928 z"
       fill-rule="evenodd"
       id="path69" />
    <path
       fill="#000000"
       fill-opacity="0"
       d="m 1743.9081,1040.3859 v 0 c 0,-13.2549 10.7452,-24.0001 24,-24.0001 v 0 c 6.3652,0 12.4697,2.5286 16.9706,7.0295 4.5008,4.5009 7.0294,10.6054 7.0294,16.9706 v 0 c 0,13.2548 -10.7451,24 -24,24 v 0 c -13.2548,0 -24,-10.7452 -24,-24 z"
       fill-rule="evenodd"
       id="path70" />
    <path
       stroke="#a7a7a7"
       stroke-width="3"
       stroke-linejoin="round"
       stroke-linecap="butt"
       d="m 1743.9081,1040.3859 v 0 c 0,-13.2549 10.7452,-24.0001 24,-24.0001 v 0 c 6.3652,0 12.4697,2.5286 16.9706,7.0295 4.5008,4.5009 7.0294,10.6054 7.0294,16.9706 v 0 c 0,13.2548 -10.7451,24 -24,24 v 0 c -13.2548,0 -24,-10.7452 -24,-24 z"
       fill-rule="evenodd"
       id="path71" />
    <path
       fill="#535353"
       d="m 1750.2705,1294.3395 h 11.9928 v -11.9928 h 11.2897 v 11.9928 h 11.9928 v 11.2896 h -11.9928 v 11.9927 h -11.2897 v -11.9927 h -11.9928 z"
       fill-rule="evenodd"
       id="path72" />
    <path
       stroke="#a7a7a7"
       stroke-width="1"
       stroke-linejoin="round"
       stroke-linecap="butt"
       d="m 1750.2705,1294.3395 h 11.9928 v -11.9928 h 11.2897 v 11.9928 h 11.9928 v 11.2896 h -11.9928 v 11.9927 h -11.2897 v -11.9927 h -11.9928 z"
       fill-rule="evenodd"
       id="path73" />
    <path
       fill="#000000"
       fill-opacity="0"
       d="m 1743.9081,1299.9843 v 0 c 0,-13.2549 10.7452,-24 24,-24 v 0 c 6.3652,0 12.4697,2.5286 16.9706,7.0294 4.5008,4.5009 7.0294,10.6054 7.0294,16.9706 v 0 c 0,13.2549 -10.7451,24 -24,24 v 0 c -13.2548,0 -24,-10.7451 -24,-24 z"
       fill-rule="evenodd"
       id="path74" />
    <path
       stroke="#a7a7a7"
       stroke-width="3"
       stroke-linejoin="round"
       stroke-linecap="butt"
       d="m 1743.9081,1299.9843 v 0 c 0,-13.2549 10.7452,-24 24,-24 v 0 c 6.3652,0 12.4697,2.5286 16.9706,7.0294 4.5008,4.5009 7.0294,10.6054 7.0294,16.9706 v 0 c 0,13.2549 -10.7451,24 -24,24 v 0 c -13.2548,0 -24,-10.7451 -24,-24 z"
       fill-rule="evenodd"
       id="path75" />
    <path
       fill="#000000"
       fill-opacity="0"
       d="M 1767.9081,542.89764 V 756.78741"
       fill-rule="evenodd"
       id="path76" />
    <path
       stroke="#a7a7a7"
       stroke-width="4"
       stroke-linejoin="round"
       stroke-linecap="butt"
       d="M 1767.9081,542.89764 V 732.78741"
       fill-rule="evenodd"
       id="path77" />
    <path
       fill="#a7a7a7"
       stroke="#a7a7a7"
       stroke-width="4"
       stroke-linecap="butt"
       d="m 1761.3011,732.7874 6.6069,18.15241 6.607,-18.15241 z"
       fill-rule="evenodd"
       id="path78" />
    <path
       fill="#000000"
       fill-opacity="0"
       d="m 1767.9081,804.7874 v 211.5905"
       fill-rule="evenodd"
       id="path79" />
    <path
       stroke="#a7a7a7"
       stroke-width="4"
       stroke-linejoin="round"
       stroke-linecap="butt"
       d="M 1767.9081,804.7874 V 992.37792"
       fill-rule="evenodd"
       id="path80" />
    <path
       fill="#a7a7a7"
       stroke="#a7a7a7"
       stroke-width="4"
       stroke-linecap="butt"
       d="m 1761.3011,992.3779 6.6069,18.1524 6.607,-18.1524 z"
       fill-rule="evenodd"
       id="path81" />
    <path
       fill="#000000"
       fill-opacity="0"
       d="m 1767.9081,1064.3859 v 211.5905"
       fill-rule="evenodd"
       id="path82" />
    <path
       stroke="#a7a7a7"
       stroke-width="4"
       stroke-linejoin="round"
       stroke-linecap="butt"
       d="m 1767.9081,1064.3859 v 187.5905"
       fill-rule="evenodd"
       id="path83" />
    <path
       fill="#a7a7a7"
       stroke="#a7a7a7"
       stroke-width="4"
       stroke-linecap="butt"
       d="m 1761.3011,1251.9763 6.6069,18.1525 6.607,-18.1525 z"
       fill-rule="evenodd"
       id="path84" />
    <path
       fill="#000000"
       fill-opacity="0"
       d="m 1543.4987,1297.6929 200.4094,2.2992"
       fill-rule="evenodd"
       id="path85" />
    <path
       stroke="#a7a7a7"
       stroke-width="4"
       stroke-linejoin="round"
       stroke-linecap="butt"
       d="m 1543.4987,1297.6929 176.4111,2.0239"
       fill-rule="evenodd"
       id="path86" />
    <path
       fill="#a7a7a7"
       stroke="#a7a7a7"
       stroke-width="4"
       stroke-linecap="butt"
       d="m 1719.8339,1306.3232 18.2271,-6.3982 -18.0755,-6.8147 z"
       fill-rule="evenodd"
       id="path87" />
    <path
       fill="#000000"
       fill-opacity="0"
       d="m 1543.4987,1038.0945 200.4094,2.2992"
       fill-rule="evenodd"
       id="path88" />
    <path
       stroke="#a7a7a7"
       stroke-width="4"
       stroke-linejoin="round"
       stroke-linecap="butt"
       d="m 1543.4987,1038.0945 176.4111,2.0239"
       fill-rule="evenodd"
       id="path89" />
    <path
       fill="#a7a7a7"
       stroke="#a7a7a7"
       stroke-width="4"
       stroke-linecap="butt"
       d="m 1719.8339,1046.7249 18.2271,-6.3982 -18.0755,-6.8148 z"
       fill-rule="evenodd"
       id="path90" />
    <path
       fill="#000000"
       fill-opacity="0"
       d="m 1543.4987,778.49603 200.4094,2.29926"
       fill-rule="evenodd"
       id="path91" />
    <path
       stroke="#a7a7a7"
       stroke-width="4"
       stroke-linejoin="round"
       stroke-linecap="butt"
       d="m 1543.4987,778.49603 176.4111,2.02393"
       fill-rule="evenodd"
       id="path92" />
    <path
       fill="#a7a7a7"
       stroke="#a7a7a7"
       stroke-width="4"
       stroke-linecap="butt"
       d="m 1719.8339,787.12646 18.2271,-6.39825 -18.0755,-6.81476 z"
       fill-rule="evenodd"
       id="path93" />
    <path
       fill="#000000"
       fill-opacity="0"
       d="m 1791.9081,1299.9843 h 187.2127"
       fill-rule="evenodd"
       id="path94" />
    <path
       stroke="#a7a7a7"
       stroke-width="4"
       stroke-linejoin="round"
       stroke-linecap="butt"
       d="m 1791.9081,1299.9843 h 163.2127"
       fill-rule="evenodd"
       id="path95" />
    <path
       fill="#a7a7a7"
       stroke="#a7a7a7"
       stroke-width="4"
       stroke-linecap="butt"
       d="m 1955.1207,1306.5912 18.1523,-6.6069 -18.1523,-6.607 z"
       fill-rule="evenodd"
       id="path96" />
    <path
       fill="#4285f4"
       d="m 2004.6051,1314.0879 q -3.1719,0 -5.8594,-1.1562 -2.6718,-1.1719 -4.6562,-3.2188 -1.9688,-2.0625 -3.0781,-4.7656 -1.0938,-2.7031 -1.0938,-5.8125 0,-3.125 1.0938,-5.8281 1.1093,-2.7032 3.0781,-4.75 1.9844,-2.0625 4.6562,-3.2188 2.6875,-1.1719 5.8594,-1.1719 3.1563,0 5.8281,1.1719 2.6875,1.1563 4.6563,3.2188 1.9844,2.0468 3.0781,4.75 1.1094,2.7031 1.1094,5.8281 0,3.1094 -1.1094,5.8125 -1.0937,2.7031 -3.0781,4.7656 -1.9688,2.0469 -4.6563,3.2188 -2.6718,1.1562 -5.8281,1.1562 z m 0,-3.2344 q 3.1094,0 5.6563,-1.4843 2.5468,-1.4844 4.0625,-4.1407 1.5156,-2.6562 1.5156,-6.0937 0,-3.4844 -1.5156,-6.125 -1.5157,-2.6406 -4.0625,-4.125 -2.5469,-1.4844 -5.6563,-1.4844 -3.0781,0 -5.6406,1.4844 -2.5625,1.4844 -4.0938,4.125 -1.5156,2.6406 -1.5156,6.125 0,3.4375 1.5156,6.0937 1.5313,2.6563 4.0938,4.1407 2.5625,1.4843 5.6406,1.4843 z m 18.9912,11.2344 v -29.0469 h 3.25 v 3.0469 h 0.1563 q 0.5625,-0.9531 1.5781,-1.7969 1.0156,-0.8437 2.375,-1.3593 1.3594,-0.5313 3,-0.5313 2.8125,0 5,1.4063 2.2031,1.4062 3.4844,3.8437 1.2812,2.4375 1.2812,5.5938 0,3.1562 -1.2812,5.6093 -1.2813,2.4375 -3.4844,3.8438 -2.1875,1.3906 -5,1.3906 -2.4375,0 -4.2813,-1.1094 -1.8281,-1.125 -2.6718,-2.5312 h -0.1563 l 0.1563,2.7969 v 8.8437 z m 10,-11.0781 q 1.7656,0 3.2969,-0.9375 1.5469,-0.9375 2.4844,-2.7031 0.9375,-1.7657 0.9375,-4.125 0,-2.3907 -0.9375,-4.125 -0.9375,-1.75 -2.4844,-2.6875 -1.5313,-0.9375 -3.2969,-0.9375 -1.75,0 -3.2969,0.9375 -1.5312,0.9375 -2.5,2.6875 -0.9531,1.7343 -0.9531,4.125 0,2.4062 0.9531,4.1562 0.9688,1.7344 2.5,2.6719 1.5469,0.9375 3.2969,0.9375 z m 11.8894,-17.9688 h 11.953 v 3.0938 h -11.953 z m 3.5624,15.0469 v -20.7969 h 3.3906 v 19.9532 q 0,1.6093 0.6563,2.4843 0.6718,0.875 2.1875,0.875 0.6718,0 1.2343,-0.1875 0.5625,-0.2031 1,-0.4843 v 3.3125 q -0.5156,0.25 -1.1406,0.375 -0.6094,0.1406 -1.6562,0.1406 -2.5625,0 -4.125,-1.5 -1.5469,-1.5 -1.5469,-4.1719 z m 12.9563,5.3594 v -20.4063 h 3.3906 v 20.4063 z m 1.6719,-24.1563 q -1,0 -1.7188,-0.7187 -0.7187,-0.7188 -0.7187,-1.7188 0,-1.0468 0.7187,-1.75 0.7188,-0.7031 1.7188,-0.7031 1.0468,0 1.7343,0.7031 0.7032,0.7032 0.7032,1.75 0,1 -0.7032,1.7188 -0.6875,0.7187 -1.7343,0.7187 z m 7.04,24.1563 v -20.4063 h 3.25 v 3 h 0.1563 q 0.5625,-1 1.5312,-1.8125 0.9844,-0.8281 2.2344,-1.3281 1.2656,-0.5 2.5937,-0.5 2.2813,0 3.9219,1.1094 1.6406,1.0937 2.3594,2.8594 1.0312,-1.7188 2.7969,-2.8438 1.7656,-1.125 4.2031,-1.125 3.6406,0 5.3594,2.2031 1.7187,2.2032 1.7187,5.7657 v 13.0781 h -3.3594 v -12.5625 q 0,-2.9531 -1.2031,-4.1719 -1.2031,-1.2187 -3.3906,-1.2187 -1.5625,0 -2.7813,0.9062 -1.2187,0.8906 -1.9218,2.3594 -0.7032,1.4531 -0.7032,3.1719 v 11.5156 h -3.4062 v -12.5156 q 0,-2.9688 -1.2031,-4.2032 -1.1875,-1.2343 -3.3594,-1.2343 -1.5469,0 -2.7813,0.9218 -1.2187,0.9063 -1.9218,2.3907 -0.6875,1.4843 -0.6875,3.2031 v 11.4375 z m 35.3281,0 v -20.4063 h 3.3907 v 20.4063 z m 1.6719,-24.1563 q -1,0 -1.7187,-0.7187 -0.7188,-0.7188 -0.7188,-1.7188 0,-1.0468 0.7188,-1.75 0.7187,-0.7031 1.7187,-0.7031 1.0469,0 1.7344,0.7031 0.7031,0.7032 0.7031,1.75 0,1 -0.7031,1.7188 -0.6875,0.7187 -1.7344,0.7187 z m 6.0088,24.1563 v -2.9219 l 12.0312,-14.3906 h -11.6718 v -3.0938 h 15.8437 v 2.9219 l -12.0469,14.4063 h 12.3594 v 3.0781 z m 29.1892,0.6406 q -2.9531,0 -5.25,-1.3906 -2.2969,-1.4063 -3.6094,-3.8438 -1.2968,-2.4531 -1.2968,-5.5625 0,-2.9218 1.2187,-5.4062 1.2188,-2.4844 3.4375,-3.9844 2.2188,-1.5 5.2188,-1.5 3.0468,0 5.2187,1.3438 2.1875,1.3437 3.3594,3.7031 1.1875,2.3594 1.1875,5.4062 0,0.2813 -0.016,0.5625 -0.016,0.2657 -0.062,0.4688 h -17.5625 v -2.7969 h 14.0468 q -0.047,-0.8437 -0.3906,-1.8125 -0.3281,-0.9844 -1.0781,-1.8437 -0.7344,-0.8594 -1.875,-1.3907 -1.1406,-0.5468 -2.8281,-0.5468 -2,0 -3.4532,1.0156 -1.4531,1.0156 -2.2343,2.7812 -0.7813,1.75 -0.7813,4 0,2.5938 1,4.3125 1,1.7188 2.5781,2.5625 1.5782,0.8438 3.2969,0.8438 2.2344,0 3.6875,-1.0625 1.4688,-1.0625 2.3594,-2.625 l 2.875,1.4062 q -1.2031,2.3125 -3.4531,3.8438 -2.2344,1.5156 -5.5938,1.5156 z m 13.4419,-0.6406 v -20.4063 h 3.25 v 3.2813 h 0.1562 q 0.3907,-1.1563 1.3282,-2.0156 0.9531,-0.8594 2.1718,-1.3594 1.2188,-0.5 2.4219,-0.5 0.9219,0 1.4375,0.1094 0.5156,0.094 0.9531,0.2968 v 3.6719 q -0.6406,-0.3125 -1.375,-0.4687 -0.7343,-0.1719 -1.5,-0.1719 -1.4843,0 -2.7187,0.8437 -1.2344,0.8438 -1.9844,2.25 -0.7344,1.3907 -0.7344,3.0625 v 11.4063 z m 31.405,0.6406 q -2.2812,0 -4.0312,-0.7344 -1.7344,-0.75 -2.875,-2 -1.1406,-1.2656 -1.6875,-2.75 l 3.0312,-1.3593 q 0.7969,1.8437 2.3125,2.8437 1.5313,1 3.4844,1 1.8906,0 3.1406,-0.75 1.2657,-0.7656 1.2657,-2.25 0,-0.9219 -0.5313,-1.5312 -0.5156,-0.625 -1.5156,-1.0625 -1,-0.4532 -2.4375,-0.8125 l -2.4844,-0.6407 q -1.4375,-0.3906 -2.7187,-1.1093 -1.2813,-0.7188 -2.0625,-1.8594 -0.7657,-1.1406 -0.7657,-2.7813 0,-1.8437 1.0782,-3.1562 1.0781,-1.3281 2.8281,-2.0313 1.7656,-0.7031 3.7656,-0.7031 1.7656,0 3.2969,0.5 1.5469,0.5 2.7031,1.4844 1.1563,0.9844 1.7656,2.4219 l -2.9687,1.3593 q -0.75,-1.5156 -2.0313,-2.1093 -1.2812,-0.6094 -2.8437,-0.6094 -1.6719,0 -2.9219,0.75 -1.2344,0.7344 -1.2344,2.0156 0,1.2813 1.0157,1.9219 1.0156,0.625 2.5,1.0312 l 2.9687,0.7657 q 3,0.75 4.5156,2.25 1.5157,1.5 1.5157,3.6718 0,1.9063 -1.0782,3.3125 -1.0781,1.4063 -2.9218,2.1719 -1.8438,0.75 -4.0782,0.75 z m 10.2044,-21.0469 h 11.9531 v 3.0938 h -11.9531 z m 3.5625,15.0469 v -20.7969 h 3.3906 v 19.9532 q 0,1.6093 0.6562,2.4843 0.6719,0.875 2.1875,0.875 0.6719,0 1.2344,-0.1875 0.5625,-0.2031 1,-0.4843 v 3.3125 q -0.5156,0.25 -1.1406,0.375 -0.6094,0.1406 -1.6563,0.1406 -2.5625,0 -4.125,-1.5 -1.5468,-1.5 -1.5468,-4.1719 z m 20.6262,6 q -2.9531,0 -5.25,-1.3906 -2.2969,-1.4063 -3.6094,-3.8438 -1.2969,-2.4531 -1.2969,-5.5625 0,-2.9218 1.2188,-5.4062 1.2187,-2.4844 3.4375,-3.9844 2.2187,-1.5 5.2187,-1.5 3.0469,0 5.2188,1.3438 2.1875,1.3437 3.3594,3.7031 1.1875,2.3594 1.1875,5.4062 0,0.2813 -0.016,0.5625 -0.016,0.2657 -0.062,0.4688 h -17.5625 v -2.7969 h 14.0469 q -0.047,-0.8437 -0.3906,-1.8125 -0.3281,-0.9844 -1.0781,-1.8437 -0.7344,-0.8594 -1.875,-1.3907 -1.1407,-0.5468 -2.8282,-0.5468 -2,0 -3.4531,1.0156 -1.4531,1.0156 -2.2344,2.7812 -0.7812,1.75 -0.7812,4 0,2.5938 1,4.3125 1,1.7188 2.5781,2.5625 1.5781,0.8438 3.2969,0.8438 2.2344,0 3.6875,-1.0625 1.4687,-1.0625 2.3594,-2.625 l 2.875,1.4062 q -1.2032,2.3125 -3.4532,3.8438 -2.2343,1.5156 -5.5937,1.5156 z m 13.4419,8 v -29.0469 h 3.25 v 3.0469 h 0.1562 q 0.5625,-0.9531 1.5782,-1.7969 1.0156,-0.8437 2.375,-1.3593 1.3593,-0.5313 3,-0.5313 2.8125,0 5,1.4063 2.2031,1.4062 3.4843,3.8437 1.2813,2.4375 1.2813,5.5938 0,3.1562 -1.2813,5.6093 -1.2812,2.4375 -3.4843,3.8438 -2.1875,1.3906 -5,1.3906 -2.4375,0 -4.2813,-1.1094 -1.8281,-1.125 -2.6719,-2.5312 h -0.1562 l 0.1562,2.7969 v 8.8437 z m 10,-11.0781 q 1.7656,0 3.2969,-0.9375 1.5468,-0.9375 2.4843,-2.7031 0.9375,-1.7657 0.9375,-4.125 0,-2.3907 -0.9375,-4.125 -0.9375,-1.75 -2.4843,-2.6875 -1.5313,-0.9375 -3.2969,-0.9375 -1.75,0 -3.2969,0.9375 -1.5312,0.9375 -2.5,2.6875 -0.9531,1.7343 -0.9531,4.125 0,2.4062 0.9531,4.1562 0.9688,1.7344 2.5,2.6719 1.5469,0.9375 3.2969,0.9375 z"
       fill-rule="nonzero"
       id="path98" />
    <path
       fill="#efefef"
       d="m 758.93964,780.7874 h 48 v 48 h -48 z"
       fill-rule="evenodd"
       id="path99" />
    <path
       stroke="#a7a7a7"
       stroke-width="1"
       stroke-linejoin="round"
       stroke-linecap="butt"
       d="m 758.93964,780.7874 h 48 v 48 h -48 z"
       fill-rule="evenodd"
       id="path100" />
    <path
       fill="#999999"
       d="m 806.93964,780.7874 h 48 v 48 h -48 z"
       fill-rule="evenodd"
       id="path101" />
    <path
       stroke="#a7a7a7"
       stroke-width="1"
       stroke-linejoin="round"
       stroke-linecap="butt"
       d="m 806.93964,780.7874 h 48 v 48 h -48 z"
       fill-rule="evenodd"
       id="path102" />
    <path
       fill="#d9d9d9"
       d="m 758.93964,1040.3859 h 48 v 48 h -48 z"
       fill-rule="evenodd"
       id="path103" />
    <path
       stroke="#a7a7a7"
       stroke-width="1"
       stroke-linejoin="round"
       stroke-linecap="butt"
       d="m 758.93964,1040.3859 h 48 v 48 h -48 z"
       fill-rule="evenodd"
       id="path104" />
    <path
       fill="#666666"
       d="m 806.93964,1040.3859 h 48 v 48 h -48 z"
       fill-rule="evenodd"
       id="path105" />
    <path
       stroke="#a7a7a7"
       stroke-width="1"
       stroke-linejoin="round"
       stroke-linecap="butt"
       d="m 806.93964,1040.3859 h 48 v 48 h -48 z"
       fill-rule="evenodd"
       id="path106" />
    <path
       fill="#cccccc"
       d="m 758.9383,1299.9843 h 48 v 48 h -48 z"
       fill-rule="evenodd"
       id="path107" />
    <path
       stroke="#a7a7a7"
       stroke-width="1"
       stroke-linejoin="round"
       stroke-linecap="butt"
       d="m 758.9383,1299.9843 h 48 v 48 h -48 z"
       fill-rule="evenodd"
       id="path108" />
    <path
       fill="#434343"
       d="m 806.9383,1299.9843 h 48 v 48 h -48 z"
       fill-rule="evenodd"
       id="path109" />
    <path
       stroke="#a7a7a7"
       stroke-width="1"
       stroke-linejoin="round"
       stroke-linecap="butt"
       d="m 806.9383,1299.9843 h 48 v 48 h -48 z"
       fill-rule="evenodd"
       id="path110" />
    <path
       fill="#91ff7e"
       d="m 758.93964,1040.3859 h 48 v 48 h -48 z"
       fill-rule="evenodd"
       id="path111" />
    <path
       stroke="#a7a7a7"
       stroke-width="1"
       stroke-linejoin="round"
       stroke-linecap="butt"
       d="m 758.93964,1040.3859 h 48 v 48 h -48 z"
       fill-rule="evenodd"
       id="path112" />
    <path
       fill="#93c47d"
       d="m 806.93964,1040.3859 h 48 v 48 h -48 z"
       fill-rule="evenodd"
       id="path113" />
    <path
       stroke="#a7a7a7"
       stroke-width="1"
       stroke-linejoin="round"
       stroke-linecap="butt"
       d="m 806.93964,1040.3859 h 48 v 48 h -48 z"
       fill-rule="evenodd"
       id="path114" />
    <path
       fill="#f5908d"
       d="m 758.9383,1299.9843 h 48 v 48 h -48 z"
       fill-rule="evenodd"
       id="path115" />
    <path
       stroke="#a7a7a7"
       stroke-width="1"
       stroke-linejoin="round"
       stroke-linecap="butt"
       d="m 758.9383,1299.9843 h 48 v 48 h -48 z"
       fill-rule="evenodd"
       id="path116" />
    <path
       fill="#e06666"
       d="m 806.9383,1299.9843 h 48 v 48 h -48 z"
       fill-rule="evenodd"
       id="path117" />
    <path
       stroke="#a7a7a7"
       stroke-width="1"
       stroke-linejoin="round"
       stroke-linecap="butt"
       d="m 806.9383,1299.9843 h 48 v 48 h -48 z"
       fill-rule="evenodd"
       id="path118" />
    <path
       fill="#a8d4fe"
       d="m 758.93896,569.124 v -48 h 48 v 48 z"
       fill-rule="evenodd"
       id="path119" />
    <path
       stroke="#a7a7a7"
       stroke-width="1"
       stroke-linejoin="round"
       stroke-linecap="butt"
       d="m 758.93896,569.124 v -48 h 48 v 48 z"
       fill-rule="evenodd"
       id="path120" />
    <path
       fill="#6d9eeb"
       d="m 806.9403,569.124 v -48 h 48 v 48 z"
       fill-rule="evenodd"
       id="path121" />
    <path
       stroke="#a7a7a7"
       stroke-width="1"
       stroke-linejoin="round"
       stroke-linecap="butt"
       d="m 806.9403,569.124 v -48 h 48 v 48 z"
       fill-rule="evenodd"
       id="path122" />
    <path
       fill="#ffd4ac"
       d="m 758.93964,780.7874 h 48 v 48 h -48 z"
       fill-rule="evenodd"
       id="path123" />
    <path
       stroke="#a7a7a7"
       stroke-width="1"
       stroke-linejoin="round"
       stroke-linecap="butt"
       d="m 758.93964,780.7874 h 48 v 48 h -48 z"
       fill-rule="evenodd"
       id="path124" />
    <path
       fill="#f6b26b"
       d="m 806.93964,780.7874 h 48 v 48 h -48 z"
       fill-rule="evenodd"
       id="path125" />
    <path
       stroke="#a7a7a7"
       stroke-width="1"
       stroke-linejoin="round"
       stroke-linecap="butt"
       d="m 806.93964,780.7874 h 48 v 48 h -48 z"
       fill-rule="evenodd"
       id="path126" />
    <path
       fill="#a8d4fe"
       d="m 447.7185,472.77493 v -48 h 48 v 48 z"
       fill-rule="evenodd"
       id="path127" />
    <path
       stroke="#a7a7a7"
       stroke-width="1"
       stroke-linejoin="round"
       stroke-linecap="butt"
       d="m 447.7185,472.77493 v -48 h 48 v 48 z"
       fill-rule="evenodd"
       id="path128" />
    <path
       fill="#6d9eeb"
       d="m 495.71982,472.77493 v -48 h 47.99997 v 48 z"
       fill-rule="evenodd"
       id="path129" />
    <path
       stroke="#a7a7a7"
       stroke-width="1"
       stroke-linejoin="round"
       stroke-linecap="butt"
       d="m 495.71982,472.77493 v -48 h 47.99997 v 48 z"
       fill-rule="evenodd"
       id="path130" />
    <path
       fill="#ffd4ac"
       d="m 447.71915,472.7743 h 48 v 48 h -48 z"
       fill-rule="evenodd"
       id="path131" />
    <path
       stroke="#a7a7a7"
       stroke-width="1"
       stroke-linejoin="round"
       stroke-linecap="butt"
       d="m 447.71915,472.7743 h 48 v 48 h -48 z"
       fill-rule="evenodd"
       id="path132" />
    <path
       fill="#f6b26b"
       d="m 495.71915,472.7743 h 48.00003 v 48 h -48.00003 z"
       fill-rule="evenodd"
       id="path133" />
    <path
       stroke="#a7a7a7"
       stroke-width="1"
       stroke-linejoin="round"
       stroke-linecap="butt"
       d="m 495.71915,472.7743 h 48.00003 v 48 h -48.00003 z"
       fill-rule="evenodd"
       id="path134" />
    <path
       fill="#91ff7e"
       d="m 447.71915,521.18896 h 48 v 48 h -48 z"
       fill-rule="evenodd"
       id="path135" />
    <path
       stroke="#a7a7a7"
       stroke-width="1"
       stroke-linejoin="round"
       stroke-linecap="butt"
       d="m 447.71915,521.18896 h 48 v 48 h -48 z"
       fill-rule="evenodd"
       id="path136" />
    <path
       fill="#93c47d"
       d="m 495.71915,521.18896 h 48.00003 v 48 h -48.00003 z"
       fill-rule="evenodd"
       id="path137" />
    <path
       stroke="#a7a7a7"
       stroke-width="1"
       stroke-linejoin="round"
       stroke-linecap="butt"
       d="m 495.71915,521.18896 h 48.00003 v 48 h -48.00003 z"
       fill-rule="evenodd"
       id="path138" />
    <path
       fill="#f5908d"
       d="m 447.71783,569.6037 h 48 v 48 h -48 z"
       fill-rule="evenodd"
       id="path139" />
    <path
       stroke="#a7a7a7"
       stroke-width="1"
       stroke-linejoin="round"
       stroke-linecap="butt"
       d="m 447.71783,569.6037 h 48 v 48 h -48 z"
       fill-rule="evenodd"
       id="path140" />
    <path
       fill="#e06666"
       d="m 495.71783,569.6037 h 48 v 48 h -48 z"
       fill-rule="evenodd"
       id="path141" />
    <path
       stroke="#a7a7a7"
       stroke-width="1"
       stroke-linejoin="round"
       stroke-linecap="butt"
       d="m 495.71783,569.6037 h 48 v 48 h -48 z"
       fill-rule="evenodd"
       id="path142" />
  </g>
</svg>
