<?xml version="1.0" encoding="UTF-8" standalone="no"?>
<svg
   version="1.1"
   viewBox="0 0 2559.2258 720.40363"
   fill="none"
   stroke="none"
   stroke-linecap="square"
   stroke-miterlimit="10"
   id="svg131"
   sodipodi:docname="tensor_linear_basic_setup.svg"
   width="2559.2258"
   height="720.40363"
   inkscape:version="1.3.1 (9b9bdc1480, 2023-11-25, custom)"
   xmlns:inkscape="http://www.inkscape.org/namespaces/inkscape"
   xmlns:sodipodi="http://sodipodi.sourceforge.net/DTD/sodipodi-0.dtd"
   xmlns="http://www.w3.org/2000/svg"
   xmlns:svg="http://www.w3.org/2000/svg">
  <defs
     id="defs131" />
  <sodipodi:namedview
     id="namedview131"
     pagecolor="#ffffff"
     bordercolor="#666666"
     borderopacity="1.0"
     inkscape:showpageshadow="2"
     inkscape:pageopacity="0.0"
     inkscape:pagecheckerboard="0"
     inkscape:deskcolor="#d1d1d1"
     showgrid="false"
     inkscape:zoom="1.2304688"
     inkscape:cx="1278.3746"
     inkscape:cy="331.1746"
     inkscape:window-width="3840"
     inkscape:window-height="2079"
     inkscape:window-x="0"
     inkscape:window-y="44"
     inkscape:window-maximized="1"
     inkscape:current-layer="svg131" />
  <clipPath
     id="g2bc70ebdeaa_0_0.0">
    <path
       d="M 0,0 H 2560 V 1440 H 0 Z"
       clip-rule="nonzero"
       id="path1" />
  </clipPath>
  <g
     clip-path="url(#g2bc70ebdeaa_0_0.0)"
     id="g131"
     transform="translate(-0.7742782,-388.3207)">
    <path
       fill="#efefef"
       d="M 1.7742782,531.7244 H 577.77428 v 575.9999 H 1.7742782 Z"
       fill-rule="evenodd"
       id="path3" />
    <path
       stroke="#000000"
       stroke-width="2"
       stroke-linejoin="round"
       stroke-linecap="butt"
       d="M 1.7742782,531.7244 H 577.77428 v 575.9999 H 1.7742782 Z"
       fill-rule="evenodd"
       id="path4" />
    <path
       fill="#000000"
       d="m 269.28745,842.6644 17.42187,-45.82813 h 6.14063 l 17.40625,45.82813 h -5.95313 l -12.60937,-34.23438 -1.79688,-4.9375 h -0.25 l -1.79687,4.9375 -12.60938,34.23438 z m 19.84375,-12.60938 v -5.125 h 10.5625 l 1.85937,5.125 z m -12.40625,0 1.84375,-5.125 h 10.5625 v 5.125 z"
       fill-rule="nonzero"
       id="path5" />
    <path
       fill="#efefef"
       d="m 706.5748,531.7244 h 96 v 575.9999 h -96 z"
       fill-rule="evenodd"
       id="path8" />
    <path
       stroke="#000000"
       stroke-width="2"
       stroke-linejoin="round"
       stroke-linecap="butt"
       d="m 706.5748,531.7244 h 96 v 575.9999 h -96 z"
       fill-rule="evenodd"
       id="path9" />
    <path
       fill="#000000"
       d="m 739.819,842.6644 13.0625,-18.75 h 0.57812 l 9.28125,-13.89063 h 6.39063 l -12.79688,17.98438 H 755.944 l -9.78125,14.65625 z m 0.26562,-32.64063 h 6.14063 l 10.10937,14.53125 h 0.25 l 12.75,18.10938 h -6.34375 l -9.73437,-14.46875 h -0.4375 z"
       fill-rule="nonzero"
       id="path10" />
    <path
       fill="#000000"
       fill-opacity="0"
       d="m 599.00946,768.6116 h 86.33075 v 96.94488 h -86.33075 z"
       fill-rule="evenodd"
       id="path11" />
    <path
       fill="#4285f4"
       d="m 642.26776,844.3016 q -5.5625,0 -10.20313,-1.92188 -4.64062,-1.92187 -8.03125,-5.3125 -3.39062,-3.39062 -5.25,-7.875 -1.85937,-4.48437 -1.85937,-9.59375 0,-5.125 1.82812,-9.5625 1.82813,-4.45312 5.21875,-7.875 3.39063,-3.42187 8.03125,-5.34375 4.64063,-1.92187 10.26563,-1.92187 5.57812,0 10.20312,1.92187 4.64063,1.92188 7.96875,5.3125 3.32813,3.39063 5.15625,7.8125 1.82813,4.40625 1.82813,9.39063 0,3.84375 -1.21875,6.92187 -1.21875,3.0625 -3.53125,4.85938 -2.29688,1.79687 -5.5625,1.79687 -2.35938,0 -4.4375,-1.21875 -2.07813,-1.21875 -3.10938,-3.39062 -0.95312,1.53125 -2.26562,2.5625 -1.3125,1.01562 -2.95313,1.53125 -1.625,0.51562 -3.60937,0.51562 -3.45313,0 -6.28125,-1.65625 -2.8125,-1.67187 -4.48438,-4.60937 -1.65625,-2.95313 -1.65625,-6.79688 0,-3.84375 1.6875,-6.78125 1.70313,-2.9375 4.45313,-4.59375 2.76562,-1.67187 6.03125,-1.67187 1.65625,0 2.96875,0.45312 1.3125,0.4375 2.29687,1.17188 1,0.73437 1.64063,1.70312 h 0.51562 v -2.4375 h 6.26563 v 15.75 q 0,1.59375 0.85937,2.75 0.875,1.14063 2.34375,1.14063 1.01563,0 1.78125,-0.59375 0.78125,-0.60938 1.25,-1.73438 0.48438,-1.125 0.70313,-2.59375 0.23437,-1.46875 0.23437,-3.14062 0,-3.64063 -1.40625,-7 -1.40625,-3.35938 -3.9375,-5.95313 -2.53125,-2.59375 -6.01562,-4.09375 -3.48438,-1.5 -7.71875,-1.5 -4.03125,0 -7.45313,1.34375 -3.42187,1.34375 -6.01562,3.875 -2.59375,2.51563 -4.03125,5.96875 -1.4375,3.45313 -1.4375,7.6875 0,4.21875 1.53125,7.6875 1.53125,3.45313 4.1875,5.98438 2.65625,2.51562 6.07812,3.85937 3.4375,1.34375 7.14063,1.34375 2.4375,0 4.57812,-0.53125 2.14063,-0.54687 3.9375,-1.57812 l 2.17188,5.5625 q -2.29688,1.09375 -5.09375,1.73437 -2.78125,0.64063 -5.59375,0.64063 z m -1.07813,-17.60938 q 1.71875,0 3.1875,-0.79687 1.48438,-0.79688 2.375,-2.32813 0.89063,-1.54687 0.89063,-3.71875 0,-2.17187 -0.89063,-3.70312 -0.89062,-1.54688 -2.375,-2.34375 -1.46875,-0.79688 -3.1875,-0.79688 -1.67187,0 -3.17187,0.82813 -1.5,0.82812 -2.40625,2.34375 -0.89063,1.5 -0.89063,3.67187 0,2.10938 0.89063,3.65625 0.90625,1.53125 2.40625,2.35938 1.5,0.82812 3.17187,0.82812 z"
       fill-rule="nonzero"
       id="path12" />
    <path
       fill="#000000"
       fill-opacity="0"
       d="m 834.6079,768.6116 h 86.33069 v 96.94488 H 834.6079 Z"
       fill-rule="evenodd"
       id="path13" />
    <path
       fill="#4285f4"
       d="m 862.7645,819.1453 v -7.42187 h 30.01562 v 7.42187 z m 0,12.79688 v -7.42188 h 30.01562 v 7.42188 z"
       fill-rule="nonzero"
       id="path14" />
    <path
       fill="#efefef"
       d="m 931.3753,529.084 h 96.0001 v 576 h -96.0001 z"
       fill-rule="evenodd"
       id="path15" />
    <path
       stroke="#000000"
       stroke-width="2"
       stroke-linejoin="round"
       stroke-linecap="butt"
       d="m 931.3753,529.084 h 96.0001 v 576 h -96.0001 z"
       fill-rule="evenodd"
       id="path16" />
    <path
       fill="#000000"
       d="m 976.01434,852.18024 q -0.1875,0.45313 -0.45313,1 -0.25,0.54688 -0.3125,0.67188 h -5.64062 q 0.39062,-0.84375 0.82812,-1.82813 0.45313,-0.98437 1.09375,-2.40625 0.39063,-0.82812 0.70313,-1.53125 0.32812,-0.70312 0.73437,-1.57812 0.42188,-0.85938 1,-2.125 l 4.48438,-9.73438 1.21875,-3.01562 9.84375,-24.25 h 5.89062 l -16.89062,38.98437 q -0.26563,0.5625 -0.8125,1.8125 -0.53125,1.25 -1.01563,2.4375 -0.48437,1.1875 -0.67187,1.5625 z m 1.21875,-13.5 -13.82813,-31.29687 h 5.89063 l 10.23437,24.25 h 0.51563 z"
       fill-rule="nonzero"
       id="path17" />
    <path
       fill="#efefef"
       d="m 1265.7743,531.7244 h 144 v 144 h -144 z"
       fill-rule="evenodd"
       id="path18" />
    <path
       stroke="#000000"
       stroke-width="2"
       stroke-linejoin="round"
       stroke-linecap="butt"
       d="m 1265.7743,531.7244 h 144 v 144 h -144 z"
       fill-rule="evenodd"
       id="path19" />
    <path
       fill="#000000"
       d="m 1284.6981,626.6644 17.4219,-45.82813 h 6.1406 l 17.4063,45.82813 h -5.9532 l -12.6093,-34.23438 -1.7969,-4.9375 h -0.25 l -1.7969,4.9375 -12.6094,34.23438 z m 19.8438,-12.60938 v -5.125 h 10.5625 l 1.8593,5.125 z m -12.4063,0 1.8438,-5.125 h 10.5625 v 5.125 z"
       fill-rule="nonzero"
       id="path20" />
    <path
       fill="#000000"
       d="m 1340.3593,651.3519 q -2.6875,0 -4.8281,-1.17188 -2.125,-1.17187 -3.6563,-3.26562 -1.5312,-2.09375 -2.3437,-4.85938 -0.8125,-2.78125 -0.8125,-5.98437 0,-3.1875 0.8125,-5.95313 0.8125,-2.78125 2.3437,-4.875 1.5313,-2.09375 3.6563,-3.26562 2.1406,-1.17188 4.8281,-1.17188 2.6875,0 4.8438,1.17188 2.1562,1.17187 3.6875,3.26562 1.5312,2.09375 2.3437,4.875 0.8125,2.76563 0.8125,5.95313 0,3.20312 -0.8125,5.98437 -0.8125,2.76563 -2.3437,4.85938 -1.5313,2.09375 -3.6875,3.26562 -2.1563,1.17188 -4.8438,1.17188 z m 0,-3.45313 q 2.4688,0 4.2656,-1.57812 1.7969,-1.57813 2.75,-4.26563 0.9688,-2.6875 0.9688,-5.98437 0,-3.32813 -0.9688,-6.01563 -0.9531,-2.6875 -2.75,-4.23437 -1.7968,-1.5625 -4.2656,-1.5625 -2.4687,0 -4.25,1.5625 -1.7656,1.54687 -2.7344,4.23437 -0.9531,2.6875 -0.9531,6.01563 0,3.29687 0.9531,5.98437 0.9688,2.6875 2.7344,4.26563 1.7813,1.57812 4.25,1.57812 z m 17.7008,7.45313 -1.75,-1.14063 2.3125,-3.54687 q -0.6875,-0.125 -1.3594,-0.76563 -0.6562,-0.64062 -0.6562,-1.70312 0,-1.10938 0.7812,-1.89063 0.7969,-0.79687 1.9532,-0.79687 0.5937,0 1.0781,0.21875 0.5,0.20312 0.8594,0.5625 0.3593,0.35937 0.5781,0.85937 0.2187,0.48438 0.2187,1.04688 0,0.5 -0.1718,1 -0.1719,0.48437 -0.4375,0.95312 -0.25,0.46875 -0.5938,0.9375 z m 19.9646,-4 q -2.6875,0 -4.8281,-1.17188 -2.125,-1.17187 -3.6563,-3.26562 -1.5312,-2.09375 -2.3437,-4.85938 -0.8125,-2.78125 -0.8125,-5.98437 0,-3.1875 0.8125,-5.95313 0.8125,-2.78125 2.3437,-4.875 1.5313,-2.09375 3.6563,-3.26562 2.1406,-1.17188 4.8281,-1.17188 2.6875,0 4.8438,1.17188 2.1562,1.17187 3.6875,3.26562 1.5312,2.09375 2.3437,4.875 0.8125,2.76563 0.8125,5.95313 0,3.20312 -0.8125,5.98437 -0.8125,2.76563 -2.3437,4.85938 -1.5313,2.09375 -3.6875,3.26562 -2.1563,1.17188 -4.8438,1.17188 z m 0,-3.45313 q 2.4688,0 4.2656,-1.57812 1.7969,-1.57813 2.75,-4.26563 0.9688,-2.6875 0.9688,-5.98437 0,-3.32813 -0.9688,-6.01563 -0.9531,-2.6875 -2.75,-4.23437 -1.7968,-1.5625 -4.2656,-1.5625 -2.4687,0 -4.25,1.5625 -1.7656,1.54687 -2.7344,4.23437 -0.9531,2.6875 -0.9531,6.01563 0,3.29687 0.9531,5.98437 0.9688,2.6875 2.7344,4.26563 1.7813,1.57812 4.25,1.57812 z"
       fill-rule="nonzero"
       id="path21" />
    <path
       fill="#efefef"
       d="m 1409.7743,675.7244 h 144 v 144 h -144 z"
       fill-rule="evenodd"
       id="path22" />
    <path
       stroke="#000000"
       stroke-width="2"
       stroke-linejoin="round"
       stroke-linecap="butt"
       d="m 1409.7743,675.7244 h 144 v 144 h -144 z"
       fill-rule="evenodd"
       id="path23" />
    <path
       fill="#000000"
       d="m 1441.282,770.6644 17.4219,-45.82813 h 6.1406 l 17.4063,45.82813 h -5.9532 l -12.6093,-34.23438 -1.7969,-4.9375 h -0.25 l -1.7969,4.9375 -12.6094,34.23438 z m 19.8438,-12.60938 v -5.125 h 10.5625 l 1.8593,5.125 z m -12.4063,0 1.8438,-5.125 h 10.5625 v 5.125 z"
       fill-rule="nonzero"
       id="path24" />
    <path
       fill="#000000"
       d="m 1492.1307,794.6644 v -24.09375 l -5.125,3.65625 -1.875,-2.76563 8.3125,-5.96875 h 2.3125 v 29.17188 z m 11.2094,4.6875 -1.75,-1.14063 2.3125,-3.54687 q -0.6875,-0.125 -1.3594,-0.76563 -0.6563,-0.64062 -0.6563,-1.70312 0,-1.10938 0.7813,-1.89063 0.7969,-0.79687 1.9531,-0.79687 0.5938,0 1.0781,0.21875 0.5,0.20312 0.8594,0.5625 0.3594,0.35937 0.5781,0.85937 0.2188,0.48438 0.2188,1.04688 0,0.5 -0.1719,1 -0.1719,0.48437 -0.4375,0.95312 -0.25,0.46875 -0.5937,0.9375 z m 12.5921,-4.6875 v -24.09375 l -5.125,3.65625 -1.875,-2.76563 8.3125,-5.96875 h 2.3125 v 29.17188 z"
       fill-rule="nonzero"
       id="path25" />
    <path
       fill="#efefef"
       d="m 1553.7743,819.7244 h 144 v 144 h -144 z"
       fill-rule="evenodd"
       id="path26" />
    <path
       stroke="#000000"
       stroke-width="2"
       stroke-linejoin="round"
       stroke-linecap="butt"
       d="m 1553.7743,819.7244 h 144 v 144 h -144 z"
       fill-rule="evenodd"
       id="path27" />
    <path
       fill="#000000"
       d="m 1577.7742,914.6644 17.4219,-45.82813 h 6.1406 l 17.4063,45.82813 h -5.9532 l -12.6093,-34.23438 -1.7969,-4.9375 h -0.25 l -1.7969,4.9375 -12.6094,34.23438 z m 19.8438,-12.60938 v -5.125 h 10.5625 l 1.8593,5.125 z m -12.4063,0 1.8438,-5.125 h 10.5625 v 5.125 z"
       fill-rule="nonzero"
       id="path28" />
    <path
       fill="#000000"
       d="m 1621.6229,938.6644 v -3.625 q 0.125,-0.125 1.0156,-1.01563 0.9063,-0.90625 2.2188,-2.25 1.3281,-1.34375 2.7812,-2.8125 1.4532,-1.46875 2.7032,-2.76562 1.2656,-1.3125 1.9843,-2.125 1.3282,-1.4375 2.125,-2.48438 0.8125,-1.04687 1.2032,-2.04687 0.3906,-1.01563 0.3906,-2.32813 0,-1.23437 -0.6406,-2.35937 -0.6407,-1.14063 -1.8594,-1.85938 -1.2188,-0.73437 -3.0469,-0.73437 -1.7187,0 -2.8906,0.73437 -1.1719,0.71875 -1.8125,1.71875 -0.6406,1 -0.8438,1.8125 l -3.2812,-1.3125 q 0.25,-0.90625 0.9062,-1.98437 0.6719,-1.09375 1.75,-2.09375 1.0938,-1 2.6407,-1.65625 1.5625,-0.67188 3.6093,-0.67188 2.7813,0 4.8282,1.17188 2.0468,1.17187 3.1718,3.07812 1.125,1.89063 1.125,4.10938 0,1.92187 -0.7187,3.65625 -0.7188,1.71875 -1.7969,3.125 -1.0625,1.40625 -2.1719,2.46875 -0.5468,0.5625 -1.5312,1.54687 -0.9844,0.98438 -2.0938,2.10938 -1.1093,1.125 -2.1718,2.20312 -1.0625,1.0625 -1.8594,1.875 -0.7813,0.79688 -1.0938,1.0625 v 0 h 13.7813 v 3.45313 z m 24.4371,4.6875 -1.75,-1.14063 2.3125,-3.54687 q -0.6875,-0.125 -1.3593,-0.76563 -0.6563,-0.64062 -0.6563,-1.70312 0,-1.10938 0.7813,-1.89063 0.7968,-0.79687 1.9531,-0.79687 0.5937,0 1.0781,0.21875 0.5,0.20312 0.8594,0.5625 0.3594,0.35937 0.5781,0.85937 0.2188,0.48438 0.2188,1.04688 0,0.5 -0.1719,1 -0.1719,0.48437 -0.4375,0.95312 -0.25,0.46875 -0.5938,0.9375 z m 8.1521,-4.6875 v -3.625 q 0.125,-0.125 1.0157,-1.01563 0.9062,-0.90625 2.2187,-2.25 1.3281,-1.34375 2.7813,-2.8125 1.4531,-1.46875 2.7031,-2.76562 1.2656,-1.3125 1.9844,-2.125 1.3281,-1.4375 2.125,-2.48438 0.8125,-1.04687 1.2031,-2.04687 0.3906,-1.01563 0.3906,-2.32813 0,-1.23437 -0.6406,-2.35937 -0.6406,-1.14063 -1.8594,-1.85938 -1.2187,-0.73437 -3.0469,-0.73437 -1.7187,0 -2.8906,0.73437 -1.1719,0.71875 -1.8125,1.71875 -0.6406,1 -0.8437,1.8125 l -3.2813,-1.3125 q 0.25,-0.90625 0.9063,-1.98437 0.6718,-1.09375 1.75,-2.09375 1.0937,-1 2.6406,-1.65625 1.5625,-0.67188 3.6094,-0.67188 2.7812,0 4.8281,1.17188 2.0469,1.17187 3.1719,3.07812 1.125,1.89063 1.125,4.10938 0,1.92187 -0.7188,3.65625 -0.7187,1.71875 -1.7969,3.125 -1.0625,1.40625 -2.1718,2.46875 -0.5469,0.5625 -1.5313,1.54687 -0.9844,0.98438 -2.0937,2.10938 -1.1094,1.125 -2.1719,2.20312 -1.0625,1.0625 -1.8594,1.875 -0.7812,0.79688 -1.0937,1.0625 v 0 h 13.7812 v 3.45313 z"
       fill-rule="nonzero"
       id="path29" />
    <path
       fill="#efefef"
       d="m 1697.7743,963.7244 h 144 v 143.9999 h -144 z"
       fill-rule="evenodd"
       id="path30" />
    <path
       stroke="#000000"
       stroke-width="2"
       stroke-linejoin="round"
       stroke-linecap="butt"
       d="m 1697.7743,963.7244 h 144 v 143.9999 h -144 z"
       fill-rule="evenodd"
       id="path31" />
    <path
       fill="#000000"
       d="m 1721.7103,1058.6644 17.4219,-45.8281 h 6.1406 l 17.4063,45.8281 h -5.9532 l -12.6093,-34.2344 -1.7969,-4.9375 h -0.25 l -1.7969,4.9375 -12.6094,34.2344 z m 19.8438,-12.6094 v -5.125 h 10.5625 l 1.8593,5.125 z m -12.4063,0 1.8438,-5.125 h 10.5625 v 5.125 z"
       fill-rule="nonzero"
       id="path32" />
    <path
       fill="#000000"
       d="m 1774.7777,1083.3519 q -1.7187,0 -3.6406,-0.7188 -1.9063,-0.7343 -3.4844,-2.3281 -1.5781,-1.6094 -2.3594,-4.25 l 3.2969,-1.375 q 0.7188,2.4844 2.3438,3.8594 1.625,1.3594 3.8437,1.3594 1.6563,0 3.0313,-0.7032 1.3906,-0.7187 2.2187,-1.9531 0.8438,-1.2344 0.8438,-2.8125 0,-1.5312 -0.8594,-2.75 -0.8438,-1.2187 -2.25,-1.9219 -1.4063,-0.7031 -3.125,-0.7031 h -2.5156 v -3.375 h 2.2656 q 1.5312,0 2.7812,-0.5937 1.2657,-0.5938 1.9844,-1.7032 0.7344,-1.1093 0.7344,-2.5937 0,-2.0938 -1.5625,-3.3125 -1.5469,-1.2188 -3.7656,-1.2188 -1.625,0 -2.6875,0.625 -1.0625,0.6094 -1.6875,1.5313 -0.625,0.9219 -0.9219,1.8125 l -3.3281,-1.4063 q 0.4375,-1.2812 1.5,-2.6562 1.0625,-1.3906 2.8281,-2.375 1.7812,-0.9844 4.2969,-0.9844 2.5937,0 4.625,1.0313 2.0312,1.0156 3.2031,2.8281 1.1719,1.8125 1.1719,4.125 0,1.6094 -0.5782,2.8594 -0.5781,1.2343 -1.5,2.0937 -0.9062,0.8438 -1.9375,1.3594 v 0.1562 q 1.375,0.5625 2.5,1.5625 1.125,1 1.8125,2.3907 0.6875,1.3906 0.6875,3.1718 0,2.6094 -1.3281,4.6407 -1.3281,2.0156 -3.5469,3.1718 -2.2031,1.1563 -4.8906,1.1563 z m 14.9623,4 -1.75,-1.1406 2.3125,-3.5469 q -0.6875,-0.125 -1.3594,-0.7656 -0.6562,-0.6407 -0.6562,-1.7032 0,-1.1093 0.7812,-1.8906 0.7969,-0.7969 1.9531,-0.7969 0.5938,0 1.0782,0.2188 0.5,0.2031 0.8593,0.5625 0.3594,0.3594 0.5782,0.8594 0.2187,0.4843 0.2187,1.0468 0,0.5 -0.1719,1 -0.1718,0.4844 -0.4375,0.9532 -0.25,0.4687 -0.5937,0.9375 z m 17.371,-4 q -1.7188,0 -3.6407,-0.7188 -1.9062,-0.7343 -3.4843,-2.3281 -1.5782,-1.6094 -2.3594,-4.25 l 3.2969,-1.375 q 0.7187,2.4844 2.3437,3.8594 1.625,1.3594 3.8438,1.3594 1.6562,0 3.0312,-0.7032 1.3906,-0.7187 2.2188,-1.9531 0.8437,-1.2344 0.8437,-2.8125 0,-1.5312 -0.8594,-2.75 -0.8437,-1.2187 -2.25,-1.9219 -1.4062,-0.7031 -3.125,-0.7031 h -2.5156 v -3.375 h 2.2656 q 1.5313,0 2.7813,-0.5937 1.2656,-0.5938 1.9844,-1.7032 0.7343,-1.1093 0.7343,-2.5937 0,-2.0938 -1.5625,-3.3125 -1.5468,-1.2188 -3.7656,-1.2188 -1.625,0 -2.6875,0.625 -1.0625,0.6094 -1.6875,1.5313 -0.625,0.9219 -0.9219,1.8125 l -3.3281,-1.4063 q 0.4375,-1.2812 1.5,-2.6562 1.0625,-1.3906 2.8281,-2.375 1.7813,-0.9844 4.2969,-0.9844 2.5938,0 4.625,1.0313 2.0313,1.0156 3.2031,2.8281 1.1719,1.8125 1.1719,4.125 0,1.6094 -0.5781,2.8594 -0.5781,1.2343 -1.5,2.0937 -0.9063,0.8438 -1.9375,1.3594 v 0.1562 q 1.375,0.5625 2.5,1.5625 1.125,1 1.8125,2.3907 0.6875,1.3906 0.6875,3.1718 0,2.6094 -1.3281,4.6407 -1.3282,2.0156 -3.5469,3.1718 -2.2031,1.1563 -4.8906,1.1563 z"
       fill-rule="nonzero"
       id="path33" />
    <path
       fill="#efefef"
       d="m 1409.7743,531.7244 h 144 v 144 h -144 z"
       fill-rule="evenodd"
       id="path34" />
    <path
       stroke="#000000"
       stroke-width="2"
       stroke-linejoin="round"
       stroke-linecap="butt"
       d="m 1409.7743,531.7244 h 144 v 144 h -144 z"
       fill-rule="evenodd"
       id="path35" />
    <path
       fill="#000000"
       d="m 1435.63,626.6644 17.4219,-45.82813 h 6.1406 l 17.4063,45.82813 h -5.9532 l -12.6093,-34.23438 -1.7969,-4.9375 h -0.25 l -1.7969,4.9375 -12.6094,34.23438 z m 19.8438,-12.60938 v -5.125 h 10.5625 l 1.8593,5.125 z m -12.4063,0 1.8438,-5.125 h 10.5625 v 5.125 z"
       fill-rule="nonzero"
       id="path36" />
    <path
       fill="#000000"
       d="m 1491.2913,651.3519 q -2.6875,0 -4.8281,-1.17188 -2.125,-1.17187 -3.6563,-3.26562 -1.5312,-2.09375 -2.3437,-4.85938 -0.8125,-2.78125 -0.8125,-5.98437 0,-3.1875 0.8125,-5.95313 0.8125,-2.78125 2.3437,-4.875 1.5313,-2.09375 3.6563,-3.26562 2.1406,-1.17188 4.8281,-1.17188 2.6875,0 4.8438,1.17188 2.1562,1.17187 3.6875,3.26562 1.5312,2.09375 2.3437,4.875 0.8125,2.76563 0.8125,5.95313 0,3.20312 -0.8125,5.98437 -0.8125,2.76563 -2.3437,4.85938 -1.5313,2.09375 -3.6875,3.26562 -2.1563,1.17188 -4.8438,1.17188 z m 0,-3.45313 q 2.4688,0 4.2656,-1.57812 1.7969,-1.57813 2.75,-4.26563 0.9688,-2.6875 0.9688,-5.98437 0,-3.32813 -0.9688,-6.01563 -0.9531,-2.6875 -2.75,-4.23437 -1.7968,-1.5625 -4.2656,-1.5625 -2.4687,0 -4.25,1.5625 -1.7656,1.54687 -2.7344,4.23437 -0.9531,2.6875 -0.9531,6.01563 0,3.29687 0.9531,5.98437 0.9688,2.6875 2.7344,4.26563 1.7813,1.57812 4.25,1.57812 z m 17.7007,7.45313 -1.75,-1.14063 2.3125,-3.54687 q -0.6875,-0.125 -1.3594,-0.76563 -0.6562,-0.64062 -0.6562,-1.70312 0,-1.10938 0.7812,-1.89063 0.7969,-0.79687 1.9531,-0.79687 0.5938,0 1.0782,0.21875 0.5,0.20312 0.8593,0.5625 0.3594,0.35937 0.5782,0.85937 0.2187,0.48438 0.2187,1.04688 0,0.5 -0.1719,1 -0.1718,0.48437 -0.4375,0.95312 -0.25,0.46875 -0.5937,0.9375 z m 12.5921,-4.6875 v -24.09375 l -5.125,3.65625 -1.875,-2.76563 8.3125,-5.96875 h 2.3125 v 29.17188 z"
       fill-rule="nonzero"
       id="path37" />
    <path
       fill="#efefef"
       d="m 1553.7743,531.7244 h 144 v 144 h -144 z"
       fill-rule="evenodd"
       id="path38" />
    <path
       stroke="#000000"
       stroke-width="2"
       stroke-linejoin="round"
       stroke-linecap="butt"
       d="m 1553.7743,531.7244 h 144 v 144 h -144 z"
       fill-rule="evenodd"
       id="path39" />
    <path
       fill="#000000"
       d="m 1575.2362,626.6644 17.4219,-45.82813 h 6.1406 l 17.4063,45.82813 h -5.9532 l -12.6093,-34.23438 -1.7969,-4.9375 h -0.25 l -1.7969,4.9375 -12.6094,34.23438 z m 19.8438,-12.60938 v -5.125 h 10.5625 l 1.8593,5.125 z m -12.4063,0 1.8438,-5.125 h 10.5625 v 5.125 z"
       fill-rule="nonzero"
       id="path40" />
    <path
       fill="#000000"
       d="m 1630.8973,651.3519 q -2.6875,0 -4.8281,-1.17188 -2.125,-1.17187 -3.6563,-3.26562 -1.5312,-2.09375 -2.3437,-4.85938 -0.8125,-2.78125 -0.8125,-5.98437 0,-3.1875 0.8125,-5.95313 0.8125,-2.78125 2.3437,-4.875 1.5313,-2.09375 3.6563,-3.26562 2.1406,-1.17188 4.8281,-1.17188 2.6875,0 4.8438,1.17188 2.1562,1.17187 3.6875,3.26562 1.5312,2.09375 2.3437,4.875 0.8125,2.76563 0.8125,5.95313 0,3.20312 -0.8125,5.98437 -0.8125,2.76563 -2.3437,4.85938 -1.5313,2.09375 -3.6875,3.26562 -2.1563,1.17188 -4.8438,1.17188 z m 0,-3.45313 q 2.4688,0 4.2656,-1.57812 1.7969,-1.57813 2.75,-4.26563 0.9688,-2.6875 0.9688,-5.98437 0,-3.32813 -0.9688,-6.01563 -0.9531,-2.6875 -2.75,-4.23437 -1.7968,-1.5625 -4.2656,-1.5625 -2.4687,0 -4.25,1.5625 -1.7656,1.54687 -2.7344,4.23437 -0.9531,2.6875 -0.9531,6.01563 0,3.29687 0.9531,5.98437 0.9688,2.6875 2.7344,4.26563 1.7813,1.57812 4.25,1.57812 z m 17.7007,7.45313 -1.75,-1.14063 2.3125,-3.54687 q -0.6875,-0.125 -1.3594,-0.76563 -0.6562,-0.64062 -0.6562,-1.70312 0,-1.10938 0.7812,-1.89063 0.7969,-0.79687 1.9531,-0.79687 0.5938,0 1.0782,0.21875 0.5,0.20312 0.8593,0.5625 0.3594,0.35937 0.5782,0.85937 0.2187,0.48438 0.2187,1.04688 0,0.5 -0.1719,1 -0.1718,0.48437 -0.4375,0.95312 -0.25,0.46875 -0.5937,0.9375 z m 8.1522,-4.6875 v -3.625 q 0.125,-0.125 1.0156,-1.01563 0.9063,-0.90625 2.2188,-2.25 1.3281,-1.34375 2.7812,-2.8125 1.4532,-1.46875 2.7032,-2.76562 1.2656,-1.3125 1.9843,-2.125 1.3282,-1.4375 2.125,-2.48438 0.8125,-1.04687 1.2032,-2.04687 0.3906,-1.01563 0.3906,-2.32813 0,-1.23437 -0.6406,-2.35937 -0.6407,-1.14063 -1.8594,-1.85938 -1.2188,-0.73437 -3.0469,-0.73437 -1.7187,0 -2.8906,0.73437 -1.1719,0.71875 -1.8125,1.71875 -0.6406,1 -0.8438,1.8125 l -3.2812,-1.3125 q 0.25,-0.90625 0.9062,-1.98437 0.6719,-1.09375 1.75,-2.09375 1.0938,-1 2.6407,-1.65625 1.5625,-0.67188 3.6093,-0.67188 2.7813,0 4.8282,1.17188 2.0468,1.17187 3.1718,3.07812 1.125,1.89063 1.125,4.10938 0,1.92187 -0.7187,3.65625 -0.7188,1.71875 -1.7969,3.125 -1.0625,1.40625 -2.1719,2.46875 -0.5468,0.5625 -1.5312,1.54687 -0.9844,0.98438 -2.0938,2.10938 -1.1093,1.125 -2.1718,2.20312 -1.0625,1.0625 -1.8594,1.875 -0.7813,0.79688 -1.0938,1.0625 v 0 h 13.7813 v 3.45313 z"
       fill-rule="nonzero"
       id="path41" />
    <path
       fill="#efefef"
       d="m 1697.7743,531.7244 h 144 v 144 h -144 z"
       fill-rule="evenodd"
       id="path42" />
    <path
       stroke="#000000"
       stroke-width="2"
       stroke-linejoin="round"
       stroke-linecap="butt"
       d="m 1697.7743,531.7244 h 144 v 144 h -144 z"
       fill-rule="evenodd"
       id="path43" />
    <path
       fill="#000000"
       d="m 1719.0442,626.6644 17.4219,-45.82813 h 6.1406 l 17.4063,45.82813 h -5.9532 l -12.6093,-34.23438 -1.7969,-4.9375 h -0.25 l -1.7969,4.9375 -12.6094,34.23438 z m 19.8438,-12.60938 v -5.125 h 10.5625 l 1.8593,5.125 z m -12.4063,0 1.8438,-5.125 h 10.5625 v 5.125 z"
       fill-rule="nonzero"
       id="path44" />
    <path
       fill="#000000"
       d="m 1774.7053,651.3519 q -2.6875,0 -4.8281,-1.17188 -2.125,-1.17187 -3.6563,-3.26562 -1.5312,-2.09375 -2.3437,-4.85938 -0.8125,-2.78125 -0.8125,-5.98437 0,-3.1875 0.8125,-5.95313 0.8125,-2.78125 2.3437,-4.875 1.5313,-2.09375 3.6563,-3.26562 2.1406,-1.17188 4.8281,-1.17188 2.6875,0 4.8438,1.17188 2.1562,1.17187 3.6875,3.26562 1.5312,2.09375 2.3437,4.875 0.8125,2.76563 0.8125,5.95313 0,3.20312 -0.8125,5.98437 -0.8125,2.76563 -2.3437,4.85938 -1.5313,2.09375 -3.6875,3.26562 -2.1563,1.17188 -4.8438,1.17188 z m 0,-3.45313 q 2.4688,0 4.2656,-1.57812 1.7969,-1.57813 2.75,-4.26563 0.9688,-2.6875 0.9688,-5.98437 0,-3.32813 -0.9688,-6.01563 -0.9531,-2.6875 -2.75,-4.23437 -1.7968,-1.5625 -4.2656,-1.5625 -2.4687,0 -4.25,1.5625 -1.7656,1.54687 -2.7344,4.23437 -0.9531,2.6875 -0.9531,6.01563 0,3.29687 0.9531,5.98437 0.9688,2.6875 2.7344,4.26563 1.7813,1.57812 4.25,1.57812 z m 17.7008,7.45313 -1.75,-1.14063 2.3125,-3.54687 q -0.6875,-0.125 -1.3594,-0.76563 -0.6562,-0.64062 -0.6562,-1.70312 0,-1.10938 0.7812,-1.89063 0.7969,-0.79687 1.9532,-0.79687 0.5937,0 1.0781,0.21875 0.5,0.20312 0.8594,0.5625 0.3593,0.35937 0.5781,0.85937 0.2187,0.48438 0.2187,1.04688 0,0.5 -0.1718,1 -0.1719,0.48437 -0.4375,0.95312 -0.25,0.46875 -0.5938,0.9375 z m 17.371,-4 q -1.7188,0 -3.6406,-0.71875 -1.9063,-0.73438 -3.4844,-2.32813 -1.5781,-1.60937 -2.3594,-4.25 l 3.2969,-1.375 q 0.7187,2.48438 2.3437,3.85938 1.625,1.35937 3.8438,1.35937 1.6562,0 3.0312,-0.70312 1.3907,-0.71875 2.2188,-1.95313 0.8437,-1.23437 0.8437,-2.8125 0,-1.53125 -0.8593,-2.75 -0.8438,-1.21875 -2.25,-1.92187 -1.4063,-0.70313 -3.125,-0.70313 h -2.5157 v -3.375 h 2.2657 q 1.5312,0 2.7812,-0.59375 1.2656,-0.59375 1.9844,-1.70312 0.7344,-1.10938 0.7344,-2.59375 0,-2.09375 -1.5625,-3.3125 -1.5469,-1.21875 -3.7657,-1.21875 -1.625,0 -2.6875,0.625 -1.0625,0.60937 -1.6875,1.53125 -0.625,0.92187 -0.9218,1.8125 l -3.3282,-1.40625 q 0.4375,-1.28125 1.5,-2.65625 1.0625,-1.39063 2.8282,-2.375 1.7812,-0.98438 4.2968,-0.98438 2.5938,0 4.625,1.03125 2.0313,1.01563 3.2032,2.82813 1.1718,1.8125 1.1718,4.125 0,1.60937 -0.5781,2.85937 -0.5781,1.23438 -1.5,2.09375 -0.9062,0.84375 -1.9375,1.35938 v 0.15625 q 1.375,0.5625 2.5,1.5625 1.125,1 1.8125,2.39062 0.6875,1.39063 0.6875,3.17188 0,2.60937 -1.3281,4.64062 -1.3281,2.01563 -3.5469,3.17188 -2.2031,1.15625 -4.8906,1.15625 z"
       fill-rule="nonzero"
       id="path45" />
    <path
       fill="#efefef"
       d="m 1553.7743,675.7244 h 144 v 144 h -144 z"
       fill-rule="evenodd"
       id="path46" />
    <path
       stroke="#000000"
       stroke-width="2"
       stroke-linejoin="round"
       stroke-linecap="butt"
       d="m 1553.7743,675.7244 h 144 v 144 h -144 z"
       fill-rule="evenodd"
       id="path47" />
    <path
       fill="#000000"
       d="m 1580.8881,770.6644 17.4219,-45.82813 h 6.1406 l 17.4062,45.82813 h -5.9531 l -12.6094,-34.23438 -1.7968,-4.9375 h -0.25 l -1.7969,4.9375 -12.6094,34.23438 z m 19.8437,-12.60938 v -5.125 h 10.5625 l 1.8594,5.125 z m -12.4062,0 1.8437,-5.125 h 10.5625 v 5.125 z"
       fill-rule="nonzero"
       id="path48" />
    <path
       fill="#000000"
       d="m 1631.7368,794.6644 v -24.09375 l -5.125,3.65625 -1.875,-2.76563 8.3125,-5.96875 h 2.3125 v 29.17188 z m 11.2094,4.6875 -1.75,-1.14063 2.3125,-3.54687 q -0.6875,-0.125 -1.3594,-0.76563 -0.6563,-0.64062 -0.6563,-1.70312 0,-1.10938 0.7813,-1.89063 0.7969,-0.79687 1.9531,-0.79687 0.5938,0 1.0781,0.21875 0.5,0.20312 0.8594,0.5625 0.3594,0.35937 0.5781,0.85937 0.2188,0.48438 0.2188,1.04688 0,0.5 -0.1719,1 -0.1719,0.48437 -0.4375,0.95312 -0.25,0.46875 -0.5937,0.9375 z m 8.1521,-4.6875 v -3.625 q 0.125,-0.125 1.0156,-1.01563 0.9062,-0.90625 2.2187,-2.25 1.3282,-1.34375 2.7813,-2.8125 1.4531,-1.46875 2.7031,-2.76562 1.2656,-1.3125 1.9844,-2.125 1.3281,-1.4375 2.125,-2.48438 0.8125,-1.04687 1.2031,-2.04687 0.3906,-1.01563 0.3906,-2.32813 0,-1.23437 -0.6406,-2.35937 -0.6406,-1.14063 -1.8594,-1.85938 -1.2187,-0.73437 -3.0468,-0.73437 -1.7188,0 -2.8907,0.73437 -1.1718,0.71875 -1.8125,1.71875 -0.6406,1 -0.8437,1.8125 l -3.2813,-1.3125 q 0.25,-0.90625 0.9063,-1.98437 0.6719,-1.09375 1.75,-2.09375 1.0937,-1 2.6406,-1.65625 1.5625,-0.67188 3.6094,-0.67188 2.7812,0 4.8281,1.17188 2.0469,1.17187 3.1719,3.07812 1.125,1.89063 1.125,4.10938 0,1.92187 -0.7188,3.65625 -0.7187,1.71875 -1.7968,3.125 -1.0625,1.40625 -2.1719,2.46875 -0.5469,0.5625 -1.5313,1.54687 -0.9843,0.98438 -2.0937,2.10938 -1.1094,1.125 -2.1719,2.20312 -1.0625,1.0625 -1.8594,1.875 -0.7812,0.79688 -1.0937,1.0625 v 0 h 13.7812 v 3.45313 z"
       fill-rule="nonzero"
       id="path49" />
    <path
       fill="#efefef"
       d="m 1697.7743,675.7244 h 144 v 144 h -144 z"
       fill-rule="evenodd"
       id="path50" />
    <path
       stroke="#000000"
       stroke-width="2"
       stroke-linejoin="round"
       stroke-linecap="butt"
       d="m 1697.7743,675.7244 h 144 v 144 h -144 z"
       fill-rule="evenodd"
       id="path51" />
    <path
       fill="#000000"
       d="m 1724.6962,770.6644 17.4219,-45.82813 h 6.1406 l 17.4063,45.82813 h -5.9532 l -12.6093,-34.23438 -1.7969,-4.9375 h -0.25 l -1.7969,4.9375 -12.6094,34.23438 z m 19.8438,-12.60938 v -5.125 h 10.5625 l 1.8593,5.125 z m -12.4063,0 1.8438,-5.125 h 10.5625 v 5.125 z"
       fill-rule="nonzero"
       id="path52" />
    <path
       fill="#000000"
       d="m 1775.5448,794.6644 v -24.09375 l -5.125,3.65625 -1.875,-2.76563 8.3125,-5.96875 h 2.3125 v 29.17188 z m 11.2094,4.6875 -1.75,-1.14063 2.3125,-3.54687 q -0.6875,-0.125 -1.3594,-0.76563 -0.6563,-0.64062 -0.6563,-1.70312 0,-1.10938 0.7813,-1.89063 0.7969,-0.79687 1.9531,-0.79687 0.5938,0 1.0781,0.21875 0.5,0.20312 0.8594,0.5625 0.3594,0.35937 0.5781,0.85937 0.2188,0.48438 0.2188,1.04688 0,0.5 -0.1719,1 -0.1719,0.48437 -0.4375,0.95312 -0.25,0.46875 -0.5937,0.9375 z m 17.3709,-4 q -1.7187,0 -3.6406,-0.71875 -1.9063,-0.73438 -3.4844,-2.32813 -1.5781,-1.60937 -2.3594,-4.25 l 3.2969,-1.375 q 0.7188,2.48438 2.3438,3.85938 1.625,1.35937 3.8437,1.35937 1.6563,0 3.0313,-0.70312 1.3906,-0.71875 2.2187,-1.95313 0.8438,-1.23437 0.8438,-2.8125 0,-1.53125 -0.8594,-2.75 -0.8438,-1.21875 -2.25,-1.92187 -1.4063,-0.70313 -3.125,-0.70313 h -2.5156 v -3.375 h 2.2656 q 1.5312,0 2.7812,-0.59375 1.2657,-0.59375 1.9844,-1.70312 0.7344,-1.10938 0.7344,-2.59375 0,-2.09375 -1.5625,-3.3125 -1.5469,-1.21875 -3.7656,-1.21875 -1.625,0 -2.6875,0.625 -1.0625,0.60937 -1.6875,1.53125 -0.625,0.92187 -0.9219,1.8125 l -3.3281,-1.40625 q 0.4375,-1.28125 1.5,-2.65625 1.0625,-1.39063 2.8281,-2.375 1.7812,-0.98438 4.2969,-0.98438 2.5937,0 4.625,1.03125 2.0312,1.01563 3.2031,2.82813 1.1719,1.8125 1.1719,4.125 0,1.60937 -0.5782,2.85937 -0.5781,1.23438 -1.5,2.09375 -0.9062,0.84375 -1.9375,1.35938 v 0.15625 q 1.375,0.5625 2.5,1.5625 1.125,1 1.8125,2.39062 0.6875,1.39063 0.6875,3.17188 0,2.60937 -1.3281,4.64062 -1.3281,2.01563 -3.5469,3.17188 -2.2031,1.15625 -4.8906,1.15625 z"
       fill-rule="nonzero"
       id="path53" />
    <path
       fill="#efefef"
       d="m 1697.7743,819.7244 h 144 v 144 h -144 z"
       fill-rule="evenodd"
       id="path54" />
    <path
       stroke="#000000"
       stroke-width="2"
       stroke-linejoin="round"
       stroke-linecap="butt"
       d="m 1697.7743,819.7244 h 144 v 144 h -144 z"
       fill-rule="evenodd"
       id="path55" />
    <path
       fill="#000000"
       d="m 1721.5823,914.6644 17.4219,-45.82813 h 6.1406 l 17.4063,45.82813 h -5.9532 l -12.6093,-34.23438 -1.7969,-4.9375 h -0.25 l -1.7969,4.9375 -12.6094,34.23438 z m 19.8438,-12.60938 v -5.125 h 10.5625 l 1.8593,5.125 z m -12.4063,0 1.8438,-5.125 h 10.5625 v 5.125 z"
       fill-rule="nonzero"
       id="path56" />
    <path
       fill="#000000"
       d="m 1765.4309,938.6644 v -3.625 q 0.125,-0.125 1.0156,-1.01563 0.9063,-0.90625 2.2188,-2.25 1.3281,-1.34375 2.7812,-2.8125 1.4532,-1.46875 2.7032,-2.76562 1.2656,-1.3125 1.9843,-2.125 1.3282,-1.4375 2.125,-2.48438 0.8125,-1.04687 1.2032,-2.04687 0.3906,-1.01563 0.3906,-2.32813 0,-1.23437 -0.6406,-2.35937 -0.6407,-1.14063 -1.8594,-1.85938 -1.2188,-0.73437 -3.0469,-0.73437 -1.7187,0 -2.8906,0.73437 -1.1719,0.71875 -1.8125,1.71875 -0.6406,1 -0.8438,1.8125 l -3.2812,-1.3125 q 0.25,-0.90625 0.9062,-1.98437 0.6719,-1.09375 1.75,-2.09375 1.0938,-1 2.6407,-1.65625 1.5625,-0.67188 3.6093,-0.67188 2.7813,0 4.8282,1.17188 2.0468,1.17187 3.1718,3.07812 1.125,1.89063 1.125,4.10938 0,1.92187 -0.7187,3.65625 -0.7188,1.71875 -1.7969,3.125 -1.0625,1.40625 -2.1719,2.46875 -0.5468,0.5625 -1.5312,1.54687 -0.9844,0.98438 -2.0938,2.10938 -1.1093,1.125 -2.1718,2.20312 -1.0625,1.0625 -1.8594,1.875 -0.7813,0.79688 -1.0938,1.0625 v 0 h 13.7813 v 3.45313 z m 24.4371,4.6875 -1.75,-1.14063 2.3125,-3.54687 q -0.6875,-0.125 -1.3593,-0.76563 -0.6563,-0.64062 -0.6563,-1.70312 0,-1.10938 0.7813,-1.89063 0.7968,-0.79687 1.9531,-0.79687 0.5937,0 1.0781,0.21875 0.5,0.20312 0.8594,0.5625 0.3594,0.35937 0.5781,0.85937 0.2188,0.48438 0.2188,1.04688 0,0.5 -0.1719,1 -0.1719,0.48437 -0.4375,0.95312 -0.25,0.46875 -0.5938,0.9375 z m 17.371,-4 q -1.7187,0 -3.6406,-0.71875 -1.9063,-0.73438 -3.4844,-2.32813 -1.5781,-1.60937 -2.3594,-4.25 l 3.2969,-1.375 q 0.7188,2.48438 2.3438,3.85938 1.625,1.35937 3.8437,1.35937 1.6563,0 3.0313,-0.70312 1.3906,-0.71875 2.2187,-1.95313 0.8438,-1.23437 0.8438,-2.8125 0,-1.53125 -0.8594,-2.75 -0.8438,-1.21875 -2.25,-1.92187 -1.4063,-0.70313 -3.125,-0.70313 h -2.5156 v -3.375 h 2.2656 q 1.5312,0 2.7812,-0.59375 1.2657,-0.59375 1.9844,-1.70312 0.7344,-1.10938 0.7344,-2.59375 0,-2.09375 -1.5625,-3.3125 -1.5469,-1.21875 -3.7656,-1.21875 -1.625,0 -2.6875,0.625 -1.0625,0.60937 -1.6875,1.53125 -0.625,0.92187 -0.9219,1.8125 l -3.3281,-1.40625 q 0.4375,-1.28125 1.5,-2.65625 1.0625,-1.39063 2.8281,-2.375 1.7812,-0.98438 4.2969,-0.98438 2.5937,0 4.625,1.03125 2.0312,1.01563 3.2031,2.82813 1.1719,1.8125 1.1719,4.125 0,1.60937 -0.5782,2.85937 -0.5781,1.23438 -1.5,2.09375 -0.9062,0.84375 -1.9375,1.35938 v 0.15625 q 1.375,0.5625 2.5,1.5625 1.125,1 1.8125,2.39062 0.6875,1.39063 0.6875,3.17188 0,2.60937 -1.3281,4.64062 -1.3281,2.01563 -3.5469,3.17188 -2.2031,1.15625 -4.8906,1.15625 z"
       fill-rule="nonzero"
       id="path57" />
    <path
       fill="#efefef"
       d="m 1553.7743,963.7244 h 144 v 143.9999 h -144 z"
       fill-rule="evenodd"
       id="path58" />
    <path
       stroke="#000000"
       stroke-width="2"
       stroke-linejoin="round"
       stroke-linecap="butt"
       d="m 1553.7743,963.7244 h 144 v 143.9999 h -144 z"
       fill-rule="evenodd"
       id="path59" />
    <path
       fill="#000000"
       d="m 1577.9022,1058.6644 17.4219,-45.8281 h 6.1406 l 17.4063,45.8281 h -5.9532 l -12.6093,-34.2344 -1.7969,-4.9375 h -0.25 l -1.7969,4.9375 -12.6094,34.2344 z m 19.8438,-12.6094 v -5.125 h 10.5625 l 1.8593,5.125 z m -12.4063,0 1.8438,-5.125 h 10.5625 v 5.125 z"
       fill-rule="nonzero"
       id="path60" />
    <path
       fill="#000000"
       d="m 1630.9697,1083.3519 q -1.7187,0 -3.6406,-0.7188 -1.9063,-0.7343 -3.4844,-2.3281 -1.5781,-1.6094 -2.3594,-4.25 l 3.2969,-1.375 q 0.7188,2.4844 2.3438,3.8594 1.625,1.3594 3.8437,1.3594 1.6563,0 3.0313,-0.7032 1.3906,-0.7187 2.2187,-1.9531 0.8438,-1.2344 0.8438,-2.8125 0,-1.5312 -0.8594,-2.75 -0.8438,-1.2187 -2.25,-1.9219 -1.4063,-0.7031 -3.125,-0.7031 h -2.5156 v -3.375 h 2.2656 q 1.5312,0 2.7812,-0.5937 1.2657,-0.5938 1.9844,-1.7032 0.7344,-1.1093 0.7344,-2.5937 0,-2.0938 -1.5625,-3.3125 -1.5469,-1.2188 -3.7656,-1.2188 -1.625,0 -2.6875,0.625 -1.0625,0.6094 -1.6875,1.5313 -0.625,0.9219 -0.9219,1.8125 l -3.3281,-1.4063 q 0.4375,-1.2812 1.5,-2.6562 1.0625,-1.3906 2.8281,-2.375 1.7812,-0.9844 4.2969,-0.9844 2.5937,0 4.625,1.0313 2.0312,1.0156 3.2031,2.8281 1.1719,1.8125 1.1719,4.125 0,1.6094 -0.5782,2.8594 -0.5781,1.2343 -1.5,2.0937 -0.9062,0.8438 -1.9375,1.3594 v 0.1562 q 1.375,0.5625 2.5,1.5625 1.125,1 1.8125,2.3907 0.6875,1.3906 0.6875,3.1718 0,2.6094 -1.3281,4.6407 -1.3281,2.0156 -3.5469,3.1718 -2.2031,1.1563 -4.8906,1.1563 z m 14.9623,4 -1.75,-1.1406 2.3125,-3.5469 q -0.6875,-0.125 -1.3594,-0.7656 -0.6562,-0.6407 -0.6562,-1.7032 0,-1.1093 0.7812,-1.8906 0.7969,-0.7969 1.9531,-0.7969 0.5938,0 1.0782,0.2188 0.5,0.2031 0.8593,0.5625 0.3594,0.3594 0.5782,0.8594 0.2187,0.4843 0.2187,1.0468 0,0.5 -0.1719,1 -0.1718,0.4844 -0.4375,0.9532 -0.25,0.4687 -0.5937,0.9375 z m 8.1521,-4.6875 v -3.625 q 0.125,-0.125 1.0156,-1.0156 0.9063,-0.9063 2.2188,-2.25 1.3281,-1.3438 2.7812,-2.8125 1.4531,-1.4688 2.7031,-2.7657 1.2657,-1.3125 1.9844,-2.125 1.3281,-1.4375 2.125,-2.4843 0.8125,-1.0469 1.2031,-2.0469 0.3907,-1.0156 0.3907,-2.3281 0,-1.2344 -0.6407,-2.3594 -0.6406,-1.1406 -1.8593,-1.8594 -1.2188,-0.7344 -3.0469,-0.7344 -1.7188,0 -2.8906,0.7344 -1.1719,0.7188 -1.8125,1.7188 -0.6407,1 -0.8438,1.8125 l -3.2812,-1.3125 q 0.25,-0.9063 0.9062,-1.9844 0.6719,-1.0938 1.75,-2.0938 1.0938,-1 2.6406,-1.6562 1.5625,-0.6719 3.6094,-0.6719 2.7813,0 4.8281,1.1719 2.0469,1.1719 3.1719,3.0781 1.125,1.8906 1.125,4.1094 0,1.9219 -0.7187,3.6562 -0.7188,1.7188 -1.7969,3.125 -1.0625,1.4063 -2.1719,2.4688 -0.5469,0.5625 -1.5312,1.5469 -0.9844,0.9843 -2.0938,2.1093 -1.1094,1.125 -2.1719,2.2032 -1.0625,1.0625 -1.8593,1.875 -0.7813,0.7968 -1.0938,1.0625 v 0 h 13.7813 v 3.4531 z"
       fill-rule="nonzero"
       id="path61" />
    <path
       fill="#efefef"
       d="m 1409.7743,819.7244 h 144 v 144 h -144 z"
       fill-rule="evenodd"
       id="path62" />
    <path
       stroke="#000000"
       stroke-width="2"
       stroke-linejoin="round"
       stroke-linecap="butt"
       d="m 1409.7743,819.7244 h 144 v 144 h -144 z"
       fill-rule="evenodd"
       id="path63" />
    <path
       fill="#000000"
       d="m 1438.1681,914.6644 17.4219,-45.82813 h 6.1406 l 17.4063,45.82813 h -5.9532 l -12.6093,-34.23438 -1.7969,-4.9375 h -0.25 l -1.7969,4.9375 -12.6094,34.23438 z m 19.8438,-12.60938 v -5.125 h 10.5625 l 1.8593,5.125 z m -12.4063,0 1.8438,-5.125 h 10.5625 v 5.125 z"
       fill-rule="nonzero"
       id="path64" />
    <path
       fill="#000000"
       d="m 1482.0167,938.6644 v -3.625 q 0.125,-0.125 1.0156,-1.01563 0.9063,-0.90625 2.2188,-2.25 1.3281,-1.34375 2.7812,-2.8125 1.4532,-1.46875 2.7032,-2.76562 1.2656,-1.3125 1.9843,-2.125 1.3282,-1.4375 2.125,-2.48438 0.8125,-1.04687 1.2032,-2.04687 0.3906,-1.01563 0.3906,-2.32813 0,-1.23437 -0.6406,-2.35937 -0.6407,-1.14063 -1.8594,-1.85938 -1.2188,-0.73437 -3.0469,-0.73437 -1.7187,0 -2.8906,0.73437 -1.1719,0.71875 -1.8125,1.71875 -0.6406,1 -0.8438,1.8125 l -3.2812,-1.3125 q 0.25,-0.90625 0.9062,-1.98437 0.6719,-1.09375 1.75,-2.09375 1.0938,-1 2.6407,-1.65625 1.5625,-0.67188 3.6093,-0.67188 2.7813,0 4.8282,1.17188 2.0468,1.17187 3.1718,3.07812 1.125,1.89063 1.125,4.10938 0,1.92187 -0.7187,3.65625 -0.7188,1.71875 -1.7969,3.125 -1.0625,1.40625 -2.1719,2.46875 -0.5468,0.5625 -1.5312,1.54687 -0.9844,0.98438 -2.0938,2.10938 -1.1093,1.125 -2.1718,2.20312 -1.0625,1.0625 -1.8594,1.875 -0.7813,0.79688 -1.0938,1.0625 v 0 h 13.7813 v 3.45313 z m 24.4373,4.6875 -1.75,-1.14063 2.3125,-3.54687 q -0.6875,-0.125 -1.3594,-0.76563 -0.6563,-0.64062 -0.6563,-1.70312 0,-1.10938 0.7813,-1.89063 0.7969,-0.79687 1.9531,-0.79687 0.5938,0 1.0781,0.21875 0.5,0.20312 0.8594,0.5625 0.3594,0.35937 0.5781,0.85937 0.2188,0.48438 0.2188,1.04688 0,0.5 -0.1719,1 -0.1719,0.48437 -0.4375,0.95312 -0.25,0.46875 -0.5937,0.9375 z m 12.5921,-4.6875 v -24.09375 l -5.125,3.65625 -1.875,-2.76563 8.3125,-5.96875 h 2.3125 v 29.17188 z"
       fill-rule="nonzero"
       id="path65" />
    <path
       fill="#efefef"
       d="m 1265.7743,675.7244 h 144 v 144 h -144 z"
       fill-rule="evenodd"
       id="path66" />
    <path
       stroke="#000000"
       stroke-width="2"
       stroke-linejoin="round"
       stroke-linecap="butt"
       d="m 1265.7743,675.7244 h 144 v 144 h -144 z"
       fill-rule="evenodd"
       id="path67" />
    <path
       fill="#000000"
       d="m 1290.3501,770.6644 17.4219,-45.82813 h 6.1406 l 17.4063,45.82813 h -5.9532 l -12.6093,-34.23438 -1.7969,-4.9375 h -0.25 l -1.7969,4.9375 -12.6094,34.23438 z m 19.8438,-12.60938 v -5.125 h 10.5625 l 1.8593,5.125 z m -12.4063,0 1.8438,-5.125 h 10.5625 v 5.125 z"
       fill-rule="nonzero"
       id="path68" />
    <path
       fill="#000000"
       d="m 1341.1987,794.6644 v -24.09375 l -5.125,3.65625 -1.875,-2.76563 8.3125,-5.96875 h 2.3125 v 29.17188 z m 11.2094,4.6875 -1.75,-1.14063 2.3125,-3.54687 q -0.6875,-0.125 -1.3594,-0.76563 -0.6563,-0.64062 -0.6563,-1.70312 0,-1.10938 0.7813,-1.89063 0.7969,-0.79687 1.9531,-0.79687 0.5938,0 1.0781,0.21875 0.5,0.20312 0.8594,0.5625 0.3594,0.35937 0.5781,0.85937 0.2188,0.48438 0.2188,1.04688 0,0.5 -0.1719,1 -0.1719,0.48437 -0.4375,0.95312 -0.25,0.46875 -0.5937,0.9375 z m 19.9647,-4 q -2.6875,0 -4.8282,-1.17188 -2.125,-1.17187 -3.6562,-3.26562 -1.5313,-2.09375 -2.3438,-4.85938 -0.8125,-2.78125 -0.8125,-5.98437 0,-3.1875 0.8125,-5.95313 0.8125,-2.78125 2.3438,-4.875 1.5312,-2.09375 3.6562,-3.26562 2.1407,-1.17188 4.8282,-1.17188 2.6875,0 4.8437,1.17188 2.1563,1.17187 3.6875,3.26562 1.5313,2.09375 2.3438,4.875 0.8125,2.76563 0.8125,5.95313 0,3.20312 -0.8125,5.98437 -0.8125,2.76563 -2.3438,4.85938 -1.5312,2.09375 -3.6875,3.26562 -2.1562,1.17188 -4.8437,1.17188 z m 0,-3.45313 q 2.4687,0 4.2656,-1.57812 1.7969,-1.57813 2.75,-4.26563 0.9687,-2.6875 0.9687,-5.98437 0,-3.32813 -0.9687,-6.01563 -0.9531,-2.6875 -2.75,-4.23437 -1.7969,-1.5625 -4.2656,-1.5625 -2.4688,0 -4.25,1.5625 -1.7657,1.54687 -2.7344,4.23437 -0.9531,2.6875 -0.9531,6.01563 0,3.29687 0.9531,5.98437 0.9687,2.6875 2.7344,4.26563 1.7812,1.57812 4.25,1.57812 z"
       fill-rule="nonzero"
       id="path69" />
    <path
       fill="#efefef"
       d="m 1265.7743,819.7244 h 144 v 144 h -144 z"
       fill-rule="evenodd"
       id="path70" />
    <path
       stroke="#000000"
       stroke-width="2"
       stroke-linejoin="round"
       stroke-linecap="butt"
       d="m 1265.7743,819.7244 h 144 v 144 h -144 z"
       fill-rule="evenodd"
       id="path71" />
    <path
       fill="#000000"
       d="m 1287.2362,914.6644 17.4219,-45.82813 h 6.1406 l 17.4063,45.82813 h -5.9532 l -12.6093,-34.23438 -1.7969,-4.9375 h -0.25 l -1.7969,4.9375 -12.6094,34.23438 z m 19.8438,-12.60938 v -5.125 h 10.5625 l 1.8593,5.125 z m -12.4063,0 1.8438,-5.125 h 10.5625 v 5.125 z"
       fill-rule="nonzero"
       id="path72" />
    <path
       fill="#000000"
       d="m 1331.0848,938.6644 v -3.625 q 0.125,-0.125 1.0156,-1.01563 0.9063,-0.90625 2.2188,-2.25 1.3281,-1.34375 2.7812,-2.8125 1.4532,-1.46875 2.7032,-2.76562 1.2656,-1.3125 1.9843,-2.125 1.3282,-1.4375 2.125,-2.48438 0.8125,-1.04687 1.2032,-2.04687 0.3906,-1.01563 0.3906,-2.32813 0,-1.23437 -0.6406,-2.35937 -0.6407,-1.14063 -1.8594,-1.85938 -1.2188,-0.73437 -3.0469,-0.73437 -1.7187,0 -2.8906,0.73437 -1.1719,0.71875 -1.8125,1.71875 -0.6406,1 -0.8438,1.8125 l -3.2812,-1.3125 q 0.25,-0.90625 0.9062,-1.98437 0.6719,-1.09375 1.75,-2.09375 1.0938,-1 2.6407,-1.65625 1.5625,-0.67188 3.6093,-0.67188 2.7813,0 4.8282,1.17188 2.0468,1.17187 3.1718,3.07812 1.125,1.89063 1.125,4.10938 0,1.92187 -0.7187,3.65625 -0.7188,1.71875 -1.7969,3.125 -1.0625,1.40625 -2.1719,2.46875 -0.5468,0.5625 -1.5312,1.54687 -0.9844,0.98438 -2.0938,2.10938 -1.1093,1.125 -2.1718,2.20312 -1.0625,1.0625 -1.8594,1.875 -0.7813,0.79688 -1.0938,1.0625 v 0 h 13.7813 v 3.45313 z m 24.4371,4.6875 -1.75,-1.14063 2.3125,-3.54687 q -0.6875,-0.125 -1.3593,-0.76563 -0.6563,-0.64062 -0.6563,-1.70312 0,-1.10938 0.7813,-1.89063 0.7968,-0.79687 1.9531,-0.79687 0.5937,0 1.0781,0.21875 0.5,0.20312 0.8594,0.5625 0.3594,0.35937 0.5781,0.85937 0.2188,0.48438 0.2188,1.04688 0,0.5 -0.1719,1 -0.1719,0.48437 -0.4375,0.95312 -0.25,0.46875 -0.5938,0.9375 z m 19.9648,-4 q -2.6875,0 -4.8282,-1.17188 -2.125,-1.17187 -3.6562,-3.26562 -1.5313,-2.09375 -2.3438,-4.85938 -0.8125,-2.78125 -0.8125,-5.98437 0,-3.1875 0.8125,-5.95313 0.8125,-2.78125 2.3438,-4.875 1.5312,-2.09375 3.6562,-3.26562 2.1407,-1.17188 4.8282,-1.17188 2.6875,0 4.8437,1.17188 2.1563,1.17187 3.6875,3.26562 1.5313,2.09375 2.3438,4.875 0.8125,2.76563 0.8125,5.95313 0,3.20312 -0.8125,5.98437 -0.8125,2.76563 -2.3438,4.85938 -1.5312,2.09375 -3.6875,3.26562 -2.1562,1.17188 -4.8437,1.17188 z m 0,-3.45313 q 2.4687,0 4.2656,-1.57812 1.7969,-1.57813 2.75,-4.26563 0.9687,-2.6875 0.9687,-5.98437 0,-3.32813 -0.9687,-6.01563 -0.9531,-2.6875 -2.75,-4.23437 -1.7969,-1.5625 -4.2656,-1.5625 -2.4688,0 -4.25,1.5625 -1.7657,1.54687 -2.7344,4.23437 -0.9531,2.6875 -0.9531,6.01563 0,3.29687 0.9531,5.98437 0.9687,2.6875 2.7344,4.26563 1.7812,1.57812 4.25,1.57812 z"
       fill-rule="nonzero"
       id="path73" />
    <path
       fill="#efefef"
       d="m 1409.7743,963.7244 h 144 v 143.9999 h -144 z"
       fill-rule="evenodd"
       id="path74" />
    <path
       stroke="#000000"
       stroke-width="2"
       stroke-linejoin="round"
       stroke-linecap="butt"
       d="m 1409.7743,963.7244 h 144 v 143.9999 h -144 z"
       fill-rule="evenodd"
       id="path75" />
    <path
       fill="#000000"
       d="m 1438.2961,1058.6644 17.4219,-45.8281 h 6.1406 l 17.4063,45.8281 h -5.9532 l -12.6093,-34.2344 -1.7969,-4.9375 h -0.25 l -1.7969,4.9375 -12.6094,34.2344 z m 19.8438,-12.6094 v -5.125 h 10.5625 l 1.8593,5.125 z m -12.4063,0 1.8438,-5.125 h 10.5625 v 5.125 z"
       fill-rule="nonzero"
       id="path76" />
    <path
       fill="#000000"
       d="m 1491.3635,1083.3519 q -1.7187,0 -3.6406,-0.7188 -1.9063,-0.7343 -3.4844,-2.3281 -1.5781,-1.6094 -2.3594,-4.25 l 3.2969,-1.375 q 0.7188,2.4844 2.3438,3.8594 1.625,1.3594 3.8437,1.3594 1.6563,0 3.0313,-0.7032 1.3906,-0.7187 2.2187,-1.9531 0.8438,-1.2344 0.8438,-2.8125 0,-1.5312 -0.8594,-2.75 -0.8438,-1.2187 -2.25,-1.9219 -1.4063,-0.7031 -3.125,-0.7031 h -2.5156 v -3.375 h 2.2656 q 1.5312,0 2.7812,-0.5937 1.2657,-0.5938 1.9844,-1.7032 0.7344,-1.1093 0.7344,-2.5937 0,-2.0938 -1.5625,-3.3125 -1.5469,-1.2188 -3.7656,-1.2188 -1.625,0 -2.6875,0.625 -1.0625,0.6094 -1.6875,1.5313 -0.625,0.9219 -0.9219,1.8125 l -3.3281,-1.4063 q 0.4375,-1.2812 1.5,-2.6562 1.0625,-1.3906 2.8281,-2.375 1.7812,-0.9844 4.2969,-0.9844 2.5937,0 4.625,1.0313 2.0312,1.0156 3.2031,2.8281 1.1719,1.8125 1.1719,4.125 0,1.6094 -0.5782,2.8594 -0.5781,1.2343 -1.5,2.0937 -0.9062,0.8438 -1.9375,1.3594 v 0.1562 q 1.375,0.5625 2.5,1.5625 1.125,1 1.8125,2.3907 0.6875,1.3906 0.6875,3.1718 0,2.6094 -1.3281,4.6407 -1.3281,2.0156 -3.5469,3.1718 -2.2031,1.1563 -4.8906,1.1563 z m 14.9624,4 -1.75,-1.1406 2.3125,-3.5469 q -0.6875,-0.125 -1.3594,-0.7656 -0.6562,-0.6407 -0.6562,-1.7032 0,-1.1093 0.7812,-1.8906 0.7969,-0.7969 1.9532,-0.7969 0.5937,0 1.0781,0.2188 0.5,0.2031 0.8594,0.5625 0.3593,0.3594 0.5781,0.8594 0.2187,0.4843 0.2187,1.0468 0,0.5 -0.1718,1 -0.1719,0.4844 -0.4375,0.9532 -0.25,0.4687 -0.5938,0.9375 z m 12.5922,-4.6875 v -24.0938 l -5.125,3.6563 -1.875,-2.7656 8.3125,-5.9688 h 2.3125 v 29.1719 z"
       fill-rule="nonzero"
       id="path77" />
    <path
       fill="#efefef"
       d="m 1265.7743,963.7244 h 144 v 143.9999 h -144 z"
       fill-rule="evenodd"
       id="path78" />
    <path
       stroke="#000000"
       stroke-width="2"
       stroke-linejoin="round"
       stroke-linecap="butt"
       d="m 1265.7743,963.7244 h 144 v 143.9999 h -144 z"
       fill-rule="evenodd"
       id="path79" />
    <path
       fill="#000000"
       d="m 1287.3643,1058.6644 17.4219,-45.8281 h 6.1406 l 17.4063,45.8281 h -5.9532 l -12.6093,-34.2344 -1.7969,-4.9375 h -0.25 l -1.7969,4.9375 -12.6094,34.2344 z m 19.8438,-12.6094 v -5.125 h 10.5625 l 1.8593,5.125 z m -12.4063,0 1.8438,-5.125 h 10.5625 v 5.125 z"
       fill-rule="nonzero"
       id="path80" />
    <path
       fill="#000000"
       d="m 1340.4316,1083.3519 q -1.7188,0 -3.6406,-0.7188 -1.9063,-0.7343 -3.4844,-2.3281 -1.5781,-1.6094 -2.3594,-4.25 l 3.2969,-1.375 q 0.7187,2.4844 2.3437,3.8594 1.625,1.3594 3.8438,1.3594 1.6562,0 3.0312,-0.7032 1.3907,-0.7187 2.2188,-1.9531 0.8437,-1.2344 0.8437,-2.8125 0,-1.5312 -0.8593,-2.75 -0.8438,-1.2187 -2.25,-1.9219 -1.4063,-0.7031 -3.125,-0.7031 h -2.5157 v -3.375 h 2.2657 q 1.5312,0 2.7812,-0.5937 1.2656,-0.5938 1.9844,-1.7032 0.7344,-1.1093 0.7344,-2.5937 0,-2.0938 -1.5625,-3.3125 -1.5469,-1.2188 -3.7657,-1.2188 -1.625,0 -2.6875,0.625 -1.0625,0.6094 -1.6875,1.5313 -0.625,0.9219 -0.9218,1.8125 l -3.3282,-1.4063 q 0.4375,-1.2812 1.5,-2.6562 1.0625,-1.3906 2.8282,-2.375 1.7812,-0.9844 4.2968,-0.9844 2.5938,0 4.625,1.0313 2.0313,1.0156 3.2032,2.8281 1.1718,1.8125 1.1718,4.125 0,1.6094 -0.5781,2.8594 -0.5781,1.2343 -1.5,2.0937 -0.9062,0.8438 -1.9375,1.3594 v 0.1562 q 1.375,0.5625 2.5,1.5625 1.125,1 1.8125,2.3907 0.6875,1.3906 0.6875,3.1718 0,2.6094 -1.3281,4.6407 -1.3281,2.0156 -3.5469,3.1718 -2.2031,1.1563 -4.8906,1.1563 z m 14.9623,4 -1.75,-1.1406 2.3125,-3.5469 q -0.6875,-0.125 -1.3594,-0.7656 -0.6562,-0.6407 -0.6562,-1.7032 0,-1.1093 0.7812,-1.8906 0.7969,-0.7969 1.9531,-0.7969 0.5938,0 1.0782,0.2188 0.5,0.2031 0.8593,0.5625 0.3594,0.3594 0.5782,0.8594 0.2187,0.4843 0.2187,1.0468 0,0.5 -0.1719,1 -0.1718,0.4844 -0.4375,0.9532 -0.25,0.4687 -0.5937,0.9375 z m 19.9647,-4 q -2.6875,0 -4.8281,-1.1719 -2.125,-1.1719 -3.6563,-3.2656 -1.5312,-2.0938 -2.3437,-4.8594 -0.8125,-2.7812 -0.8125,-5.9844 0,-3.1875 0.8125,-5.9531 0.8125,-2.7812 2.3437,-4.875 1.5313,-2.0937 3.6563,-3.2656 2.1406,-1.1719 4.8281,-1.1719 2.6875,0 4.8438,1.1719 2.1562,1.1719 3.6875,3.2656 1.5312,2.0938 2.3437,4.875 0.8125,2.7656 0.8125,5.9531 0,3.2032 -0.8125,5.9844 -0.8125,2.7656 -2.3437,4.8594 -1.5313,2.0937 -3.6875,3.2656 -2.1563,1.1719 -4.8438,1.1719 z m 0,-3.4531 q 2.4688,0 4.2656,-1.5782 1.7969,-1.5781 2.75,-4.2656 0.9688,-2.6875 0.9688,-5.9844 0,-3.3281 -0.9688,-6.0156 -0.9531,-2.6875 -2.75,-4.2344 -1.7968,-1.5625 -4.2656,-1.5625 -2.4687,0 -4.25,1.5625 -1.7656,1.5469 -2.7344,4.2344 -0.9531,2.6875 -0.9531,6.0156 0,3.2969 0.9531,5.9844 0.9688,2.6875 2.7344,4.2656 1.7813,1.5782 4.25,1.5782 z"
       fill-rule="nonzero"
       id="path81" />
    <path
       fill="#d2e9ff"
       d="m 1970.5748,531.7244 h 95.9999 v 144 h -95.9999 z"
       fill-rule="evenodd"
       id="path82" />
    <path
       stroke="#000000"
       stroke-width="2"
       stroke-linejoin="round"
       stroke-linecap="butt"
       d="m 1970.5748,531.7244 h 95.9999 v 144 h -95.9999 z"
       fill-rule="evenodd"
       id="path83" />
    <path
       fill="#000000"
       d="m 1990.0624,626.6644 13.0625,-18.75 h 0.5781 l 9.2813,-13.89063 h 6.3906 l -12.7969,17.98438 h -0.3906 l -9.7812,14.65625 z m 0.2656,-32.64063 h 6.1407 l 10.1093,14.53125 h 0.25 l 12.75,18.10938 h -6.3437 l -9.7344,-14.46875 h -0.4375 z"
       fill-rule="nonzero"
       id="path84" />
    <path
       fill="#000000"
       d="m 2034.1365,651.3519 q -2.6875,0 -4.8281,-1.17188 -2.125,-1.17187 -3.6563,-3.26562 -1.5312,-2.09375 -2.3437,-4.85938 -0.8125,-2.78125 -0.8125,-5.98437 0,-3.1875 0.8125,-5.95313 0.8125,-2.78125 2.3437,-4.875 1.5313,-2.09375 3.6563,-3.26562 2.1406,-1.17188 4.8281,-1.17188 2.6875,0 4.8438,1.17188 2.1562,1.17187 3.6875,3.26562 1.5312,2.09375 2.3437,4.875 0.8125,2.76563 0.8125,5.95313 0,3.20312 -0.8125,5.98437 -0.8125,2.76563 -2.3437,4.85938 -1.5313,2.09375 -3.6875,3.26562 -2.1563,1.17188 -4.8438,1.17188 z m 0,-3.45313 q 2.4688,0 4.2656,-1.57812 1.7969,-1.57813 2.75,-4.26563 0.9688,-2.6875 0.9688,-5.98437 0,-3.32813 -0.9688,-6.01563 -0.9531,-2.6875 -2.75,-4.23437 -1.7968,-1.5625 -4.2656,-1.5625 -2.4687,0 -4.25,1.5625 -1.7656,1.54687 -2.7344,4.23437 -0.9531,2.6875 -0.9531,6.01563 0,3.29687 0.9531,5.98437 0.9688,2.6875 2.7344,4.26563 1.7813,1.57812 4.25,1.57812 z"
       fill-rule="nonzero"
       id="path85" />
    <path
       fill="#fbe4cf"
       d="m 1970.5748,675.7244 h 95.9999 v 144 h -95.9999 z"
       fill-rule="evenodd"
       id="path86" />
    <path
       stroke="#000000"
       stroke-width="2"
       stroke-linejoin="round"
       stroke-linecap="butt"
       d="m 1970.5748,675.7244 h 95.9999 v 144 h -95.9999 z"
       fill-rule="evenodd"
       id="path87" />
    <path
       fill="#000000"
       d="m 1995.7142,770.6644 13.0625,-18.75 h 0.5781 l 9.2813,-13.89063 h 6.3906 l -12.7969,17.98438 h -0.3906 l -9.7813,14.65625 z m 0.2656,-32.64063 h 6.1406 l 10.1094,14.53125 h 0.25 l 12.75,18.10938 h -6.3437 l -9.7344,-14.46875 h -0.4375 z"
       fill-rule="nonzero"
       id="path88" />
    <path
       fill="#000000"
       d="m 2034.976,794.6644 v -24.09375 l -5.125,3.65625 -1.875,-2.76563 8.3125,-5.96875 h 2.3125 v 29.17188 z"
       fill-rule="nonzero"
       id="path89" />
    <path
       fill="#d6fecf"
       d="m 1970.5748,819.7244 h 95.9999 v 144 h -95.9999 z"
       fill-rule="evenodd"
       id="path90" />
    <path
       stroke="#000000"
       stroke-width="2"
       stroke-linejoin="round"
       stroke-linecap="butt"
       d="m 1970.5748,819.7244 h 95.9999 v 144 h -95.9999 z"
       fill-rule="evenodd"
       id="path91" />
    <path
       fill="#000000"
       d="m 1992.6003,914.6644 13.0625,-18.75 h 0.5781 l 9.2813,-13.89063 h 6.3906 l -12.7969,17.98438 h -0.3906 l -9.7812,14.65625 z m 0.2656,-32.64063 h 6.1407 l 10.1093,14.53125 h 0.25 l 12.75,18.10938 h -6.3437 l -9.7344,-14.46875 h -0.4375 z"
       fill-rule="nonzero"
       id="path92" />
    <path
       fill="#000000"
       d="m 2024.862,938.6644 v -3.625 q 0.125,-0.125 1.0156,-1.01563 0.9063,-0.90625 2.2188,-2.25 1.3281,-1.34375 2.7812,-2.8125 1.4532,-1.46875 2.7032,-2.76562 1.2656,-1.3125 1.9843,-2.125 1.3282,-1.4375 2.125,-2.48438 0.8125,-1.04687 1.2032,-2.04687 0.3906,-1.01563 0.3906,-2.32813 0,-1.23437 -0.6406,-2.35937 -0.6407,-1.14063 -1.8594,-1.85938 -1.2188,-0.73437 -3.0469,-0.73437 -1.7187,0 -2.8906,0.73437 -1.1719,0.71875 -1.8125,1.71875 -0.6406,1 -0.8438,1.8125 l -3.2812,-1.3125 q 0.25,-0.90625 0.9062,-1.98437 0.6719,-1.09375 1.75,-2.09375 1.0938,-1 2.6407,-1.65625 1.5625,-0.67188 3.6093,-0.67188 2.7813,0 4.8282,1.17188 2.0468,1.17187 3.1718,3.07812 1.125,1.89063 1.125,4.10938 0,1.92187 -0.7187,3.65625 -0.7188,1.71875 -1.7969,3.125 -1.0625,1.40625 -2.1719,2.46875 -0.5468,0.5625 -1.5312,1.54687 -0.9844,0.98438 -2.0938,2.10938 -1.1093,1.125 -2.1718,2.20312 -1.0625,1.0625 -1.8594,1.875 -0.7813,0.79688 -1.0938,1.0625 v 0 h 13.7813 v 3.45313 z"
       fill-rule="nonzero"
       id="path93" />
    <path
       fill="#f7cecd"
       d="m 1970.5748,963.7244 h 95.9999 v 143.9999 h -95.9999 z"
       fill-rule="evenodd"
       id="path94" />
    <path
       stroke="#000000"
       stroke-width="2"
       stroke-linejoin="round"
       stroke-linecap="butt"
       d="m 1970.5748,963.7244 h 95.9999 v 143.9999 h -95.9999 z"
       fill-rule="evenodd"
       id="path95" />
    <path
       fill="#000000"
       d="m 1992.4084,1058.6644 13.0625,-18.75 h 0.5781 l 9.2813,-13.8906 h 6.3906 l -12.7969,17.9843 h -0.3906 l -9.7812,14.6563 z m 0.2656,-32.6406 h 6.1407 l 10.1093,14.5312 h 0.25 l 12.75,18.1094 h -6.3437 l -9.7344,-14.4688 h -0.4375 z"
       fill-rule="nonzero"
       id="path96" />
    <path
       fill="#000000"
       d="m 2033.8889,1083.3519 q -1.7187,0 -3.6406,-0.7188 -1.9063,-0.7343 -3.4844,-2.3281 -1.5781,-1.6094 -2.3594,-4.25 l 3.2969,-1.375 q 0.7188,2.4844 2.3438,3.8594 1.625,1.3594 3.8437,1.3594 1.6563,0 3.0313,-0.7032 1.3906,-0.7187 2.2187,-1.9531 0.8438,-1.2344 0.8438,-2.8125 0,-1.5312 -0.8594,-2.75 -0.8438,-1.2187 -2.25,-1.9219 -1.4063,-0.7031 -3.125,-0.7031 h -2.5156 v -3.375 h 2.2656 q 1.5312,0 2.7812,-0.5937 1.2657,-0.5938 1.9844,-1.7032 0.7344,-1.1093 0.7344,-2.5937 0,-2.0938 -1.5625,-3.3125 -1.5469,-1.2188 -3.7656,-1.2188 -1.625,0 -2.6875,0.625 -1.0625,0.6094 -1.6875,1.5313 -0.625,0.9219 -0.9219,1.8125 l -3.3281,-1.4063 q 0.4375,-1.2812 1.5,-2.6562 1.0625,-1.3906 2.8281,-2.375 1.7812,-0.9844 4.2969,-0.9844 2.5937,0 4.625,1.0313 2.0312,1.0156 3.2031,2.8281 1.1719,1.8125 1.1719,4.125 0,1.6094 -0.5782,2.8594 -0.5781,1.2343 -1.5,2.0937 -0.9062,0.8438 -1.9375,1.3594 v 0.1562 q 1.375,0.5625 2.5,1.5625 1.125,1 1.8125,2.3907 0.6875,1.3906 0.6875,3.1718 0,2.6094 -1.3281,4.6407 -1.3281,2.0156 -3.5469,3.1718 -2.2031,1.1563 -4.8906,1.1563 z"
       fill-rule="nonzero"
       id="path97" />
    <path
       fill="#000000"
       fill-opacity="0"
       d="m 1863.0095,768.6116 h 86.3307 v 96.94488 h -86.3307 z"
       fill-rule="evenodd"
       id="path98" />
    <path
       fill="#4285f4"
       d="m 1906.2677,844.3016 q -5.5625,0 -10.2031,-1.92188 -4.6406,-1.92187 -8.0313,-5.3125 -3.3906,-3.39062 -5.25,-7.875 -1.8593,-4.48437 -1.8593,-9.59375 0,-5.125 1.8281,-9.5625 1.8281,-4.45312 5.2187,-7.875 3.3907,-3.42187 8.0313,-5.34375 4.6406,-1.92187 10.2656,-1.92187 5.5781,0 10.2031,1.92187 4.6407,1.92188 7.9688,5.3125 3.3281,3.39063 5.1562,7.8125 1.8282,4.40625 1.8282,9.39063 0,3.84375 -1.2188,6.92187 -1.2187,3.0625 -3.5312,4.85938 -2.2969,1.79687 -5.5625,1.79687 -2.3594,0 -4.4375,-1.21875 -2.0782,-1.21875 -3.1094,-3.39062 -0.9531,1.53125 -2.2656,2.5625 -1.3125,1.01562 -2.9532,1.53125 -1.625,0.51562 -3.6093,0.51562 -3.4532,0 -6.2813,-1.65625 -2.8125,-1.67187 -4.4844,-4.60937 -1.6562,-2.95313 -1.6562,-6.79688 0,-3.84375 1.6875,-6.78125 1.7031,-2.9375 4.4531,-4.59375 2.7656,-1.67187 6.0313,-1.67187 1.6562,0 2.9687,0.45312 1.3125,0.4375 2.2969,1.17188 1,0.73437 1.6406,1.70312 h 0.5156 v -2.4375 h 6.2657 v 15.75 q 0,1.59375 0.8593,2.75 0.875,1.14063 2.3438,1.14063 1.0156,0 1.7812,-0.59375 0.7813,-0.60938 1.25,-1.73438 0.4844,-1.125 0.7032,-2.59375 0.2343,-1.46875 0.2343,-3.14062 0,-3.64063 -1.4062,-7 -1.4063,-3.35938 -3.9375,-5.95313 -2.5313,-2.59375 -6.0156,-4.09375 -3.4844,-1.5 -7.7188,-1.5 -4.0312,0 -7.4531,1.34375 -3.4219,1.34375 -6.0156,3.875 -2.5938,2.51563 -4.0313,5.96875 -1.4375,3.45313 -1.4375,7.6875 0,4.21875 1.5313,7.6875 1.5312,3.45313 4.1875,5.98438 2.6562,2.51562 6.0781,3.85937 3.4375,1.34375 7.1406,1.34375 2.4375,0 4.5781,-0.53125 2.1407,-0.54687 3.9375,-1.57812 l 2.1719,5.5625 q -2.2969,1.09375 -5.0937,1.73437 -2.7813,0.64063 -5.5938,0.64063 z m -1.0781,-17.60938 q 1.7187,0 3.1875,-0.79687 1.4844,-0.79688 2.375,-2.32813 0.8906,-1.54687 0.8906,-3.71875 0,-2.17187 -0.8906,-3.70312 -0.8906,-1.54688 -2.375,-2.34375 -1.4688,-0.79688 -3.1875,-0.79688 -1.6719,0 -3.1719,0.82813 -1.5,0.82812 -2.4062,2.34375 -0.8907,1.5 -0.8907,3.67187 0,2.10938 0.8907,3.65625 0.9062,1.53125 2.4062,2.35938 1.5,0.82812 3.1719,0.82812 z"
       fill-rule="nonzero"
       id="path99" />
    <path
       fill="#000000"
       fill-opacity="0"
       d="m 2098.608,768.6116 h 86.3308 v 96.94488 h -86.3308 z"
       fill-rule="evenodd"
       id="path100" />
    <path
       fill="#4285f4"
       d="m 2126.7646,819.1453 v -7.42187 h 30.0156 v 7.42187 z m 0,12.79688 v -7.42188 h 30.0156 v 7.42188 z"
       fill-rule="nonzero"
       id="path101" />
    <path
       fill="#d2e9ff"
       d="m 2195.3752,529.084 h 96 v 144 h -96 z"
       fill-rule="evenodd"
       id="path102" />
    <path
       stroke="#000000"
       stroke-width="2"
       stroke-linejoin="round"
       stroke-linecap="butt"
       d="m 2195.3752,529.084 h 96 v 144 h -96 z"
       fill-rule="evenodd"
       id="path103" />
    <path
       fill="#000000"
       d="m 2226.2578,636.18024 q -0.1875,0.45313 -0.4531,1 -0.25,0.54688 -0.3125,0.67188 h -5.6407 q 0.3907,-0.84375 0.8282,-1.82813 0.4531,-0.98437 1.0937,-2.40625 0.3906,-0.82812 0.7031,-1.53125 0.3282,-0.70312 0.7344,-1.57812 0.4219,-0.85938 1,-2.125 l 4.4844,-9.73438 1.2187,-3.01562 9.8438,-24.25 h 5.8906 l -16.8906,38.98437 q -0.2656,0.5625 -0.8125,1.8125 -0.5313,1.25 -1.0156,2.4375 -0.4844,1.1875 -0.6719,1.5625 z m 1.2187,-13.5 -13.8281,-31.29687 h 5.8906 l 10.2344,24.25 h 0.5156 z"
       fill-rule="nonzero"
       id="path104" />
    <path
       fill="#000000"
       d="m 2260.089,648.7115 q -2.6875,0 -4.8281,-1.17188 -2.125,-1.17187 -3.6563,-3.26562 -1.5312,-2.09375 -2.3437,-4.85938 -0.8125,-2.78125 -0.8125,-5.98437 0,-3.1875 0.8125,-5.95313 0.8125,-2.78125 2.3437,-4.875 1.5313,-2.09375 3.6563,-3.26562 2.1406,-1.17188 4.8281,-1.17188 2.6875,0 4.8438,1.17188 2.1562,1.17187 3.6875,3.26562 1.5312,2.09375 2.3437,4.875 0.8125,2.76563 0.8125,5.95313 0,3.20312 -0.8125,5.98437 -0.8125,2.76563 -2.3437,4.85938 -1.5313,2.09375 -3.6875,3.26562 -2.1563,1.17188 -4.8438,1.17188 z m 0,-3.45313 q 2.4688,0 4.2656,-1.57812 1.7969,-1.57813 2.75,-4.26563 0.9688,-2.6875 0.9688,-5.98437 0,-3.32813 -0.9688,-6.01563 -0.9531,-2.6875 -2.75,-4.23437 -1.7968,-1.5625 -4.2656,-1.5625 -2.4687,0 -4.25,1.5625 -1.7656,1.54687 -2.7344,4.23437 -0.9531,2.6875 -0.9531,6.01563 0,3.29687 0.9531,5.98437 0.9688,2.6875 2.7344,4.26563 1.7813,1.57812 4.25,1.57812 z"
       fill-rule="nonzero"
       id="path105" />
    <path
       fill="#fbe4cf"
       d="m 2195.3752,673.084 h 96 v 144 h -96 z"
       fill-rule="evenodd"
       id="path106" />
    <path
       stroke="#000000"
       stroke-width="2"
       stroke-linejoin="round"
       stroke-linecap="butt"
       d="m 2195.3752,673.084 h 96 v 144 h -96 z"
       fill-rule="evenodd"
       id="path107" />
    <path
       fill="#000000"
       d="m 2231.9097,780.18024 q -0.1875,0.45313 -0.4531,1 -0.25,0.54688 -0.3125,0.67188 h -5.6406 q 0.3906,-0.84375 0.8281,-1.82813 0.4531,-0.98437 1.0937,-2.40625 0.3907,-0.82812 0.7032,-1.53125 0.3281,-0.70312 0.7343,-1.57812 0.4219,-0.85938 1,-2.125 l 4.4844,-9.73438 1.2188,-3.01562 9.8437,-24.25 h 5.8906 l -16.8906,38.98437 q -0.2656,0.5625 -0.8125,1.8125 -0.5312,1.25 -1.0156,2.4375 -0.4844,1.1875 -0.6719,1.5625 z m 1.2188,-13.5 -13.8282,-31.29687 h 5.8907 l 10.2343,24.25 h 0.5157 z"
       fill-rule="nonzero"
       id="path108" />
    <path
       fill="#000000"
       d="m 2260.9285,792.024 v -24.09375 l -5.125,3.65625 -1.875,-2.76563 8.3125,-5.96875 h 2.3125 V 792.024 Z"
       fill-rule="nonzero"
       id="path109" />
    <path
       fill="#d6fecf"
       d="m 2195.3752,817.084 h 96 v 144 h -96 z"
       fill-rule="evenodd"
       id="path110" />
    <path
       stroke="#000000"
       stroke-width="2"
       stroke-linejoin="round"
       stroke-linecap="butt"
       d="m 2195.3752,817.084 h 96 v 144 h -96 z"
       fill-rule="evenodd"
       id="path111" />
    <path
       fill="#000000"
       d="m 2228.796,924.18024 q -0.1875,0.45313 -0.4531,1 -0.25,0.54688 -0.3125,0.67188 h -5.6407 q 0.3907,-0.84375 0.8282,-1.82813 0.4531,-0.98437 1.0937,-2.40625 0.3906,-0.82812 0.7031,-1.53125 0.3282,-0.70312 0.7344,-1.57812 0.4219,-0.85938 1,-2.125 l 4.4844,-9.73438 1.2187,-3.01562 9.8438,-24.25 h 5.8906 l -16.8906,38.98437 q -0.2656,0.5625 -0.8125,1.8125 -0.5313,1.25 -1.0156,2.4375 -0.4844,1.1875 -0.6719,1.5625 z m 1.2187,-13.5 -13.8281,-31.29687 h 5.8906 l 10.2344,24.25 h 0.5156 z"
       fill-rule="nonzero"
       id="path112" />
    <path
       fill="#000000"
       d="m 2250.8147,936.024 v -3.625 q 0.125,-0.125 1.0156,-1.01563 0.9063,-0.90625 2.2188,-2.25 1.3281,-1.34375 2.7812,-2.8125 1.4532,-1.46875 2.7032,-2.76562 1.2656,-1.3125 1.9843,-2.125 1.3282,-1.4375 2.125,-2.48438 0.8125,-1.04687 1.2032,-2.04687 0.3906,-1.01563 0.3906,-2.32813 0,-1.23437 -0.6406,-2.35937 -0.6407,-1.14063 -1.8594,-1.85938 -1.2188,-0.73437 -3.0469,-0.73437 -1.7187,0 -2.8906,0.73437 -1.1719,0.71875 -1.8125,1.71875 -0.6406,1 -0.8438,1.8125 l -3.2812,-1.3125 q 0.25,-0.90625 0.9062,-1.98437 0.6719,-1.09375 1.75,-2.09375 1.0938,-1 2.6407,-1.65625 1.5625,-0.67188 3.6093,-0.67188 2.7813,0 4.8282,1.17188 2.0468,1.17187 3.1718,3.07812 1.125,1.89063 1.125,4.10938 0,1.92187 -0.7187,3.65625 -0.7188,1.71875 -1.7969,3.125 -1.0625,1.40625 -2.1719,2.46875 -0.5468,0.5625 -1.5312,1.54687 -0.9844,0.98438 -2.0938,2.10938 -1.1093,1.125 -2.1718,2.20312 -1.0625,1.0625 -1.8594,1.875 -0.7813,0.79688 -1.0938,1.0625 v 0 h 13.7813 v 3.45313 z"
       fill-rule="nonzero"
       id="path113" />
    <path
       fill="#f7cecd"
       d="m 2195.3752,961.084 h 96 v 144 h -96 z"
       fill-rule="evenodd"
       id="path114" />
    <path
       stroke="#000000"
       stroke-width="2"
       stroke-linejoin="round"
       stroke-linecap="butt"
       d="m 2195.3752,961.084 h 96 v 144 h -96 z"
       fill-rule="evenodd"
       id="path115" />
    <path
       fill="#000000"
       d="m 2228.6038,1068.1803 q -0.1875,0.4531 -0.4531,1 -0.25,0.5469 -0.3125,0.6719 h -5.6407 q 0.3907,-0.8438 0.8282,-1.8281 0.4531,-0.9844 1.0937,-2.4063 0.3906,-0.8281 0.7031,-1.5312 0.3282,-0.7032 0.7344,-1.5782 0.4219,-0.8593 1,-2.125 l 4.4844,-9.7343 1.2187,-3.0157 9.8438,-24.25 h 5.8906 l -16.8906,38.9844 q -0.2656,0.5625 -0.8125,1.8125 -0.5313,1.25 -1.0156,2.4375 -0.4844,1.1875 -0.6719,1.5625 z m 1.2187,-13.5 -13.8281,-31.2969 h 5.8906 l 10.2344,24.25 h 0.5156 z"
       fill-rule="nonzero"
       id="path116" />
    <path
       fill="#000000"
       d="m 2259.8413,1080.7115 q -1.7187,0 -3.6406,-0.7188 -1.9063,-0.7343 -3.4844,-2.3281 -1.5781,-1.6094 -2.3594,-4.25 l 3.2969,-1.375 q 0.7188,2.4844 2.3438,3.8594 1.625,1.3594 3.8437,1.3594 1.6563,0 3.0313,-0.7032 1.3906,-0.7187 2.2187,-1.9531 0.8438,-1.2344 0.8438,-2.8125 0,-1.5312 -0.8594,-2.75 -0.8438,-1.2187 -2.25,-1.9219 -1.4063,-0.7031 -3.125,-0.7031 h -2.5156 v -3.375 h 2.2656 q 1.5312,0 2.7812,-0.5937 1.2657,-0.5938 1.9844,-1.7032 0.7344,-1.1093 0.7344,-2.5937 0,-2.0938 -1.5625,-3.3125 -1.5469,-1.2188 -3.7656,-1.2188 -1.625,0 -2.6875,0.625 -1.0625,0.6094 -1.6875,1.5313 -0.625,0.9219 -0.9219,1.8125 l -3.3281,-1.4063 q 0.4375,-1.2812 1.5,-2.6562 1.0625,-1.3906 2.8281,-2.375 1.7812,-0.9844 4.2969,-0.9844 2.5937,0 4.625,1.0313 2.0312,1.0156 3.2031,2.8281 1.1719,1.8125 1.1719,4.125 0,1.6094 -0.5782,2.8594 -0.5781,1.2343 -1.5,2.0937 -0.9062,0.8438 -1.9375,1.3594 v 0.1562 q 1.375,0.5625 2.5,1.5625 1.125,1 1.8125,2.3907 0.6875,1.3906 0.6875,3.1718 0,2.6094 -1.3281,4.6407 -1.3281,2.0156 -3.5469,3.1718 -2.2031,1.1563 -4.8906,1.1563 z"
       fill-rule="nonzero"
       id="path117" />
    <path
       fill="#000000"
       fill-opacity="0"
       d="m 2381.9421,564.937 h 179.6221 v 77.57483 h -179.6221 z"
       fill-rule="evenodd"
       id="path118" />
    <path
       fill="#4285f4"
       d="m 2422.242,620.78265 q -3.6562,0 -6.8906,-1.34375 -3.2344,-1.34375 -5.6875,-3.78125 -2.4531,-2.45313 -3.8438,-5.71875 -1.3906,-3.26563 -1.3906,-7.10938 0,-3.84375 1.3906,-7.09375 1.3907,-3.26562 3.8438,-5.71875 2.4531,-2.45312 5.6875,-3.79687 3.2344,-1.34375 6.8906,-1.34375 3.7969,0 7.125,1.34375 3.3438,1.34375 5.5,3.79687 l -2.875,2.875 q -1.1094,-1.34375 -2.6562,-2.25 -1.5313,-0.90625 -3.3125,-1.39062 -1.7657,-0.48438 -3.7344,-0.48438 -2.7344,0 -5.2344,0.98438 -2.5,0.98437 -4.3906,2.84375 -1.8906,1.84375 -3,4.4375 -1.1094,2.57812 -1.1094,5.79687 0,3.21875 1.125,5.8125 1.1406,2.59375 3.0625,4.4375 1.9219,1.84375 4.3906,2.82813 2.4688,0.98437 5.1563,0.98437 2.2969,0 4.4844,-0.64062 2.1875,-0.65625 3.9375,-2.01563 1.75,-1.375 2.9062,-3.53125 1.1563,-2.15625 1.3906,-5.1875 h -12.6718 v -3.78125 h 16.5156 q 0.094,0.625 0.1562,1.20313 0.078,0.5625 0.078,1.23437 v 0 0 0.0469 q 0,3.70312 -1.25,6.75 -1.25,3.04687 -3.5,5.23437 -2.25,2.1875 -5.3282,3.39063 -3.0781,1.1875 -6.7656,1.1875 z m 21.7471,-0.76563 v -34.375 h 11.5625 q 2.875,0 5.3281,1.29688 2.4531,1.29687 3.9062,3.57812 1.4688,2.28125 1.4688,5.3125 0,2.96875 -1.4688,5.28125 -1.4531,2.29688 -3.9062,3.59375 -2.4531,1.29688 -5.3281,1.29688 h -9.4063 v -3.89063 h 9.5 q 2.0156,0 3.4531,-0.9375 1.4532,-0.9375 2.2344,-2.375 0.7969,-1.4375 0.7969,-2.96875 0,-1.54687 -0.7969,-2.98437 -0.7812,-1.4375 -2.2344,-2.375 -1.4375,-0.9375 -3.4531,-0.9375 h -7.5781 v 30.48437 z m 39.4448,0.76563 q -3.7344,0 -6.5781,-1.70313 -2.8282,-1.70312 -4.4375,-4.75 -1.5938,-3.04687 -1.5938,-7.03125 v -21.65625 h 4.0781 v 21.84375 q 0,2.6875 0.9532,4.82813 0.9687,2.14062 2.8593,3.35937 1.8907,1.21875 4.7188,1.21875 2.8437,0 4.75,-1.21875 1.9219,-1.21875 2.875,-3.35937 0.9687,-2.14063 0.9687,-4.82813 v -21.84375 h 4.0782 v 21.65625 q 0,3.98438 -1.5157,7.03125 -1.5,3.04688 -4.3437,4.75 -2.8281,1.70313 -6.8125,1.70313 z m 42.2927,0 q -3.0156,0 -5.4219,-1.3125 -2.4062,-1.32813 -4.1406,-3.67188 -1.7187,-2.35937 -2.625,-5.46875 -0.9062,-3.125 -0.9062,-6.73437 0,-3.59375 0.9062,-6.70313 0.9063,-3.125 2.625,-5.46875 1.7344,-2.35937 4.1406,-3.67187 2.4063,-1.32813 5.4219,-1.32813 3.0313,0 5.4531,1.32813 2.4219,1.3125 4.1407,3.67187 1.7343,2.34375 2.6406,5.46875 0.9219,3.10938 0.9219,6.70313 0,3.60937 -0.9219,6.73437 -0.9063,3.10938 -2.6406,5.46875 -1.7188,2.34375 -4.1407,3.67188 -2.4218,1.3125 -5.4531,1.3125 z m 0,-3.89063 q 2.7813,0 4.7969,-1.76562 2.0156,-1.78125 3.0937,-4.79688 1.0938,-3.03125 1.0938,-6.73437 0,-3.73438 -1.0938,-6.75 -1.0781,-3.03125 -3.0937,-4.78125 -2.0156,-1.76563 -4.7969,-1.76563 -2.7812,0 -4.7812,1.76563 -1.9844,1.75 -3.0625,4.78125 -1.0782,3.01562 -1.0782,6.75 0,3.70312 1.0782,6.73437 1.0781,3.01563 3.0625,4.79688 2,1.76562 4.7812,1.76562 z"
       fill-rule="nonzero"
       id="path119" />
    <path
       fill="#000000"
       fill-opacity="0"
       d="m 2381.9421,708.937 h 179.6221 v 77.57483 h -179.6221 z"
       fill-rule="evenodd"
       id="path120" />
    <path
       fill="#ff9900"
       d="m 2428.6018,764.78265 q -3.6562,0 -6.8906,-1.34375 -3.2344,-1.34375 -5.6875,-3.78125 -2.4531,-2.45313 -3.8438,-5.71875 -1.3906,-3.26563 -1.3906,-7.10938 0,-3.84375 1.3906,-7.09375 1.3907,-3.26562 3.8438,-5.71875 2.4531,-2.45312 5.6875,-3.79687 3.2344,-1.34375 6.8906,-1.34375 3.7969,0 7.125,1.34375 3.3438,1.34375 5.5,3.79687 l -2.875,2.875 q -1.1094,-1.34375 -2.6562,-2.25 -1.5313,-0.90625 -3.3125,-1.39062 -1.7657,-0.48438 -3.7344,-0.48438 -2.7344,0 -5.2344,0.98438 -2.5,0.98437 -4.3906,2.84375 -1.8906,1.84375 -3,4.4375 -1.1094,2.57812 -1.1094,5.79687 0,3.21875 1.125,5.8125 1.1406,2.59375 3.0625,4.4375 1.9219,1.84375 4.3906,2.82813 2.4688,0.98437 5.1563,0.98437 2.2969,0 4.4844,-0.64062 2.1875,-0.65625 3.9375,-2.01563 1.75,-1.375 2.9062,-3.53125 1.1563,-2.15625 1.3906,-5.1875 h -12.6718 v -3.78125 h 16.5156 q 0.094,0.625 0.1562,1.20313 0.078,0.5625 0.078,1.23437 v 0 0 0.0469 q 0,3.70312 -1.25,6.75 -1.25,3.04687 -3.5,5.23437 -2.25,2.1875 -5.3282,3.39063 -3.0781,1.1875 -6.7656,1.1875 z m 21.7471,-0.76563 v -34.375 h 11.5625 q 2.875,0 5.3281,1.29688 2.4531,1.29687 3.9062,3.57812 1.4688,2.28125 1.4688,5.3125 0,2.96875 -1.4688,5.28125 -1.4531,2.29688 -3.9062,3.59375 -2.4531,1.29688 -5.3281,1.29688 h -9.4063 v -3.89063 h 9.5 q 2.0156,0 3.4531,-0.9375 1.4532,-0.9375 2.2344,-2.375 0.7969,-1.4375 0.7969,-2.96875 0,-1.54687 -0.7969,-2.98437 -0.7812,-1.4375 -2.2344,-2.375 -1.4375,-0.9375 -3.4531,-0.9375 h -7.5781 v 30.48437 z m 39.445,0.76563 q -3.7343,0 -6.5781,-1.70313 -2.8281,-1.70312 -4.4375,-4.75 -1.5937,-3.04687 -1.5937,-7.03125 v -21.65625 h 4.0781 v 21.84375 q 0,2.6875 0.9531,4.82813 0.9688,2.14062 2.8594,3.35937 1.8906,1.21875 4.7187,1.21875 2.8438,0 4.75,-1.21875 1.9219,-1.21875 2.875,-3.35937 0.9688,-2.14063 0.9688,-4.82813 v -21.84375 h 4.0781 v 21.65625 q 0,3.98438 -1.5156,7.03125 -1.5,3.04688 -4.3438,4.75 -2.8281,1.70313 -6.8125,1.70313 z m 36.8706,-0.76563 v -27.125 l -5.7656,4.14063 -2.1094,-3.125 9.3594,-6.71875 h 2.5938 v 32.82812 z"
       fill-rule="nonzero"
       id="path121" />
    <path
       fill="#000000"
       fill-opacity="0"
       d="m 2381.9421,852.937 h 179.6221 v 77.57483 h -179.6221 z"
       fill-rule="evenodd"
       id="path122" />
    <path
       fill="#0f9d58"
       d="m 2425.098,908.78265 q -3.6562,0 -6.8906,-1.34375 -3.2344,-1.34375 -5.6875,-3.78125 -2.4531,-2.45313 -3.8438,-5.71875 -1.3906,-3.26563 -1.3906,-7.10938 0,-3.84375 1.3906,-7.09375 1.3907,-3.26562 3.8438,-5.71875 2.4531,-2.45312 5.6875,-3.79687 3.2344,-1.34375 6.8906,-1.34375 3.7969,0 7.125,1.34375 3.3438,1.34375 5.5,3.79687 l -2.875,2.875 q -1.1094,-1.34375 -2.6562,-2.25 -1.5313,-0.90625 -3.3125,-1.39062 -1.7657,-0.48438 -3.7344,-0.48438 -2.7344,0 -5.2344,0.98438 -2.5,0.98437 -4.3906,2.84375 -1.8906,1.84375 -3,4.4375 -1.1094,2.57812 -1.1094,5.79687 0,3.21875 1.125,5.8125 1.1406,2.59375 3.0625,4.4375 1.9219,1.84375 4.3906,2.82813 2.4688,0.98437 5.1563,0.98437 2.2969,0 4.4844,-0.64062 2.1875,-0.65625 3.9375,-2.01563 1.75,-1.375 2.9062,-3.53125 1.1563,-2.15625 1.3906,-5.1875 h -12.6718 v -3.78125 h 16.5156 q 0.094,0.625 0.1562,1.20313 0.078,0.5625 0.078,1.23437 v 0 0 0.0469 q 0,3.70312 -1.25,6.75 -1.25,3.04687 -3.5,5.23437 -2.25,2.1875 -5.3282,3.39063 -3.0781,1.1875 -6.7656,1.1875 z m 21.7471,-0.76563 v -34.375 h 11.5625 q 2.875,0 5.3281,1.29688 2.4531,1.29687 3.9062,3.57812 1.4688,2.28125 1.4688,5.3125 0,2.96875 -1.4688,5.28125 -1.4531,2.29688 -3.9062,3.59375 -2.4531,1.29688 -5.3281,1.29688 h -9.4063 v -3.89063 h 9.5 q 2.0156,0 3.4531,-0.9375 1.4532,-0.9375 2.2344,-2.375 0.7969,-1.4375 0.7969,-2.96875 0,-1.54687 -0.7969,-2.98437 -0.7812,-1.4375 -2.2344,-2.375 -1.4375,-0.9375 -3.4531,-0.9375 h -7.5781 v 30.48437 z m 39.4448,0.76563 q -3.7344,0 -6.5781,-1.70313 -2.8282,-1.70312 -4.4375,-4.75 -1.5938,-3.04687 -1.5938,-7.03125 v -21.65625 h 4.0781 v 21.84375 q 0,2.6875 0.9532,4.82813 0.9687,2.14062 2.8593,3.35937 1.8907,1.21875 4.7188,1.21875 2.8437,0 4.75,-1.21875 1.9219,-1.21875 2.875,-3.35937 0.9687,-2.14063 0.9687,-4.82813 v -21.84375 h 4.0782 v 21.65625 q 0,3.98438 -1.5157,7.03125 -1.5,3.04688 -4.3437,4.75 -2.8281,1.70313 -6.8125,1.70313 z m 28.9958,-0.76563 v -4.07812 q 0.1407,-0.14063 1.1407,-1.14063 1.0156,-1.01562 2.5,-2.53125 1.5,-1.51562 3.125,-3.17187 1.6406,-1.65625 3.0468,-3.10938 1.4219,-1.46875 2.2344,-2.39062 1.5,-1.625 2.4063,-2.79688 0.9062,-1.1875 1.3437,-2.3125 0.4375,-1.125 0.4375,-2.60937 0,-1.39063 -0.7344,-2.65625 -0.7187,-1.28125 -2.0937,-2.09375 -1.3594,-0.82813 -3.4219,-0.82813 -1.9219,0 -3.25,0.82813 -1.3125,0.8125 -2.0312,1.9375 -0.7188,1.125 -0.9532,2.04687 l -3.7031,-1.5 q 0.2969,-1 1.0313,-2.21875 0.75,-1.23437 1.9687,-2.35937 1.2344,-1.125 2.9844,-1.85938 1.75,-0.75 4.0469,-0.75 3.125,0 5.4218,1.32813 2.3125,1.3125 3.5782,3.45312 1.2812,2.125 1.2812,4.625 0,2.15625 -0.8281,4.10938 -0.8125,1.9375 -2.0156,3.53125 -1.1875,1.57812 -2.4375,2.76562 -0.625,0.625 -1.7344,1.73438 -1.0938,1.10937 -2.3438,2.375 -1.25,1.26562 -2.4531,2.46875 -1.2031,1.20312 -2.0937,2.125 -0.875,0.90625 -1.2188,1.1875 v 0 h 15.5 v 3.89062 z"
       fill-rule="nonzero"
       id="path123" />
    <path
       fill="#000000"
       fill-opacity="0"
       d="m 2381.9421,996.937 h 179.6221 v 77.5748 h -179.6221 z"
       fill-rule="evenodd"
       id="path124" />
    <path
       fill="#db4437"
       d="m 2424.8818,1052.7826 q -3.6562,0 -6.8906,-1.3437 -3.2344,-1.3438 -5.6875,-3.7813 -2.4531,-2.4531 -3.8438,-5.7187 -1.3906,-3.2657 -1.3906,-7.1094 0,-3.8438 1.3906,-7.0938 1.3907,-3.2656 3.8438,-5.7187 2.4531,-2.4531 5.6875,-3.7968 3.2344,-1.3438 6.8906,-1.3438 3.7969,0 7.125,1.3438 3.3438,1.3437 5.5,3.7968 l -2.875,2.875 q -1.1094,-1.3437 -2.6562,-2.25 -1.5313,-0.9062 -3.3125,-1.3906 -1.7657,-0.4844 -3.7344,-0.4844 -2.7344,0 -5.2344,0.9844 -2.5,0.9844 -4.3906,2.8437 -1.8906,1.8438 -3,4.4375 -1.1094,2.5781 -1.1094,5.7969 0,3.2187 1.125,5.8125 1.1406,2.5937 3.0625,4.4375 1.9219,1.8437 4.3906,2.8281 2.4688,0.9844 5.1563,0.9844 2.2969,0 4.4844,-0.6406 2.1875,-0.6563 3.9375,-2.0157 1.75,-1.375 2.9062,-3.5312 1.1563,-2.1563 1.3906,-5.1875 h -12.6718 v -3.7813 h 16.5156 q 0.094,0.625 0.1562,1.2032 0.078,0.5625 0.078,1.2343 v 0 0 0.047 q 0,3.7031 -1.25,6.75 -1.25,3.0469 -3.5,5.2344 -2.25,2.1875 -5.3282,3.3906 -3.0781,1.1875 -6.7656,1.1875 z m 21.7471,-0.7656 v -34.375 h 11.5625 q 2.875,0 5.3281,1.2969 2.4531,1.2969 3.9062,3.5781 1.4688,2.2812 1.4688,5.3125 0,2.9687 -1.4688,5.2812 -1.4531,2.2969 -3.9062,3.5938 -2.4531,1.2968 -5.3281,1.2968 h -9.4063 v -3.8906 h 9.5 q 2.0156,0 3.4531,-0.9375 1.4532,-0.9375 2.2344,-2.375 0.7969,-1.4375 0.7969,-2.9687 0,-1.5469 -0.7969,-2.9844 -0.7812,-1.4374 -2.2344,-2.3749 -1.4375,-0.9375 -3.4531,-0.9375 h -7.5781 v 30.4843 z m 39.445,0.7656 q -3.7343,0 -6.5781,-1.7031 -2.8281,-1.7031 -4.4375,-4.75 -1.5937,-3.0469 -1.5937,-7.0313 v -21.6562 h 4.0781 v 21.8437 q 0,2.6875 0.9531,4.8282 0.9688,2.1406 2.8594,3.3593 1.8906,1.2188 4.7187,1.2188 2.8438,0 4.75,-1.2188 1.9219,-1.2187 2.875,-3.3593 0.9688,-2.1407 0.9688,-4.8282 v -21.8437 h 4.0781 v 21.6562 q 0,3.9844 -1.5156,7.0313 -1.5,3.0469 -4.3438,4.75 -2.8281,1.7031 -6.8125,1.7031 z m 39.3706,0 q -1.9218,0 -4.0937,-0.8125 -2.1563,-0.8125 -3.9375,-2.6094 -1.7656,-1.8125 -2.625,-4.7812 l 3.6875,-1.5313 q 0.8281,2.7813 2.6406,4.3125 1.8281,1.5313 4.3281,1.5313 1.875,0 3.4219,-0.7813 1.5625,-0.7968 2.5,-2.1875 0.9375,-1.3906 0.9375,-3.1718 0,-1.7188 -0.9687,-3.0938 -0.9532,-1.375 -2.5469,-2.1562 -1.5781,-0.7969 -3.4844,-0.7969 h -2.8437 v -3.7969 h 2.5468 q 1.7344,0 3.1407,-0.6719 1.4218,-0.6718 2.2343,-1.9062 0.8125,-1.25 0.8125,-2.9375 0,-2.3438 -1.75,-3.7187 -1.75,-1.375 -4.25,-1.375 -1.8125,0 -3.0156,0.7031 -1.2031,0.7031 -1.9062,1.7343 -0.6875,1.0313 -1.0157,2.0313 l -3.75,-1.5781 q 0.4844,-1.4375 1.6719,-3 1.2031,-1.5625 3.1875,-2.6562 2,-1.1094 4.8281,-1.1094 2.9375,0 5.2188,1.1562 2.2812,1.1407 3.5937,3.1875 1.3282,2.0312 1.3282,4.625 0,1.8281 -0.6563,3.2187 -0.6406,1.3907 -1.6719,2.3594 -1.0312,0.9531 -2.1875,1.5313 v 0.1875 q 1.5313,0.625 2.7969,1.75 1.2813,1.125 2.0469,2.6875 0.7656,1.5625 0.7656,3.5781 0,2.9219 -1.4844,5.2031 -1.4843,2.2813 -3.9843,3.5781 -2.5,1.2969 -5.5157,1.2969 z"
       fill-rule="nonzero"
       id="path125" />
    <path
       fill="#db4437"
       d="m 1070.2074,781.084 h 94.3622 v -36 l 72,72 -72,72 v -36 h -94.3622 z"
       fill-rule="evenodd"
       id="path126" />
    <path
       stroke="#a7a7a7"
       stroke-width="1"
       stroke-linejoin="round"
       stroke-linecap="butt"
       d="m 1070.2074,781.084 h 94.3622 v -36 l 72,72 -72,72 v -36 h -94.3622 z"
       fill-rule="evenodd"
       id="path127" />
    <path
       fill="#4285f4"
       d="m 280.8233,449.72037 q -4.89062,0 -9.17187,-1.84375 -4.26563,-1.84375 -7.4375,-5.48438 -3.15625,-3.64062 -4.75,-8.90625 l 10.15625,-4 q 1.125,4.23438 3.92187,7.125 2.79688,2.875 7.35938,2.875 2.23437,0 4.23437,-0.76562 2,-0.76563 3.23438,-2.28125 1.25,-1.51563 1.25,-3.76563 0,-2.15625 -1.04688,-3.71875 -1.03125,-1.5625 -3.46875,-2.95312 -2.4375,-1.40625 -6.60937,-2.92188 l -3.51563,-1.28125 q -2.3125,-0.875 -4.6875,-2.1875 -2.35937,-1.32812 -4.3125,-3.28125 -1.95312,-1.96875 -3.15625,-4.53125 -1.20312,-2.5625 -1.20312,-5.84375 0,-4.46875 2.3125,-8.10937 2.32812,-3.64063 6.48437,-5.79688 4.15625,-2.17187 9.6875,-2.17187 5.75,0 9.51563,1.96875 3.76562,1.95312 5.875,4.75 2.125,2.79687 3,5.4375 l -9.51563,4 q -0.48437,-1.59375 -1.60937,-3.03125 -1.10938,-1.4375 -2.875,-2.3125 -1.75,-0.89063 -4.23438,-0.89063 -2.32812,0 -4.17187,0.76563 -1.82813,0.75 -2.875,2.07812 -1.03125,1.3125 -1.03125,3.07813 0,2.5625 2.1875,4.40625 2.20312,1.82812 7.09375,3.4375 l 3.59375,1.1875 q 3.04687,1.04687 5.79687,2.45312 2.76563,1.39063 4.92188,3.46875 2.15625,2.07813 3.39062,4.96875 1.25,2.875 1.25,6.875 0,4.40625 -1.76562,7.6875 -1.75,3.28125 -4.64063,5.35938 -2.875,2.07812 -6.35937,3.10937 -3.46875,1.04688 -6.82813,1.04688 z m 29.04181,-1.28125 v -40.79688 h 10.46875 v 40.79688 z m 5.28125,-45.28125 q -2.8125,0 -4.8125,-2 -2,-2 -2,-4.79688 0,-2.79687 2,-4.75 2,-1.96875 4.8125,-1.96875 2.79688,0 4.75,1.96875 1.96875,1.95313 1.96875,4.75 0,2.79688 -1.96875,4.79688 -1.95312,2 -4.75,2 z m 16.07813,45.28125 v -40.79688 h 9.82812 v 5.10938 h 0.64063 q 1.84375,-2.95313 5.20312,-4.67188 3.35938,-1.71875 7.28125,-1.71875 7.51563,0 11.28125,4.5625 3.76563,4.5625 3.76563,12.15625 v 25.35938 h -10.48438 v -24.07813 q 0,-4 -2.04687,-6.10937 -2.03125,-2.125 -5.54688,-2.125 -2.89062,0 -5.01562,1.5625 -2.10938,1.54687 -3.28125,4.15625 -1.15625,2.59375 -1.15625,5.79687 v 20.79688 z m 66.31682,18.5625 q -5.51562,0 -9.5625,-1.71875 -4.04687,-1.71875 -6.60937,-4.4375 -2.54688,-2.71875 -3.59375,-5.6875 l 9.84375,-4 q 1.28125,2.96875 3.875,4.76562 2.60937,1.79688 6.04687,1.79688 4.875,0 7.82813,-3 2.96875,-3 2.96875,-8.6875 v -3.1875 h -0.64063 q -1.92187,2.71875 -5.04687,4.15625 -3.10938,1.4375 -7.10938,1.4375 -4.96875,0 -9.32812,-2.5625 -4.35938,-2.5625 -7.04688,-7.28125 -2.67187,-4.71875 -2.67187,-11.20313 0,-6.54687 2.67187,-11.21875 2.6875,-4.6875 7.04688,-7.25 4.35937,-2.5625 9.32812,-2.5625 4,0 7.10938,1.40625 3.125,1.39063 5.04687,4.1875 h 0.64063 v -4.3125 h 10.07812 v 38 q 0,6.5625 -2.5625,11.35938 -2.54687,4.79687 -7.23437,7.39062 -4.6875,2.60938 -11.07813,2.60938 z m 0.15625,-28.07813 q 2.79688,0 5.23438,-1.3125 2.45312,-1.32812 3.92187,-3.92187 1.48438,-2.60938 1.48438,-6.29688 0,-3.82812 -1.48438,-6.39062 -1.46875,-2.5625 -3.92187,-3.84375 -2.4375,-1.28125 -5.23438,-1.28125 -2.79687,0 -5.28125,1.28125 -2.48437,1.28125 -3.96875,3.84375 -1.46875,2.5625 -1.46875,6.39062 0,3.76563 1.46875,6.375 1.48438,2.59375 3.96875,3.875 2.48438,1.28125 5.28125,1.28125 z m 31.04496,9.51563 v -57.28125 h 10.48437 v 57.28125 z m 39.51123,1.28125 q -6.15625,0 -11,-2.79688 -4.82813,-2.79687 -7.59375,-7.67187 -2.76563,-4.89063 -2.76563,-11.125 0,-5.84375 2.71875,-10.79688 2.71875,-4.96875 7.4375,-7.96875 4.73438,-3 10.8125,-3 6.5625,0 11.03125,2.79688 4.48438,2.79687 6.79688,7.48437 2.32812,4.67188 2.32812,10.35938 0,1.28125 -0.0781,2.20312 -0.0781,0.92188 -0.15625,1.3125 h -35.04688 v -7.4375 h 25.20313 q -0.0781,-1.35937 -0.79688,-2.79687 -0.71875,-1.4375 -2,-2.64063 -1.28125,-1.20312 -3.09375,-1.95312 -1.79687,-0.76563 -4.10937,-0.76563 -3.04688,0 -5.5625,1.60938 -2.51563,1.59375 -3.96875,4.4375 -1.4375,2.82812 -1.4375,6.75 0,4.07812 1.51562,6.92187 1.53125,2.84375 4.125,4.32813 2.60938,1.46875 5.8125,1.46875 3.75,0 6.3125,-1.64063 2.5625,-1.64062 4,-4.125 l 8.48438,4.17188 q -2.89063,5.03125 -7.53125,7.95312 -4.625,2.92188 -11.4375,2.92188 z m 48.00808,-1.28125 v -57.28125 h 19.35938 q 9.125,0 15.71875,3.64062 6.59375,3.64063 10.15625,10.07813 3.5625,6.4375 3.5625,14.92187 0,8.48438 -3.5625,14.96875 -3.5625,6.46875 -10.15625,10.07813 -6.59375,3.59375 -15.71875,3.59375 z m 10.79688,-10.23438 h 8.07812 q 6.32813,0 10.5625,-2.28125 4.23438,-2.28125 6.35938,-6.4375 2.125,-4.17187 2.125,-9.6875 0,-5.59375 -2.125,-9.71875 -2.125,-4.125 -6.35938,-6.40625 -4.23437,-2.28125 -10.5625,-2.28125 h -8.07812 z m 64.71497,11.51563 q -6.15625,0 -11,-2.79688 -4.82813,-2.79687 -7.59375,-7.67187 -2.76563,-4.89063 -2.76563,-11.125 0,-5.84375 2.71875,-10.79688 2.71875,-4.96875 7.4375,-7.96875 4.73438,-3 10.8125,-3 6.5625,0 11.03125,2.79688 4.48438,2.79687 6.79688,7.48437 2.32812,4.67188 2.32812,10.35938 0,1.28125 -0.0781,2.20312 -0.0781,0.92188 -0.15625,1.3125 h -35.04688 v -7.4375 h 25.20313 q -0.0781,-1.35937 -0.79688,-2.79687 -0.71875,-1.4375 -2,-2.64063 -1.28125,-1.20312 -3.09375,-1.95312 -1.79687,-0.76563 -4.10937,-0.76563 -3.04688,0 -5.5625,1.60938 -2.51563,1.59375 -3.96875,4.4375 -1.4375,2.82812 -1.4375,6.75 0,4.07812 1.51562,6.92187 1.53125,2.84375 4.125,4.32813 2.60938,1.46875 5.8125,1.46875 3.75,0 6.3125,-1.64063 2.5625,-1.64062 4,-4.125 l 8.48438,4.17188 q -2.89063,5.03125 -7.53125,7.95312 -4.625,2.92188 -11.4375,2.92188 z m 39.76928,-1.28125 -17.28125,-40.79688 h 11.92188 l 10.3125,26.5625 h 0.64062 l 10.48438,-26.5625 h 11.76562 l -17.45312,40.79688 z m 34.16187,0 v -40.79688 h 10.46875 v 40.79688 z m 5.28125,-45.28125 q -2.8125,0 -4.8125,-2 -2,-2 -2,-4.79688 0,-2.79687 2,-4.75 2,-1.96875 4.8125,-1.96875 2.79687,0 4.75,1.96875 1.96875,1.95313 1.96875,4.75 0,2.79688 -1.96875,4.79688 -1.95313,2 -4.75,2 z m 34.8656,46.5625 q -6.23438,0 -11.07813,-2.75 -4.82812,-2.76563 -7.59375,-7.6875 -2.76562,-4.92188 -2.76562,-11.25 0,-6.3125 2.76562,-11.1875 2.76563,-4.89063 7.59375,-7.6875 4.84375,-2.79688 11.07813,-2.79688 6.8125,0 11.6875,2.89063 4.875,2.875 7.04687,8.3125 l -9.60937,4 q -1.28125,-2.8125 -3.60938,-4.125 -2.3125,-1.3125 -5.51562,-1.3125 -3.10938,0 -5.59375,1.48437 -2.48438,1.46875 -3.92188,4.10938 -1.4375,2.64062 -1.4375,6.3125 0,3.6875 1.4375,6.375 1.4375,2.67187 3.92188,4.15625 2.48437,1.46875 5.59375,1.46875 3.53125,0 5.84375,-1.54688 2.32812,-1.5625 3.76562,-4.28125 l 9.35938,4.15625 q -2.40625,5.125 -7.28125,8.25 -4.875,3.10938 -11.6875,3.10938 z m 45.36181,0 q -6.15625,0 -11,-2.79688 -4.82812,-2.79687 -7.59375,-7.67187 -2.76562,-4.89063 -2.76562,-11.125 0,-5.84375 2.71875,-10.79688 2.71875,-4.96875 7.4375,-7.96875 4.73437,-3 10.8125,-3 6.5625,0 11.03125,2.79688 4.48437,2.79687 6.79687,7.48437 2.32813,4.67188 2.32813,10.35938 0,1.28125 -0.0781,2.20312 -0.0781,0.92188 -0.15625,1.3125 H 735.6979 v -7.4375 h 25.20312 q -0.0781,-1.35937 -0.79687,-2.79687 -0.71875,-1.4375 -2,-2.64063 -1.28125,-1.20312 -3.09375,-1.95312 -1.79688,-0.76563 -4.10938,-0.76563 -3.04687,0 -5.5625,1.60938 -2.51562,1.59375 -3.96875,4.4375 -1.4375,2.82812 -1.4375,6.75 0,4.07812 1.51563,6.92187 1.53125,2.84375 4.125,4.32813 2.60937,1.46875 5.8125,1.46875 3.75,0 6.3125,-1.64063 2.5625,-1.64062 4,-4.125 l 8.48437,4.17188 q -2.89062,5.03125 -7.53125,7.95312 -4.625,2.92188 -11.4375,2.92188 z"
       fill-rule="nonzero"
       id="path129" />
    <path
       fill="#4285f4"
       d="m 1452.0577,447.11758 v -51.84375 h 10.7969 v 51.84375 z m -16,-47.04688 v -10.23437 h 42.7969 v 10.23437 z m 62.7162,48.32813 q -6.1563,0 -11,-2.79688 -4.8281,-2.79687 -7.5938,-7.67187 -2.7656,-4.89063 -2.7656,-11.125 0,-5.84375 2.7188,-10.79688 2.7187,-4.96875 7.4375,-7.96875 4.7343,-3 10.8125,-3 6.5625,0 11.0312,2.79688 4.4844,2.79687 6.7969,7.48437 2.3281,4.67188 2.3281,10.35938 0,1.28125 -0.078,2.20312 -0.078,0.92188 -0.1563,1.3125 h -35.0468 v -7.4375 h 25.2031 q -0.078,-1.35937 -0.7969,-2.79687 -0.7187,-1.4375 -2,-2.64063 -1.2812,-1.20312 -3.0937,-1.95312 -1.7969,-0.76563 -4.1094,-0.76563 -3.0469,0 -5.5625,1.60938 -2.5156,1.59375 -3.9688,4.4375 -1.4375,2.82812 -1.4375,6.75 0,4.07812 1.5157,6.92187 1.5312,2.84375 4.125,4.32813 2.6093,1.46875 5.8125,1.46875 3.75,0 6.3125,-1.64063 2.5625,-1.64062 4,-4.125 l 8.4843,4.17188 q -2.8906,5.03125 -7.5312,7.95312 -4.625,2.92188 -11.4375,2.92188 z m 27.8506,-1.28125 V 406.3207 h 9.8281 v 5.10938 h 0.6406 q 1.8438,-2.95313 5.2031,-4.67188 3.3594,-1.71875 7.2813,-1.71875 7.5156,0 11.2812,4.5625 3.7657,4.5625 3.7657,12.15625 v 25.35938 h -10.4844 v -24.07813 q 0,-4 -2.0469,-6.10937 -2.0312,-2.125 -5.5469,-2.125 -2.8906,0 -5.0156,1.5625 -2.1094,1.54687 -3.2812,4.15625 -1.1563,2.59375 -1.1563,5.79687 v 20.79688 z m 63.0355,1.28125 q -5.2813,0 -9,-1.51563 -3.7188,-1.53125 -6.0469,-4 -2.3125,-2.48437 -3.4375,-5.45312 l 9.3594,-4.07813 q 1.3594,2.89063 3.6719,4.375 2.3281,1.46875 5.4531,1.46875 2.5625,0 4.6406,-0.82812 2.0781,-0.84375 2.0781,-3.09375 0,-1.59375 -1.0781,-2.51563 -1.0781,-0.92187 -2.6875,-1.4375 -1.5937,-0.51562 -3.2812,-0.84375 l -4.7969,-1.04687 q -2.9531,-0.625 -5.5938,-2.26563 -2.6406,-1.64062 -4.2812,-4.15625 -1.6406,-2.53125 -1.6406,-5.8125 0,-3.67187 2.1093,-6.39062 2.125,-2.73438 5.7657,-4.25 3.6406,-1.51563 8.0468,-1.51563 4.0782,0 7.3594,0.96875 3.2813,0.95313 5.6719,2.92188 2.4062,1.95312 3.8437,4.98437 l -8.9531,3.92188 q -1.2812,-2.40625 -3.3281,-3.35938 -2.0313,-0.95312 -4.3594,-0.95312 -2.7187,0 -4.3281,1.04687 -1.5938,1.03125 -1.5938,2.46875 0,1.51563 1.5938,2.64063 1.6094,1.125 3.8594,1.67187 l 6,1.45313 q 6.0781,1.4375 9.1562,4.64062 3.0781,3.1875 3.0781,7.67188 0,4 -2.3281,7 -2.3125,3 -6.2344,4.64062 -3.9218,1.64063 -8.7187,1.64063 z m 44.8,0 q -6.4062,0 -11.3281,-2.84375 -4.9062,-2.84375 -7.6719,-7.75 -2.7656,-4.92188 -2.7656,-11.09375 0,-6.15625 2.7656,-11.07813 2.7657,-4.92187 7.6719,-7.75 4.9219,-2.84375 11.3281,-2.84375 6.4063,0 11.2813,2.89063 4.875,2.875 7.625,7.75 2.7656,4.875 2.7656,11.03125 0,6.17187 -2.7656,11.09375 -2.75,4.90625 -7.625,7.75 -4.875,2.84375 -11.2813,2.84375 z m 0,-9.76563 q 3.0469,0 5.5625,-1.39062 2.5157,-1.40625 4.0782,-4.07813 1.5625,-2.6875 1.5625,-6.45312 0,-3.75 -1.5625,-6.39063 -1.5625,-2.64062 -4.0782,-4.07812 -2.5156,-1.4375 -5.4843,-1.4375 -3.0313,0 -5.6407,1.4375 -2.5937,1.4375 -4.1562,4.07812 -1.5625,2.64063 -1.5625,6.39063 0,3.76562 1.5625,6.45312 1.5625,2.67188 4.1562,4.07813 2.6094,1.39062 5.5625,1.39062 z m 28.8843,8.48438 V 406.3207 h 9.8281 v 5.4375 h 0.6407 q 1.0468,-1.92187 2.7656,-3.39062 1.7187,-1.48438 4.0312,-2.35938 2.3282,-0.89062 4.9688,-0.89062 1.5937,0 2.875,0.25 1.2812,0.23437 2.25,0.625 v 10.48437 q -1.6875,-0.64062 -3.3281,-1.07812 -1.6407,-0.4375 -3.4688,-0.4375 -3.125,0 -5.4062,1.5625 -2.2813,1.54687 -3.4844,4.23437 -1.2031,2.67188 -1.2031,6.04688 v 20.3125 z m 54.3175,0 v -57.28125 h 20.1563 q 5.5156,0 9.9219,2.28125 4.4062,2.28125 7,6.35937 2.5937,4.07813 2.5937,9.4375 0,5.35938 -2.5937,9.48438 -2.5938,4.125 -7,6.40625 -4.4063,2.26562 -9.9219,2.26562 h -14.1563 v -10.23437 h 14.4844 q 2.7969,0 4.7188,-1.10938 1.9218,-1.125 2.875,-2.92187 0.9531,-1.8125 0.9531,-3.89063 0,-2.07812 -0.9531,-3.82812 -0.9532,-1.76563 -2.875,-2.89063 -1.9219,-1.125 -4.7188,-1.125 h -9.6875 v 47.04688 z m 58.2312,1.28125 q -4.3125,0 -7.6406,-1.71875 -3.3125,-1.71875 -5.2344,-4.84375 -1.9218,-3.125 -1.9218,-7.20313 0,-4.23437 2.2031,-7.26562 2.2031,-3.04688 5.9219,-4.71875 3.7187,-1.6875 8.2812,-1.6875 2.4844,0 4.5156,0.28125 2.0469,0.28125 3.6407,0.6875 1.5937,0.39062 2.6406,0.875 v -1.76563 q 0,-3.28125 -2.4844,-5.39062 -2.4687,-2.125 -6.7969,-2.125 -2.875,0 -5.5625,1.32812 -2.6718,1.3125 -4.4375,3.46875 l -6.7187,-5.28125 q 2,-2.5625 4.6406,-4.35937 2.6406,-1.79688 5.8438,-2.71875 3.2031,-0.92188 6.7187,-0.92188 9.3594,0 14.2344,4.32813 4.875,4.3125 4.875,12.625 v 25.125 h -10.3125 v -4.15625 h -0.6406 q -1.125,1.4375 -2.8125,2.6875 -1.6719,1.23437 -3.9063,1.98437 -2.2344,0.76563 -5.0469,0.76563 z m 2.4844,-8.15625 q 3.2031,0 5.4063,-1.40625 2.2031,-1.40625 3.3593,-3.64063 1.1563,-2.23437 1.1563,-4.71875 -1.7656,-0.875 -4,-1.39062 -2.2344,-0.53125 -4.5625,-0.53125 -4.6406,0 -6.4063,1.76562 -1.75,1.75 -1.75,4.3125 0,2.40625 1.7188,4.01563 1.7187,1.59375 5.0781,1.59375 z m 29.9268,6.875 V 406.3207 h 9.8281 v 5.4375 h 0.6406 q 1.0469,-1.92187 2.7656,-3.39062 1.7188,-1.48438 4.0313,-2.35938 2.3281,-0.89062 4.9687,-0.89062 1.5938,0 2.875,0.25 1.2813,0.23437 2.25,0.625 v 10.48437 q -1.6875,-0.64062 -3.3281,-1.07812 -1.6406,-0.4375 -3.4687,-0.4375 -3.125,0 -5.4063,1.5625 -2.2812,1.54687 -3.4844,4.23437 -1.2031,2.67188 -1.2031,6.04688 v 20.3125 z m 45.3487,1.28125 q -4.3125,0 -7.6406,-1.71875 -3.3125,-1.71875 -5.2344,-4.84375 -1.9219,-3.125 -1.9219,-7.20313 0,-4.23437 2.2032,-7.26562 2.2031,-3.04688 5.9218,-4.71875 3.7188,-1.6875 8.2813,-1.6875 2.4844,0 4.5156,0.28125 2.0469,0.28125 3.6406,0.6875 1.5938,0.39062 2.6407,0.875 v -1.76563 q 0,-3.28125 -2.4844,-5.39062 -2.4688,-2.125 -6.7969,-2.125 -2.875,0 -5.5625,1.32812 -2.6719,1.3125 -4.4375,3.46875 l -6.7187,-5.28125 q 2,-2.5625 4.6406,-4.35937 2.6406,-1.79688 5.8437,-2.71875 3.2032,-0.92188 6.7188,-0.92188 9.3594,0 14.2344,4.32813 4.875,4.3125 4.875,12.625 v 25.125 h -10.3125 v -4.15625 h -0.6407 q -1.125,1.4375 -2.8125,2.6875 -1.6718,1.23437 -3.9062,1.98437 -2.2344,0.76563 -5.0469,0.76563 z m 2.4844,-8.15625 q 3.2031,0 5.4062,-1.40625 2.2032,-1.40625 3.3594,-3.64063 1.1563,-2.23437 1.1563,-4.71875 -1.7657,-0.875 -4,-1.39062 -2.2344,-0.53125 -4.5625,-0.53125 -4.6407,0 -6.4063,1.76562 -1.75,1.75 -1.75,4.3125 0,2.40625 1.7188,4.01563 1.7187,1.59375 5.0781,1.59375 z m 30.005,6.875 v -57.28125 h 10.4844 v 57.28125 z m 20.8799,0 v -57.28125 h 10.4844 v 57.28125 z m 39.5112,1.28125 q -6.1562,0 -11,-2.79688 -4.8281,-2.79687 -7.5937,-7.67187 -2.7657,-4.89063 -2.7657,-11.125 0,-5.84375 2.7188,-10.79688 2.7187,-4.96875 7.4375,-7.96875 4.7344,-3 10.8125,-3 6.5625,0 11.0312,2.79688 4.4844,2.79687 6.7969,7.48437 2.3281,4.67188 2.3281,10.35938 0,1.28125 -0.078,2.20312 -0.078,0.92188 -0.1562,1.3125 h -35.0469 v -7.4375 h 25.2031 q -0.078,-1.35937 -0.7969,-2.79687 -0.7187,-1.4375 -2,-2.64063 -1.2812,-1.20312 -3.0937,-1.95312 -1.7969,-0.76563 -4.1094,-0.76563 -3.0469,0 -5.5625,1.60938 -2.5156,1.59375 -3.9687,4.4375 -1.4375,2.82812 -1.4375,6.75 0,4.07812 1.5156,6.92187 1.5312,2.84375 4.125,4.32813 2.6094,1.46875 5.8125,1.46875 3.75,0 6.3125,-1.64063 2.5625,-1.64062 4,-4.125 l 8.4844,4.17188 q -2.8907,5.03125 -7.5313,7.95312 -4.625,2.92188 -11.4375,2.92188 z m 27.9288,-1.28125 v -57.28125 h 10.4844 v 57.28125 z m 21.4425,0 V 406.3207 h 10.4688 v 40.79688 z m 5.2813,-45.28125 q -2.8125,0 -4.8125,-2 -2,-2 -2,-4.79688 0,-2.79687 2,-4.75 2,-1.96875 4.8125,-1.96875 2.7969,0 4.75,1.96875 1.9687,1.95313 1.9687,4.75 0,2.79688 -1.9687,4.79688 -1.9531,2 -4.75,2 z m 31.5937,46.5625 q -5.2812,0 -9,-1.51563 -3.7187,-1.53125 -6.0468,-4 -2.3125,-2.48437 -3.4375,-5.45312 l 9.3593,-4.07813 q 1.3594,2.89063 3.6719,4.375 2.3281,1.46875 5.4531,1.46875 2.5625,0 4.6407,-0.82812 2.0781,-0.84375 2.0781,-3.09375 0,-1.59375 -1.0781,-2.51563 -1.0782,-0.92187 -2.6875,-1.4375 -1.5938,-0.51562 -3.2813,-0.84375 l -4.7969,-1.04687 q -2.9531,-0.625 -5.5937,-2.26563 -2.6406,-1.64062 -4.2813,-4.15625 -1.6406,-2.53125 -1.6406,-5.8125 0,-3.67187 2.1094,-6.39062 2.125,-2.73438 5.7656,-4.25 3.6406,-1.51563 8.0469,-1.51563 4.0781,0 7.3594,0.96875 3.2812,0.95313 5.6718,2.92188 2.4063,1.95312 3.8438,4.98437 l -8.9531,3.92188 q -1.2813,-2.40625 -3.3282,-3.35938 -2.0312,-0.95312 -4.3593,-0.95312 -2.7188,0 -4.3282,1.04687 -1.5937,1.03125 -1.5937,2.46875 0,1.51563 1.5937,2.64063 1.6094,1.125 3.8594,1.67187 l 6,1.45313 q 6.0781,1.4375 9.1563,4.64062 3.0781,3.1875 3.0781,7.67188 0,4 -2.3281,7 -2.3125,3 -6.2344,4.64062 -3.9219,1.64063 -8.7188,1.64063 z m 24.4844,-1.28125 V 406.3207 h 9.8281 v 5.10938 h 0.6407 q 1.2812,-1.90625 3.125,-3.34375 1.8437,-1.45313 4.2031,-2.25 2.3594,-0.79688 5.0781,-0.79688 4.4844,0 7.6406,2.07813 3.1563,2.07812 4.4375,5.125 1.8438,-2.96875 5.2344,-5.07813 3.4063,-2.125 8.4531,-2.125 7.1094,0 10.6719,4.32813 3.5625,4.3125 3.5625,11.51562 v 26.23438 h -10.4062 v -24.3125 q 0,-3.92188 -1.8438,-5.95313 -1.8281,-2.04687 -4.9531,-2.04687 -2.7188,0 -4.7656,1.48437 -2.0313,1.46875 -3.1094,4.10938 -1.0781,2.64062 -1.0781,6.15625 v 20.5625 h -10.4844 v -24.3125 q 0,-3.92188 -1.8906,-5.95313 -1.875,-2.04687 -5.3125,-2.04687 -2.5625,0 -4.5157,1.48437 -1.9531,1.46875 -3,4.10938 -1.0468,2.64062 -1.0468,6.15625 v 20.5625 z"
       fill-rule="nonzero"
       id="path131" />
  </g>
</svg>
