<svg xmlns="http://www.w3.org/2000/svg" xmlns:xlink="http://www.w3.org/1999/xlink" width="270.011" height="126.765" viewBox="0 0 202.508 95.074" xmlns:v="https://vecta.io/nano"><style><![CDATA[.B{overflow:visible}.C{stroke:none}.D{stroke-miterlimit:10}.E{stroke-width:.797}.F{stroke-width:.399}.G{stroke-dasharray:2.98883, 2.98883}]]></style><defs><symbol id="A" class="B"><path d="M1.781-1.141C1.391-.484 1-.344.563-.312.438-.297.344-.297.344-.109.344-.047.406 0 .484 0l.844-.031 1 .031c.063 0 .188 0 .188-.187 0-.109-.078-.125-.156-.125-.219-.016-.469-.094-.469-.344 0-.125.063-.234.141-.375l.766-1.266h2.5l.156 1.656c0 .297-.516.328-.719.328-.141 0-.234 0-.234.203C4.5 0 4.609 0 4.641 0l1.234-.031L7.016 0c.047 0 .172 0 .172-.203 0-.109-.094-.109-.234-.109-.609 0-.609-.062-.641-.359l-.609-6.219c-.016-.203-.016-.25-.187-.25-.156 0-.203.078-.266.172zm1.203-1.469l1.953-3.297.328 3.297zm0 0" class="C"/></symbol><symbol id="B" class="B"><path d="M1.594-.781c-.094.391-.125.469-.906.469-.172 0-.266 0-.266.203C.422 0 .516 0 .688 0H4.25C5.828 0 7-1.172 7-2.156c0-.719-.578-1.297-1.547-1.406 1.031-.187 2.078-.922 2.078-1.875 0-.734-.656-1.375-1.844-1.375H2.328c-.187 0-.281 0-.281.203 0 .109.094.109.281.109l.375.016c.172.031.266.031.266.172 0 .031-.016.063-.031.188zm1.5-2.875l.625-2.469c.094-.344.109-.375.531-.375h1.297c.875 0 1.078.594 1.078 1.031 0 .875-.859 1.813-2.062 1.813zM2.656-.312h-.219c-.109-.016-.141-.031-.141-.109 0-.031 0-.047.063-.219l.688-2.781h1.875c.953 0 1.156.734 1.156 1.156 0 .984-.891 1.953-2.078 1.953zm0 0" class="C"/></symbol><symbol id="C" class="B"><path d="M7.578-6.922c0-.031-.016-.109-.109-.109-.031 0-.047.016-.156.125l-.687.766c-.094-.141-.547-.891-1.656-.891C2.734-7.031.5-4.828.5-2.516.5-.875 1.672.219 3.203.219c.859 0 1.625-.391 2.156-.859.922-.812 1.094-1.719 1.094-1.75 0-.109-.109-.109-.125-.109-.062 0-.109.031-.125.109-.094.281-.328 1-1.016 1.578-.687.547-1.312.719-1.828.719-.891 0-1.953-.516-1.953-2.062 0-.578.203-2.187 1.203-3.359.609-.703 1.547-1.203 2.438-1.203 1.016 0 1.609.766 1.609 1.922 0 .406-.031.406-.031.516 0 .094.109.094.141.094.125 0 .125-.016.188-.203zm0 0" class="C"/></symbol><symbol id="D" class="B"><path d="M1.578-.781c-.094.391-.109.469-.906.469-.156 0-.266 0-.266.188C.406 0 .484 0 .672 0h3.313c2.063 0 4.031-2.109 4.031-4.281 0-1.406-.844-2.531-2.344-2.531H2.328c-.187 0-.297 0-.297.188 0 .125.078.125.281.125l.422.016c.172.031.219.047.219.172 0 .031 0 .063-.031.188zm2.156-5.344c.094-.344.109-.375.547-.375h1.063c.969 0 1.797.531 1.797 1.844 0 .484-.187 2.125-1.047 3.219A2.92 2.92 0 0 1 3.797-.312H2.672h-.219c-.094-.016-.125-.031-.125-.109 0-.031 0-.047.047-.219zm0 0" class="C"/></symbol><symbol id="E" class="B"><path d="M3.656-1.469c-.422.672-.812.938-1.391.938-.5 0-.891-.266-1.156-.766-.156-.344-.219-.641-.234-1.187h2.75c-.062-.578-.156-.844-.375-1.125-.266-.328-.687-.516-1.156-.516a1.77 1.77 0 0 0-1.203.469c-.422.359-.672 1-.672 1.734C.219-.687.875.094 1.906.094c.844 0 1.516-.531 1.891-1.5zM.891-2.766c.094-.703.406-1.031.953-1.031s.75.25.875 1.031zm0 0" class="C"/></symbol><symbol id="F" class="B"><path d="M2.828-2.812l-.031-1.219h-.109l-.016.016c-.078.063-.094.063-.125.063a.58.58 0 0 1-.234-.062c-.203-.062-.406-.094-.641-.094-.703 0-1.219.453-1.219 1.094 0 .5.297.859 1.047 1.297l.531.297c.313.172.469.391.469.672 0 .391-.297.641-.75.641-.312 0-.578-.109-.75-.312C.813-.641.719-.859.609-1.359H.469V.031h.109c.063-.078.109-.109.219-.109.078 0 .203.031.406.078l.656.094c.688 0 1.266-.531 1.266-1.156 0-.437-.219-.734-.75-1.062l-.969-.578c-.266-.141-.391-.359-.391-.609 0-.359.281-.609.688-.609.516 0 .781.313.984 1.109zm0 0" class="C"/></symbol><symbol id="G" class="B"><path d="M2.281-4.031h-.906v-1.047c0-.094 0-.109-.062-.109-.062.078-.109.156-.172.25-.344.484-.734.922-.875.953-.094.063-.156.125-.156.172 0 .031.016.047.047.063h.469v2.703c0 .75.266 1.141.797 1.141.438 0 .781-.219 1.078-.687l-.109-.094c-.187.219-.344.313-.547.313-.328 0-.469-.25-.469-.812V-3.75h.906zm0 0" class="C"/></symbol><symbol id="H" class="B"><path d="M5.125-4.031v.125c.297.063.391.125.391.281 0 .141-.047.344-.156.594l-.797 1.984-.766-2c-.141-.422-.141-.422-.141-.531 0-.203.094-.266.516-.328v-.125H2.344v.125c.344.047.453.141.625.625l.172.5L2.328-1l-.891-2.344a.73.73 0 0 1-.047-.266c0-.187.109-.25.406-.297v-.125H.188v.125c.203.016.281.109.469.563L1.875-.266c.109.266.172.391.234.391.047 0 .109-.109.219-.344l1.016-2.156.813 2.109c.125.344.156.391.219.391s.094-.078.25-.437l1.234-3.109c.156-.375.188-.422.359-.484v-.125zm0 0" class="C"/></symbol><symbol id="I" class="B"><path d="M1.563-4.125l-1.391.5v.125H.25c.109-.031.219-.031.313-.031.203 0 .297.141.297.531v2.078c0 .656-.094.75-.719.781V0h2.125v-.141c-.594-.031-.656-.125-.656-.781v-3.172zm-.422-2a.45.45 0 0 0-.437.453c0 .25.188.469.438.469a.46.46 0 0 0 .469-.469c0-.25-.203-.453-.469-.453zm0 0" class="C"/></symbol><symbol id="J" class="B"><path d="M3.969-.594c-.156.125-.266.172-.406.172-.203 0-.266-.125-.266-.516v-1.75c0-.469-.047-.734-.172-.937-.203-.328-.594-.5-1.109-.5-.844 0-1.516.438-1.516 1a.41.41 0 0 0 .391.391c.219 0 .406-.187.406-.375 0-.031-.016-.078-.016-.141-.031-.094-.031-.156-.031-.219 0-.25.281-.437.641-.437.438 0 .688.25.688.734v.547c-1.391.563-1.531.641-1.922.969-.203.188-.328.484-.328.781a.92.92 0 0 0 .953.969c.391 0 .75-.187 1.297-.656.047.469.219.656.578.656.313 0 .5-.109.813-.453zm-1.391-.516c0 .281-.047.359-.234.469-.219.125-.469.203-.656.203-.312 0-.562-.297-.562-.687v-.031c0-.531.359-.859 1.453-1.25zm0 0" class="C"/></symbol><symbol id="K" class="B"><path d="M1.375-6.109l-.047-.016c-.375.141-.625.203-1.047.328l-.25.063v.141h.141c.359 0 .453.078.453.453v4.656c0 .281.75.578 1.469.578 1.188 0 2.109-.984 2.109-2.266 0-1.109-.687-1.953-1.578-1.953-.547 0-1.078.328-1.25.766zm0 3.219c0-.344.422-.672.891-.672.688 0 1.141.703 1.141 1.797 0 1-.422 1.563-1.156 1.563-.469 0-.875-.203-.875-.422zm0 0" class="C"/></symbol><symbol id="L" class="B"><path d="M3.563-1.406c-.422.641-.75.844-1.25.844-.828 0-1.391-.719-1.391-1.75 0-.922.484-1.547 1.219-1.547.313 0 .438.094.516.422l.063.203c.078.25.234.406.422.406.234 0 .422-.172.422-.375 0-.5-.625-.922-1.375-.922-.437 0-.891.172-1.266.5-.453.391-.703 1-.703 1.719 0 1.156.719 2 1.703 2a1.63 1.63 0 0 0 1.094-.422c.234-.219.406-.469.672-.984zm0 0" class="C"/></symbol><symbol id="M" class="B"><path d="M2.25-4.125c-1.172 0-1.984.859-1.984 2.094 0 1.219.828 2.125 1.953 2.125 1.141 0 2-.953 2-2.187 0-1.187-.828-2.031-1.969-2.031zm-.125.25c.75 0 1.281.859 1.281 2.094C3.406-.766 3-.156 2.328-.156c-.344 0-.672-.219-.859-.578-.266-.469-.406-1.094-.406-1.734 0-.844.422-1.406 1.063-1.406zm0 0" class="C"/></symbol><symbol id="N" class="B"><path d="M1.125-.891c-.266 0-.5.234-.5.5a.5.5 0 0 0 .484.484c.281 0 .516-.219.516-.484s-.234-.5-.5-.5zm0 0" class="C"/></symbol><symbol id="O" class="B"><path d="M2.641-6.062c-.656.438-.922.656-1.266 1.078C.75-4.203.438-3.312.438-2.266.438-1.125.766-.234 1.547.672c.375.438.609.625 1.078.922l.094-.156C2.016.875 1.766.563 1.516-.109c-.219-.594-.312-1.281-.312-2.172 0-.953.109-1.687.359-2.234.25-.562.516-.891 1.156-1.406zm0 0" class="C"/></symbol><symbol id="P" class="B"><path d="M.344 1.594C1 1.156 1.281.922 1.609.516c.641-.781.953-1.687.953-2.734 0-1.141-.344-2.016-1.125-2.922-.375-.437-.609-.641-1.062-.922l-.109.141c.719.563.953.875 1.203 1.547.219.609.313 1.297.313 2.188 0 .938-.109 1.672-.359 2.219C1.172.594.906.922.266 1.438zm0 0" class="C"/></symbol><symbol id="Q" class="B"><path d="M6.359-3.172H4.078v.156c.375.031.484.063.594.125.141.078.188.297.188.672v1.453c0 .297-.547.531-1.187.531-1.469 0-2.359-1.016-2.359-2.687 0-.844.25-1.656.641-2.094.391-.453.953-.687 1.563-.687a1.87 1.87 0 0 1 1.297.5c.266.25.406.484.625 1.031h.219l-.078-1.891h-.203c-.047.172-.203.297-.391.297a1.31 1.31 0 0 1-.406-.094 4.15 4.15 0 0 0-1.219-.203C1.563-6.062.281-4.75.281-2.922c0 .891.25 1.563.75 2.094.594.609 1.469.953 2.453.953.766 0 1.891-.312 2.25-.625v-1.828c0-.531.109-.641.625-.687zm0 0" class="C"/></symbol><symbol id="R" class="B"><path d="M.172-5.594h.047c.109 0 .219-.016.281-.016.297 0 .375.125.375.547v4.281c0 .484-.125.609-.687.641V0h2.125v-.141c-.578-.031-.687-.125-.687-.609v-5.359l-.031-.016c-.469.156-.797.234-1.422.391zm0 0" class="C"/></symbol><symbol id="S" class="B"><path d="M.141-3.562c.063-.031.141-.047.25-.047.25 0 .328.141.328.578v2.219c0 .516-.094.641-.562.672V0h1.906v-.141c-.453-.031-.594-.141-.594-.453v-2.531c.438-.406.625-.5.922-.5.438 0 .656.266.656.859v1.875c0 .563-.109.719-.562.75V0h1.859v-.141c-.437-.031-.547-.141-.547-.578v-2.062c0-.844-.391-1.344-1.047-1.344-.422 0-.703.156-1.312.719v-.703l-.062-.016-1.234.406zm0 0" class="C"/></symbol><symbol id="T" class="B"><path d="M3.078.094l1.328-.469v-.141h-.203c-.328 0-.406-.094-.406-.5v-5.094l-.031-.016c-.437.156-.75.234-1.328.391v.141h.203c.328 0 .406.094.406.453v1.406c-.344-.297-.578-.391-.937-.391-1.031 0-1.875 1.016-1.875 2.281C.234-.687.922.094 1.906.094c.5 0 .844-.187 1.141-.609v.578zM3.047-.922c0 .063-.062.172-.156.281-.156.172-.375.266-.641.266-.75 0-1.234-.719-1.234-1.828 0-1 .438-1.672 1.125-1.672a.94.94 0 0 1 .906.891zm0 0" class="C"/></symbol><symbol id="U" class="B"><path d="M4.281-4.031h-1.25v.125c.281.031.422.125.422.297 0 .078-.016.172-.047.266l-.891 2.328-.922-2.297c-.047-.125-.078-.25-.078-.344 0-.156.094-.219.406-.25v-.125H.172v.125c.344.016.406.109.813 1.031L2.063-.297c.016.063.047.125.078.188.047.156.109.234.156.234s.109-.109.25-.453l1.141-2.875c.266-.609.328-.672.594-.703zm0 0" class="C"/></symbol><symbol id="V" class="B"><path d="M6.328-.172c-.406-.031-.484-.109-.797-.781L3.297-6.047h-.187L1.25-1.641C.672-.328.563-.187.141-.172V0h1.766v-.172c-.422 0-.609-.109-.609-.359 0-.109.031-.234.078-.359l.406-1.047h2.359l.359.859c.109.25.172.484.172.609 0 .219-.156.297-.625.297V0h2.281zM1.938-2.312l1.031-2.453 1.047 2.453zm0 0" class="C"/></symbol><symbol id="W" class="B"><path d="M1.734-4.094l-.047-.031-1.406.484v.141h.047c.141-.031.266-.031.359-.031.203 0 .297.156.297.531V.406c0 .672-.031.906-.125 1.078a.4.4 0 0 1-.312.172c-.141 0-.219-.062-.375-.25-.156-.219-.281-.297-.437-.297-.203 0-.359.156-.359.359 0 .281.359.484.844.484.984 0 1.516-.672 1.516-1.953zm-.453-2.031c-.25 0-.453.203-.453.453s.188.469.453.469c.25 0 .453-.203.453-.469 0-.25-.203-.453-.453-.453zm0 0" class="C"/></symbol><style>
      svg { background-color: rgb(252, 252, 252); }
    </style></defs><g transform="translate(-319.215 -67.059)"><use xlink:href="#cN" x="226.074" y="287.727"/><g fill="none" stroke="#000" class="D"><path d="M327.559 146.828h79.371V67.457h-79.371v79.371" class="E"/><g class="F G"><path d="M349.387 125h27.777V97.223h-27.777V125"/><path d="M343.434 130.953h53.574V77.379h-53.574v53.574"/></g></g><use xlink:href="#A" x="367.476" y="122.454"/><use xlink:href="#B" x="387.027" y="122.454"/><use xlink:href="#O" x="318.777" y="160.179"/><use xlink:href="#J" x="321.763" y="160.179"/><use xlink:href="#P" x="325.744" y="160.179"/><use xlink:href="#Q" x="330.971" y="160.179"/><use xlink:href="#R" x="337.445" y="160.179"/><use xlink:href="#M" x="339.938" y="160.179"/><use xlink:href="#K" x="344.421" y="160.179"/><use xlink:href="#J" x="348.904" y="160.179"/><use xlink:href="#R" x="352.885" y="160.179"/><use xlink:href="#J" x="357.619" y="160.179"/><use xlink:href="#S" x="361.601" y="160.179"/><use xlink:href="#T" x="366.084" y="160.179"/><use xlink:href="#R" x="372.809" y="160.179"/><use xlink:href="#M" x="375.301" y="160.179"/><use xlink:href="#L" x="379.784" y="160.179"/><use xlink:href="#J" x="383.765" y="160.179"/><use xlink:href="#R" x="387.747" y="160.179"/><use xlink:href="#U" x="392.481" y="160.179"/><use xlink:href="#I" x="396.964" y="160.179"/><use xlink:href="#E" x="399.457" y="160.179"/><use xlink:href="#H" x="403.214" y="160.179"/><use xlink:href="#F" x="409.687" y="160.179"/><use xlink:href="#N" x="413.175" y="160.179"/><g fill="none" stroke="#000" class="D"><path d="M441.953 146.828h79.371V67.457h-79.371v79.371" class="E"/><path d="M451.875 136.906h25.793v-25.793h-25.793v25.793m29.762-29.761h35.719V71.426h-35.719v35.719" class="F G"/></g><use xlink:href="#C" x="467.799" y="132.375"/><use xlink:href="#D" x="507.138" y="104.595"/><use xlink:href="#O" x="446.368" y="160.179"/><use xlink:href="#K" x="449.354" y="160.179"/><use xlink:href="#P" x="453.837" y="160.179"/><use xlink:href="#V" x="459.064" y="160.179"/><use xlink:href="#T" x="465.538" y="160.179"/><use xlink:href="#W" x="470.021" y="160.179"/><use xlink:href="#J" x="472.514" y="160.179"/><use xlink:href="#L" x="476.495" y="160.179"/><use xlink:href="#E" x="480.476" y="160.179"/><use xlink:href="#S" x="484.457" y="160.179"/><use xlink:href="#G" x="488.94" y="160.179"/><use xlink:href="#U" x="493.675" y="160.179"/><use xlink:href="#I" x="498.158" y="160.179"/><use xlink:href="#E" x="500.651" y="160.179"/><use xlink:href="#H" x="504.408" y="160.179"/><use xlink:href="#F" x="510.881" y="160.179"/><use xlink:href="#N" x="514.369" y="160.179"/></g></svg>