<?xml version="1.0" encoding="UTF-8" standalone="no"?>
<svg
   xmlns:dc="http://purl.org/dc/elements/1.1/"
   xmlns:cc="http://creativecommons.org/ns#"
   xmlns:rdf="http://www.w3.org/1999/02/22-rdf-syntax-ns#"
   xmlns:svg="http://www.w3.org/2000/svg"
   xmlns="http://www.w3.org/2000/svg"
   xmlns:sodipodi="http://sodipodi.sourceforge.net/DTD/sodipodi-0.dtd"
   xmlns:inkscape="http://www.inkscape.org/namespaces/inkscape"
   width="303.12pt"
   height="108pt"
   viewBox="0 0 303.12 108"
   version="1.2"
   id="svg210"
   sodipodi:docname="molecule_graph.svg"
   inkscape:version="1.0.1 (0767f8302a, 2020-10-17)">
  <metadata
     id="metadata214">
    <rdf:RDF>
      <cc:Work
         rdf:about="">
        <dc:format>image/svg+xml</dc:format>
        <dc:type
           rdf:resource="http://purl.org/dc/dcmitype/StillImage" />
        <dc:title></dc:title>
      </cc:Work>
    </rdf:RDF>
  </metadata>
  <sodipodi:namedview
     pagecolor="#ffffff"
     bordercolor="#666666"
     borderopacity="1"
     objecttolerance="10"
     gridtolerance="10"
     guidetolerance="10"
     inkscape:pageopacity="0"
     inkscape:pageshadow="2"
     inkscape:window-width="889"
     inkscape:window-height="480"
     id="namedview212"
     showgrid="false"
     inkscape:zoom="4.2730602"
     inkscape:cx="202.08"
     inkscape:cy="72"
     inkscape:window-x="0"
     inkscape:window-y="37"
     inkscape:window-maximized="0"
     inkscape:current-layer="svg210" />
  <defs
     id="defs77">
    <clipPath
       id="clip1">
      <path
         d="M 0 0 L 303 0 L 303 107.445312 L 0 107.445312 Z M 0 0 "
         id="path44" />
    </clipPath>
    <clipPath
       id="clip2">
      <path
         d="M 31 100 L 36 100 L 36 106.015625 L 31 106.015625 Z M 31 100 "
         id="path47" />
    </clipPath>
    <clipPath
       id="clip3">
      <path
         d="M 131 16 L 136.816406 16 L 136.816406 24 L 131 24 Z M 131 16 "
         id="path50" />
    </clipPath>
    <clipPath
       id="clip4">
      <path
         d="M 2 7.164062 L 47 7.164062 L 47 40 L 2 40 Z M 2 7.164062 "
         id="path53" />
    </clipPath>
    <clipPath
       id="clip5">
      <path
         d="M 0.714844 41 L 40 41 L 40 73 L 0.714844 73 Z M 0.714844 41 "
         id="path56" />
    </clipPath>
    <clipPath
       id="clip6">
      <path
         d="M 202 88 L 222 88 L 222 106.730469 L 202 106.730469 Z M 202 88 "
         id="path59" />
    </clipPath>
    <clipPath
       id="clip7">
      <path
         d="M 287 14 L 303 14 L 303 34 L 287 34 Z M 287 14 "
         id="path62" />
    </clipPath>
    <clipPath
       id="clip8">
      <path
         d="M 192 57 L 238 57 L 238 106.730469 L 192 106.730469 Z M 192 57 "
         id="path65" />
    </clipPath>
    <clipPath
       id="clip9">
      <path
         d="M 266 8 L 303 8 L 303 58 L 266 58 Z M 266 8 "
         id="path68" />
    </clipPath>
    <clipPath
       id="clip10">
      <path
         d="M 264 25 L 303 25 L 303 83 L 264 83 Z M 264 25 "
         id="path71" />
    </clipPath>
    <clipPath
       id="clip11">
      <path
         d="M 251 51 L 303 51 L 303 100 L 251 100 Z M 251 51 "
         id="path74" />
    </clipPath>
    <style>
      svg {
        background-color: rgb(252, 252, 252);
      }
    </style>
  </defs>
  <g
     id="surface6674">
    <g
       clip-path="url(#clip1)"
       clip-rule="nonzero"
       id="g81">
      <path
         style=" stroke:none;fill-rule:nonzero;fill:rgb(100%,100%,100%);fill-opacity:1;"
         d="M 0 0 L 303 0 L 303 107.445312 L 0 107.445312 Z M 0 0 "
         id="path79" />
    </g>
    <path
       style=" stroke:none;fill-rule:nonzero;fill:rgb(0%,0%,100%);fill-opacity:1;"
       d="M 24.984375 95.835938 L 25.890625 95.835938 L 25.890625 98.585938 L 29.183594 98.585938 L 29.183594 95.835938 L 30.078125 95.835938 L 30.078125 102.539062 L 29.183594 102.539062 L 29.183594 99.347656 L 25.890625 99.347656 L 25.890625 102.539062 L 24.984375 102.539062 Z M 24.984375 95.835938 "
       id="path83" />
    <g
       clip-path="url(#clip2)"
       clip-rule="nonzero"
       id="g87">
      <path
         style=" stroke:none;fill-rule:nonzero;fill:rgb(0%,0%,100%);fill-opacity:1;"
         d="M 34.085938 103.035156 C 34.445312 103.113281 34.722656 103.273438 34.925781 103.519531 C 35.132812 103.761719 35.238281 104.058594 35.238281 104.417969 C 35.238281 104.972656 35.050781 105.402344 34.667969 105.707031 C 34.289062 106.007812 33.75 106.15625 33.054688 106.15625 C 32.824219 106.15625 32.582031 106.128906 32.328125 106.078125 C 32.082031 106.035156 31.828125 105.964844 31.566406 105.875 L 31.566406 105.148438 C 31.773438 105.265625 32.003906 105.359375 32.25 105.425781 C 32.503906 105.488281 32.765625 105.515625 33.035156 105.515625 C 33.503906 105.515625 33.863281 105.425781 34.109375 105.238281 C 34.359375 105.050781 34.488281 104.777344 34.488281 104.417969 C 34.488281 104.089844 34.371094 103.832031 34.140625 103.652344 C 33.910156 103.46875 33.589844 103.375 33.179688 103.375 L 32.53125 103.375 L 32.53125 102.746094 L 33.214844 102.746094 C 33.578125 102.746094 33.855469 102.675781 34.054688 102.53125 C 34.253906 102.382812 34.355469 102.167969 34.355469 101.878906 C 34.355469 101.597656 34.253906 101.382812 34.054688 101.230469 C 33.851562 101.074219 33.558594 100.992188 33.179688 100.992188 C 32.96875 100.992188 32.746094 101.015625 32.507812 101.0625 C 32.277344 101.105469 32.019531 101.171875 31.734375 101.261719 L 31.734375 100.589844 C 32.019531 100.515625 32.285156 100.460938 32.53125 100.421875 C 32.78125 100.375 33.023438 100.355469 33.246094 100.355469 C 33.820312 100.355469 34.269531 100.484375 34.601562 100.746094 C 34.9375 101.011719 35.105469 101.363281 35.105469 101.800781 C 35.105469 102.117188 35.015625 102.382812 34.835938 102.597656 C 34.664062 102.808594 34.414062 102.957031 34.085938 103.035156 Z M 34.085938 103.035156 "
         id="path85" />
    </g>
    <path
       style=" stroke:none;fill-rule:nonzero;fill:rgb(0%,0%,100%);fill-opacity:1;"
       d="M 36.742188 95.835938 L 37.960938 95.835938 L 40.929688 101.4375 L 40.929688 95.835938 L 41.804688 95.835938 L 41.804688 102.539062 L 40.582031 102.539062 L 37.628906 96.9375 L 37.628906 102.539062 L 36.742188 102.539062 Z M 36.742188 95.835938 "
       id="path89" />
    <path
       style=" stroke:none;fill-rule:nonzero;fill:rgb(0%,79.998779%,0%);fill-opacity:1;"
       d="M 127.972656 17.074219 L 127.972656 18.027344 C 127.671875 17.746094 127.347656 17.535156 127 17.398438 C 126.65625 17.261719 126.289062 17.1875 125.902344 17.1875 C 125.140625 17.1875 124.554688 17.421875 124.144531 17.894531 C 123.742188 18.359375 123.539062 19.035156 123.539062 19.914062 C 123.539062 20.796875 123.742188 21.476562 124.144531 21.945312 C 124.554688 22.410156 125.140625 22.640625 125.902344 22.640625 C 126.289062 22.640625 126.65625 22.574219 127 22.441406 C 127.347656 22.300781 127.671875 22.085938 127.972656 21.800781 L 127.972656 22.742188 C 127.660156 22.960938 127.324219 23.125 126.964844 23.238281 C 126.613281 23.339844 126.242188 23.394531 125.855469 23.394531 C 124.839844 23.394531 124.042969 23.085938 123.460938 22.460938 C 122.878906 21.84375 122.589844 20.992188 122.589844 19.914062 C 122.589844 18.835938 122.878906 17.988281 123.460938 17.367188 C 124.042969 16.746094 124.839844 16.433594 125.855469 16.433594 C 126.25 16.433594 126.625 16.492188 126.976562 16.601562 C 127.335938 16.710938 127.664062 16.867188 127.972656 17.074219 Z M 127.972656 17.074219 "
       id="path91" />
    <path
       style=" stroke:none;fill-rule:nonzero;fill:rgb(0%,79.998779%,0%);fill-opacity:1;"
       d="M 129.339844 16.277344 L 130.167969 16.277344 L 130.167969 23.257812 L 129.339844 23.257812 Z M 129.339844 16.277344 "
       id="path93" />
    <g
       clip-path="url(#clip3)"
       clip-rule="nonzero"
       id="g97">
      <path
         style=" stroke:none;fill-rule:nonzero;fill:rgb(0%,79.998779%,0%);fill-opacity:1;"
         d="M 131.921875 16.558594 L 132.828125 16.558594 L 132.828125 19.308594 L 136.121094 19.308594 L 136.121094 16.558594 L 137.015625 16.558594 L 137.015625 23.257812 L 136.121094 23.257812 L 136.121094 20.070312 L 132.828125 20.070312 L 132.828125 23.257812 L 131.921875 23.257812 Z M 131.921875 16.558594 "
         id="path95" />
    </g>
    <path
       style=" stroke:none;fill-rule:nonzero;fill:rgb(79.998779%,79.998779%,0%);fill-opacity:1;"
       d="M 84.882812 36.730469 L 84.882812 37.605469 C 84.535156 37.441406 84.210938 37.320312 83.90625 37.246094 C 83.609375 37.164062 83.316406 37.121094 83.035156 37.121094 C 82.542969 37.121094 82.160156 37.21875 81.890625 37.414062 C 81.625 37.601562 81.488281 37.871094 81.488281 38.222656 C 81.488281 38.523438 81.578125 38.746094 81.757812 38.894531 C 81.9375 39.046875 82.273438 39.164062 82.765625 39.253906 L 83.3125 39.367188 C 83.984375 39.5 84.480469 39.730469 84.800781 40.050781 C 85.121094 40.375 85.285156 40.808594 85.285156 41.351562 C 85.285156 42.003906 85.066406 42.496094 84.632812 42.835938 C 84.199219 43.171875 83.566406 43.339844 82.730469 43.339844 C 82.410156 43.339844 82.070312 43.300781 81.710938 43.226562 C 81.359375 43.15625 80.992188 43.046875 80.605469 42.914062 L 80.605469 41.96875 C 80.976562 42.179688 81.335938 42.339844 81.691406 42.441406 C 82.039062 42.546875 82.386719 42.597656 82.730469 42.597656 C 83.246094 42.597656 83.640625 42.496094 83.917969 42.296875 C 84.199219 42.09375 84.34375 41.800781 84.34375 41.421875 C 84.34375 41.09375 84.242188 40.835938 84.042969 40.65625 C 83.839844 40.472656 83.507812 40.328125 83.046875 40.230469 L 82.496094 40.128906 C 81.824219 39.996094 81.335938 39.789062 81.03125 39.5 C 80.730469 39.210938 80.582031 38.8125 80.582031 38.300781 C 80.582031 37.703125 80.789062 37.234375 81.207031 36.898438 C 81.625 36.554688 82.199219 36.378906 82.933594 36.378906 C 83.246094 36.378906 83.5625 36.410156 83.882812 36.46875 C 84.210938 36.523438 84.546875 36.609375 84.882812 36.730469 Z M 84.882812 36.730469 "
       id="path99" />
    <path
       style=" stroke:none;fill-rule:nonzero;fill:rgb(79.998779%,79.998779%,0%);fill-opacity:1;"
       d="M 86.695312 36.503906 L 87.601562 36.503906 L 87.601562 39.253906 L 90.894531 39.253906 L 90.894531 36.503906 L 91.789062 36.503906 L 91.789062 43.207031 L 90.894531 43.207031 L 90.894531 40.015625 L 87.601562 40.015625 L 87.601562 43.207031 L 86.695312 43.207031 Z M 86.695312 36.503906 "
       id="path101" />
    <path
       style=" stroke:none;fill-rule:nonzero;fill:rgb(79.998779%,79.998779%,0%);fill-opacity:1;"
       d="M 94.164062 46.074219 L 96.792969 46.074219 L 96.792969 46.710938 L 93.253906 46.710938 L 93.253906 46.074219 C 93.539062 45.78125 93.925781 45.386719 94.417969 44.882812 C 94.917969 44.382812 95.230469 44.0625 95.359375 43.917969 C 95.597656 43.644531 95.765625 43.410156 95.863281 43.222656 C 95.960938 43.035156 96.007812 42.847656 96.007812 42.660156 C 96.007812 42.367188 95.902344 42.128906 95.695312 41.941406 C 95.484375 41.757812 95.214844 41.660156 94.878906 41.660156 C 94.644531 41.660156 94.398438 41.703125 94.128906 41.785156 C 93.867188 41.871094 93.585938 41.992188 93.289062 42.15625 L 93.289062 41.390625 C 93.59375 41.273438 93.875 41.183594 94.140625 41.121094 C 94.410156 41.054688 94.648438 41.023438 94.867188 41.023438 C 95.441406 41.023438 95.898438 41.167969 96.246094 41.460938 C 96.59375 41.746094 96.769531 42.128906 96.769531 42.617188 C 96.769531 42.847656 96.726562 43.070312 96.636719 43.277344 C 96.546875 43.480469 96.390625 43.722656 96.167969 43.996094 C 96.105469 44.070312 95.910156 44.28125 95.574219 44.625 C 95.238281 44.96875 94.765625 45.453125 94.164062 46.074219 Z M 94.164062 46.074219 "
       id="path103" />
    <g
       clip-path="url(#clip4)"
       clip-rule="nonzero"
       id="g107">
      <path
         style="fill:none;stroke-width:1.2;stroke-linecap:butt;stroke-linejoin:miter;stroke:rgb(0%,0%,0%);stroke-opacity:1;stroke-miterlimit:10;"
         d="M 131.306348 136.020403 L 158.37395 163.045923 "
         transform="matrix(0.716522,0,0,0.71836,-79.107323,-90.242919)"
         id="path105" />
    </g>
    <path
       style="fill:none;stroke-width:1.2;stroke-linecap:butt;stroke-linejoin:miter;stroke:rgb(0%,0%,0%);stroke-opacity:1;stroke-miterlimit:10;"
       d="M 158.37395 163.045923 L 148.500953 200.000737 "
       transform="matrix(0.716522,0,0,0.71836,-79.107323,-90.242919)"
       id="path109" />
    <g
       clip-path="url(#clip5)"
       clip-rule="nonzero"
       id="g113">
      <path
         style="fill:none;stroke-width:1.2;stroke-linecap:butt;stroke-linejoin:miter;stroke:rgb(0%,0%,0%);stroke-opacity:1;stroke-miterlimit:10;"
         d="M 148.500953 200.000737 L 111.560356 209.924595 "
         transform="matrix(0.716522,0,0,0.71836,-79.107323,-90.242919)"
         id="path111" />
    </g>
    <path
       style="fill:none;stroke-width:1.2;stroke-linecap:butt;stroke-linejoin:miter;stroke:rgb(0%,0%,0%);stroke-opacity:1;stroke-miterlimit:10;"
       d="M 148.500953 200.000737 L 175.568554 227.026257 "
       transform="matrix(0.716522,0,0,0.71836,-79.107323,-90.242919)"
       id="path115" />
    <path
       style="fill:none;stroke-width:1.2;stroke-linecap:butt;stroke-linejoin:miter;stroke:rgb(0%,0%,0%);stroke-opacity:1;stroke-miterlimit:10;"
       d="M 175.568554 227.026257 L 171.779635 241.191544 "
       transform="matrix(0.716522,0,0,0.71836,-79.107323,-90.242919)"
       id="path117" />
    <path
       style="fill:none;stroke-width:1.2;stroke-linecap:butt;stroke-linejoin:miter;stroke:rgb(0%,0%,100%);stroke-opacity:1;stroke-miterlimit:10;"
       d="M 171.779635 241.191544 L 167.996168 255.356831 "
       transform="matrix(0.716522,0,0,0.71836,-79.107323,-90.242919)"
       id="path119" />
    <path
       style="fill:none;stroke-width:1.2;stroke-linecap:butt;stroke-linejoin:miter;stroke:rgb(0%,0%,0%);stroke-opacity:1;stroke-miterlimit:10;"
       d="M 175.568554 227.026257 L 212.5037 217.107837 "
       transform="matrix(0.716522,0,0,0.71836,-79.107323,-90.242919)"
       id="path121" />
    <path
       style="fill:none;stroke-width:1.2;stroke-linecap:butt;stroke-linejoin:miter;stroke:rgb(0%,0%,0%);stroke-opacity:1;stroke-miterlimit:10;"
       d="M 212.5037 217.107837 L 242.248077 241.158918 "
       transform="matrix(0.716522,0,0,0.71836,-79.107323,-90.242919)"
       id="path123" />
    <path
       style="fill:none;stroke-width:1.2;stroke-linecap:butt;stroke-linejoin:miter;stroke:rgb(0%,0%,0%);stroke-opacity:1;stroke-miterlimit:10;"
       d="M 220.196023 213.676629 L 243.987163 232.915319 "
       transform="matrix(0.716522,0,0,0.71836,-79.107323,-90.242919)"
       id="path125" />
    <path
       style="fill:none;stroke-width:1.2;stroke-linecap:butt;stroke-linejoin:miter;stroke:rgb(0%,0%,0%);stroke-opacity:1;stroke-miterlimit:10;"
       d="M 212.5037 217.107837 L 217.481086 204.122537 "
       transform="matrix(0.716522,0,0,0.71836,-79.107323,-90.242919)"
       id="path127" />
    <path
       style="fill:none;stroke-width:1.2;stroke-linecap:butt;stroke-linejoin:miter;stroke:rgb(79.998779%,79.998779%,0%);stroke-opacity:1;stroke-miterlimit:10;"
       d="M 217.481086 204.122537 L 222.453019 191.137237 "
       transform="matrix(0.716522,0,0,0.71836,-79.107323,-90.242919)"
       id="path129" />
    <path
       style="fill:none;stroke-width:1.2;stroke-linecap:butt;stroke-linejoin:miter;stroke:rgb(0%,0%,0%);stroke-opacity:1;stroke-miterlimit:10;"
       d="M 242.248077 241.158918 L 274.31487 220.299784 "
       transform="matrix(0.716522,0,0,0.71836,-79.107323,-90.242919)"
       id="path131" />
    <path
       style="fill:none;stroke-width:1.2;stroke-linecap:butt;stroke-linejoin:miter;stroke:rgb(0%,0%,0%);stroke-opacity:1;stroke-miterlimit:10;"
       d="M 274.31487 220.299784 L 264.387357 183.361283 "
       transform="matrix(0.716522,0,0,0.71836,-79.107323,-90.242919)"
       id="path133" />
    <path
       style="fill:none;stroke-width:1.2;stroke-linecap:butt;stroke-linejoin:miter;stroke:rgb(0%,0%,0%);stroke-opacity:1;stroke-miterlimit:10;"
       d="M 266.077379 218.554273 L 258.134278 189.000209 "
       transform="matrix(0.716522,0,0,0.71836,-79.107323,-90.242919)"
       id="path135" />
    <path
       style="fill:none;stroke-width:1.2;stroke-linecap:butt;stroke-linejoin:miter;stroke:rgb(0%,0%,0%);stroke-opacity:1;stroke-miterlimit:10;"
       d="M 264.387357 183.361283 L 272.472202 173.361297 "
       transform="matrix(0.716522,0,0,0.71836,-79.107323,-90.242919)"
       id="path137" />
    <path
       style="fill:none;stroke-width:1.2;stroke-linecap:butt;stroke-linejoin:miter;stroke:rgb(0%,79.998779%,0%);stroke-opacity:1;stroke-miterlimit:10;"
       d="M 272.472202 173.361297 L 280.557046 163.372186 "
       transform="matrix(0.716522,0,0,0.71836,-79.107323,-90.242919)"
       id="path139" />
    <path
       style="fill:none;stroke-width:1.2;stroke-linecap:butt;stroke-linejoin:miter;stroke:rgb(0%,0%,0%);stroke-opacity:1;stroke-miterlimit:10;"
       d="M 264.387357 183.361283 L 256.45516 182.948015 "
       transform="matrix(0.716522,0,0,0.71836,-79.107323,-90.242919)"
       id="path141" />
    <path
       style="fill:none;stroke-width:1.2;stroke-linecap:butt;stroke-linejoin:miter;stroke:rgb(79.998779%,79.998779%,0%);stroke-opacity:1;stroke-miterlimit:10;"
       d="M 256.45516 182.948015 L 248.522963 182.540186 "
       transform="matrix(0.716522,0,0,0.71836,-79.107323,-90.242919)"
       id="path143" />
    <path
       style="fill-rule:nonzero;fill:rgb(61.959839%,61.959839%,61.959839%);fill-opacity:1;stroke-width:1;stroke-linecap:butt;stroke-linejoin:miter;stroke:rgb(0%,0%,0%);stroke-opacity:1;stroke-miterlimit:4;"
       d="M 312.998174 101.498154 C 312.998174 101.994402 312.954548 102.479744 312.856389 102.965086 C 312.75823 103.444975 312.616445 103.913957 312.431033 104.372032 C 312.240168 104.824655 312.011131 105.255464 311.738467 105.66446 C 311.460349 106.078909 311.149512 106.455185 310.805956 106.804195 C 310.456946 107.153205 310.075216 107.464042 309.66622 107.736706 C 309.257224 108.00937 308.826415 108.238408 308.36834 108.429273 C 307.915717 108.620138 307.446735 108.761923 306.961393 108.854629 C 306.481505 108.952788 305.990709 109.001867 305.499914 109.001867 C 305.009119 109.001867 304.518324 108.952788 304.038435 108.854629 C 303.553093 108.761923 303.084111 108.620138 302.631489 108.429273 C 302.173413 108.238408 301.742604 108.00937 301.333608 107.736706 C 300.924612 107.464042 300.542882 107.153205 300.199326 106.804195 C 299.850316 106.455185 299.539479 106.078909 299.261362 105.66446 C 298.988698 105.255464 298.75966 104.824655 298.568795 104.372032 C 298.383383 103.913957 298.241598 103.444975 298.143439 102.965086 C 298.04528 102.479744 298.001654 101.994402 298.001654 101.498154 C 298.001654 101.007358 298.04528 100.522016 298.143439 100.036675 C 298.241598 99.551333 298.383383 99.08235 298.568795 98.629728 C 298.75966 98.177106 298.988698 97.740844 299.261362 97.331848 C 299.539479 96.922851 299.850316 96.546575 300.199326 96.197565 C 300.542882 95.848555 300.924612 95.537718 301.333608 95.265054 C 301.742604 94.99239 302.173413 94.757899 302.631489 94.572488 C 303.084111 94.381623 303.553093 94.239838 304.038435 94.141679 C 304.518324 94.048973 305.009119 93.999893 305.499914 93.999893 C 305.990709 93.999893 306.481505 94.048973 306.961393 94.141679 C 307.446735 94.239838 307.915717 94.381623 308.36834 94.572488 C 308.826415 94.757899 309.257224 94.99239 309.66622 95.265054 C 310.075216 95.537718 310.456946 95.848555 310.805956 96.197565 C 311.149512 96.546575 311.460349 96.922851 311.738467 97.331848 C 312.011131 97.740844 312.240168 98.177106 312.431033 98.629728 C 312.616445 99.08235 312.75823 99.551333 312.856389 100.036675 C 312.954548 100.522016 312.998174 101.007358 312.998174 101.498154 Z M 312.998174 101.498154 "
       transform="matrix(0.716312,0,0,0.716312,0.358156,0.358156)"
       id="path145" />
    <path
       style=" stroke:none;fill-rule:nonzero;fill:rgb(79.998779%,89.7995%,100%);fill-opacity:1;"
       d="M 217.402344 98.132812 C 217.402344 98.488281 217.367188 98.835938 217.296875 99.183594 C 217.230469 99.527344 217.125 99.863281 216.992188 100.191406 C 216.855469 100.515625 216.691406 100.824219 216.496094 101.121094 C 216.300781 101.414062 216.078125 101.683594 215.828125 101.933594 C 215.578125 102.183594 215.304688 102.40625 215.011719 102.601562 C 214.71875 102.796875 214.410156 102.964844 214.085938 103.097656 C 213.757812 103.234375 213.421875 103.335938 213.078125 103.402344 C 212.730469 103.472656 212.382812 103.507812 212.027344 103.507812 C 211.675781 103.507812 211.328125 103.472656 210.980469 103.402344 C 210.632812 103.335938 210.296875 103.234375 209.972656 103.097656 C 209.648438 102.964844 209.335938 102.796875 209.042969 102.601562 C 208.75 102.40625 208.480469 102.183594 208.230469 101.933594 C 207.980469 101.683594 207.757812 101.414062 207.5625 101.121094 C 207.367188 100.824219 207.199219 100.515625 207.066406 100.191406 C 206.929688 99.863281 206.828125 99.527344 206.757812 99.183594 C 206.691406 98.835938 206.65625 98.488281 206.65625 98.132812 C 206.65625 97.78125 206.691406 97.433594 206.757812 97.085938 C 206.828125 96.742188 206.929688 96.40625 207.066406 96.078125 C 207.199219 95.753906 207.367188 95.441406 207.5625 95.148438 C 207.757812 94.855469 207.980469 94.585938 208.230469 94.335938 C 208.480469 94.085938 208.75 93.863281 209.042969 93.667969 C 209.335938 93.472656 209.648438 93.304688 209.972656 93.171875 C 210.296875 93.035156 210.632812 92.933594 210.980469 92.867188 C 211.328125 92.796875 211.675781 92.761719 212.027344 92.761719 C 212.382812 92.761719 212.730469 92.796875 213.078125 92.867188 C 213.421875 92.933594 213.757812 93.035156 214.085938 93.171875 C 214.410156 93.304688 214.71875 93.472656 215.011719 93.667969 C 215.304688 93.863281 215.578125 94.085938 215.828125 94.335938 C 216.078125 94.585938 216.300781 94.855469 216.496094 95.148438 C 216.691406 95.441406 216.855469 95.753906 216.992188 96.078125 C 217.125 96.40625 217.230469 96.742188 217.296875 97.085938 C 217.367188 97.433594 217.402344 97.78125 217.402344 98.132812 Z M 217.402344 98.132812 "
       id="path147" />
    <g
       clip-path="url(#clip6)"
       clip-rule="nonzero"
       id="g151">
      <path
         style="fill:none;stroke-width:1;stroke-linecap:butt;stroke-linejoin:miter;stroke:rgb(21.179199%,22.349548%,23.919678%);stroke-opacity:1;stroke-miterlimit:4;"
         d="M 303.002312 136.497306 C 303.002312 136.993555 302.953232 137.478897 302.855073 137.964239 C 302.762367 138.444127 302.615129 138.913109 302.429717 139.371185 C 302.238853 139.823807 302.009815 140.254616 301.737151 140.669066 C 301.464487 141.078062 301.15365 141.454338 300.80464 141.803348 C 300.45563 142.152358 300.0739 142.463195 299.664904 142.735859 C 299.255908 143.008523 298.825099 143.243014 298.372477 143.428425 C 297.914401 143.61929 297.445419 143.761075 296.965531 143.853781 C 296.480189 143.95194 295.994847 144.00102 295.498598 144.00102 C 295.007803 144.00102 294.522461 143.95194 294.037119 143.853781 C 293.551777 143.761075 293.082795 143.61929 292.630173 143.428425 C 292.17755 143.243014 291.741288 143.008523 291.332292 142.735859 C 290.923296 142.463195 290.54702 142.152358 290.19801 141.803348 C 289.849 141.454338 289.538163 141.078062 289.265499 140.669066 C 288.992835 140.254616 288.758344 139.823807 288.572932 139.371185 C 288.382067 138.913109 288.240282 138.444127 288.142123 137.964239 C 288.049417 137.478897 288.000338 136.993555 288.000338 136.497306 C 288.000338 136.006511 288.049417 135.521169 288.142123 135.035827 C 288.240282 134.555938 288.382067 134.086956 288.572932 133.628881 C 288.758344 133.176259 288.992835 132.739996 289.265499 132.331 C 289.538163 131.922004 289.849 131.545728 290.19801 131.196718 C 290.54702 130.847708 290.923296 130.536871 291.332292 130.264207 C 291.741288 129.991543 292.17755 129.757052 292.630173 129.57164 C 293.082795 129.380775 293.551777 129.23899 294.037119 129.146284 C 294.522461 129.048125 295.007803 128.999046 295.498598 128.999046 C 295.994847 128.999046 296.480189 129.048125 296.965531 129.146284 C 297.445419 129.23899 297.914401 129.380775 298.372477 129.57164 C 298.825099 129.757052 299.255908 129.991543 299.664904 130.264207 C 300.0739 130.536871 300.45563 130.847708 300.80464 131.196718 C 301.15365 131.545728 301.464487 131.922004 301.737151 132.331 C 302.009815 132.739996 302.238853 133.176259 302.429717 133.628881 C 302.615129 134.086956 302.762367 134.555938 302.855073 135.035827 C 302.953232 135.521169 303.002312 136.006511 303.002312 136.497306 Z M 303.002312 136.497306 "
         transform="matrix(0.716312,0,0,0.716312,0.358156,0.358156)"
         id="path149" />
    </g>
    <path
       style="fill-rule:nonzero;fill:rgb(100%,100%,53.329468%);fill-opacity:1;stroke-width:1;stroke-linecap:butt;stroke-linejoin:miter;stroke:rgb(21.179199%,22.349548%,23.919678%);stroke-opacity:1;stroke-miterlimit:4;"
       d="M 365.000655 57.501089 C 365.000655 57.991884 364.951575 58.482679 364.853416 58.962568 C 364.76071 59.44791 364.618925 59.916892 364.42806 60.369514 C 364.242649 60.82759 364.008158 61.258399 363.735494 61.667395 C 363.46283 62.076391 363.151993 62.452667 362.802983 62.801677 C 362.453973 63.150687 362.077697 63.461524 361.668701 63.734188 C 361.259705 64.012305 360.823442 64.241343 360.37082 64.426755 C 359.912744 64.617619 359.443762 64.759405 358.963874 64.857564 C 358.478532 64.950269 357.99319 64.999349 357.502394 64.999349 C 357.006146 64.999349 356.520804 64.950269 356.035462 64.857564 C 355.555573 64.759405 355.086591 64.617619 354.628516 64.426755 C 354.175894 64.241343 353.745084 64.012305 353.330635 63.734188 C 352.921639 63.461524 352.545363 63.150687 352.196353 62.801677 C 351.847343 62.452667 351.536506 62.076391 351.263842 61.667395 C 350.991178 61.258399 350.756687 60.82759 350.571275 60.369514 C 350.38041 59.916892 350.238625 59.44791 350.145919 58.962568 C 350.04776 58.482679 349.998681 57.991884 349.998681 57.501089 C 349.998681 57.00484 350.04776 56.519498 350.145919 56.034156 C 350.238625 55.554268 350.38041 55.085285 350.571275 54.62721 C 350.756687 54.174588 350.991178 53.743779 351.263842 53.334783 C 351.536506 52.925787 351.847343 52.544057 352.196353 52.195047 C 352.545363 51.846037 352.921639 51.5352 353.330635 51.262536 C 353.745084 50.989872 354.175894 50.760834 354.628516 50.569969 C 355.086591 50.384558 355.555573 50.242773 356.035462 50.144614 C 356.520804 50.046455 357.006146 49.997375 357.502394 49.997375 C 357.99319 49.997375 358.478532 50.046455 358.963874 50.144614 C 359.443762 50.242773 359.912744 50.384558 360.37082 50.569969 C 360.823442 50.760834 361.259705 50.989872 361.668701 51.262536 C 362.077697 51.5352 362.453973 51.846037 362.802983 52.195047 C 363.151993 52.544057 363.46283 52.925787 363.735494 53.334783 C 364.008158 53.743779 364.242649 54.174588 364.42806 54.62721 C 364.618925 55.085285 364.76071 55.554268 364.853416 56.034156 C 364.951575 56.519498 365.000655 57.00484 365.000655 57.501089 Z M 365.000655 57.501089 "
       transform="matrix(0.716312,0,0,0.716312,0.358156,0.358156)"
       id="path153" />
    <path
       style=" stroke:none;fill-rule:nonzero;fill:rgb(80.389404%,92.158508%,54.508972%);fill-opacity:1;"
       d="M 301.925781 24.355469 C 301.925781 24.707031 301.890625 25.058594 301.820312 25.402344 C 301.753906 25.75 301.652344 26.085938 301.515625 26.410156 C 301.382812 26.738281 301.214844 27.046875 301.019531 27.339844 C 300.824219 27.632812 300.601562 27.902344 300.351562 28.152344 C 300.101562 28.402344 299.832031 28.625 299.539062 28.820312 C 299.246094 29.015625 298.933594 29.183594 298.609375 29.316406 C 298.28125 29.453125 297.945312 29.554688 297.601562 29.625 C 297.253906 29.691406 296.90625 29.726562 296.554688 29.726562 C 296.199219 29.726562 295.851562 29.691406 295.503906 29.625 C 295.160156 29.554688 294.824219 29.453125 294.496094 29.316406 C 294.171875 29.183594 293.863281 29.015625 293.570312 28.820312 C 293.273438 28.625 293.003906 28.402344 292.753906 28.152344 C 292.503906 27.902344 292.28125 27.632812 292.085938 27.339844 C 291.890625 27.046875 291.726562 26.738281 291.589844 26.410156 C 291.453125 26.085938 291.351562 25.75 291.285156 25.402344 C 291.214844 25.058594 291.179688 24.707031 291.179688 24.355469 C 291.179688 24 291.214844 23.652344 291.285156 23.304688 C 291.351562 22.960938 291.453125 22.625 291.589844 22.296875 C 291.726562 21.972656 291.890625 21.664062 292.085938 21.371094 C 292.28125 21.078125 292.503906 20.804688 292.753906 20.554688 C 293.003906 20.304688 293.273438 20.082031 293.570312 19.886719 C 293.863281 19.691406 294.171875 19.527344 294.496094 19.390625 C 294.824219 19.257812 295.160156 19.15625 295.503906 19.085938 C 295.851562 19.015625 296.199219 18.980469 296.554688 18.980469 C 296.90625 18.980469 297.253906 19.015625 297.601562 19.085938 C 297.945312 19.15625 298.28125 19.257812 298.609375 19.390625 C 298.933594 19.527344 299.246094 19.691406 299.539062 19.886719 C 299.832031 20.082031 300.101562 20.304688 300.351562 20.554688 C 300.601562 20.804688 300.824219 21.078125 301.019531 21.371094 C 301.214844 21.664062 301.382812 21.972656 301.515625 22.296875 C 301.652344 22.625 301.753906 22.960938 301.820312 23.304688 C 301.890625 23.652344 301.925781 24 301.925781 24.355469 Z M 301.925781 24.355469 "
       id="path155" />
    <g
       clip-path="url(#clip7)"
       clip-rule="nonzero"
       id="g159">
      <path
         style="fill:none;stroke-width:1;stroke-linecap:butt;stroke-linejoin:miter;stroke:rgb(21.179199%,22.349548%,23.919678%);stroke-opacity:1;stroke-miterlimit:4;"
         d="M 421.00039 33.501202 C 421.00039 33.991998 420.95131 34.482793 420.853151 34.962681 C 420.760445 35.448023 420.61866 35.917005 420.427795 36.369628 C 420.242384 36.827703 420.007893 37.258512 419.735229 37.667508 C 419.462565 38.076504 419.151728 38.452781 418.802718 38.801791 C 418.453708 39.150801 418.077431 39.461638 417.668435 39.734302 C 417.259439 40.006966 416.823177 40.241457 416.370555 40.426868 C 415.912479 40.617733 415.443497 40.759518 414.963608 40.857677 C 414.478266 40.950383 413.992924 40.999463 413.502129 40.999463 C 413.005881 40.999463 412.520539 40.950383 412.035197 40.857677 C 411.555308 40.759518 411.086326 40.617733 410.628251 40.426868 C 410.175628 40.241457 409.744819 40.006966 409.335823 39.734302 C 408.921374 39.461638 408.545098 39.150801 408.196088 38.801791 C 407.847078 38.452781 407.536241 38.076504 407.263577 37.667508 C 406.990913 37.258512 406.761875 36.827703 406.57101 36.369628 C 406.380145 35.917005 406.23836 35.448023 406.145654 34.962681 C 406.047495 34.482793 405.998416 33.991998 405.998416 33.501202 C 405.998416 33.004954 406.047495 32.519612 406.145654 32.03427 C 406.23836 31.554381 406.380145 31.085399 406.57101 30.627324 C 406.761875 30.174701 406.990913 29.743892 407.263577 29.334896 C 407.536241 28.9259 407.847078 28.544171 408.196088 28.195161 C 408.545098 27.846151 408.921374 27.535314 409.335823 27.26265 C 409.744819 26.989986 410.175628 26.760948 410.628251 26.570083 C 411.086326 26.384672 411.555308 26.242886 412.035197 26.144727 C 412.520539 26.046568 413.005881 25.997489 413.502129 25.997489 C 413.992924 25.997489 414.478266 26.046568 414.963608 26.144727 C 415.443497 26.242886 415.912479 26.384672 416.370555 26.570083 C 416.823177 26.760948 417.259439 26.989986 417.668435 27.26265 C 418.077431 27.535314 418.453708 27.846151 418.802718 28.195161 C 419.151728 28.544171 419.462565 28.9259 419.735229 29.334896 C 420.007893 29.743892 420.242384 30.174701 420.427795 30.627324 C 420.61866 31.085399 420.760445 31.554381 420.853151 32.03427 C 420.95131 32.519612 421.00039 33.004954 421.00039 33.501202 Z M 421.00039 33.501202 "
         transform="matrix(0.716312,0,0,0.716312,0.358156,0.358156)"
         id="path157" />
    </g>
    <path
       style="fill-rule:nonzero;fill:rgb(61.959839%,61.959839%,61.959839%);fill-opacity:1;stroke-width:1;stroke-linecap:butt;stroke-linejoin:miter;stroke:rgb(0%,0%,0%);stroke-opacity:1;stroke-miterlimit:4;"
       d="M 285.998984 72.497609 C 285.998984 72.993858 285.949904 73.4792 285.857199 73.964542 C 285.75904 74.44443 285.617254 74.913412 285.42639 75.371488 C 285.240978 75.82411 285.01194 76.254919 284.733823 76.669369 C 284.461159 77.078365 284.150322 77.454641 283.801312 77.803651 C 283.457755 78.152661 283.076026 78.463498 282.66703 78.736162 C 282.258034 79.008826 281.827225 79.243317 281.369149 79.428728 C 280.916527 79.619593 280.447545 79.761379 279.962203 79.854084 C 279.482314 79.952243 278.991519 80.001323 278.500724 80.001323 C 278.009928 80.001323 277.519133 79.952243 277.039245 79.854084 C 276.553903 79.761379 276.084921 79.619593 275.632298 79.428728 C 275.174223 79.243317 274.743414 79.008826 274.334418 78.736162 C 273.925422 78.463498 273.543692 78.152661 273.194682 77.803651 C 272.851125 77.454641 272.534835 77.078365 272.262171 76.669369 C 271.989507 76.254919 271.760469 75.82411 271.569604 75.371488 C 271.384193 74.913412 271.242408 74.44443 271.144249 73.964542 C 271.04609 73.4792 271.002463 72.993858 271.002463 72.497609 C 271.002463 72.006814 271.04609 71.521472 271.144249 71.03613 C 271.242408 70.556242 271.384193 70.087259 271.569604 69.629184 C 271.760469 69.176562 271.989507 68.740299 272.262171 68.331303 C 272.534835 67.922307 272.851125 67.546031 273.194682 67.197021 C 273.543692 66.848011 273.925422 66.537174 274.334418 66.26451 C 274.743414 65.991846 275.174223 65.757355 275.632298 65.571943 C 276.084921 65.381079 276.553903 65.239293 277.039245 65.146588 C 277.519133 65.048428 278.009928 64.999349 278.500724 64.999349 C 278.991519 64.999349 279.482314 65.048428 279.962203 65.146588 C 280.447545 65.239293 280.916527 65.381079 281.369149 65.571943 C 281.827225 65.757355 282.258034 65.991846 282.66703 66.26451 C 283.076026 66.537174 283.457755 66.848011 283.801312 67.197021 C 284.150322 67.546031 284.461159 67.922307 284.733823 68.331303 C 285.01194 68.740299 285.240978 69.176562 285.42639 69.629184 C 285.617254 70.087259 285.75904 70.556242 285.857199 71.03613 C 285.949904 71.521472 285.998984 72.006814 285.998984 72.497609 Z M 285.998984 72.497609 "
       transform="matrix(0.716312,0,0,0.716312,0.358156,0.358156)"
       id="path161" />
    <path
       style="fill-rule:nonzero;fill:rgb(61.959839%,61.959839%,61.959839%);fill-opacity:1;stroke-width:1;stroke-linecap:butt;stroke-linejoin:miter;stroke:rgb(0%,0%,0%);stroke-opacity:1;stroke-miterlimit:4;"
       d="M 245.999173 86.501633 C 245.999173 86.992428 245.950094 87.47777 245.857388 87.963112 C 245.759229 88.448454 245.617444 88.917436 245.426579 89.370058 C 245.241167 89.822681 245.01213 90.258943 244.734012 90.667939 C 244.461348 91.076935 244.150511 91.453211 243.801501 91.802221 C 243.452492 92.151231 243.076215 92.462068 242.667219 92.734732 C 242.258223 93.007396 241.827414 93.241887 241.369338 93.427299 C 240.916716 93.618164 240.447734 93.759949 239.962392 93.858108 C 239.482504 93.950814 238.991708 93.999893 238.500913 93.999893 C 238.010118 93.999893 237.519323 93.950814 237.039434 93.858108 C 236.554092 93.759949 236.08511 93.618164 235.632488 93.427299 C 235.174412 93.241887 234.743603 93.007396 234.334607 92.734732 C 233.925611 92.462068 233.543881 92.151231 233.194871 91.802221 C 232.845861 91.453211 232.535025 91.076935 232.26236 90.667939 C 231.989696 90.258943 231.760659 89.822681 231.569794 89.370058 C 231.384382 88.917436 231.242597 88.448454 231.144438 87.963112 C 231.046279 87.47777 231.002653 86.992428 231.002653 86.501633 C 231.002653 86.005384 231.046279 85.520043 231.144438 85.034701 C 231.242597 84.554812 231.384382 84.08583 231.569794 83.627754 C 231.760659 83.175132 231.989696 82.744323 232.26236 82.335327 C 232.535025 81.926331 232.845861 81.544601 233.194871 81.195591 C 233.543881 80.846581 233.925611 80.535744 234.334607 80.26308 C 234.743603 79.990416 235.174412 79.761379 235.632488 79.570514 C 236.08511 79.385102 236.554092 79.237864 237.039434 79.145158 C 237.519323 79.046999 238.010118 78.997919 238.500913 78.997919 C 238.991708 78.997919 239.482504 79.046999 239.962392 79.145158 C 240.447734 79.237864 240.916716 79.385102 241.369338 79.570514 C 241.827414 79.761379 242.258223 79.990416 242.667219 80.26308 C 243.076215 80.535744 243.452492 80.846581 243.801501 81.195591 C 244.150511 81.544601 244.461348 81.926331 244.734012 82.335327 C 245.01213 82.744323 245.241167 83.175132 245.426579 83.627754 C 245.617444 84.08583 245.759229 84.554812 245.857388 85.034701 C 245.950094 85.520043 245.999173 86.005384 245.999173 86.501633 Z M 245.999173 86.501633 "
       transform="matrix(0.716312,0,0,0.716312,0.358156,0.358156)"
       id="path163" />
    <path
       style="fill-rule:nonzero;fill:rgb(61.959839%,61.959839%,61.959839%);fill-opacity:1;stroke-width:1;stroke-linecap:butt;stroke-linejoin:miter;stroke:rgb(0%,0%,0%);stroke-opacity:1;stroke-miterlimit:4;"
       d="M 295.00235 36.500506 C 295.00235 36.991302 294.95327 37.482097 294.855111 37.961986 C 294.762405 38.447327 294.615167 38.91631 294.429755 39.368932 C 294.23889 39.827007 294.009853 40.257817 293.737189 40.666813 C 293.464525 41.075809 293.153688 41.457538 292.804678 41.801095 C 292.455668 42.150105 292.073938 42.460942 291.664942 42.733606 C 291.255946 43.011723 290.825137 43.240761 290.372515 43.431626 C 289.914439 43.617037 289.445457 43.758822 288.965568 43.856981 C 288.480226 43.949687 287.994885 43.998767 287.498636 43.998767 C 287.007841 43.998767 286.522499 43.949687 286.037157 43.856981 C 285.551815 43.758822 285.082833 43.617037 284.630211 43.431626 C 284.177588 43.240761 283.741326 43.011723 283.33233 42.733606 C 282.923334 42.460942 282.547058 42.150105 282.198048 41.801095 C 281.849038 41.457538 281.538201 41.075809 281.265537 40.666813 C 280.992873 40.257817 280.758382 39.827007 280.57297 39.368932 C 280.382105 38.91631 280.24032 38.447327 280.142161 37.961986 C 280.049455 37.482097 280.000376 36.991302 280.000376 36.500506 C 280.000376 36.009711 280.049455 35.518916 280.142161 35.039027 C 280.24032 34.553685 280.382105 34.084703 280.57297 33.632081 C 280.758382 33.174005 280.992873 32.743196 281.265537 32.3342 C 281.538201 31.925204 281.849038 31.543475 282.198048 31.194465 C 282.547058 30.850908 282.923334 30.540071 283.33233 30.261954 C 283.741326 29.98929 284.177588 29.760252 284.630211 29.569387 C 285.082833 29.383976 285.551815 29.24219 286.037157 29.144031 C 286.522499 29.045872 287.007841 29.002246 287.498636 29.002246 C 287.994885 29.002246 288.480226 29.045872 288.965568 29.144031 C 289.445457 29.24219 289.914439 29.383976 290.372515 29.569387 C 290.825137 29.760252 291.255946 29.98929 291.664942 30.261954 C 292.073938 30.540071 292.455668 30.850908 292.804678 31.194465 C 293.153688 31.543475 293.464525 31.925204 293.737189 32.3342 C 294.009853 32.743196 294.23889 33.174005 294.429755 33.632081 C 294.615167 34.084703 294.762405 34.553685 294.855111 35.039027 C 294.95327 35.518916 295.00235 36.009711 295.00235 36.500506 Z M 295.00235 36.500506 "
       transform="matrix(0.716312,0,0,0.716312,0.358156,0.358156)"
       id="path165" />
    <path
       style="fill-rule:nonzero;fill:rgb(61.959839%,61.959839%,61.959839%);fill-opacity:1;stroke-width:1;stroke-linecap:butt;stroke-linejoin:miter;stroke:rgb(0%,0%,0%);stroke-opacity:1;stroke-miterlimit:4;"
       d="M 264.998402 8.497912 C 264.998402 8.994161 264.949322 9.479503 264.856616 9.964845 C 264.758457 10.444733 264.616672 10.913716 264.431261 11.371791 C 264.240396 11.824413 264.011358 12.255222 263.738694 12.664218 C 263.460577 13.078668 263.14974 13.454944 262.80073 13.803954 C 262.457173 14.152964 262.075444 14.463801 261.666448 14.736465 C 261.257452 15.009129 260.826642 15.238167 260.368567 15.429032 C 259.915945 15.619896 259.446962 15.761682 258.961621 15.854387 C 258.481732 15.952546 257.990937 16.001626 257.500141 16.001626 C 257.009346 16.001626 256.518551 15.952546 256.038662 15.854387 C 255.55332 15.761682 255.084338 15.619896 254.631716 15.429032 C 254.17364 15.238167 253.742831 15.009129 253.333835 14.736465 C 252.924839 14.463801 252.54311 14.152964 252.1941 13.803954 C 251.850543 13.454944 251.539706 13.078668 251.261589 12.664218 C 250.988925 12.255222 250.759887 11.824413 250.569022 11.371791 C 250.383611 10.913716 250.241825 10.444733 250.143666 9.964845 C 250.045507 9.479503 250.001881 8.994161 250.001881 8.497912 C 250.001881 8.007117 250.045507 7.521775 250.143666 7.036433 C 250.241825 6.556545 250.383611 6.087563 250.569022 5.629487 C 250.759887 5.176865 250.988925 4.740602 251.261589 4.331606 C 251.539706 3.92261 251.850543 3.546334 252.1941 3.197324 C 252.54311 2.848314 252.924839 2.537477 253.333835 2.264813 C 253.742831 1.992149 254.17364 1.757658 254.631716 1.572246 C 255.084338 1.381382 255.55332 1.239596 256.038662 1.141437 C 256.518551 1.048732 257.009346 0.999652 257.500141 0.999652 C 257.990937 0.999652 258.481732 1.048732 258.961621 1.141437 C 259.446962 1.239596 259.915945 1.381382 260.368567 1.572246 C 260.826642 1.757658 261.257452 1.992149 261.666448 2.264813 C 262.075444 2.537477 262.457173 2.848314 262.80073 3.197324 C 263.14974 3.546334 263.460577 3.92261 263.738694 4.331606 C 264.011358 4.740602 264.240396 5.176865 264.431261 5.629487 C 264.616672 6.087563 264.758457 6.556545 264.856616 7.036433 C 264.949322 7.521775 264.998402 8.007117 264.998402 8.497912 Z M 264.998402 8.497912 "
       transform="matrix(0.716312,0,0,0.716312,0.358156,0.358156)"
       id="path167" />
    <path
       style="fill-rule:nonzero;fill:rgb(61.959839%,61.959839%,61.959839%);fill-opacity:1;stroke-width:1;stroke-linecap:butt;stroke-linejoin:miter;stroke:rgb(0%,0%,0%);stroke-opacity:1;stroke-miterlimit:4;"
       d="M 351.002084 90.498887 C 351.002084 90.995136 350.953005 91.480478 350.854846 91.96582 C 350.76214 92.445708 350.614902 92.914691 350.42949 93.372766 C 350.238625 93.825388 350.009587 94.256197 349.736923 94.665193 C 349.464259 95.074189 349.153422 95.455919 348.804413 95.804929 C 348.455403 96.153939 348.073673 96.464776 347.664677 96.73744 C 347.255681 97.010104 346.824872 97.239142 346.37225 97.430007 C 345.914174 97.615418 345.445192 97.757203 344.965303 97.855362 C 344.479961 97.953521 343.994619 98.002601 343.498371 98.002601 C 343.007576 98.002601 342.522234 97.953521 342.036892 97.855362 C 341.55155 97.757203 341.082568 97.615418 340.629945 97.430007 C 340.177323 97.239142 339.741061 97.010104 339.332065 96.73744 C 338.923069 96.464776 338.546792 96.153939 338.197782 95.804929 C 337.848773 95.455919 337.537936 95.074189 337.265272 94.665193 C 336.992608 94.256197 336.758116 93.825388 336.572705 93.372766 C 336.38184 92.914691 336.240055 92.445708 336.141896 91.96582 C 336.04919 91.480478 336.000111 90.995136 336.000111 90.498887 C 336.000111 90.008092 336.04919 89.517297 336.141896 89.037408 C 336.240055 88.552066 336.38184 88.083084 336.572705 87.630462 C 336.758116 87.172386 336.992608 86.741577 337.265272 86.332581 C 337.537936 85.923585 337.848773 85.547309 338.197782 85.198299 C 338.546792 84.849289 338.923069 84.538452 339.332065 84.265788 C 339.741061 83.987671 340.177323 83.758633 340.629945 83.573221 C 341.082568 83.382357 341.55155 83.240571 342.036892 83.142412 C 342.522234 83.049707 343.007576 83.000627 343.498371 83.000627 C 343.994619 83.000627 344.479961 83.049707 344.965303 83.142412 C 345.445192 83.240571 345.914174 83.382357 346.37225 83.573221 C 346.824872 83.758633 347.255681 83.987671 347.664677 84.265788 C 348.073673 84.538452 348.455403 84.849289 348.804413 85.198299 C 349.153422 85.547309 349.464259 85.923585 349.736923 86.332581 C 350.009587 86.741577 350.238625 87.172386 350.42949 87.630462 C 350.614902 88.083084 350.76214 88.552066 350.854846 89.037408 C 350.953005 89.517297 351.002084 90.008092 351.002084 90.498887 Z M 351.002084 90.498887 "
       transform="matrix(0.716312,0,0,0.716312,0.358156,0.358156)"
       id="path169" />
    <path
       style="fill-rule:nonzero;fill:rgb(61.959839%,61.959839%,61.959839%);fill-opacity:1;stroke-width:1;stroke-linecap:butt;stroke-linejoin:miter;stroke:rgb(0%,0%,0%);stroke-opacity:1;stroke-miterlimit:4;"
       d="M 380.002629 114.498774 C 380.002629 114.995022 379.953549 115.480364 379.85539 115.965706 C 379.757231 116.445595 379.615446 116.914577 379.430034 117.372652 C 379.23917 117.825275 379.010132 118.256084 378.737468 118.66508 C 378.464804 119.074076 378.153967 119.455805 377.804957 119.804815 C 377.455947 120.153825 377.074217 120.464662 376.665221 120.737326 C 376.256225 121.00999 375.825416 121.239028 375.372794 121.429893 C 374.914718 121.615304 374.445736 121.75709 373.965848 121.855249 C 373.480506 121.953408 372.995164 122.002487 372.498915 122.002487 C 372.00812 122.002487 371.517325 121.953408 371.037436 121.855249 C 370.552094 121.75709 370.083112 121.615304 369.63049 121.429893 C 369.172414 121.239028 368.741605 121.00999 368.332609 120.737326 C 367.923613 120.464662 367.547337 120.153825 367.198327 119.804815 C 366.849317 119.455805 366.53848 119.074076 366.265816 118.66508 C 365.987699 118.256084 365.758661 117.825275 365.573249 117.372652 C 365.382384 116.914577 365.240599 116.445595 365.14244 115.965706 C 365.049734 115.480364 365.000655 114.995022 365.000655 114.498774 C 365.000655 114.007978 365.049734 113.517183 365.14244 113.037295 C 365.240599 112.551953 365.382384 112.082971 365.573249 111.630348 C 365.758661 111.172273 365.987699 110.741464 366.265816 110.332468 C 366.53848 109.923472 366.849317 109.547195 367.198327 109.198185 C 367.547337 108.849175 367.923613 108.538338 368.332609 108.265674 C 368.741605 107.99301 369.172414 107.758519 369.63049 107.573108 C 370.083112 107.382243 370.552094 107.240458 371.037436 107.142299 C 371.517325 107.049593 372.00812 107.000513 372.498915 107.000513 C 372.995164 107.000513 373.480506 107.049593 373.965848 107.142299 C 374.445736 107.240458 374.914718 107.382243 375.372794 107.573108 C 375.825416 107.758519 376.256225 107.99301 376.665221 108.265674 C 377.074217 108.538338 377.455947 108.849175 377.804957 109.198185 C 378.153967 109.547195 378.464804 109.923472 378.737468 110.332468 C 379.010132 110.741464 379.23917 111.172273 379.430034 111.630348 C 379.615446 112.082971 379.757231 112.551953 379.85539 113.037295 C 379.953549 113.517183 380.002629 114.007978 380.002629 114.498774 Z M 380.002629 114.498774 "
       transform="matrix(0.716312,0,0,0.716312,0.358156,0.358156)"
       id="path171" />
    <path
       style="fill-rule:nonzero;fill:rgb(61.959839%,61.959839%,61.959839%);fill-opacity:1;stroke-width:1;stroke-linecap:butt;stroke-linejoin:miter;stroke:rgb(0%,0%,0%);stroke-opacity:1;stroke-miterlimit:4;"
       d="M 410.001123 94.501595 C 410.001123 94.99239 409.952044 95.477732 409.853885 95.963074 C 409.761179 96.448416 409.619394 96.917398 409.428529 97.37002 C 409.243117 97.822643 409.008626 98.258905 408.735962 98.667901 C 408.463298 99.076897 408.152461 99.453174 407.803451 99.802183 C 407.454441 100.151193 407.078165 100.46203 406.669169 100.734694 C 406.25472 101.007358 405.823911 101.241849 405.371288 101.427261 C 404.913213 101.618126 404.444231 101.759911 403.964342 101.85807 C 403.479 101.950776 402.993658 101.999855 402.49741 101.999855 C 402.006615 101.999855 401.521273 101.950776 401.035931 101.85807 C 400.556042 101.759911 400.08706 101.618126 399.628984 101.427261 C 399.176362 101.241849 398.7401 101.007358 398.331104 100.734694 C 397.922108 100.46203 397.545831 100.151193 397.196821 99.802183 C 396.847811 99.453174 396.536974 99.076897 396.26431 98.667901 C 395.991646 98.258905 395.757155 97.822643 395.571744 97.37002 C 395.380879 96.917398 395.239094 96.448416 395.146388 95.963074 C 395.048229 95.477732 394.999149 94.99239 394.999149 94.501595 C 394.999149 94.005347 395.048229 93.520005 395.146388 93.034663 C 395.239094 92.554774 395.380879 92.085792 395.571744 91.627716 C 395.757155 91.175094 395.991646 90.744285 396.26431 90.335289 C 396.536974 89.926293 396.847811 89.544563 397.196821 89.195553 C 397.545831 88.846543 397.922108 88.535706 398.331104 88.263042 C 398.7401 87.990378 399.176362 87.761341 399.628984 87.570476 C 400.08706 87.385064 400.556042 87.237826 401.035931 87.14512 C 401.521273 87.046961 402.006615 86.997881 402.49741 86.997881 C 402.993658 86.997881 403.479 87.046961 403.964342 87.14512 C 404.444231 87.237826 404.913213 87.385064 405.371288 87.570476 C 405.823911 87.761341 406.25472 87.990378 406.669169 88.263042 C 407.078165 88.535706 407.454441 88.846543 407.803451 89.195553 C 408.152461 89.544563 408.463298 89.926293 408.735962 90.335289 C 409.008626 90.744285 409.243117 91.175094 409.428529 91.627716 C 409.619394 92.085792 409.761179 92.554774 409.853885 93.034663 C 409.952044 93.520005 410.001123 94.005347 410.001123 94.501595 Z M 410.001123 94.501595 "
       transform="matrix(0.716312,0,0,0.716312,0.358156,0.358156)"
       id="path173" />
    <path
       style="fill-rule:nonzero;fill:rgb(61.959839%,61.959839%,61.959839%);fill-opacity:1;stroke-width:1;stroke-linecap:butt;stroke-linejoin:miter;stroke:rgb(0%,0%,0%);stroke-opacity:1;stroke-miterlimit:4;"
       d="M 402.001161 57.501089 C 402.001161 57.991884 401.952082 58.482679 401.853923 58.962568 C 401.761217 59.44791 401.619432 59.916892 401.428567 60.369514 C 401.243155 60.82759 401.008664 61.258399 400.736 61.667395 C 400.463336 62.076391 400.152499 62.452667 399.803489 62.801677 C 399.454479 63.150687 399.078203 63.461524 398.669207 63.734188 C 398.254758 64.012305 397.823949 64.241343 397.371326 64.426755 C 396.913251 64.617619 396.444269 64.759405 395.96438 64.857564 C 395.479038 64.950269 394.993696 64.999349 394.497448 64.999349 C 394.006652 64.999349 393.52131 64.950269 393.035969 64.857564 C 392.55608 64.759405 392.087098 64.617619 391.629022 64.426755 C 391.1764 64.241343 390.740138 64.012305 390.331142 63.734188 C 389.922146 63.461524 389.545869 63.150687 389.196859 62.801677 C 388.847849 62.452667 388.537012 62.076391 388.264348 61.667395 C 387.991684 61.258399 387.757193 60.82759 387.571782 60.369514 C 387.380917 59.916892 387.239132 59.44791 387.146426 58.962568 C 387.048267 58.482679 386.999187 57.991884 386.999187 57.501089 C 386.999187 57.00484 387.048267 56.519498 387.146426 56.034156 C 387.239132 55.554268 387.380917 55.085285 387.571782 54.62721 C 387.757193 54.174588 387.991684 53.743779 388.264348 53.334783 C 388.537012 52.925787 388.847849 52.544057 389.196859 52.195047 C 389.545869 51.846037 389.922146 51.5352 390.331142 51.262536 C 390.740138 50.989872 391.1764 50.760834 391.629022 50.569969 C 392.087098 50.384558 392.55608 50.242773 393.035969 50.144614 C 393.52131 50.046455 394.006652 49.997375 394.497448 49.997375 C 394.993696 49.997375 395.479038 50.046455 395.96438 50.144614 C 396.444269 50.242773 396.913251 50.384558 397.371326 50.569969 C 397.823949 50.760834 398.254758 50.989872 398.669207 51.262536 C 399.078203 51.5352 399.454479 51.846037 399.803489 52.195047 C 400.152499 52.544057 400.463336 52.925787 400.736 53.334783 C 401.008664 53.743779 401.243155 54.174588 401.428567 54.62721 C 401.619432 55.085285 401.761217 55.554268 401.853923 56.034156 C 401.952082 56.519498 402.001161 57.00484 402.001161 57.501089 Z M 402.001161 57.501089 "
       transform="matrix(0.716312,0,0,0.716312,0.358156,0.358156)"
       id="path175" />
    <path
       style="fill:none;stroke-width:2;stroke-linecap:butt;stroke-linejoin:miter;stroke:rgb(0%,0%,0%);stroke-opacity:1;stroke-miterlimit:10;"
       d="M 262.799028 13.802252 L 282.201799 31.198216 "
       transform="matrix(0.716312,0,0,0.716312,0,0)"
       id="path177" />
    <path
       style="fill:none;stroke-width:2;stroke-linecap:butt;stroke-linejoin:miter;stroke:rgb(0%,0%,0%);stroke-opacity:1;stroke-miterlimit:10;"
       d="M 283.79961 67.200772 L 287.502388 44.002518 "
       transform="matrix(0.716312,0,0,0.716312,0,0)"
       id="path179" />
    <path
       style="fill:none;stroke-width:2;stroke-linecap:butt;stroke-linejoin:miter;stroke:rgb(0%,0%,0%);stroke-opacity:1;stroke-miterlimit:10;"
       d="M 273.198433 77.801949 L 245.997472 86.499931 "
       transform="matrix(0.716312,0,0,0.716312,0,0)"
       id="path181" />
    <path
       style="fill:none;stroke-width:2;stroke-linecap:butt;stroke-linejoin:miter;stroke:rgb(0%,0%,0%);stroke-opacity:1;stroke-miterlimit:10;"
       d="M 283.79961 77.801949 L 300.197624 96.201317 "
       transform="matrix(0.716312,0,0,0.716312,0,0)"
       id="path183" />
    <g
       clip-path="url(#clip8)"
       clip-rule="nonzero"
       id="g187">
      <path
         style="fill:none;stroke-width:2;stroke-linecap:butt;stroke-linejoin:miter;stroke:rgb(0%,0%,0%);stroke-opacity:1;stroke-miterlimit:10;"
         d="M 303.278727 108.629342 L 297.291026 129.237288 "
         transform="matrix(0.716312,0,0,0.716312,0,0)"
         id="path185" />
    </g>
    <path
       style="fill:none;stroke-width:2;stroke-linecap:butt;stroke-linejoin:miter;stroke:rgb(0%,0%,0%);stroke-opacity:1;stroke-miterlimit:10;"
       d="M 312.871047 99.227887 L 335.878437 92.962068 "
       transform="matrix(0.716312,0,0,0.716312,0,0)"
       id="path189" />
    <path
       style="fill:none;stroke-width:2;stroke-linecap:butt;stroke-linejoin:miter;stroke:rgb(0%,0%,0%);stroke-opacity:1;stroke-miterlimit:10;"
       d="M 354.261444 64.108763 L 346.572319 84.111394 "
       transform="matrix(0.716312,0,0,0.716312,0,0)"
       id="path191" />
    <path
       style="fill:none;stroke-width:2;stroke-linecap:butt;stroke-linejoin:miter;stroke:rgb(0%,0%,0%);stroke-opacity:1;stroke-miterlimit:10;"
       d="M 386.997486 57.499387 L 364.998953 57.499387 "
       transform="matrix(0.716312,0,0,0.716312,0,0)"
       id="path193" />
    <g
       clip-path="url(#clip9)"
       clip-rule="nonzero"
       id="g197">
      <path
         style="fill:none;stroke-width:2;stroke-linecap:butt;stroke-linejoin:miter;stroke:rgb(0%,0%,0%);stroke-opacity:1;stroke-miterlimit:10;"
         d="M 409.012378 39.530828 L 399.801788 52.198798 "
         transform="matrix(0.716312,0,0,0.716312,0,0)"
         id="path195" />
    </g>
    <g
       clip-path="url(#clip10)"
       clip-rule="nonzero"
       id="g201">
      <path
         style="fill:none;stroke-width:2;stroke-linecap:butt;stroke-linejoin:miter;stroke:rgb(100%,0%,0%);stroke-opacity:1;stroke-miterlimit:10;"
         d="M 400.298036 87.137965 L 397.271466 64.577745 "
         transform="matrix(0.716312,0,0,0.716312,0,0)"
         id="path199" />
    </g>
    <path
       style="fill:none;stroke-width:2;stroke-linecap:butt;stroke-linejoin:miter;stroke:rgb(100%,0%,0%);stroke-opacity:1;stroke-miterlimit:10;"
       d="M 367.202078 109.201937 L 348.802711 95.797774 "
       transform="matrix(0.716312,0,0,0.716312,0,0)"
       id="path203" />
    <g
       clip-path="url(#clip11)"
       clip-rule="nonzero"
       id="g207">
      <path
         style="fill:none;stroke-width:2;stroke-linecap:butt;stroke-linejoin:miter;stroke:rgb(0%,0%,0%);stroke-opacity:1;stroke-miterlimit:10;"
         d="M 397.200573 99.800482 L 378.899364 111.31781 "
         transform="matrix(0.716312,0,0,0.716312,0,0)"
         id="path205" />
    </g>
  </g>
</svg>
