<?xml version="1.0" encoding="UTF-8" standalone="no"?>
<svg
   xmlns:dc="http://purl.org/dc/elements/1.1/"
   xmlns:cc="http://creativecommons.org/ns#"
   xmlns:rdf="http://www.w3.org/1999/02/22-rdf-syntax-ns#"
   xmlns:svg="http://www.w3.org/2000/svg"
   xmlns="http://www.w3.org/2000/svg"
   xmlns:xlink="http://www.w3.org/1999/xlink"
   xmlns:sodipodi="http://sodipodi.sourceforge.net/DTD/sodipodi-0.dtd"
   xmlns:inkscape="http://www.inkscape.org/namespaces/inkscape"
   height="172.79552pt"
   version="1.1"
   viewBox="0 0 339.20001 172.79552"
   width="339.20001pt"
   id="svg135"
   sodipodi:docname="dequantization_issue.svg"
   inkscape:version="1.0.1 (3bc2e813f5, 2020-09-07)">
  <sodipodi:namedview
     pagecolor="#ffffff"
     bordercolor="#666666"
     borderopacity="1"
     objecttolerance="10"
     gridtolerance="10"
     guidetolerance="10"
     inkscape:pageopacity="0"
     inkscape:pageshadow="2"
     inkscape:window-width="3132"
     inkscape:window-height="1703"
     id="namedview137"
     showgrid="false"
     fit-margin-top="0"
     fit-margin-left="0"
     fit-margin-right="0"
     fit-margin-bottom="0"
     inkscape:zoom="3.48125"
     inkscape:cx="239.64696"
     inkscape:cy="143.16301"
     inkscape:window-x="0"
     inkscape:window-y="37"
     inkscape:window-maximized="0"
     inkscape:current-layer="patch_1" />
  <metadata
     id="metadata2">
    <rdf:RDF>
      <cc:Work>
        <dc:type
           rdf:resource="http://purl.org/dc/dcmitype/StillImage" />
        <dc:date>2020-09-10T14:01:01.731212</dc:date>
        <dc:format>image/svg+xml</dc:format>
        <dc:creator>
          <cc:Agent>
            <dc:title>Matplotlib v3.3.0, https://matplotlib.org/</dc:title>
          </cc:Agent>
        </dc:creator>
        <dc:title></dc:title>
      </cc:Work>
    </rdf:RDF>
  </metadata>
  <defs
     id="defs6">
    <style
       type="text/css"
       id="style4">*{stroke-linecap:butt;stroke-linejoin:round;} svg { background-color: rgb(252, 252, 252); }</style>
  </defs>
  <g
     id="figure_1"
     transform="translate(-0.26478099,-0.62774314)">
    <g
       id="axes_1"
       transform="translate(-10.135219,-10.017375)">
      <g
         id="patch_1" />
      <g
         id="PolyCollection_1"
         transform="translate(0,-19.5)">
        <defs
           id="defs12">
          <path
             d="m 10.8,-27.8 v 0 h 0.338739 0.338738 0.338739 0.338739 0.338739 0.338738 0.338739 0.338739 0.338739 0.338738 0.338739 0.338739 0.338739 0.338738 0.338739 0.338739 0.338739 0.338738 0.338739 0.338739 0.338739 0.338738 0.338739 0.338739 0.338738 0.338739 0.338739 0.338739 0.338738 0.338739 0.338739 0.338739 0.338738 0.338739 0.338739 0.338739 0.338738 0.338739 0.338739 0.338739 0.338738 0.338739 0.338739 0.338739 0.338738 0.338739 0.338739 0.338738 0.338739 0.338739 0.338739 0.338738 0.338739 0.338739 0.338739 0.338738 0.338739 0.338739 0.338739 0.338738 0.338739 0.338739 0.338739 0.338738 0.338739 0.338739 0.338738 0.338739 0.338739 0.338739 0.338738 0.338739 0.338739 0.338739 0.338738 0.338739 0.338739 0.338739 0.338738 0.338739 0.338739 0.338739 0.338738 0.338739 0.338739 0.338739 0.338738 0.338739 0.338739 0.338738 0.338739 0.338739 0.338739 0.338738 0.338739 0.338739 0.338739 0.338738 0.338739 0.338739 0.338739 0.338738 0.338739 0.338739 0.338739 0.338738 0.338739 0.338739 0.338739 0.338738 0.338739 0.338739 0.338738 0.338739 0.338739 0.338739 0.338738 0.338739 0.338739 0.338739 0.338738 0.338739 0.338739 0.338739 0.338738 0.338739 0.338739 0.338739 0.338738 0.338739 0.338739 0.338739 0.338738 0.338739 0.338739 0.338738 0.338739 0.338739 0.338739 0.338738 0.338739 0.338739 0.338739 0.338738 0.338739 0.338739 0.338739 0.338738 0.338739 0.338739 0.338739 0.338738 0.338739 0.338739 0.338739 0.338738 0.338739 0.338739 0.338738 0.338739 0.338739 0.338739 0.338738 0.338739 0.338739 0.338739 0.338738 0.338739 0.338739 0.338739 0.338738 0.338739 0.338739 0.338739 0.338738 0.338739 0.338739 0.338738 0.338739 0.338739 0.338739 0.338738 0.338739 0.338739 0.338739 0.338738 0.338739 0.338739 0.338739 0.338738 0.338739 0.338739 0.338739 0.338738 0.338739 0.338739 0.338739 0.338738 0.338739 0.338739 0.338738 0.338739 0.338739 0.338739 0.338738 0.338739 0.338739 0.338739 0.338738 0.338739 0.338739 0.338739 0.338738 0.338739 0.338739 0.338739 0.338738 0.338739 0.338739 0.338739 0.338738 H 86 h 0.338739 0.338738 0.338739 0.338739 0.338739 0.338738 0.338739 0.338739 0.338739 0.338738 0.338739 0.338739 0.338739 0.338738 0.338739 0.338739 0.338739 0.338738 0.338739 0.338739 0.338739 0.338738 0.338739 0.338739 0.338738 0.338739 0.338739 0.338739 0.338738 0.338739 0.338739 0.338739 0.338738 0.338739 0.338739 0.338739 0.338738 0.338739 0.338739 0.338739 0.338738 0.338742 0.33874 0.33874 0.33873 0.33874 0.33874 0.33874 0.33874 0.33874 0.33874 0.33873 0.33874 0.33874 0.33874 0.33874 0.33874 0.33874 0.33874 0.33873 0.33874 0.33874 0.33874 0.33874 0.33874 0.33874 0.33873 0.33874 0.33874 0.33874 0.33874 0.33874 0.33874 0.33874 0.33874 0.33873 0.33874 0.33874 0.33874 0.33874 0.33874 0.33874 0.33873 0.33874 0.33874 0.33874 0.33874 0.33874 0.33874 0.33874 0.33874 0.33873 0.33874 0.33874 0.33874 0.33874 0.33874 0.33874 0.33873 0.33874 0.33874 0.33874 0.33874 0.33874 0.33874 0.33874 0.33874 0.33873 0.33874 0.33874 0.33874 0.33874 0.33874 0.33874 0.33873 0.33874 0.33874 0.33874 0.33874 0.33874 0.33874 0.33874 0.33874 0.33873 0.33874 0.33874 0.33874 0.33874 0.33874 0.33874 0.33873 0.33874 0.33874 0.33874 0.33874 0.33874 0.33874 0.33874 0.33873 0.33874 0.33874 0.33874 0.33874 0.33874 0.33874 0.33874 0.33873 0.33874 0.33874 0.33874 0.33874 0.33874 0.33874 0.33874 0.33873 0.33874 0.33874 0.33874 0.33874 0.33874 0.33874 0.33874 0.33873 0.33874 0.33874 0.33874 0.33874 0.33874 0.33874 0.33874 0.33873 0.33874 0.33874 0.33874 0.33874 0.33874 0.33874 0.33873 0.33874 0.33874 0.33874 0.33874 0.33874 0.33874 0.33874 0.33873 0.33874 0.33874 0.33874 0.33874 0.33874 0.33874 0.33874 0.33873 0.33874 0.33874 0.33874 0.33874 0.33874 0.33874 0.33874 0.33873 0.33874 0.33874 0.33874 0.33874 0.33874 0.33874 0.33874 0.33873 0.33874 0.33874 0.33874 0.33874 0.33874 0.33874 0.33874 0.33873 0.33874 0.33874 0.33874 0.33874 0.33874 0.33874 0.33874 0.33873 0.33874 0.33874 0.33874 0.33874 0.33874 0.33874 0.33874 0.33873 0.33874 0.33874 0.33874 0.33874 0.33874 0.33874 0.33874 0.33873 0.33874 0.33874 0.33874 0.33874 0.33874 0.33874 0.33874 0.33873 0.33874 0.33874 0.33874 0.33874 0.33874 0.33874 0.33874 0.33873 0.33874 0.33874 0.33874 0.33874 0.33874 0.33874 0.33874 0.33873 0.33874 0.33874 0.33874 0.33874 0.33874 0.33874 0.33874 0.33873 0.33874 0.33874 0.33874 0.33874 0.33874 0.33874 0.33874 0.33873 0.33874 0.33874 0.33874 0.33874 0.33874 0.33874 0.33873 0.33874 0.33874 0.33874 0.33874 0.33874 0.33874 0.33874 0.33873 0.33874 0.33874 0.33874 0.33874 0.33874 0.33874 0.33874 0.33873 0.33874 0.33874 0.33874 0.33874 0.33874 0.33874 0.33874 0.33873 0.33874 0.33874 0.33874 0.33874 0.33874 0.33874 0.33874 0.33874 0.33873 0.33874 0.33874 0.33874 0.33874 0.33874 0.33874 0.33873 0.33874 0.33874 0.33874 0.33874 0.33874 0.33874 0.33874 0.33873 0.33874 0.33874 0.33874 0.33874 0.33874 0.33874 0.33874 0.33873 0.33874 0.33874 0.33874 0.33874 0.33874 0.33874 0.33874 0.33873 0.33874 0.33874 0.33874 0.33874 0.33874 0.33874 0.33874 0.33873 0.33874 0.33874 0.33874 0.33874 0.33874 0.33874 0.33874 0.33873 0.33874 0.33874 0.33874 0.33874 0.33874 0.33874 0.33874 0.33873 0.33874 0.33874 0.33874 0.33874 0.33874 0.33874 0.33874 0.33873 0.33874 0.33874 0.33874 0.33874 0.33874 0.33874 0.33874 0.33873 0.33874 0.33874 0.33874 0.33874 0.33874 0.33874 0.33873 0.33874 0.33874 0.33874 0.33874 0.33874 0.33874 0.33874 0.33874 0.33873 0.33874 0.33874 0.33874 0.33874 0.33874 0.33874 0.33873 0.33874 0.33874 0.33874 0.33874 0.33874 0.33874 0.33874 0.33873 0.33874 0.33874 0.33874 0.33874 0.33874 0.33874 0.33874 0.33873 0.33874 0.33874 0.33874 0.33874 0.33874 0.33874 0.33874 0.33873 0.33874 0.33874 0.33874 0.33874 0.33874 0.33874 0.33874 0.33873 0.33874 0.33874 0.33874 0.33874 0.33874 0.33874 0.33874 0.33873 0.33874 0.33874 0.33874 0.33874 0.33874 0.33874 0.33874 0.33873 0.33874 0.33874 0.33874 0.33874 0.33874 0.33874 0.33874 0.33873 0.33874 0.33874 0.33874 0.33874 0.33874 0.33874 0.33874 0.33873 0.33874 0.33874 0.33874 0.33874 0.33874 0.33874 0.33874 0.33873 0.33874 0.33874 0.33874 0.33874 0.33874 0.33874 0.33874 0.33873 0.33874 0.33874 0.33874 0.33874 0.33874 0.33874 0.33874 0.33873 0.33874 0.33874 0.33874 0.33874 0.33874 0.33874 0.33874 0.33873 0.33874 0.33874 0.33874 0.33874 0.33874 0.33874 0.33873 0.33874 0.33874 0.33874 0.33874 0.33874 0.33874 0.33874 0.33873 0.33874 0.33874 0.33874 0.33874 0.33874 0.33874 0.33874 0.33874 0.33873 0.33874 0.33874 0.33874 0.33874 0.33874 0.33874 0.33873 0.33874 0.33874 0.33874 0.33874 0.33874 0.33874 0.33874 0.33873 0.33874 0.33874 0.33874 0.33874 0.33874 0.33874 0.33874 0.33874 0.33873 0.33874 0.33874 0.33874 0.33874 0.33874 0.33874 0.33873 0.33874 0.33874 0.33874 0.33874 0.33874 0.33874 0.33874 0.33873 0.33874 0.33874 0.33874 0.33874 0.33874 0.33874 0.33874 0.33874 0.33873 0.33874 0.33874 0.33874 0.33874 0.33874 0.33874 0.33873 0.33874 0.33874 0.33874 0.33874 0.33874 0.33874 0.33874 0.33873 0.33874 0.33874 0.33874 0.33874 0.33874 0.33874 0.33874 0.33873 0.33874 0.33874 0.33874 0.33874 0.33874 0.33874 0.33874 0.33873 0.33874 0.33874 0.33874 0.33874 0.33874 0.33874 0.33873 0.33874 0.33874 0.33874 0.33874 0.33874 0.33874 0.33874 0.33873 0.33874 0.33874 0.33874 0.33874 0.33874 0.33874 0.33874 0.33873 0.33874 0.33874 0.33874 0.33874 0.33874 0.33874 0.33874 0.33873 0.33874 0.33874 0.33874 0.33874 0.33874 0.33874 0.33874 0.33874 0.33873 0.33874 0.33874 0.33874 0.33874 0.33874 0.33874 0.33873 0.33874 0.33874 0.33874 0.33874 0.33874 0.33874 0.33874 0.33873 0.33874 0.33874 0.33874 0.33874 0.33874 0.33874 0.33874 0.33874 0.33873 0.33874 0.33874 0.33874 0.33874 0.33874 0.33874 0.33873 0.33874 0.33874 0.33874 0.33874 0.33874 0.33874 0.33874 0.33873 0.33874 0.33874 0.33874 0.33874 0.33874 0.33874 0.33874 0.33874 0.33873 0.33874 0.33874 0.33874 0.33874 0.33874 0.33874 0.33873 0.33874 0.33874 0.33874 0.33874 0.33874 0.33874 0.33874 0.33873 0.33874 0.33874 0.33874 0.33874 0.33874 0.33874 0.33874 0.33873 0.33874 0.33874 0.33874 0.33874 0.33874 0.33874 0.33874 0.33873 0.33874 0.33874 0.33874 0.33874 0.33874 0.33874 0.33873 0.33874 0.33874 0.33874 0.33874 0.33874 0.33874 0.33874 0.33873 0.33874 0.33874 0.33874 0.33874 0.33874 0.33874 0.33874 0.33873 0.33874 0.33874 0.33874 0.33874 0.33874 0.33874 0.33874 0.33873 0.33874 0.33874 0.33874 0.33874 0.33874 0.33874 0.33874 0.33874 0.33873 0.33874 0.33874 0.33874 v 0 0 h -0.33874 -0.33874 -0.33874 -0.33873 -0.33874 -0.33874 -0.33874 -0.33874 -0.33874 -0.33874 -0.33874 -0.33874 -0.33873 -0.33874 -0.33874 -0.33874 -0.33874 -0.33874 -0.33874 -0.33874 -0.33873 -0.33874 -0.33874 -0.33874 -0.33874 -0.33874 -0.33874 -0.33874 -0.33873 -0.33874 -0.33874 -0.33874 -0.33874 -0.33874 -0.33874 -0.33874 -0.33873 -0.33874 -0.33874 -0.33874 -0.33874 -0.33874 -0.33874 -0.33873 -0.33874 -0.33874 -0.33874 l -0.33874,-1e-6 h -0.33874 l -0.33874,-10e-7 -0.33874,-1e-6 -0.33873,-2e-6 -0.33874,-3e-6 -0.33874,-5e-6 -0.33874,-7e-6 -0.33874,-1.1e-5 -0.33874,-1.8e-5 -0.33874,-2.6e-5 -0.33874,-4e-5 -0.33873,-6e-5 -0.33874,-8.9e-5 -0.33874,-1.32e-4 -0.33874,-1.95e-4 -0.33874,-2.85e-4 -0.33874,-4.14e-4 -0.33874,-5.98e-4 -0.33874,-8.57e-4 -0.33873,-0.0012 -0.33874,-0.0017 -0.33874,-0.0024 -0.33874,-0.0034 -0.33874,-0.0047 -0.33874,-0.0065 -0.33874,-0.0088 -0.33873,-0.01202 -0.33874,-0.01622 -0.33874,-0.02174 -0.33874,-0.02893 -0.33874,-0.03825 -0.33874,-0.05021 -0.33874,-0.06547 -0.33874,-0.08478 -0.33874,-0.109017 -0.33873,-0.139215 -0.33874,-0.176538 -0.33874,-0.2223 -0.33874,-0.277959 -0.33874,-0.345096 -0.33874,-0.425408 -0.33874,-0.520667 -0.33874,-0.632678 -0.33873,-0.763229 -0.33874,-0.914014 -0.33874,-1.086558 -0.33874,-1.282118 -0.33874,-1.501581 -0.33874,-1.745348 -0.33874,-2.013224 -0.33873,-2.304299 -0.33874,-2.61684 -0.33874,-2.948199 -0.33874,-3.294742 -0.33874,-3.651799 -0.33874,-4.013659 -0.33874,-4.373598 -0.33874,-4.723961 -0.33874,-5.056286 -0.33873,-5.361488 -0.33874,-5.630079 -0.33874,-5.852446 -0.33874,-6.019156 -0.33874,-6.121303 -0.33874,-6.15082 -0.33874,-6.1009 -0.33874,-5.96627 -0.33873,-5.74345 -0.33874,-5.43114 -0.33874,-5.03024 -0.33874,-4.54405 -0.33874,-3.97828 -0.33874,-3.34092 -0.33874,-2.64208 -0.33873,-1.89382 -0.33874,-1.10968 -0.33874,-0.30435 -0.33874,0.50683 -0.33874,1.3083 -0.33874,2.0848 -0.33874,2.82193 -0.33874,3.50644 -0.33874,4.12679 -0.33873,4.67333 -0.33874,5.13863 -0.33874,5.51759 -0.33874,5.80753 -0.33874,6.00809 -0.33874,6.12115 -0.33874,6.15065 -0.33874,6.102276 -0.33873,5.983195 -0.33874,5.80171 -0.33874,5.56689 -0.33874,5.288245 -0.33874,4.975384 -0.33874,4.637718 -0.33874,4.284197 -0.33874,3.923094 -0.33873,3.561844 -0.33874,3.206921 -0.33874,2.863777 -0.33874,2.53682 -0.33874,2.229435 -0.33874,1.944032 -0.33874,1.682127 -0.33874,1.444442 -0.33873,1.231015 -0.33874,1.041308 -0.33874,0.874333 -0.33874,0.728758 -0.33874,0.603007 -0.33874,0.495352 -0.33874,0.403999 -0.33873,0.327144 -0.33874,0.263032 -0.33874,0.209992 -0.33874,0.166469 -0.33874,0.131046 -0.33874,0.102441 -0.33874,0.07953 -0.33874,0.06131 -0.33873,0.04694 -0.33874,0.03569 -0.33874,0.02695 -0.33874,0.02021 -0.33874,0.01506 -0.33874,0.01114 -0.33874,0.0082 -0.33874,0.006 -0.33873,0.0043 -0.33874,0.0031 -0.33874,0.0022 -0.33874,0.0016 -0.33874,0.0011 -0.33874,7.84e-4 -0.33874,5.45e-4 -0.33874,3.78e-4 -0.33873,2.59e-4 -0.33874,1.77e-4 -0.33874,1.2e-4 -0.33874,8.1e-5 -0.33874,5.4e-5 -0.33874,3.6e-5 -0.33874,2.3e-5 -0.33873,1.6e-5 -0.33874,10e-6 -0.33874,7e-6 -0.33874,4e-6 -0.33874,2e-6 -0.33874,2e-6 -0.33874,1e-6 -0.33874,1e-6 h -0.33874 l -0.33873,10e-7 h -0.33874 -0.33874 -0.33874 -0.33874 -0.33874 -0.33874 -0.33874 -0.33873 -0.33874 -0.33874 -0.33874 -0.33874 -0.33874 -0.33874 -0.33873 -0.33874 -0.33874 -0.33874 H 274 h -0.33874 -0.33874 -0.33874 -0.33874 -0.33873 -0.33874 -0.33874 -0.33874 -0.33874 -0.33874 -0.33874 -0.33874 -0.33873 -0.33874 -0.33874 -0.33874 -0.33874 -0.33874 -0.33874 -0.33873 -0.33874 -0.33874 -0.33874 -0.33874 -0.33874 -0.33874 -0.33874 -0.33874 -0.33873 -0.33874 -0.33874 -0.33874 -0.33874 -0.33874 -0.33874 -0.33874 -0.33873 -0.33874 -0.33874 -0.33874 -0.33874 -0.33874 -0.33874 -0.33873 -0.33874 -0.33874 -0.33874 -0.33874 -0.33874 -0.33874 -0.33874 -0.33873 -0.33874 -0.33874 -0.33874 -0.33874 -0.33874 -0.33874 -0.33874 -0.33873 -0.33874 -0.33874 -0.33874 -0.33874 -0.33874 -0.33874 -0.33874 -0.33873 -0.33874 -0.33874 -0.33874 -0.33874 -0.33874 -0.33874 -0.33874 l -0.33873,-10e-7 h -0.33874 l -0.33874,-1e-6 -0.33874,-1e-6 -0.33874,-1e-6 -0.33874,-2e-6 -0.33874,-4e-6 -0.33874,-6e-6 -0.33873,-9e-6 -0.33874,-1.3e-5 -0.33874,-2e-5 -0.33874,-3.1e-5 -0.33874,-4.7e-5 -0.33874,-6.9e-5 -0.33874,-1.02e-4 -0.33874,-1.5e-4 -0.33873,-2.19e-4 -0.33874,-3.18e-4 -0.33874,-4.58e-4 -0.33874,-6.56e-4 -0.33874,-9.32e-4 -0.33874,-0.0013 -0.33874,-0.0018 -0.33874,-0.0026 -0.33873,-0.0036 -0.33874,-0.0049 -0.33874,-0.0067 -0.33874,-0.0091 -0.33874,-0.01222 -0.33874,-0.01635 -0.33874,-0.02173 -0.33874,-0.02868 -0.33873,-0.03758 -0.33874,-0.04892 -0.33874,-0.06324 -0.33874,-0.08118 -0.33874,-0.10348 -0.33874,-0.130993 -0.33874,-0.16466 -0.33874,-0.205521 -0.33873,-0.25471 -0.33874,-0.313426 -0.33874,-0.38292 -0.33874,-0.464456 -0.33874,-0.559275 -0.33874,-0.668539 -0.33874,-0.793274 -0.33874,-0.934303 -0.33873,-1.092168 -0.33874,-1.267056 -0.33874,-1.45871 -0.33874,-1.666356 -0.33874,-1.888628 -0.33874,-2.123503 -0.33874,-2.368258 -0.33874,-2.619442 -0.33873,-2.872875 -0.33874,-3.123683 -0.33874,-3.366356 -0.33874,-3.594846 -0.33874,-3.802711 -0.33874,-3.983265 -0.33874,-4.12979 -0.33874,-4.235754 -0.33873,-4.295044 -0.33874,-4.302219 -0.33874,-4.252749 -0.33874,-4.143241 -0.33874,-3.971639 -0.33874,-3.737394 -0.33874,-3.44155 -0.33873,-3.08686 -0.33874,-2.67771 -0.33874,-2.22006 -0.33874,-1.72141 -0.33874,-1.19041 -0.33874,-0.63682 -0.33874,-0.071 -0.33874,0.49609 -0.33874,1.05374 -0.33873,1.59132 -0.33874,2.09893 -0.33874,2.56757 -0.33874,2.98947 -0.33874,3.35826 -0.33874,3.669129 -0.33874,3.918937 -0.33873,4.10621 -0.33874,4.231105 -0.33874,4.295316 -0.33874,4.301918 -0.33874,4.255177 -0.33874,4.160332 -0.33874,4.023347 -0.33874,3.850673 -0.33873,3.649005 -0.33874,3.425053 -0.33874,3.185342 -0.33874,2.936028 -0.33874,2.682768 -0.33874,2.430603 -0.33874,2.183888 -0.33874,1.946259 -0.33873,1.720621 -0.33874,1.509164 -0.33874,1.313418 -0.33874,1.134297 -0.33874,0.972176 -0.33874,0.826977 -0.33874,0.698236 -0.33874,0.585195 -0.33873,0.486868 -0.33874,0.402126 -0.33874,0.32974 -0.33874,0.268447 -0.33874,0.216992 -0.33874,0.174158 -0.33874,0.138793 -0.33874,0.109835 -0.33873,0.08631 -0.33874,0.06735 -0.33874,0.0522 -0.33874,0.04017 -0.33874,0.0307 -0.33874,0.02331 -0.33874,0.01757 -0.33874,0.01316 -0.33873,0.0098 -0.33874,0.0072 -0.33874,0.0053 -0.33874,0.0039 -0.33874,0.0028 -0.33874,0.002 -0.33874,0.0014 -0.33874,0.001 -0.33873,7.16e-4 -0.33874,5.02e-4 -0.33874,3.48e-4 -0.33874,2.41e-4 -0.33874,1.65e-4 -0.33874,1.13e-4 -0.33874,7.6e-5 -0.33874,5.1e-5 -0.33873,3.4e-5 -0.33874,2.3e-5 -0.33874,1.5e-5 -0.33874,9e-6 -0.33874,7e-6 -0.33874,4e-6 -0.33874,2e-6 -0.33874,2e-6 -0.33873,1e-6 -0.33874,10e-7 h -0.33874 l -0.33874,1e-6 h -0.33874 -0.33874 -0.33874 -0.33873 -0.33874 -0.33874 -0.33874 -0.33874 -0.33874 -0.33874 -0.33874 -0.33874 -0.33873 -0.33874 -0.33874 -0.33874 -0.33874 -0.33874 -0.33874 -0.33874 -0.33873 -0.33874 -0.33874 -0.33874 -0.33874 -0.33874 -0.33874 -0.33874 -0.33873 -0.33874 -0.33874 -0.33874 -0.33874 -0.33874 -0.33874 -0.33874 -0.33873 -0.33874 -0.33874 -0.33874 -0.33874 -0.33874 -0.33874 -0.33873 -0.33874 -0.33874 -0.33874 -0.33874 -0.33874 -0.33874 -0.33874 -0.33873 -0.33874 -0.33874 -0.33874 -0.33874 -0.33874 -0.33874 -0.33874 -0.33873 -0.33874 -0.33874 -0.33874 -0.33874 -0.33874 -0.33874 -0.33874 -0.33873 -0.33874 -0.33874 -0.33874 -0.33874 -0.33874 -0.33874 -0.33874 -0.33873 -0.33874 -0.33874 -0.33874 -0.33874 -0.33874 -0.33874 -0.33874 -0.33873 -0.33874 -0.33874 -0.33874 -0.33874 -0.33874 -0.33874 -0.33874 -0.33873 -0.33874 -0.33874 l -0.33874,-1e-6 h -0.33874 l -0.33874,-10e-7 -0.33874,-1e-6 -0.33874,-2e-6 -0.33873,-3e-6 -0.33874,-5e-6 -0.33874,-7e-6 -0.33874,-1.1e-5 -0.33874,-1.8e-5 -0.33874,-2.6e-5 -0.33874,-4e-5 -0.33874,-6.1e-5 -0.33873,-9e-5 -0.33874,-1.35e-4 -0.33874,-1.99e-4 -0.33874,-2.93e-4 -0.33874,-4.26e-4 -0.33874,-6.18e-4 -0.33874,-8.88e-4 -0.33874,-0.0013 -0.33873,-0.0018 -0.33874,-0.0025 -0.33874,-0.0036 -0.33874,-0.005 -0.33874,-0.0068 -0.33874,-0.0094 -0.33874,-0.0128 -0.33874,-0.01733 -0.33873,-0.0233 -0.33874,-0.03112 -0.33874,-0.04128 -0.33874,-0.05439 -0.33874,-0.07116 -0.33874,-0.09246 -0.33874,-0.119313 -0.33874,-0.152894 -0.33873,-0.194564 -0.33874,-0.245863 -0.33874,-0.308508 -0.33874,-0.384386 -0.33874,-0.475535 -0.33874,-0.58411 -0.33874,-0.712337 -0.33874,-0.862454 -0.33873,-1.036629 -0.33874,-1.236876 -0.33874,-1.464931 -0.33874,-1.722141 -0.33874,-2.009325 -0.33874,-2.326626 -0.33874,-2.673377 -0.33874,-3.047956 -0.33873,-3.44766 -0.33874,-3.868602 -0.33874,-4.305638 -0.33874,-4.752332 -0.33874,-5.200965 -0.33874,-5.642605 -0.33874,-6.067238 -0.33873,-6.463952 -0.33874,-6.821192 -0.33874,-7.12707 -0.33874,-7.36973 -0.33874,-7.53774 -0.33874,-7.62054 -0.33874,-7.60885 -0.33874,-7.4951 -0.33873,-7.27385 -0.33874,-6.94212 -0.33874,-6.4996 -0.33874,-5.94891 -0.33874,-5.29563 -0.33874,-4.54827 -0.33874,-3.7181 -0.33874,-2.81892 -0.33873,-1.86662 -0.33874,-0.8788 -0.33874,0.12584 -0.33874,1.12808 -0.33874,2.10874 -0.33874,3.04934 -0.33874,3.9327 -0.33874,4.74335 -0.33873,5.46816 -0.33874,6.09647 -0.33874,6.62052 -0.33874,7.03547 -0.33874,7.33946 -0.33874,7.53344 -0.33874,7.62107 -0.33874,7.60836 -0.33873,7.50334 -0.33874,7.315626 -0.33874,7.056069 -0.33874,6.73623 -0.33874,6.368015 -0.33874,5.963257 -0.33874,5.533382 -0.33874,5.089093 -0.33873,4.640154 -0.33874,4.1952 -0.33874,3.761635 -0.33874,3.345569 -0.33874,2.951831 -0.33874,2.584 -0.33874,2.244499 -0.33873,1.934698 -0.33874,1.65505 -0.33874,1.405228 -0.33874,1.184269 -0.33874,0.990717 -0.33874,0.822751 -0.33874,0.678316 -0.33874,0.555211 -0.33874,0.4512 -0.33873,0.364067 -0.33874,0.291682 -0.33874,0.232045 -0.33874,0.183308 -0.33874,0.143796 -0.33874,0.112018 -0.33874,0.08666 -0.33873,0.06658 -0.33874,0.0508 -0.33874,0.03849 -0.33874,0.02897 -0.33874,0.02165 -0.33874,0.01607 -0.33874,0.01185 -0.33874,0.0087 -0.33874,0.0063 -0.33873,0.0046 -0.33874,0.0033 -0.33874,0.0023 -0.33874,0.0017 -0.33874,0.0012 -0.33874,8.12e-4 -0.33874,5.63e-4 -0.33873,3.88e-4 -0.33874,2.66e-4 -0.33874,1.81e-4 -0.33874,1.22e-4 -0.33874,8.2e-5 -0.33874,5.4e-5 -0.33874,3.7e-5 -0.33874,2.4e-5 -0.33874,1.5e-5 -0.33873,10e-6 -0.33874,7e-6 -0.33874,4e-6 -0.33874,3e-6 -0.33874,1e-6 -0.33874,10e-7 -0.33874,1e-6 h -0.33873 l -0.33874,1e-6 h -0.33874 -0.33874 -0.33874 -0.33874 -0.33874 -0.33874 -0.33874 -0.33873 -0.33874 -0.33874 -0.33874 -0.33874 -0.33874 -0.33874 -0.33873 -0.33874 -0.33874 -0.33874 -0.33874 -0.33874 -0.33874 -0.33874 -0.33873 -0.33874 -0.33874 -0.33874 -0.33874 -0.33874 -0.33874 -0.33873 -0.33874 -0.33874 H 99.888288 99.54955 99.210811 98.872072 98.533333 98.194595 97.855856 97.517117 97.178378 96.83964 96.500901 96.162162 95.823423 95.484685 95.145946 94.807207 94.468468 94.12973 93.790991 93.452252 93.113514 92.774775 92.436036 92.097297 91.758559 91.41982 91.081081 90.742342 90.403604 90.064865 89.726126 89.387387 89.048649 88.70991 88.371171 88.032432 87.693694 87.354955 87.016216 86.677477 86.338739 86 85.661261 85.322523 84.983784 84.645045 84.306306 83.967568 83.628829 83.29009 82.951351 82.612613 82.273874 81.935135 81.596396 81.257658 80.918919 80.58018 80.241441 79.902703 79.563964 l -0.338739,-1e-6 h -0.338739 -0.338738 l -0.338739,-1e-6 -0.338739,-2e-6 -0.338738,-2e-6 -0.338739,-3e-6 -0.338739,-5e-6 -0.338739,-8e-6 -0.338738,-1.3e-5 -0.338739,-1.9e-5 -0.338739,-2.9e-5 -0.338739,-4.3e-5 -0.338738,-6.4e-5 -0.338739,-9.6e-5 -0.338739,-1.42e-4 -0.338739,-2.07e-4 -0.338738,-3.02e-4 -0.338739,-4.37e-4 -0.338739,-6.27e-4 -0.338739,-8.95e-4 -0.338738,-0.0013 -0.338739,-0.0018 -0.338739,-0.0025 -0.338739,-0.0035 -0.338738,-0.0048 -0.338739,-0.0065 -0.338739,-0.0089 -0.338738,-0.01205 -0.338739,-0.01617 -0.338739,-0.02156 -0.338739,-0.02855 -0.338738,-0.03755 -0.338739,-0.04905 -0.338739,-0.06362 -0.338739,-0.08195 -0.338738,-0.104837 -0.338739,-0.133176 -0.338739,-0.167993 -0.338739,-0.210425 -0.338738,-0.261716 -0.338739,-0.323199 -0.338739,-0.396282 -0.338739,-0.482405 -0.338738,-0.583006 -0.338739,-0.699467 -0.338739,-0.833046 -0.338738,-0.984812 -0.338739,-1.155554 -0.338739,-1.345702 -0.338739,-1.555225 -0.338738,-1.783548 -0.338739,-2.029457 -0.338739,-2.291021 -0.338739,-2.565536 -0.338738,-2.849475 -0.338739,-3.138476 -0.338739,-3.427358 -0.338739,-3.710174 -0.338738,-3.980307 -0.338739,-4.230596 -0.338739,-4.453512 -0.338739,-4.641368 -0.338738,-4.786557 -0.338739,-4.881819 -0.338739,-4.920518 -0.338739,-4.896921 -0.338738,-4.806464 -0.338739,-4.64603 -0.338739,-4.41408 -0.338738,-4.1109 -0.338739,-3.73866 -0.338739,-3.30143 -0.338739,-2.80516 -0.338738,-2.25754 -0.338739,-1.66784 -0.338739,-1.04664 -0.338739,-0.40546 -0.338738,0.24347 -0.338739,0.88775 -0.338739,1.51506 -0.338739,2.11367 -0.338738,2.67272 -0.338739,3.18263 -0.338739,3.63524 -0.338739,4.0242 -0.338738,4.34491 -0.338739,4.59476 -0.338739,4.773004 -0.338739,4.880725 -0.338738,4.920659 -0.338739,4.897038 -0.338739,4.815325 -0.338738,4.681957 -0.338739,4.504063 -0.338739,4.289191 -0.338739,4.045029 -0.338738,3.779168 -0.338739,3.498878 -0.338739,3.210927 -0.338739,2.92144 -0.338738,2.635794 -0.338739,2.358559 -0.338739,2.093472 -0.338739,1.843439 -0.338738,1.610579 -0.338739,1.396279 -0.338739,1.201264 -0.338739,1.025695 -0.338738,0.869246 -0.338739,0.731212 -0.338739,0.610583 -0.338739,0.506142 -0.338738,0.416533 -0.338739,0.340327 -0.338739,0.276077 -0.338738,0.222367 -0.338739,0.17784 -0.338739,0.141231 -0.338739,0.111371 -0.338738,0.08721 -0.338739,0.06782 -0.338739,0.05238 -0.338739,0.04017 -0.338738,0.0306 -0.338739,0.02315 -0.338739,0.01739 -0.338739,0.01298 -0.338738,0.0096 -0.338739,0.0071 -0.338739,0.0052 -0.338739,0.0038 -0.338738,0.0027 -0.338739,0.0019 -0.338739,0.0014 -0.338739,9.77e-4 -0.338738,6.86e-4 -0.338739,4.78e-4 -0.338739,3.31e-4 -0.338738,2.28e-4 -0.338739,1.56e-4 -0.338739,1.06e-4 -0.338739,7.1e-5 -0.338738,4.8e-5 -0.338739,3.2e-5 -0.338739,2.1e-5 -0.338739,1.4e-5 -0.338738,9e-6 -0.338739,6e-6 -0.338739,4e-6 -0.338739,2e-6 -0.338738,1e-6 -0.338739,1e-6 -0.338739,10e-7 h -0.338739 l -0.338738,1e-6 H 26.381982 26.043243 25.704505 25.365766 25.027027 24.688288 24.34955 24.010811 23.672072 23.333333 22.994595 22.655856 22.317117 21.978378 21.63964 21.300901 20.962162 20.623423 20.284685 19.945946 19.607207 19.268468 18.92973 18.590991 18.252252 17.913514 17.574775 17.236036 16.897297 16.558559 16.21982 15.881081 15.542342 15.203604 14.864865 14.526126 14.187387 13.848649 13.50991 13.171171 12.832432 12.493694 12.154955 11.816216 11.477477 11.138739 Z"
             id="mec7a9c1591"
             style="stroke:#2ca02c;stroke-width:2;stroke-opacity:0.2" />
        </defs>
        <g
           clip-path="url(#pf373ee72f1)"
           id="g16">
          <use
             style="fill:#2ca02c;fill-opacity:0.2;stroke:#2ca02c;stroke-width:2;stroke-opacity:0.2"
             x="0"
             xlink:href="#mec7a9c1591"
             y="216"
             id="use14"
             width="100%"
             height="100%" />
        </g>
      </g>
      <g
         id="matplotlib.axis_1"
         transform="translate(0,-19.5)">
        <g
           id="xtick_1">
          <g
             id="line2d_1">
            <defs
               id="defs20">
              <path
                 d="M 0,0 V 3.5"
                 id="m3d10f655d3"
                 style="stroke:#000000;stroke-width:0.8" />
            </defs>
            <g
               id="g24">
              <use
                 style="stroke:#000000;stroke-width:0.8"
                 x="53.099998"
                 xlink:href="#m3d10f655d3"
                 y="188.2"
                 id="use22"
                 width="100%"
                 height="100%" />
            </g>
          </g>
          <g
             id="text_1">
            <!-- 0 -->
            <g
               transform="matrix(0.1,0,0,-0.1,49.91875,202.79844)"
               id="g32">
              <defs
                 id="defs28">
                <path
                   d="m 31.78125,66.40625 q -7.609375,0 -11.453125,-7.5 Q 16.5,51.421875 16.5,36.375 q 0,-14.984375 3.828125,-22.484375 3.84375,-7.5 11.453125,-7.5 7.671875,0 11.5,7.5 3.84375,7.5 3.84375,22.484375 0,15.046875 -3.84375,22.53125 -3.828125,7.5 -11.5,7.5 z m 0,7.8125 q 12.265625,0 18.734375,-9.703125 6.46875,-9.6875 6.46875,-28.140625 0,-18.40625 -6.46875,-28.109375 -6.46875,-9.6875 -18.734375,-9.6875 -12.25,0 -18.71875,9.6875 Q 6.59375,17.96875 6.59375,36.375 q 0,18.453125 6.46875,28.140625 6.46875,9.703125 18.71875,9.703125 z"
                   id="DejaVuSans-48" />
              </defs>
              <use
                 xlink:href="#DejaVuSans-48"
                 id="use30"
                 x="0"
                 y="0"
                 width="100%"
                 height="100%" />
            </g>
          </g>
        </g>
        <g
           id="xtick_2">
          <g
             id="line2d_2">
            <g
               id="g38">
              <use
                 style="stroke:#000000;stroke-width:0.8"
                 x="137.7"
                 xlink:href="#m3d10f655d3"
                 y="188.2"
                 id="use36"
                 width="100%"
                 height="100%" />
            </g>
          </g>
          <g
             id="text_2">
            <!-- 1 -->
            <g
               transform="matrix(0.1,0,0,-0.1,134.51875,202.79844)"
               id="g46">
              <defs
                 id="defs42">
                <path
                   d="m 12.40625,8.296875 h 16.109375 v 55.625 L 10.984375,60.40625 v 8.984375 l 17.4375,3.515625 H 38.28125 V 8.296875 H 54.390625 V 0 H 12.40625 Z"
                   id="DejaVuSans-49" />
              </defs>
              <use
                 xlink:href="#DejaVuSans-49"
                 id="use44"
                 x="0"
                 y="0"
                 width="100%"
                 height="100%" />
            </g>
          </g>
        </g>
        <g
           id="xtick_3">
          <g
             id="line2d_3">
            <g
               id="g52">
              <use
                 style="stroke:#000000;stroke-width:0.8"
                 x="222.3"
                 xlink:href="#m3d10f655d3"
                 y="188.2"
                 id="use50"
                 width="100%"
                 height="100%" />
            </g>
          </g>
          <g
             id="text_3">
            <!-- 2 -->
            <g
               transform="matrix(0.1,0,0,-0.1,219.11875,202.79844)"
               id="g60">
              <defs
                 id="defs56">
                <path
                   d="M 19.1875,8.296875 H 53.609375 V 0 H 7.328125 v 8.296875 q 5.609375,5.8125 15.296875,15.59375 9.703125,9.796875 12.1875,12.640625 4.734375,5.3125 6.609375,9 1.890625,3.6875 1.890625,7.25 0,5.8125 -4.078125,9.46875 -4.078125,3.671875 -10.625,3.671875 -4.640625,0 -9.796875,-1.609375 -5.140625,-1.609375 -11,-4.890625 v 9.96875 Q 13.765625,71.78125 18.9375,73 q 5.1875,1.21875 9.484375,1.21875 11.328125,0 18.0625,-5.671875 6.734375,-5.65625 6.734375,-15.125 0,-4.5 -1.6875,-8.53125 Q 49.859375,40.875 45.40625,35.40625 44.1875,33.984375 37.640625,27.21875 31.109375,20.453125 19.1875,8.296875 Z"
                   id="DejaVuSans-50" />
              </defs>
              <use
                 xlink:href="#DejaVuSans-50"
                 id="use58"
                 x="0"
                 y="0"
                 width="100%"
                 height="100%" />
            </g>
          </g>
        </g>
        <g
           id="xtick_4">
          <g
             id="line2d_4">
            <g
               id="g66">
              <use
                 style="stroke:#000000;stroke-width:0.8"
                 x="306.89999"
                 xlink:href="#m3d10f655d3"
                 y="188.2"
                 id="use64"
                 width="100%"
                 height="100%" />
            </g>
          </g>
          <g
             id="text_4">
            <!-- 3 -->
            <g
               transform="matrix(0.1,0,0,-0.1,303.71875,202.79844)"
               id="g74">
              <defs
                 id="defs70">
                <path
                   d="M 40.578125,39.3125 Q 47.65625,37.796875 51.625,33 q 3.984375,-4.78125 3.984375,-11.8125 0,-10.78125 -7.421875,-16.703125 -7.421875,-5.90625 -21.09375,-5.90625 -4.578125,0 -9.4375,0.90625 -4.859375,0.90625 -10.03125,2.71875 v 9.515625 q 4.09375,-2.390625 8.96875,-3.609375 4.890625,-1.21875 10.21875,-1.21875 9.265625,0 14.125,3.65625 4.859375,3.65625 4.859375,10.640625 0,6.453125 -4.515625,10.078125 -4.515625,3.640625 -12.5625,3.640625 h -8.5 v 8.109375 h 8.890625 q 7.265625,0 11.125,2.90625 3.859375,2.90625 3.859375,8.375 0,5.609375 -3.984375,8.609375 -3.96875,3.015625 -11.390625,3.015625 -4.0625,0 -8.703125,-0.890625 Q 15.375,64.15625 9.8125,62.3125 v 8.78125 q 5.625,1.5625 10.53125,2.34375 4.90625,0.78125 9.25,0.78125 11.234375,0 17.765625,-5.109375 6.546875,-5.09375 6.546875,-13.78125 0,-6.0625 -3.46875,-10.234375 -3.46875,-4.171875 -9.859375,-5.78125 z"
                   id="DejaVuSans-51" />
              </defs>
              <use
                 xlink:href="#DejaVuSans-51"
                 id="use72"
                 x="0"
                 y="0"
                 width="100%"
                 height="100%" />
            </g>
          </g>
        </g>
      </g>
      <g
         id="line2d_5"
         transform="translate(0,-19.5)">
        <path
           clip-path="url(#pf373ee72f1)"
           d="m 10.8,188.2 26.421622,-0.0883 1.354955,-0.19097 1.016216,-0.33981 0.677477,-0.40021 0.677478,-0.61641 0.677477,-0.92267 0.677478,-1.3418 0.677477,-1.89494 0.677478,-2.59754 0.677477,-3.45402 0.677478,-4.45203 1.016216,-8.76816 1.016216,-11.32307 1.354955,-18.29054 2.032432,-28.4111 1.016217,-10.842066 0.677477,-4.786397 0.338739,-1.515059 0.338739,-0.887744 0.338738,-0.243474 0.338739,0.405464 0.338739,1.046634 0.338739,1.667844 0.677477,5.062697 0.677478,7.040091 1.016216,13.17101 2.70991,37.61776 1.016216,11.11784 1.016216,8.55349 0.677478,4.32047 0.677477,3.33878 0.677478,2.50125 0.677477,1.81786 0.677477,1.28247 0.677478,0.87869 0.677477,0.58491 1.016217,0.5116 1.016216,0.25041 1.693694,0.15288 4.064864,0.0436 47.423425,-0.0795 1.35495,-0.18483 1.01622,-0.34248 0.67748,-0.41535 0.67747,-0.65575 0.67748,-1.00641 0.67748,-1.50107 0.67748,-2.17498 0.67748,-3.06028 0.67747,-4.1792 0.67748,-5.53583 0.67748,-7.1072 1.01621,-13.92445 1.01622,-17.86465 1.35495,-28.61127 2.03244,-43.758324 1.01621,-16.307981 0.67748,-6.982037 0.33874,-2.108737 0.33874,-1.128078 0.33874,-0.125845 0.33874,0.878801 0.33873,1.866622 0.67748,6.537018 0.67748,9.843901 1.01622,19.390625 3.38738,71.385265 1.01622,15.59591 1.01621,11.6219 0.67748,5.72133 0.67748,4.33595 0.67748,3.18707 0.67747,2.27351 0.67748,1.57479 0.67748,1.05964 0.67748,0.6929 0.67747,0.44042 1.01622,0.36467 1.35496,0.19795 2.70991,0.0807 21.67928,0.006 28.11531,-0.0898 1.35496,-0.19043 1.01621,-0.33494 0.67748,-0.39115 0.67748,-0.59818 0.67747,-0.889 0.67748,-1.28343 0.67748,-1.79915 0.67748,-2.44772 0.67747,-3.22978 0.67748,-4.13015 1.01622,-8.0494 1.01621,-10.2594 1.35496,-16.28953 2.03243,-24.52261 0.67748,-6.34772 0.67748,-4.6665 0.33873,-1.59133 0.33874,-1.05374 0.33874,-0.496094 0.33874,0.07104 0.33874,0.636824 0.33874,1.19041 0.67748,3.94147 0.67747,5.76457 1.01622,11.15058 3.38739,40.10598 1.01621,8.616 1.01622,6.38039 0.67748,3.12506 0.67747,2.35923 0.67748,1.72757 0.67748,1.22782 0.67748,0.84737 0.67747,0.56814 1.01622,0.50117 1.01622,0.24789 1.69369,0.15327 4.06487,0.0445 47.76216,-0.0748 1.35495,-0.17089 1.01622,-0.31301 0.67748,-0.37647 0.67747,-0.59017 0.67748,-0.89935 0.67748,-1.33177 0.67748,-1.91564 0.67747,-2.67546 0.67748,-3.62615 0.67748,-4.76626 0.67748,-6.0707 1.01621,-11.76913 1.01622,-14.90135 1.69369,-29.60472 1.35496,-23.454367 1.01621,-13.938743 0.67748,-6.328372 0.33874,-2.084805 0.33874,-1.308292 0.33874,-0.50683 0.33874,0.304342 0.33874,1.10968 0.33873,1.893823 0.67748,5.982998 0.67748,8.522338 1.01621,16.20483 3.04865,52.258748 1.01622,13.11122 1.01622,9.89474 0.67747,4.92114 0.67748,3.75857 0.67748,2.7837 0.67748,2.00057 0.67747,1.3959 0.67748,0.94608 0.67748,0.62306 1.01621,0.53805 1.01622,0.25926 1.6937,0.15535 4.06486,0.0429 L 349.2,188.2 v 0"
           style="fill:none;stroke:#2ca02c;stroke-width:2;stroke-linecap:square;stroke-opacity:0.5"
           id="path79" />
      </g>
      <g
         id="line2d_6"
         transform="translate(0,-19.5)">
        <path
           clip-path="url(#pf373ee72f1)"
           d="M 53.1,188.2 V 162.85714"
           style="fill:none;stroke:#222222;stroke-width:3;stroke-linecap:square"
           id="path82" />
      </g>
      <g
         id="line2d_7"
         transform="translate(0,-19.5)">
        <path
           clip-path="url(#pf373ee72f1)"
           d="M 53.1,162.85714"
           style="fill:none;stroke:#000000;stroke-width:2;stroke-linecap:square"
           id="path85" />
        <defs
           id="defs88">
          <path
             d="M 0,6 C 1.591219,6 3.117479,5.367802 4.242641,4.242641 5.367802,3.117479 6,1.591219 6,0 6,-1.591219 5.367802,-3.117479 4.242641,-4.242641 3.117479,-5.367802 1.591219,-6 0,-6 -1.591219,-6 -3.117479,-5.367802 -4.242641,-4.242641 -5.367802,-3.117479 -6,-1.591219 -6,0 -6,1.591219 -5.367802,3.117479 -4.242641,4.242641 -3.117479,5.367802 -1.591219,6 0,6 Z"
             id="m2c02273169"
             style="stroke:#000000" />
        </defs>
        <g
           clip-path="url(#pf373ee72f1)"
           id="g92">
          <use
             style="fill:#999999;stroke:#000000"
             x="53.099998"
             xlink:href="#m2c02273169"
             y="162.85715"
             id="use90"
             width="100%"
             height="100%" />
        </g>
      </g>
      <g
         id="line2d_8"
         transform="translate(0,-19.5)">
        <path
           clip-path="url(#pf373ee72f1)"
           d="M 137.7,188.2 V 137.51429"
           style="fill:none;stroke:#222222;stroke-width:3;stroke-linecap:square"
           id="path95" />
      </g>
      <g
         id="line2d_9"
         transform="translate(0,-19.5)">
        <path
           clip-path="url(#pf373ee72f1)"
           d="M 137.7,137.51429"
           style="fill:none;stroke:#000000;stroke-width:2;stroke-linecap:square"
           id="path98" />
        <g
           clip-path="url(#pf373ee72f1)"
           id="g102">
          <use
             style="fill:#999999;stroke:#000000"
             x="137.7"
             xlink:href="#m2c02273169"
             y="137.51428"
             id="use100"
             width="100%"
             height="100%" />
        </g>
      </g>
      <g
         id="line2d_10"
         transform="translate(0,-19.5)">
        <path
           clip-path="url(#pf373ee72f1)"
           d="M 222.3,188.2 V 175.52857"
           style="fill:none;stroke:#222222;stroke-width:3;stroke-linecap:square"
           id="path105" />
      </g>
      <g
         id="line2d_11"
         transform="translate(0,-19.5)">
        <path
           clip-path="url(#pf373ee72f1)"
           d="M 222.3,175.52857"
           style="fill:none;stroke:#000000;stroke-width:2;stroke-linecap:square"
           id="path108" />
        <g
           clip-path="url(#pf373ee72f1)"
           id="g112">
          <use
             style="fill:#999999;stroke:#000000"
             x="222.3"
             xlink:href="#m2c02273169"
             y="175.52856"
             id="use110"
             width="100%"
             height="100%" />
        </g>
      </g>
      <g
         id="line2d_12"
         transform="translate(0,-19.5)">
        <path
           clip-path="url(#pf373ee72f1)"
           d="M 306.9,188.2 V 137.51429"
           style="fill:none;stroke:#222222;stroke-width:3;stroke-linecap:square"
           id="path115" />
      </g>
      <g
         id="line2d_13"
         transform="translate(0,-19.5)">
        <path
           clip-path="url(#pf373ee72f1)"
           d="M 306.9,137.51429"
           style="fill:none;stroke:#000000;stroke-width:2;stroke-linecap:square"
           id="path118" />
        <g
           clip-path="url(#pf373ee72f1)"
           id="g122">
          <use
             style="fill:#999999;stroke:#000000"
             x="306.89999"
             xlink:href="#m2c02273169"
             y="137.51428"
             id="use120"
             width="100%"
             height="100%" />
        </g>
      </g>
      <g
         id="patch_2"
         transform="translate(0,-19.5)">
        <path
           d="M 10.8,188.2 H 349.2"
           style="fill:none;stroke:#000000;stroke-width:0.8;stroke-linecap:square;stroke-linejoin:miter"
           id="path125" />
      </g>
    </g>
  </g>
  <defs
     id="defs133">
    <clipPath
       id="pf373ee72f1">
      <rect
         height="177.39999"
         width="338.39999"
         x="10.8"
         y="10.8"
         id="rect130" />
    </clipPath>
  </defs>
</svg>
